<svg xmlns="http://www.w3.org/2000/svg" width="1200" height="560" viewBox="0 0 1200 560">
  <rect width="1200" height="560" fill="#07162c"/>
  <text x="40" y="50" fill="#f4f7fb" font-size="28" font-family="Segoe UI, Arial">Figure 4. Latency Across Baseline and FBA Windows</text>
  <line x1="100" y1="470" x2="1120" y2="470" stroke="#8fb6dc" stroke-width="3"/>
  <line x1="100" y1="100" x2="100" y2="470" stroke="#8fb6dc" stroke-width="3"/>
  <g fill="#8fb6dc" font-size="18" font-family="Segoe UI, Arial">
    <text x="36" y="110">500</text>
    <text x="36" y="200">375</text>
    <text x="36" y="290">250</text>
    <text x="36" y="380">125</text>
    <text x="52" y="475">0</text>
  </g>
  <g>
    <rect x="170" y="466" width="24" height="4" rx="6" fill="#67d5ff"/>
    <rect x="198" y="464" width="24" height="6" rx="6" fill="#77e19d"/>
    <rect x="226" y="464" width="24" height="6" rx="6" fill="#ffd166"/>
    <rect x="430" y="411" width="24" height="59" rx="6" fill="#67d5ff"/>
    <rect x="458" y="411" width="24" height="59" rx="6" fill="#77e19d"/>
    <rect x="486" y="411" width="24" height="59" rx="6" fill="#ffd166"/>
    <rect x="690" y="300" width="24" height="170" rx="6" fill="#67d5ff"/>
    <rect x="718" y="300" width="24" height="170" rx="6" fill="#77e19d"/>
    <rect x="746" y="300" width="24" height="170" rx="6" fill="#ffd166"/>
    <rect x="950" y="115" width="24" height="355" rx="6" fill="#67d5ff"/>
    <rect x="978" y="115" width="24" height="355" rx="6" fill="#77e19d"/>
    <rect x="1006" y="115" width="24" height="355" rx="6" fill="#ffd166"/>
  </g>
  <g fill="#f4f7fb" font-size="20" font-family="Segoe UI, Arial" text-anchor="middle">
    <text x="210" y="505">Immediate</text>
    <text x="470" y="505">FBA-100ms</text>
    <text x="730" y="505">FBA-250ms</text>
    <text x="990" y="505">FBA-500ms</text>
  </g>
  <g fill="#d9ecff" font-size="16" font-family="Consolas, monospace">
    <text x="160" y="450">1.71 / 2.76 / 2.76</text>
    <text x="420" y="392">80.35 / 80.35 / 80.35</text>
    <text x="680" y="282">230.39 / 230.39 / 230.39</text>
    <text x="940" y="97">479.96 / 479.96 / 479.96</text>
  </g>
  <g fill="#f4f7fb" font-size="18" font-family="Segoe UI, Arial">
    <rect x="810" y="60" width="18" height="18" fill="#67d5ff"/><text x="835" y="75">p50</text>
    <rect x="900" y="60" width="18" height="18" fill="#77e19d"/><text x="925" y="75">p95</text>
    <rect x="990" y="60" width="18" height="18" fill="#ffd166"/><text x="1015" y="75">p99</text>
  </g>
</svg>
