<svg xmlns="http://www.w3.org/2000/svg" width="980" height="540" viewBox="0 0 980 540" role="img">
<style>.title{font:700 20px Arial; fill:#f3f7ff;}.label{font:12px Arial; fill:#cbd8f0;}.value{font:11px Arial; fill:#eef5ff;}.axis{stroke:#4d6387; stroke-width:1;}.grid{stroke:#20324d; stroke-width:1; opacity:.8;}.legend{font:12px Arial; fill:#d7e7ff;}.bg{fill:#071423;}.err{stroke:#dbeafe; stroke-width:1.5;}</style>
<rect class="bg" x="0" y="0" width="980" height="540" rx="18"/>
<text class="title" x="90" y="38">Prioritized Double-DQN Held-Out Learning Curve</text>
<text class="label" x="90" y="520">Held-out welfare gap / scaled p99</text>
<line class="grid" x1="90" y1="70.0" x2="940" y2="70.0"/>
<text class="label" x="12" y="74.0">4</text>
<line class="grid" x1="90" y1="146.0" x2="940" y2="146.0"/>
<text class="label" x="12" y="150.0">3</text>
<line class="grid" x1="90" y1="222.0" x2="940" y2="222.0"/>
<text class="label" x="12" y="226.0">3</text>
<line class="grid" x1="90" y1="298.0" x2="940" y2="298.0"/>
<text class="label" x="12" y="302.0">2</text>
<line class="grid" x1="90" y1="374.0" x2="940" y2="374.0"/>
<text class="label" x="12" y="378.0">1</text>
<line class="grid" x1="90" y1="450.0" x2="940" y2="450.0"/>
<text class="label" x="12" y="454.0">0</text>
<line class="axis" x1="90" y1="70" x2="90" y2="450"/>
<line class="axis" x1="90" y1="450" x2="940" y2="450"/>
<text class="label" x="90.0" y="478" text-anchor="middle">Ep 0</text>
<text class="label" x="175.0" y="478" text-anchor="middle">Ep 20</text>
<text class="label" x="260.0" y="478" text-anchor="middle">Ep 40</text>
<text class="label" x="345.0" y="478" text-anchor="middle">Ep 60</text>
<text class="label" x="430.0" y="478" text-anchor="middle">Ep 80</text>
<text class="label" x="515.0" y="478" text-anchor="middle">Ep 100</text>
<text class="label" x="600.0" y="478" text-anchor="middle">Ep 120</text>
<text class="label" x="685.0" y="478" text-anchor="middle">Ep 140</text>
<text class="label" x="770.0" y="478" text-anchor="middle">Ep 160</text>
<text class="label" x="855.0" y="478" text-anchor="middle">Ep 180</text>
<text class="label" x="940.0" y="478" text-anchor="middle">Ep 200</text>
<polyline fill="none" stroke="#f472b6" stroke-width="4" points="90.0,166.4 175.0,226.5 260.0,226.5 345.0,226.5 430.0,303.6 515.0,226.5 600.0,296.0 685.0,303.6 770.0,226.0 855.0,226.0 940.0,224.2"/>
<line class="err" x1="90.0" y1="110.7" x2="90.0" y2="222.0"/>
<line class="err" x1="83.0" y1="110.7" x2="97.0" y2="110.7"/>
<line class="err" x1="83.0" y1="222.0" x2="97.0" y2="222.0"/>
<circle cx="90.0" cy="166.4" r="5" fill="#f472b6"/>
<text class="value" x="90.0" y="100.7" text-anchor="middle">3.3</text>
<line class="err" x1="175.0" y1="181.2" x2="175.0" y2="271.9"/>
<line class="err" x1="168.0" y1="181.2" x2="182.0" y2="181.2"/>
<line class="err" x1="168.0" y1="271.9" x2="182.0" y2="271.9"/>
<circle cx="175.0" cy="226.5" r="5" fill="#f472b6"/>
<text class="value" x="175.0" y="171.2" text-anchor="middle">2.6</text>
<line class="err" x1="260.0" y1="181.2" x2="260.0" y2="271.9"/>
<line class="err" x1="253.0" y1="181.2" x2="267.0" y2="181.2"/>
<line class="err" x1="253.0" y1="271.9" x2="267.0" y2="271.9"/>
<circle cx="260.0" cy="226.5" r="5" fill="#f472b6"/>
<text class="value" x="260.0" y="171.2" text-anchor="middle">2.6</text>
<line class="err" x1="345.0" y1="181.2" x2="345.0" y2="271.9"/>
<line class="err" x1="338.0" y1="181.2" x2="352.0" y2="181.2"/>
<line class="err" x1="338.0" y1="271.9" x2="352.0" y2="271.9"/>
<circle cx="345.0" cy="226.5" r="5" fill="#f472b6"/>
<text class="value" x="345.0" y="171.2" text-anchor="middle">2.6</text>
<line class="err" x1="430.0" y1="266.8" x2="430.0" y2="340.3"/>
<line class="err" x1="423.0" y1="266.8" x2="437.0" y2="266.8"/>
<line class="err" x1="423.0" y1="340.3" x2="437.0" y2="340.3"/>
<circle cx="430.0" cy="303.6" r="5" fill="#f472b6"/>
<text class="value" x="430.0" y="256.8" text-anchor="middle">1.7</text>
<line class="err" x1="515.0" y1="181.2" x2="515.0" y2="271.9"/>
<line class="err" x1="508.0" y1="181.2" x2="522.0" y2="181.2"/>
<line class="err" x1="508.0" y1="271.9" x2="522.0" y2="271.9"/>
<circle cx="515.0" cy="226.5" r="5" fill="#f472b6"/>
<text class="value" x="515.0" y="171.2" text-anchor="middle">2.6</text>
<line class="err" x1="600.0" y1="257.3" x2="600.0" y2="334.7"/>
<line class="err" x1="593.0" y1="257.3" x2="607.0" y2="257.3"/>
<line class="err" x1="593.0" y1="334.7" x2="607.0" y2="334.7"/>
<circle cx="600.0" cy="296.0" r="5" fill="#f472b6"/>
<text class="value" x="600.0" y="247.3" text-anchor="middle">1.8</text>
<line class="err" x1="685.0" y1="266.8" x2="685.0" y2="340.3"/>
<line class="err" x1="678.0" y1="266.8" x2="692.0" y2="266.8"/>
<line class="err" x1="678.0" y1="340.3" x2="692.0" y2="340.3"/>
<circle cx="685.0" cy="303.6" r="5" fill="#f472b6"/>
<text class="value" x="685.0" y="256.8" text-anchor="middle">1.7</text>
<line class="err" x1="770.0" y1="180.8" x2="770.0" y2="271.2"/>
<line class="err" x1="763.0" y1="180.8" x2="777.0" y2="180.8"/>
<line class="err" x1="763.0" y1="271.2" x2="777.0" y2="271.2"/>
<circle cx="770.0" cy="226.0" r="5" fill="#f472b6"/>
<text class="value" x="770.0" y="170.8" text-anchor="middle">2.6</text>
<line class="err" x1="855.0" y1="180.8" x2="855.0" y2="271.2"/>
<line class="err" x1="848.0" y1="180.8" x2="862.0" y2="180.8"/>
<line class="err" x1="848.0" y1="271.2" x2="862.0" y2="271.2"/>
<circle cx="855.0" cy="226.0" r="5" fill="#f472b6"/>
<text class="value" x="855.0" y="170.8" text-anchor="middle">2.6</text>
<line class="err" x1="940.0" y1="178.1" x2="940.0" y2="270.3"/>
<line class="err" x1="933.0" y1="178.1" x2="947.0" y2="178.1"/>
<line class="err" x1="933.0" y1="270.3" x2="947.0" y2="270.3"/>
<circle cx="940.0" cy="224.2" r="5" fill="#f472b6"/>
<text class="value" x="940.0" y="168.1" text-anchor="middle">2.6</text>
<line x1="730" y1="28" x2="746" y2="28" stroke="#f472b6" stroke-width="4"/>
<text class="legend" x="754" y="34">Held-out Welfare Gap</text>
<polyline fill="none" stroke="#34d399" stroke-width="4" points="90.0,157.1 175.0,307.9 260.0,307.9 345.0,307.9 430.0,295.4 515.0,307.9 600.0,287.2 685.0,295.4 770.0,308.5 855.0,308.5 940.0,309.0"/>
<line class="err" x1="90.0" y1="124.6" x2="90.0" y2="189.6"/>
<line class="err" x1="83.0" y1="124.6" x2="97.0" y2="124.6"/>
<line class="err" x1="83.0" y1="189.6" x2="97.0" y2="189.6"/>
<circle cx="90.0" cy="157.1" r="5" fill="#34d399"/>
<text class="value" x="90.0" y="114.6" text-anchor="middle">3.4</text>
<line class="err" x1="175.0" y1="295.8" x2="175.0" y2="320.1"/>
<line class="err" x1="168.0" y1="295.8" x2="182.0" y2="295.8"/>
<line class="err" x1="168.0" y1="320.1" x2="182.0" y2="320.1"/>
<circle cx="175.0" cy="307.9" r="5" fill="#34d399"/>
<text class="value" x="175.0" y="285.8" text-anchor="middle">1.6</text>
<line class="err" x1="260.0" y1="295.8" x2="260.0" y2="320.1"/>
<line class="err" x1="253.0" y1="295.8" x2="267.0" y2="295.8"/>
<line class="err" x1="253.0" y1="320.1" x2="267.0" y2="320.1"/>
<circle cx="260.0" cy="307.9" r="5" fill="#34d399"/>
<text class="value" x="260.0" y="285.8" text-anchor="middle">1.6</text>
<line class="err" x1="345.0" y1="295.8" x2="345.0" y2="320.1"/>
<line class="err" x1="338.0" y1="295.8" x2="352.0" y2="295.8"/>
<line class="err" x1="338.0" y1="320.1" x2="352.0" y2="320.1"/>
<circle cx="345.0" cy="307.9" r="5" fill="#34d399"/>
<text class="value" x="345.0" y="285.8" text-anchor="middle">1.6</text>
<line class="err" x1="430.0" y1="276.4" x2="430.0" y2="314.5"/>
<line class="err" x1="423.0" y1="276.4" x2="437.0" y2="276.4"/>
<line class="err" x1="423.0" y1="314.5" x2="437.0" y2="314.5"/>
<circle cx="430.0" cy="295.4" r="5" fill="#34d399"/>
<text class="value" x="430.0" y="266.4" text-anchor="middle">1.8</text>
<line class="err" x1="515.0" y1="295.8" x2="515.0" y2="320.1"/>
<line class="err" x1="508.0" y1="295.8" x2="522.0" y2="295.8"/>
<line class="err" x1="508.0" y1="320.1" x2="522.0" y2="320.1"/>
<circle cx="515.0" cy="307.9" r="5" fill="#34d399"/>
<text class="value" x="515.0" y="285.8" text-anchor="middle">1.6</text>
<line class="err" x1="600.0" y1="263.0" x2="600.0" y2="311.5"/>
<line class="err" x1="593.0" y1="263.0" x2="607.0" y2="263.0"/>
<line class="err" x1="593.0" y1="311.5" x2="607.0" y2="311.5"/>
<circle cx="600.0" cy="287.2" r="5" fill="#34d399"/>
<text class="value" x="600.0" y="253.0" text-anchor="middle">1.9</text>
<line class="err" x1="685.0" y1="276.4" x2="685.0" y2="314.5"/>
<line class="err" x1="678.0" y1="276.4" x2="692.0" y2="276.4"/>
<line class="err" x1="678.0" y1="314.5" x2="692.0" y2="314.5"/>
<circle cx="685.0" cy="295.4" r="5" fill="#34d399"/>
<text class="value" x="685.0" y="266.4" text-anchor="middle">1.8</text>
<line class="err" x1="770.0" y1="295.4" x2="770.0" y2="321.6"/>
<line class="err" x1="763.0" y1="295.4" x2="777.0" y2="295.4"/>
<line class="err" x1="763.0" y1="321.6" x2="777.0" y2="321.6"/>
<circle cx="770.0" cy="308.5" r="5" fill="#34d399"/>
<text class="value" x="770.0" y="285.4" text-anchor="middle">1.6</text>
<line class="err" x1="855.0" y1="295.4" x2="855.0" y2="321.6"/>
<line class="err" x1="848.0" y1="295.4" x2="862.0" y2="295.4"/>
<line class="err" x1="848.0" y1="321.6" x2="862.0" y2="321.6"/>
<circle cx="855.0" cy="308.5" r="5" fill="#34d399"/>
<text class="value" x="855.0" y="285.4" text-anchor="middle">1.6</text>
<line class="err" x1="940.0" y1="296.1" x2="940.0" y2="321.9"/>
<line class="err" x1="933.0" y1="296.1" x2="947.0" y2="296.1"/>
<line class="err" x1="933.0" y1="321.9" x2="947.0" y2="321.9"/>
<circle cx="940.0" cy="309.0" r="5" fill="#34d399"/>
<text class="value" x="940.0" y="286.1" text-anchor="middle">1.6</text>
<line x1="730" y1="50" x2="746" y2="50" stroke="#34d399" stroke-width="4"/>
<text class="legend" x="754" y="56">Held-out p99 / 100</text>
</svg>
