<svg xmlns="http://www.w3.org/2000/svg" width="980" height="540" viewBox="0 0 980 540" role="img">
<style>.title{font:700 20px Arial; fill:#f3f7ff;}.label{font:12px Arial; fill:#cbd8f0;}.value{font:11px Arial; fill:#eef5ff;}.axis{stroke:#4d6387; stroke-width:1;}.grid{stroke:#20324d; stroke-width:1; opacity:.8;}.legend{font:12px Arial; fill:#d7e7ff;}.bg{fill:#071423;}.err{stroke:#dbeafe; stroke-width:1.5;}</style>
<rect class="bg" x="0" y="0" width="980" height="540" rx="18"/>
<text class="title" x="90" y="38">Fairness Proxy Comparison (95% CI)</text>
<text class="label" x="90" y="520">Scaled proxy value</text>
<line class="grid" x1="90" y1="70.0" x2="940" y2="70.0"/>
<text class="label" x="12" y="74.0">256.8</text>
<line class="grid" x1="90" y1="146.0" x2="940" y2="146.0"/>
<text class="label" x="12" y="150.0">205.4</text>
<line class="grid" x1="90" y1="222.0" x2="940" y2="222.0"/>
<text class="label" x="12" y="226.0">153.9</text>
<line class="grid" x1="90" y1="298.0" x2="940" y2="298.0"/>
<text class="label" x="12" y="302.0">102.5</text>
<line class="grid" x1="90" y1="374.0" x2="940" y2="374.0"/>
<text class="label" x="12" y="378.0">51.1</text>
<line class="grid" x1="90" y1="450.0" x2="940" y2="450.0"/>
<text class="label" x="12" y="454.0">-0.3</text>
<line class="axis" x1="90" y1="70" x2="90" y2="450"/>
<line class="axis" x1="90" y1="449.5" x2="940" y2="449.5"/>
<rect x="100.9" y="339.8" width="17.4" height="109.7" fill="#a78bfa" rx="8"/>
<line class="err" x1="109.6" y1="328.3" x2="109.6" y2="351.3"/>
<line class="err" x1="102.6" y1="328.3" x2="116.6" y2="328.3"/>
<line class="err" x1="102.6" y1="351.3" x2="116.6" y2="351.3"/>
<text class="value" x="109.6" y="318.3" text-anchor="middle">74.23</text>
<rect x="122.7" y="350.5" width="17.4" height="99.0" fill="#f472b6" rx="8"/>
<line class="err" x1="131.4" y1="345.5" x2="131.4" y2="355.6"/>
<line class="err" x1="124.4" y1="345.5" x2="138.4" y2="345.5"/>
<line class="err" x1="124.4" y1="355.6" x2="138.4" y2="355.6"/>
<text class="value" x="131.4" y="335.5" text-anchor="middle">66.96</text>
<text class="label" x="122.7" y="478" text-anchor="middle">Immediate</text>
<rect x="166.3" y="339.8" width="17.4" height="109.7" fill="#a78bfa" rx="8"/>
<line class="err" x1="175.0" y1="328.3" x2="175.0" y2="351.3"/>
<line class="err" x1="168.0" y1="328.3" x2="182.0" y2="328.3"/>
<line class="err" x1="168.0" y1="351.3" x2="182.0" y2="351.3"/>
<text class="value" x="175.0" y="318.3" text-anchor="middle">74.23</text>
<rect x="188.1" y="250.5" width="17.4" height="199.0" fill="#f472b6" rx="8"/>
<line class="err" x1="196.8" y1="241.8" x2="196.8" y2="259.3"/>
<line class="err" x1="189.8" y1="241.8" x2="203.8" y2="241.8"/>
<line class="err" x1="189.8" y1="259.3" x2="203.8" y2="259.3"/>
<text class="value" x="196.8" y="231.8" text-anchor="middle">134.62</text>
<text class="label" x="188.1" y="478" text-anchor="middle">SpeedBump 50ms</text>
<rect x="231.7" y="365.0" width="17.4" height="84.4" fill="#a78bfa" rx="8"/>
<line class="err" x1="240.4" y1="332.7" x2="240.4" y2="397.4"/>
<line class="err" x1="233.4" y1="332.7" x2="247.4" y2="332.7"/>
<line class="err" x1="233.4" y1="397.4" x2="247.4" y2="397.4"/>
<text class="value" x="240.4" y="322.7" text-anchor="middle">57.14</text>
<rect x="253.5" y="299.4" width="17.4" height="150.1" fill="#f472b6" rx="8"/>
<line class="err" x1="262.2" y1="292.9" x2="262.2" y2="305.9"/>
<line class="err" x1="255.2" y1="292.9" x2="269.2" y2="292.9"/>
<line class="err" x1="255.2" y1="305.9" x2="269.2" y2="305.9"/>
<text class="value" x="262.2" y="282.9" text-anchor="middle">101.58</text>
<text class="label" x="253.5" y="478" text-anchor="middle">100ms</text>
<rect x="297.1" y="409.1" width="17.4" height="40.3" fill="#a78bfa" rx="8"/>
<line class="err" x1="305.8" y1="382.2" x2="305.8" y2="436.1"/>
<line class="err" x1="298.8" y1="382.2" x2="312.8" y2="382.2"/>
<line class="err" x1="298.8" y1="436.1" x2="312.8" y2="436.1"/>
<text class="value" x="305.8" y="372.2" text-anchor="middle">27.30</text>
<rect x="318.8" y="356.8" width="17.4" height="92.7" fill="#f472b6" rx="8"/>
<line class="err" x1="327.6" y1="340.9" x2="327.6" y2="372.7"/>
<line class="err" x1="320.6" y1="340.9" x2="334.6" y2="340.9"/>
<line class="err" x1="320.6" y1="372.7" x2="334.6" y2="372.7"/>
<text class="value" x="327.6" y="330.9" text-anchor="middle">62.73</text>
<text class="label" x="318.8" y="478" text-anchor="middle">250ms</text>
<rect x="362.4" y="399.2" width="17.4" height="50.3" fill="#a78bfa" rx="8"/>
<line class="err" x1="371.2" y1="370.9" x2="371.2" y2="427.4"/>
<line class="err" x1="364.2" y1="370.9" x2="378.2" y2="370.9"/>
<line class="err" x1="364.2" y1="427.4" x2="378.2" y2="427.4"/>
<text class="value" x="371.2" y="360.9" text-anchor="middle">34.06</text>
<rect x="384.2" y="327.2" width="17.4" height="122.3" fill="#f472b6" rx="8"/>
<line class="err" x1="392.9" y1="283.7" x2="392.9" y2="370.7"/>
<line class="err" x1="385.9" y1="283.7" x2="399.9" y2="283.7"/>
<line class="err" x1="385.9" y1="370.7" x2="399.9" y2="370.7"/>
<text class="value" x="392.9" y="273.7" text-anchor="middle">82.76</text>
<text class="label" x="384.2" y="478" text-anchor="middle">500ms</text>
<rect x="427.8" y="394.1" width="17.4" height="55.4" fill="#a78bfa" rx="8"/>
<line class="err" x1="436.5" y1="369.7" x2="436.5" y2="418.6"/>
<line class="err" x1="429.5" y1="369.7" x2="443.5" y2="369.7"/>
<line class="err" x1="429.5" y1="418.6" x2="443.5" y2="418.6"/>
<text class="value" x="436.5" y="359.7" text-anchor="middle">37.46</text>
<rect x="449.6" y="372.3" width="17.4" height="77.1" fill="#f472b6" rx="8"/>
<line class="err" x1="458.3" y1="359.6" x2="458.3" y2="385.1"/>
<line class="err" x1="451.3" y1="359.6" x2="465.3" y2="359.6"/>
<line class="err" x1="451.3" y1="385.1" x2="465.3" y2="385.1"/>
<text class="value" x="458.3" y="349.6" text-anchor="middle">52.20</text>
<text class="label" x="449.6" y="478" text-anchor="middle">Adaptive 100-250ms</text>
<rect x="493.2" y="413.4" width="17.4" height="36.0" fill="#a78bfa" rx="8"/>
<line class="err" x1="501.9" y1="382.6" x2="501.9" y2="444.3"/>
<line class="err" x1="494.9" y1="382.6" x2="508.9" y2="382.6"/>
<line class="err" x1="494.9" y1="444.3" x2="508.9" y2="444.3"/>
<text class="value" x="501.9" y="372.6" text-anchor="middle">24.38</text>
<rect x="515.0" y="339.1" width="17.4" height="110.4" fill="#f472b6" rx="8"/>
<line class="err" x1="523.7" y1="322.1" x2="523.7" y2="356.2"/>
<line class="err" x1="516.7" y1="322.1" x2="530.7" y2="322.1"/>
<line class="err" x1="516.7" y1="356.2" x2="530.7" y2="356.2"/>
<text class="value" x="523.7" y="312.1" text-anchor="middle">74.67</text>
<text class="label" x="515.0" y="478" text-anchor="middle">Adaptive OrderFlow-100-250ms</text>
<rect x="558.6" y="394.1" width="17.4" height="55.4" fill="#a78bfa" rx="8"/>
<line class="err" x1="567.3" y1="358.7" x2="567.3" y2="429.5"/>
<line class="err" x1="560.3" y1="358.7" x2="574.3" y2="358.7"/>
<line class="err" x1="560.3" y1="429.5" x2="574.3" y2="429.5"/>
<text class="value" x="567.3" y="348.7" text-anchor="middle">37.50</text>
<rect x="580.4" y="357.2" width="17.4" height="92.3" fill="#f472b6" rx="8"/>
<line class="err" x1="589.1" y1="348.9" x2="589.1" y2="365.6"/>
<line class="err" x1="582.1" y1="348.9" x2="596.1" y2="348.9"/>
<line class="err" x1="582.1" y1="365.6" x2="596.1" y2="365.6"/>
<text class="value" x="589.1" y="338.9" text-anchor="middle">62.42</text>
<text class="label" x="580.4" y="478" text-anchor="middle">Adaptive QueueLoad-100-250ms</text>
<rect x="624.0" y="404.4" width="17.4" height="45.1" fill="#a78bfa" rx="8"/>
<line class="err" x1="632.7" y1="372.8" x2="632.7" y2="436.1"/>
<line class="err" x1="625.7" y1="372.8" x2="639.7" y2="372.8"/>
<line class="err" x1="625.7" y1="436.1" x2="639.7" y2="436.1"/>
<text class="value" x="632.7" y="362.8" text-anchor="middle">30.49</text>
<rect x="645.8" y="357.7" width="17.4" height="91.8" fill="#f472b6" rx="8"/>
<line class="err" x1="654.5" y1="343.8" x2="654.5" y2="371.6"/>
<line class="err" x1="647.5" y1="343.8" x2="661.5" y2="343.8"/>
<line class="err" x1="647.5" y1="371.6" x2="661.5" y2="371.6"/>
<text class="value" x="654.5" y="333.8" text-anchor="middle">62.10</text>
<text class="label" x="645.8" y="478" text-anchor="middle">Policy-BurstAware-100-250ms</text>
<rect x="689.4" y="373.6" width="17.4" height="75.9" fill="#a78bfa" rx="8"/>
<line class="err" x1="698.1" y1="336.0" x2="698.1" y2="411.2"/>
<line class="err" x1="691.1" y1="336.0" x2="705.1" y2="336.0"/>
<line class="err" x1="691.1" y1="411.2" x2="705.1" y2="411.2"/>
<text class="value" x="698.1" y="326.0" text-anchor="middle">51.33</text>
<rect x="711.2" y="305.2" width="17.4" height="144.3" fill="#f472b6" rx="8"/>
<line class="err" x1="719.9" y1="295.0" x2="719.9" y2="315.3"/>
<line class="err" x1="712.9" y1="295.0" x2="726.9" y2="295.0"/>
<line class="err" x1="712.9" y1="315.3" x2="726.9" y2="315.3"/>
<text class="value" x="719.9" y="285.0" text-anchor="middle">97.66</text>
<text class="label" x="711.2" y="478" text-anchor="middle">Policy-LearnedLinUCB-100-250ms</text>
<rect x="754.7" y="399.8" width="17.4" height="49.7" fill="#a78bfa" rx="8"/>
<line class="err" x1="763.5" y1="361.9" x2="763.5" y2="437.7"/>
<line class="err" x1="756.5" y1="361.9" x2="770.5" y2="361.9"/>
<line class="err" x1="756.5" y1="437.7" x2="770.5" y2="437.7"/>
<text class="value" x="763.5" y="351.9" text-anchor="middle">33.65</text>
<rect x="776.5" y="323.0" width="17.4" height="126.5" fill="#f472b6" rx="8"/>
<line class="err" x1="785.3" y1="307.1" x2="785.3" y2="338.8"/>
<line class="err" x1="778.3" y1="307.1" x2="792.3" y2="307.1"/>
<line class="err" x1="778.3" y1="338.8" x2="792.3" y2="338.8"/>
<text class="value" x="785.3" y="297.1" text-anchor="middle">85.61</text>
<text class="label" x="776.5" y="478" text-anchor="middle">Policy-LearnedTinyMLP-100-250ms</text>
<rect x="820.1" y="406.0" width="17.4" height="43.5" fill="#a78bfa" rx="8"/>
<line class="err" x1="828.8" y1="382.9" x2="828.8" y2="429.0"/>
<line class="err" x1="821.8" y1="382.9" x2="835.8" y2="382.9"/>
<line class="err" x1="821.8" y1="429.0" x2="835.8" y2="429.0"/>
<text class="value" x="828.8" y="372.9" text-anchor="middle">29.44</text>
<rect x="841.9" y="335.5" width="17.4" height="114.0" fill="#f472b6" rx="8"/>
<line class="err" x1="850.6" y1="318.7" x2="850.6" y2="352.3"/>
<line class="err" x1="843.6" y1="318.7" x2="857.6" y2="318.7"/>
<line class="err" x1="843.6" y1="352.3" x2="857.6" y2="352.3"/>
<text class="value" x="850.6" y="308.7" text-anchor="middle">77.12</text>
<text class="label" x="841.9" y="478" text-anchor="middle">Policy-LearnedOfflineContextual-100-250ms</text>
<rect x="885.5" y="409.7" width="17.4" height="39.8" fill="#a78bfa" rx="8"/>
<line class="err" x1="894.2" y1="369.4" x2="894.2" y2="449.9"/>
<line class="err" x1="887.2" y1="369.4" x2="901.2" y2="369.4"/>
<line class="err" x1="887.2" y1="449.9" x2="901.2" y2="449.9"/>
<text class="value" x="894.2" y="359.4" text-anchor="middle">26.93</text>
<rect x="907.3" y="145.5" width="17.4" height="304.0" fill="#f472b6" rx="8"/>
<line class="err" x1="916.0" y1="110.7" x2="916.0" y2="180.3"/>
<line class="err" x1="909.0" y1="110.7" x2="923.0" y2="110.7"/>
<line class="err" x1="909.0" y1="180.3" x2="923.0" y2="180.3"/>
<text class="value" x="916.0" y="100.7" text-anchor="middle">205.70</text>
<text class="label" x="907.3" y="478" text-anchor="middle">250ms Stress</text>
<rect x="730" y="22" width="14" height="14" fill="#a78bfa" rx="3"/>
<text class="legend" x="752" y="34">Queue Advantage x1000</text>
<rect x="730" y="44" width="14" height="14" fill="#f472b6" rx="3"/>
<text class="legend" x="752" y="56">Arb Profit / 10</text>
</svg>
