<svg xmlns="http://www.w3.org/2000/svg" width="980" height="540" viewBox="0 0 980 540" role="img">
<style>.title{font:700 20px Arial; fill:#f3f7ff;}.label{font:12px Arial; fill:#cbd8f0;}.value{font:11px Arial; fill:#eef5ff;}.axis{stroke:#4d6387; stroke-width:1;}.grid{stroke:#20324d; stroke-width:1; opacity:.8;}.legend{font:12px Arial; fill:#d7e7ff;}.bg{fill:#071423;}.err{stroke:#dbeafe; stroke-width:1.5;}</style>
<rect class="bg" x="0" y="0" width="980" height="540" rx="18"/>
<text class="title" x="90" y="38">Fairness Proxy Comparison (95% CI)</text>
<text class="label" x="90" y="520">Scaled proxy value</text>
<line class="grid" x1="90" y1="70.0" x2="940" y2="70.0"/>
<text class="label" x="12" y="74.0">257</text>
<line class="grid" x1="90" y1="146.0" x2="940" y2="146.0"/>
<text class="label" x="12" y="150.0">205</text>
<line class="grid" x1="90" y1="222.0" x2="940" y2="222.0"/>
<text class="label" x="12" y="226.0">154</text>
<line class="grid" x1="90" y1="298.0" x2="940" y2="298.0"/>
<text class="label" x="12" y="302.0">103</text>
<line class="grid" x1="90" y1="374.0" x2="940" y2="374.0"/>
<text class="label" x="12" y="378.0">51</text>
<line class="grid" x1="90" y1="450.0" x2="940" y2="450.0"/>
<text class="label" x="12" y="454.0">0</text>
<line class="axis" x1="90" y1="70" x2="90" y2="450"/>
<line class="axis" x1="90" y1="450" x2="940" y2="450"/>
<rect x="118.3" y="340.1" width="45.3" height="109.9" fill="#a78bfa" rx="8"/>
<line class="err" x1="141.0" y1="328.6" x2="141.0" y2="351.7"/>
<line class="err" x1="134.0" y1="328.6" x2="148.0" y2="328.6"/>
<line class="err" x1="134.0" y1="351.7" x2="148.0" y2="351.7"/>
<text class="value" x="141.0" y="318.6" text-anchor="middle">74.2</text>
<rect x="175.0" y="350.9" width="45.3" height="99.1" fill="#f472b6" rx="8"/>
<line class="err" x1="197.7" y1="345.8" x2="197.7" y2="356.0"/>
<line class="err" x1="190.7" y1="345.8" x2="204.7" y2="345.8"/>
<line class="err" x1="190.7" y1="356.0" x2="204.7" y2="356.0"/>
<text class="value" x="197.7" y="335.8" text-anchor="middle">67.0</text>
<text class="label" x="175.0" y="478" text-anchor="middle">Immediate</text>
<rect x="288.3" y="365.4" width="45.3" height="84.6" fill="#a78bfa" rx="8"/>
<line class="err" x1="311.0" y1="333.0" x2="311.0" y2="397.9"/>
<line class="err" x1="304.0" y1="333.0" x2="318.0" y2="333.0"/>
<line class="err" x1="304.0" y1="397.9" x2="318.0" y2="397.9"/>
<text class="value" x="311.0" y="323.0" text-anchor="middle">57.1</text>
<rect x="345.0" y="299.7" width="45.3" height="150.3" fill="#f472b6" rx="8"/>
<line class="err" x1="367.7" y1="293.2" x2="367.7" y2="306.2"/>
<line class="err" x1="360.7" y1="293.2" x2="374.7" y2="293.2"/>
<line class="err" x1="360.7" y1="306.2" x2="374.7" y2="306.2"/>
<text class="value" x="367.7" y="283.2" text-anchor="middle">101.6</text>
<text class="label" x="345.0" y="478" text-anchor="middle">100ms</text>
<rect x="458.3" y="409.6" width="45.3" height="40.4" fill="#a78bfa" rx="8"/>
<line class="err" x1="481.0" y1="382.7" x2="481.0" y2="436.6"/>
<line class="err" x1="474.0" y1="382.7" x2="488.0" y2="382.7"/>
<line class="err" x1="474.0" y1="436.6" x2="488.0" y2="436.6"/>
<text class="value" x="481.0" y="372.7" text-anchor="middle">27.3</text>
<rect x="515.0" y="357.2" width="45.3" height="92.8" fill="#f472b6" rx="8"/>
<line class="err" x1="537.7" y1="341.2" x2="537.7" y2="373.1"/>
<line class="err" x1="530.7" y1="341.2" x2="544.7" y2="341.2"/>
<line class="err" x1="530.7" y1="373.1" x2="544.7" y2="373.1"/>
<text class="value" x="537.7" y="331.2" text-anchor="middle">62.7</text>
<text class="label" x="515.0" y="478" text-anchor="middle">250ms</text>
<rect x="628.3" y="399.6" width="45.3" height="50.4" fill="#a78bfa" rx="8"/>
<line class="err" x1="651.0" y1="371.3" x2="651.0" y2="427.9"/>
<line class="err" x1="644.0" y1="371.3" x2="658.0" y2="371.3"/>
<line class="err" x1="644.0" y1="427.9" x2="658.0" y2="427.9"/>
<text class="value" x="651.0" y="361.3" text-anchor="middle">34.1</text>
<rect x="685.0" y="327.5" width="45.3" height="122.5" fill="#f472b6" rx="8"/>
<line class="err" x1="707.7" y1="284.0" x2="707.7" y2="371.1"/>
<line class="err" x1="700.7" y1="284.0" x2="714.7" y2="284.0"/>
<line class="err" x1="700.7" y1="371.1" x2="714.7" y2="371.1"/>
<text class="value" x="707.7" y="274.0" text-anchor="middle">82.8</text>
<text class="label" x="685.0" y="478" text-anchor="middle">500ms</text>
<rect x="798.3" y="410.1" width="45.3" height="39.9" fill="#a78bfa" rx="8"/>
<line class="err" x1="821.0" y1="369.8" x2="821.0" y2="450.0"/>
<line class="err" x1="814.0" y1="369.8" x2="828.0" y2="369.8"/>
<line class="err" x1="814.0" y1="450.0" x2="828.0" y2="450.0"/>
<text class="value" x="821.0" y="359.8" text-anchor="middle">26.9</text>
<rect x="855.0" y="145.6" width="45.3" height="304.4" fill="#f472b6" rx="8"/>
<line class="err" x1="877.7" y1="110.7" x2="877.7" y2="180.5"/>
<line class="err" x1="870.7" y1="110.7" x2="884.7" y2="110.7"/>
<line class="err" x1="870.7" y1="180.5" x2="884.7" y2="180.5"/>
<text class="value" x="877.7" y="100.7" text-anchor="middle">205.7</text>
<text class="label" x="855.0" y="478" text-anchor="middle">250ms Stress</text>
<rect x="730" y="22" width="14" height="14" fill="#a78bfa" rx="3"/>
<text class="legend" x="752" y="34">Queue Advantage x1000</text>
<rect x="730" y="44" width="14" height="14" fill="#f472b6" rx="3"/>
<text class="legend" x="752" y="56">Arb Profit / 10</text>
</svg>
