<svg xmlns="http://www.w3.org/2000/svg" width="960" height="520" viewBox="0 0 960 520" role="img">
<style>.title{font:700 20px Arial; fill:#f3f7ff;}.label{font:12px Arial; fill:#cbd8f0;}.value{font:11px Arial; fill:#eef5ff;}.axis{stroke:#4d6387; stroke-width:1;}.grid{stroke:#20324d; stroke-width:1; opacity:.8;}.legend{font:12px Arial; fill:#d7e7ff;}.bg{fill:#071423;}</style>
<rect class="bg" x="0" y="0" width="960" height="520" rx="18"/>
<text class="title" x="90" y="38">Fairness Proxy Comparison</text>
<text class="label" x="90" y="500">Scaled proxy value</text>
<line class="grid" x1="90" y1="70.0" x2="920" y2="70.0"/>
<text class="label" x="18" y="74.0">230</text>
<line class="grid" x1="90" y1="142.0" x2="920" y2="142.0"/>
<text class="label" x="18" y="146.0">184</text>
<line class="grid" x1="90" y1="214.0" x2="920" y2="214.0"/>
<text class="label" x="18" y="218.0">138</text>
<line class="grid" x1="90" y1="286.0" x2="920" y2="286.0"/>
<text class="label" x="18" y="290.0">92</text>
<line class="grid" x1="90" y1="358.0" x2="920" y2="358.0"/>
<text class="label" x="18" y="362.0">46</text>
<line class="grid" x1="90" y1="430.0" x2="920" y2="430.0"/>
<text class="label" x="18" y="434.0">0</text>
<line class="axis" x1="90" y1="70" x2="90" y2="430"/>
<line class="axis" x1="90" y1="430" x2="920" y2="430"/>
<rect x="117.7" y="314.0" width="44.3" height="116.0" fill="#a78bfa" rx="8"/>
<text class="value" x="139.8" y="306.0" text-anchor="middle">74.2</text>
<rect x="173.0" y="325.4" width="44.3" height="104.6" fill="#f472b6" rx="8"/>
<text class="value" x="195.1" y="317.4" text-anchor="middle">67.0</text>
<text class="label" x="173.0" y="458" text-anchor="middle">Immediate</text>
<rect x="283.7" y="340.7" width="44.3" height="89.3" fill="#a78bfa" rx="8"/>
<text class="value" x="305.8" y="332.7" text-anchor="middle">57.1</text>
<rect x="339.0" y="271.3" width="44.3" height="158.7" fill="#f472b6" rx="8"/>
<text class="value" x="361.1" y="263.3" text-anchor="middle">101.6</text>
<text class="label" x="339.0" y="458" text-anchor="middle">100ms</text>
<rect x="449.7" y="387.3" width="44.3" height="42.7" fill="#a78bfa" rx="8"/>
<text class="value" x="471.8" y="379.3" text-anchor="middle">27.3</text>
<rect x="505.0" y="332.0" width="44.3" height="98.0" fill="#f472b6" rx="8"/>
<text class="value" x="527.1" y="324.0" text-anchor="middle">62.7</text>
<text class="label" x="505.0" y="458" text-anchor="middle">250ms</text>
<rect x="615.7" y="376.8" width="44.3" height="53.2" fill="#a78bfa" rx="8"/>
<text class="value" x="637.8" y="368.8" text-anchor="middle">34.1</text>
<rect x="671.0" y="300.7" width="44.3" height="129.3" fill="#f472b6" rx="8"/>
<text class="value" x="693.1" y="292.7" text-anchor="middle">82.8</text>
<text class="label" x="671.0" y="458" text-anchor="middle">500ms</text>
<rect x="781.7" y="387.9" width="44.3" height="42.1" fill="#a78bfa" rx="8"/>
<text class="value" x="803.8" y="379.9" text-anchor="middle">26.9</text>
<rect x="837.0" y="108.6" width="44.3" height="321.4" fill="#f472b6" rx="8"/>
<text class="value" x="859.1" y="100.6" text-anchor="middle">205.7</text>
<text class="label" x="837.0" y="458" text-anchor="middle">250ms Stress</text>
<rect x="730" y="22" width="14" height="14" fill="#a78bfa" rx="3"/>
<text class="legend" x="752" y="34">Queue Advantage x1000</text>
<rect x="730" y="44" width="14" height="14" fill="#f472b6" rx="3"/>
<text class="legend" x="752" y="56">Arb Profit / 10</text>
</svg>
