<svg xmlns="http://www.w3.org/2000/svg" width="980" height="540" viewBox="0 0 980 540" role="img">
<style>.title{font:700 20px Arial; fill:#f3f7ff;}.label{font:12px Arial; fill:#cbd8f0;}.value{font:11px Arial; fill:#eef5ff;}.axis{stroke:#4d6387; stroke-width:1;}.grid{stroke:#20324d; stroke-width:1; opacity:.8;}.legend{font:12px Arial; fill:#d7e7ff;}.bg{fill:#071423;}.err{stroke:#dbeafe; stroke-width:1.5;}</style>
<rect class="bg" x="0" y="0" width="980" height="540" rx="18"/>
<text class="title" x="90" y="38">Fairness Proxy Comparison (95% CI)</text>
<text class="label" x="90" y="520">Scaled proxy value</text>
<line class="grid" x1="90" y1="70.0" x2="940" y2="70.0"/>
<text class="label" x="12" y="74.0">265.3</text>
<line class="grid" x1="90" y1="146.0" x2="940" y2="146.0"/>
<text class="label" x="12" y="150.0">212.2</text>
<line class="grid" x1="90" y1="222.0" x2="940" y2="222.0"/>
<text class="label" x="12" y="226.0">159.2</text>
<line class="grid" x1="90" y1="298.0" x2="940" y2="298.0"/>
<text class="label" x="12" y="302.0">106.1</text>
<line class="grid" x1="90" y1="374.0" x2="940" y2="374.0"/>
<text class="label" x="12" y="378.0">53.1</text>
<line class="grid" x1="90" y1="450.0" x2="940" y2="450.0"/>
<text class="label" x="12" y="454.0">0.0</text>
<line class="axis" x1="90" y1="70" x2="90" y2="450"/>
<line class="axis" x1="90" y1="450.0" x2="940" y2="450.0"/>
<rect x="99.4" y="328.3" width="15.1" height="121.7" fill="#a78bfa" rx="8"/>
<line class="err" x1="107.0" y1="314.3" x2="107.0" y2="342.3"/>
<line class="err" x1="100.0" y1="314.3" x2="114.0" y2="314.3"/>
<line class="err" x1="100.0" y1="342.3" x2="114.0" y2="342.3"/>
<text class="value" x="107.0" y="304.3" text-anchor="middle">84.93</text>
<rect x="118.3" y="354.3" width="15.1" height="95.7" fill="#f472b6" rx="8"/>
<line class="err" x1="125.9" y1="350.2" x2="125.9" y2="358.4"/>
<line class="err" x1="118.9" y1="350.2" x2="132.9" y2="350.2"/>
<line class="err" x1="118.9" y1="358.4" x2="132.9" y2="358.4"/>
<text class="value" x="125.9" y="340.2" text-anchor="middle">66.79</text>
<text class="label" x="118.3" y="478" text-anchor="middle">Immediate</text>
<rect x="156.1" y="328.3" width="15.1" height="121.7" fill="#a78bfa" rx="8"/>
<line class="err" x1="163.7" y1="314.3" x2="163.7" y2="342.3"/>
<line class="err" x1="156.7" y1="314.3" x2="170.7" y2="314.3"/>
<line class="err" x1="156.7" y1="342.3" x2="170.7" y2="342.3"/>
<text class="value" x="163.7" y="304.3" text-anchor="middle">84.93</text>
<rect x="175.0" y="257.5" width="15.1" height="192.5" fill="#f472b6" rx="8"/>
<line class="err" x1="182.6" y1="250.4" x2="182.6" y2="264.6"/>
<line class="err" x1="175.6" y1="250.4" x2="189.6" y2="250.4"/>
<line class="err" x1="175.6" y1="264.6" x2="189.6" y2="264.6"/>
<text class="value" x="182.6" y="240.4" text-anchor="middle">134.38</text>
<text class="label" x="175.0" y="478" text-anchor="middle">SpeedBump 50</text>
<rect x="212.8" y="365.4" width="15.1" height="84.6" fill="#a78bfa" rx="8"/>
<line class="err" x1="220.3" y1="327.3" x2="220.3" y2="403.5"/>
<line class="err" x1="213.3" y1="327.3" x2="227.3" y2="327.3"/>
<line class="err" x1="213.3" y1="403.5" x2="227.3" y2="403.5"/>
<text class="value" x="220.3" y="317.3" text-anchor="middle">59.05</text>
<rect x="231.7" y="306.7" width="15.1" height="143.3" fill="#f472b6" rx="8"/>
<line class="err" x1="239.2" y1="300.9" x2="239.2" y2="312.5"/>
<line class="err" x1="232.2" y1="300.9" x2="246.2" y2="300.9"/>
<line class="err" x1="232.2" y1="312.5" x2="246.2" y2="312.5"/>
<text class="value" x="239.2" y="290.9" text-anchor="middle">100.01</text>
<text class="label" x="231.7" y="478" text-anchor="middle">FBA-100</text>
<rect x="269.4" y="397.4" width="15.1" height="52.6" fill="#a78bfa" rx="8"/>
<line class="err" x1="277.0" y1="362.0" x2="277.0" y2="432.9"/>
<line class="err" x1="270.0" y1="362.0" x2="284.0" y2="362.0"/>
<line class="err" x1="270.0" y1="432.9" x2="284.0" y2="432.9"/>
<text class="value" x="277.0" y="352.0" text-anchor="middle">36.69</text>
<rect x="288.3" y="356.8" width="15.1" height="93.2" fill="#f472b6" rx="8"/>
<line class="err" x1="295.9" y1="346.4" x2="295.9" y2="367.2"/>
<line class="err" x1="288.9" y1="346.4" x2="302.9" y2="346.4"/>
<line class="err" x1="288.9" y1="367.2" x2="302.9" y2="367.2"/>
<text class="value" x="295.9" y="336.4" text-anchor="middle">65.08</text>
<text class="label" x="288.3" y="478" text-anchor="middle">FBA-250</text>
<rect x="326.1" y="385.7" width="15.1" height="64.3" fill="#a78bfa" rx="8"/>
<line class="err" x1="333.7" y1="358.6" x2="333.7" y2="412.7"/>
<line class="err" x1="326.7" y1="358.6" x2="340.7" y2="358.6"/>
<line class="err" x1="326.7" y1="412.7" x2="340.7" y2="412.7"/>
<text class="value" x="333.7" y="348.6" text-anchor="middle">44.90</text>
<rect x="345.0" y="332.6" width="15.1" height="117.4" fill="#f472b6" rx="8"/>
<line class="err" x1="352.6" y1="292.3" x2="352.6" y2="372.8"/>
<line class="err" x1="345.6" y1="292.3" x2="359.6" y2="292.3"/>
<line class="err" x1="345.6" y1="372.8" x2="359.6" y2="372.8"/>
<text class="value" x="352.6" y="282.3" text-anchor="middle">81.96</text>
<text class="label" x="345.0" y="478" text-anchor="middle">FBA-500</text>
<rect x="382.8" y="401.4" width="15.1" height="48.6" fill="#a78bfa" rx="8"/>
<line class="err" x1="390.3" y1="368.8" x2="390.3" y2="434.1"/>
<line class="err" x1="383.3" y1="368.8" x2="397.3" y2="368.8"/>
<line class="err" x1="383.3" y1="434.1" x2="397.3" y2="434.1"/>
<text class="value" x="390.3" y="358.8" text-anchor="middle">33.90</text>
<rect x="401.7" y="374.3" width="15.1" height="75.7" fill="#f472b6" rx="8"/>
<line class="err" x1="409.2" y1="363.1" x2="409.2" y2="385.5"/>
<line class="err" x1="402.2" y1="363.1" x2="416.2" y2="363.1"/>
<line class="err" x1="402.2" y1="385.5" x2="416.2" y2="385.5"/>
<text class="value" x="409.2" y="353.1" text-anchor="middle">52.84</text>
<text class="label" x="401.7" y="478" text-anchor="middle">Adaptive B</text>
<rect x="439.4" y="405.0" width="15.1" height="45.0" fill="#a78bfa" rx="8"/>
<line class="err" x1="447.0" y1="365.2" x2="447.0" y2="444.7"/>
<line class="err" x1="440.0" y1="365.2" x2="454.0" y2="365.2"/>
<line class="err" x1="440.0" y1="444.7" x2="454.0" y2="444.7"/>
<text class="value" x="447.0" y="355.2" text-anchor="middle">31.45</text>
<rect x="458.3" y="346.1" width="15.1" height="103.9" fill="#f472b6" rx="8"/>
<line class="err" x1="465.9" y1="331.6" x2="465.9" y2="360.6"/>
<line class="err" x1="458.9" y1="331.6" x2="472.9" y2="331.6"/>
<line class="err" x1="458.9" y1="360.6" x2="472.9" y2="360.6"/>
<text class="value" x="465.9" y="321.6" text-anchor="middle">72.51</text>
<text class="label" x="458.3" y="478" text-anchor="middle">Adaptive OF</text>
<rect x="496.1" y="402.4" width="15.1" height="47.6" fill="#a78bfa" rx="8"/>
<line class="err" x1="503.7" y1="357.5" x2="503.7" y2="447.3"/>
<line class="err" x1="496.7" y1="357.5" x2="510.7" y2="357.5"/>
<line class="err" x1="496.7" y1="447.3" x2="510.7" y2="447.3"/>
<text class="value" x="503.7" y="347.5" text-anchor="middle">33.22</text>
<rect x="515.0" y="358.7" width="15.1" height="91.3" fill="#f472b6" rx="8"/>
<line class="err" x1="522.6" y1="350.4" x2="522.6" y2="367.1"/>
<line class="err" x1="515.6" y1="350.4" x2="529.6" y2="350.4"/>
<line class="err" x1="515.6" y1="367.1" x2="529.6" y2="367.1"/>
<text class="value" x="522.6" y="340.4" text-anchor="middle">63.73</text>
<text class="label" x="515.0" y="478" text-anchor="middle">Adaptive QL</text>
<rect x="552.8" y="382.5" width="15.1" height="67.5" fill="#a78bfa" rx="8"/>
<line class="err" x1="560.3" y1="347.8" x2="560.3" y2="417.2"/>
<line class="err" x1="553.3" y1="347.8" x2="567.3" y2="347.8"/>
<line class="err" x1="553.3" y1="417.2" x2="567.3" y2="417.2"/>
<text class="value" x="560.3" y="337.8" text-anchor="middle">47.10</text>
<rect x="571.7" y="358.7" width="15.1" height="91.3" fill="#f472b6" rx="8"/>
<line class="err" x1="579.2" y1="346.1" x2="579.2" y2="371.2"/>
<line class="err" x1="572.2" y1="346.1" x2="586.2" y2="346.1"/>
<line class="err" x1="572.2" y1="371.2" x2="586.2" y2="371.2"/>
<text class="value" x="579.2" y="336.1" text-anchor="middle">63.76</text>
<text class="label" x="571.7" y="478" text-anchor="middle">BurstAware</text>
<rect x="609.4" y="365.2" width="15.1" height="84.8" fill="#a78bfa" rx="8"/>
<line class="err" x1="617.0" y1="333.4" x2="617.0" y2="397.1"/>
<line class="err" x1="610.0" y1="333.4" x2="624.0" y2="333.4"/>
<line class="err" x1="610.0" y1="397.1" x2="624.0" y2="397.1"/>
<text class="value" x="617.0" y="323.4" text-anchor="middle">59.18</text>
<rect x="628.3" y="307.1" width="15.1" height="142.9" fill="#f472b6" rx="8"/>
<line class="err" x1="635.9" y1="300.2" x2="635.9" y2="314.1"/>
<line class="err" x1="628.9" y1="300.2" x2="642.9" y2="300.2"/>
<line class="err" x1="628.9" y1="314.1" x2="642.9" y2="314.1"/>
<text class="value" x="635.9" y="290.2" text-anchor="middle">99.74</text>
<text class="label" x="628.3" y="478" text-anchor="middle">LinUCB</text>
<rect x="666.1" y="398.1" width="15.1" height="51.9" fill="#a78bfa" rx="8"/>
<line class="err" x1="673.7" y1="378.3" x2="673.7" y2="417.8"/>
<line class="err" x1="666.7" y1="378.3" x2="680.7" y2="378.3"/>
<line class="err" x1="666.7" y1="417.8" x2="680.7" y2="417.8"/>
<text class="value" x="673.7" y="368.3" text-anchor="middle">36.25</text>
<rect x="685.0" y="273.3" width="15.1" height="176.7" fill="#f472b6" rx="8"/>
<line class="err" x1="692.6" y1="258.2" x2="692.6" y2="288.4"/>
<line class="err" x1="685.6" y1="258.2" x2="699.6" y2="258.2"/>
<line class="err" x1="685.6" y1="288.4" x2="699.6" y2="288.4"/>
<text class="value" x="692.6" y="248.2" text-anchor="middle">123.36</text>
<text class="label" x="685.0" y="478" text-anchor="middle">TinyMLP</text>
<rect x="722.8" y="383.8" width="15.1" height="66.2" fill="#a78bfa" rx="8"/>
<line class="err" x1="730.3" y1="338.5" x2="730.3" y2="429.1"/>
<line class="err" x1="723.3" y1="338.5" x2="737.3" y2="338.5"/>
<line class="err" x1="723.3" y1="429.1" x2="737.3" y2="429.1"/>
<text class="value" x="730.3" y="328.5" text-anchor="middle">46.21</text>
<rect x="741.7" y="361.1" width="15.1" height="88.9" fill="#f472b6" rx="8"/>
<line class="err" x1="749.2" y1="348.2" x2="749.2" y2="374.0"/>
<line class="err" x1="742.2" y1="348.2" x2="756.2" y2="348.2"/>
<line class="err" x1="742.2" y1="374.0" x2="756.2" y2="374.0"/>
<text class="value" x="749.2" y="338.2" text-anchor="middle">62.05</text>
<text class="label" x="741.7" y="478" text-anchor="middle">OfflineCtx</text>
<rect x="779.4" y="376.9" width="15.1" height="73.1" fill="#a78bfa" rx="8"/>
<line class="err" x1="787.0" y1="339.2" x2="787.0" y2="414.6"/>
<line class="err" x1="780.0" y1="339.2" x2="794.0" y2="339.2"/>
<line class="err" x1="780.0" y1="414.6" x2="794.0" y2="414.6"/>
<text class="value" x="787.0" y="329.2" text-anchor="middle">51.04</text>
<rect x="798.3" y="310.1" width="15.1" height="139.9" fill="#f472b6" rx="8"/>
<line class="err" x1="805.9" y1="302.9" x2="805.9" y2="317.4"/>
<line class="err" x1="798.9" y1="302.9" x2="812.9" y2="302.9"/>
<line class="err" x1="798.9" y1="317.4" x2="812.9" y2="317.4"/>
<text class="value" x="805.9" y="292.9" text-anchor="middle">97.62</text>
<text class="label" x="798.3" y="478" text-anchor="middle">FittedQ</text>
<rect x="836.1" y="379.2" width="15.1" height="70.8" fill="#a78bfa" rx="8"/>
<line class="err" x1="843.7" y1="348.8" x2="843.7" y2="409.5"/>
<line class="err" x1="836.7" y1="348.8" x2="850.7" y2="348.8"/>
<line class="err" x1="836.7" y1="409.5" x2="850.7" y2="409.5"/>
<text class="value" x="843.7" y="338.8" text-anchor="middle">49.44</text>
<rect x="855.0" y="310.4" width="15.1" height="139.6" fill="#f472b6" rx="8"/>
<line class="err" x1="862.6" y1="304.2" x2="862.6" y2="316.6"/>
<line class="err" x1="855.6" y1="304.2" x2="869.6" y2="304.2"/>
<line class="err" x1="855.6" y1="316.6" x2="869.6" y2="316.6"/>
<text class="value" x="862.6" y="294.2" text-anchor="middle">97.42</text>
<text class="label" x="855.0" y="478" text-anchor="middle">OnlineDQN</text>
<rect x="892.8" y="406.0" width="15.1" height="44.0" fill="#a78bfa" rx="8"/>
<line class="err" x1="900.3" y1="374.0" x2="900.3" y2="438.1"/>
<line class="err" x1="893.3" y1="374.0" x2="907.3" y2="374.0"/>
<line class="err" x1="893.3" y1="438.1" x2="907.3" y2="438.1"/>
<text class="value" x="900.3" y="364.0" text-anchor="middle">30.70</text>
<rect x="911.7" y="154.8" width="15.1" height="295.2" fill="#f472b6" rx="8"/>
<line class="err" x1="919.2" y1="110.7" x2="919.2" y2="198.8"/>
<line class="err" x1="912.2" y1="110.7" x2="926.2" y2="110.7"/>
<line class="err" x1="912.2" y1="198.8" x2="926.2" y2="198.8"/>
<text class="value" x="919.2" y="100.7" text-anchor="middle">206.10</text>
<text class="label" x="911.7" y="478" text-anchor="middle">Stress</text>
<rect x="730" y="22" width="14" height="14" fill="#a78bfa" rx="3"/>
<text class="legend" x="752" y="34">Queue Advantage x1000</text>
<rect x="730" y="44" width="14" height="14" fill="#f472b6" rx="3"/>
<text class="legend" x="752" y="56">Arb Profit / 10</text>
</svg>
