<svg xmlns="http://www.w3.org/2000/svg" width="980" height="540" viewBox="0 0 980 540" role="img">
<style>.title{font:700 20px Arial; fill:#f3f7ff;}.label{font:12px Arial; fill:#cbd8f0;}.value{font:11px Arial; fill:#eef5ff;}.axis{stroke:#4d6387; stroke-width:1;}.grid{stroke:#20324d; stroke-width:1; opacity:.8;}.legend{font:12px Arial; fill:#d7e7ff;}.bg{fill:#071423;}.err{stroke:#dbeafe; stroke-width:1.5;}</style>
<rect class="bg" x="0" y="0" width="980" height="540" rx="18"/>
<text class="title" x="90" y="38">Fairness Proxy Comparison (95% CI)</text>
<text class="label" x="90" y="520">Scaled proxy value</text>
<line class="grid" x1="90" y1="70.0" x2="940" y2="70.0"/>
<text class="label" x="12" y="74.0">257</text>
<line class="grid" x1="90" y1="146.0" x2="940" y2="146.0"/>
<text class="label" x="12" y="150.0">205</text>
<line class="grid" x1="90" y1="222.0" x2="940" y2="222.0"/>
<text class="label" x="12" y="226.0">154</text>
<line class="grid" x1="90" y1="298.0" x2="940" y2="298.0"/>
<text class="label" x="12" y="302.0">103</text>
<line class="grid" x1="90" y1="374.0" x2="940" y2="374.0"/>
<text class="label" x="12" y="378.0">51</text>
<line class="grid" x1="90" y1="450.0" x2="940" y2="450.0"/>
<text class="label" x="12" y="454.0">0</text>
<line class="axis" x1="90" y1="70" x2="90" y2="450"/>
<line class="axis" x1="90" y1="450" x2="940" y2="450"/>
<rect x="104.2" y="340.1" width="22.7" height="109.9" fill="#a78bfa" rx="8"/>
<line class="err" x1="115.5" y1="328.6" x2="115.5" y2="351.7"/>
<line class="err" x1="108.5" y1="328.6" x2="122.5" y2="328.6"/>
<line class="err" x1="108.5" y1="351.7" x2="122.5" y2="351.7"/>
<text class="value" x="115.5" y="318.6" text-anchor="middle">74.2</text>
<rect x="132.5" y="350.9" width="22.7" height="99.1" fill="#f472b6" rx="8"/>
<line class="err" x1="143.8" y1="345.8" x2="143.8" y2="356.0"/>
<line class="err" x1="136.8" y1="345.8" x2="150.8" y2="345.8"/>
<line class="err" x1="136.8" y1="356.0" x2="150.8" y2="356.0"/>
<text class="value" x="143.8" y="335.8" text-anchor="middle">67.0</text>
<text class="label" x="132.5" y="478" text-anchor="middle">Immediate</text>
<rect x="189.2" y="340.1" width="22.7" height="109.9" fill="#a78bfa" rx="8"/>
<line class="err" x1="200.5" y1="328.6" x2="200.5" y2="351.7"/>
<line class="err" x1="193.5" y1="328.6" x2="207.5" y2="328.6"/>
<line class="err" x1="193.5" y1="351.7" x2="207.5" y2="351.7"/>
<text class="value" x="200.5" y="318.6" text-anchor="middle">74.2</text>
<rect x="217.5" y="250.8" width="22.7" height="199.2" fill="#f472b6" rx="8"/>
<line class="err" x1="228.8" y1="242.0" x2="228.8" y2="259.5"/>
<line class="err" x1="221.8" y1="242.0" x2="235.8" y2="242.0"/>
<line class="err" x1="221.8" y1="259.5" x2="235.8" y2="259.5"/>
<text class="value" x="228.8" y="232.0" text-anchor="middle">134.6</text>
<text class="label" x="217.5" y="478" text-anchor="middle">SpeedBump 50ms</text>
<rect x="274.2" y="365.4" width="22.7" height="84.6" fill="#a78bfa" rx="8"/>
<line class="err" x1="285.5" y1="333.0" x2="285.5" y2="397.9"/>
<line class="err" x1="278.5" y1="333.0" x2="292.5" y2="333.0"/>
<line class="err" x1="278.5" y1="397.9" x2="292.5" y2="397.9"/>
<text class="value" x="285.5" y="323.0" text-anchor="middle">57.1</text>
<rect x="302.5" y="299.7" width="22.7" height="150.3" fill="#f472b6" rx="8"/>
<line class="err" x1="313.8" y1="293.2" x2="313.8" y2="306.2"/>
<line class="err" x1="306.8" y1="293.2" x2="320.8" y2="293.2"/>
<line class="err" x1="306.8" y1="306.2" x2="320.8" y2="306.2"/>
<text class="value" x="313.8" y="283.2" text-anchor="middle">101.6</text>
<text class="label" x="302.5" y="478" text-anchor="middle">100ms</text>
<rect x="359.2" y="409.6" width="22.7" height="40.4" fill="#a78bfa" rx="8"/>
<line class="err" x1="370.5" y1="382.7" x2="370.5" y2="436.6"/>
<line class="err" x1="363.5" y1="382.7" x2="377.5" y2="382.7"/>
<line class="err" x1="363.5" y1="436.6" x2="377.5" y2="436.6"/>
<text class="value" x="370.5" y="372.7" text-anchor="middle">27.3</text>
<rect x="387.5" y="357.2" width="22.7" height="92.8" fill="#f472b6" rx="8"/>
<line class="err" x1="398.8" y1="341.2" x2="398.8" y2="373.1"/>
<line class="err" x1="391.8" y1="341.2" x2="405.8" y2="341.2"/>
<line class="err" x1="391.8" y1="373.1" x2="405.8" y2="373.1"/>
<text class="value" x="398.8" y="331.2" text-anchor="middle">62.7</text>
<text class="label" x="387.5" y="478" text-anchor="middle">250ms</text>
<rect x="444.2" y="399.6" width="22.7" height="50.4" fill="#a78bfa" rx="8"/>
<line class="err" x1="455.5" y1="371.3" x2="455.5" y2="427.9"/>
<line class="err" x1="448.5" y1="371.3" x2="462.5" y2="371.3"/>
<line class="err" x1="448.5" y1="427.9" x2="462.5" y2="427.9"/>
<text class="value" x="455.5" y="361.3" text-anchor="middle">34.1</text>
<rect x="472.5" y="327.5" width="22.7" height="122.5" fill="#f472b6" rx="8"/>
<line class="err" x1="483.8" y1="284.0" x2="483.8" y2="371.1"/>
<line class="err" x1="476.8" y1="284.0" x2="490.8" y2="284.0"/>
<line class="err" x1="476.8" y1="371.1" x2="490.8" y2="371.1"/>
<text class="value" x="483.8" y="274.0" text-anchor="middle">82.8</text>
<text class="label" x="472.5" y="478" text-anchor="middle">500ms</text>
<rect x="529.2" y="394.6" width="22.7" height="55.4" fill="#a78bfa" rx="8"/>
<line class="err" x1="540.5" y1="370.1" x2="540.5" y2="419.0"/>
<line class="err" x1="533.5" y1="370.1" x2="547.5" y2="370.1"/>
<line class="err" x1="533.5" y1="419.0" x2="547.5" y2="419.0"/>
<text class="value" x="540.5" y="360.1" text-anchor="middle">37.5</text>
<rect x="557.5" y="372.7" width="22.7" height="77.3" fill="#f472b6" rx="8"/>
<line class="err" x1="568.8" y1="360.0" x2="568.8" y2="385.5"/>
<line class="err" x1="561.8" y1="360.0" x2="575.8" y2="360.0"/>
<line class="err" x1="561.8" y1="385.5" x2="575.8" y2="385.5"/>
<text class="value" x="568.8" y="350.0" text-anchor="middle">52.2</text>
<text class="label" x="557.5" y="478" text-anchor="middle">Adaptive 100-250ms</text>
<rect x="614.2" y="413.9" width="22.7" height="36.1" fill="#a78bfa" rx="8"/>
<line class="err" x1="625.5" y1="383.0" x2="625.5" y2="444.8"/>
<line class="err" x1="618.5" y1="383.0" x2="632.5" y2="383.0"/>
<line class="err" x1="618.5" y1="444.8" x2="632.5" y2="444.8"/>
<text class="value" x="625.5" y="373.0" text-anchor="middle">24.4</text>
<rect x="642.5" y="339.5" width="22.7" height="110.5" fill="#f472b6" rx="8"/>
<line class="err" x1="653.8" y1="322.4" x2="653.8" y2="356.5"/>
<line class="err" x1="646.8" y1="322.4" x2="660.8" y2="322.4"/>
<line class="err" x1="646.8" y1="356.5" x2="660.8" y2="356.5"/>
<text class="value" x="653.8" y="312.4" text-anchor="middle">74.7</text>
<text class="label" x="642.5" y="478" text-anchor="middle">Adaptive OrderFlow-100-250ms</text>
<rect x="699.2" y="394.5" width="22.7" height="55.5" fill="#a78bfa" rx="8"/>
<line class="err" x1="710.5" y1="359.1" x2="710.5" y2="429.9"/>
<line class="err" x1="703.5" y1="359.1" x2="717.5" y2="359.1"/>
<line class="err" x1="703.5" y1="429.9" x2="717.5" y2="429.9"/>
<text class="value" x="710.5" y="349.1" text-anchor="middle">37.5</text>
<rect x="727.5" y="357.6" width="22.7" height="92.4" fill="#f472b6" rx="8"/>
<line class="err" x1="738.8" y1="349.3" x2="738.8" y2="366.0"/>
<line class="err" x1="731.8" y1="349.3" x2="745.8" y2="349.3"/>
<line class="err" x1="731.8" y1="366.0" x2="745.8" y2="366.0"/>
<text class="value" x="738.8" y="339.3" text-anchor="middle">62.4</text>
<text class="label" x="727.5" y="478" text-anchor="middle">Adaptive QueueLoad-100-250ms</text>
<rect x="784.2" y="397.5" width="22.7" height="52.5" fill="#a78bfa" rx="8"/>
<line class="err" x1="795.5" y1="369.9" x2="795.5" y2="425.0"/>
<line class="err" x1="788.5" y1="369.9" x2="802.5" y2="369.9"/>
<line class="err" x1="788.5" y1="425.0" x2="802.5" y2="425.0"/>
<text class="value" x="795.5" y="359.9" text-anchor="middle">35.5</text>
<rect x="812.5" y="355.6" width="22.7" height="94.4" fill="#f472b6" rx="8"/>
<line class="err" x1="823.8" y1="341.0" x2="823.8" y2="370.3"/>
<line class="err" x1="816.8" y1="341.0" x2="830.8" y2="341.0"/>
<line class="err" x1="816.8" y1="370.3" x2="830.8" y2="370.3"/>
<text class="value" x="823.8" y="331.0" text-anchor="middle">63.8</text>
<text class="label" x="812.5" y="478" text-anchor="middle">Policy-BurstAware-100-250ms</text>
<rect x="869.2" y="410.1" width="22.7" height="39.9" fill="#a78bfa" rx="8"/>
<line class="err" x1="880.5" y1="369.8" x2="880.5" y2="450.0"/>
<line class="err" x1="873.5" y1="369.8" x2="887.5" y2="369.8"/>
<line class="err" x1="873.5" y1="450.0" x2="887.5" y2="450.0"/>
<text class="value" x="880.5" y="359.8" text-anchor="middle">26.9</text>
<rect x="897.5" y="145.6" width="22.7" height="304.4" fill="#f472b6" rx="8"/>
<line class="err" x1="908.8" y1="110.7" x2="908.8" y2="180.5"/>
<line class="err" x1="901.8" y1="110.7" x2="915.8" y2="110.7"/>
<line class="err" x1="901.8" y1="180.5" x2="915.8" y2="180.5"/>
<text class="value" x="908.8" y="100.7" text-anchor="middle">205.7</text>
<text class="label" x="897.5" y="478" text-anchor="middle">250ms Stress</text>
<rect x="730" y="22" width="14" height="14" fill="#a78bfa" rx="3"/>
<text class="legend" x="752" y="34">Queue Advantage x1000</text>
<rect x="730" y="44" width="14" height="14" fill="#f472b6" rx="3"/>
<text class="legend" x="752" y="56">Arb Profit / 10</text>
</svg>
