<svg xmlns="http://www.w3.org/2000/svg" width="980" height="540" viewBox="0 0 980 540" role="img">
<style>.title{font:700 20px Arial; fill:#f3f7ff;}.label{font:12px Arial; fill:#cbd8f0;}.value{font:11px Arial; fill:#eef5ff;}.axis{stroke:#4d6387; stroke-width:1;}.grid{stroke:#20324d; stroke-width:1; opacity:.8;}.legend{font:12px Arial; fill:#d7e7ff;}.bg{fill:#071423;}.err{stroke:#dbeafe; stroke-width:1.5;}</style>
<rect class="bg" x="0" y="0" width="980" height="540" rx="18"/>
<text class="title" x="90" y="38">Fairness Proxy Comparison (95% CI)</text>
<text class="label" x="90" y="520">Scaled proxy value</text>
<line class="grid" x1="90" y1="70.0" x2="940" y2="70.0"/>
<text class="label" x="12" y="74.0">256.8</text>
<line class="grid" x1="90" y1="146.0" x2="940" y2="146.0"/>
<text class="label" x="12" y="150.0">205.4</text>
<line class="grid" x1="90" y1="222.0" x2="940" y2="222.0"/>
<text class="label" x="12" y="226.0">153.9</text>
<line class="grid" x1="90" y1="298.0" x2="940" y2="298.0"/>
<text class="label" x="12" y="302.0">102.5</text>
<line class="grid" x1="90" y1="374.0" x2="940" y2="374.0"/>
<text class="label" x="12" y="378.0">51.1</text>
<line class="grid" x1="90" y1="450.0" x2="940" y2="450.0"/>
<text class="label" x="12" y="454.0">-0.3</text>
<line class="axis" x1="90" y1="70" x2="90" y2="450"/>
<line class="axis" x1="90" y1="449.5" x2="940" y2="449.5"/>
<rect x="99.4" y="339.8" width="15.1" height="109.7" fill="#a78bfa" rx="8"/>
<line class="err" x1="107.0" y1="328.3" x2="107.0" y2="351.3"/>
<line class="err" x1="100.0" y1="328.3" x2="114.0" y2="328.3"/>
<line class="err" x1="100.0" y1="351.3" x2="114.0" y2="351.3"/>
<text class="value" x="107.0" y="318.3" text-anchor="middle">74.23</text>
<rect x="118.3" y="350.5" width="15.1" height="99.0" fill="#f472b6" rx="8"/>
<line class="err" x1="125.9" y1="345.5" x2="125.9" y2="355.6"/>
<line class="err" x1="118.9" y1="345.5" x2="132.9" y2="345.5"/>
<line class="err" x1="118.9" y1="355.6" x2="132.9" y2="355.6"/>
<text class="value" x="125.9" y="335.5" text-anchor="middle">66.96</text>
<text class="label" x="118.3" y="478" text-anchor="middle">Immediate</text>
<rect x="156.1" y="339.8" width="15.1" height="109.7" fill="#a78bfa" rx="8"/>
<line class="err" x1="163.7" y1="328.3" x2="163.7" y2="351.3"/>
<line class="err" x1="156.7" y1="328.3" x2="170.7" y2="328.3"/>
<line class="err" x1="156.7" y1="351.3" x2="170.7" y2="351.3"/>
<text class="value" x="163.7" y="318.3" text-anchor="middle">74.23</text>
<rect x="175.0" y="250.5" width="15.1" height="199.0" fill="#f472b6" rx="8"/>
<line class="err" x1="182.6" y1="241.8" x2="182.6" y2="259.3"/>
<line class="err" x1="175.6" y1="241.8" x2="189.6" y2="241.8"/>
<line class="err" x1="175.6" y1="259.3" x2="189.6" y2="259.3"/>
<text class="value" x="182.6" y="231.8" text-anchor="middle">134.62</text>
<text class="label" x="175.0" y="478" text-anchor="middle">SpeedBump 50</text>
<rect x="212.8" y="365.0" width="15.1" height="84.4" fill="#a78bfa" rx="8"/>
<line class="err" x1="220.3" y1="332.7" x2="220.3" y2="397.4"/>
<line class="err" x1="213.3" y1="332.7" x2="227.3" y2="332.7"/>
<line class="err" x1="213.3" y1="397.4" x2="227.3" y2="397.4"/>
<text class="value" x="220.3" y="322.7" text-anchor="middle">57.14</text>
<rect x="231.7" y="299.4" width="15.1" height="150.1" fill="#f472b6" rx="8"/>
<line class="err" x1="239.2" y1="292.9" x2="239.2" y2="305.9"/>
<line class="err" x1="232.2" y1="292.9" x2="246.2" y2="292.9"/>
<line class="err" x1="232.2" y1="305.9" x2="246.2" y2="305.9"/>
<text class="value" x="239.2" y="282.9" text-anchor="middle">101.58</text>
<text class="label" x="231.7" y="478" text-anchor="middle">FBA-100</text>
<rect x="269.4" y="409.1" width="15.1" height="40.3" fill="#a78bfa" rx="8"/>
<line class="err" x1="277.0" y1="382.2" x2="277.0" y2="436.1"/>
<line class="err" x1="270.0" y1="382.2" x2="284.0" y2="382.2"/>
<line class="err" x1="270.0" y1="436.1" x2="284.0" y2="436.1"/>
<text class="value" x="277.0" y="372.2" text-anchor="middle">27.30</text>
<rect x="288.3" y="356.8" width="15.1" height="92.7" fill="#f472b6" rx="8"/>
<line class="err" x1="295.9" y1="340.9" x2="295.9" y2="372.7"/>
<line class="err" x1="288.9" y1="340.9" x2="302.9" y2="340.9"/>
<line class="err" x1="288.9" y1="372.7" x2="302.9" y2="372.7"/>
<text class="value" x="295.9" y="330.9" text-anchor="middle">62.73</text>
<text class="label" x="288.3" y="478" text-anchor="middle">FBA-250</text>
<rect x="326.1" y="399.2" width="15.1" height="50.3" fill="#a78bfa" rx="8"/>
<line class="err" x1="333.7" y1="370.9" x2="333.7" y2="427.4"/>
<line class="err" x1="326.7" y1="370.9" x2="340.7" y2="370.9"/>
<line class="err" x1="326.7" y1="427.4" x2="340.7" y2="427.4"/>
<text class="value" x="333.7" y="360.9" text-anchor="middle">34.06</text>
<rect x="345.0" y="327.2" width="15.1" height="122.3" fill="#f472b6" rx="8"/>
<line class="err" x1="352.6" y1="283.7" x2="352.6" y2="370.7"/>
<line class="err" x1="345.6" y1="283.7" x2="359.6" y2="283.7"/>
<line class="err" x1="345.6" y1="370.7" x2="359.6" y2="370.7"/>
<text class="value" x="352.6" y="273.7" text-anchor="middle">82.76</text>
<text class="label" x="345.0" y="478" text-anchor="middle">FBA-500</text>
<rect x="382.8" y="394.1" width="15.1" height="55.4" fill="#a78bfa" rx="8"/>
<line class="err" x1="390.3" y1="369.7" x2="390.3" y2="418.6"/>
<line class="err" x1="383.3" y1="369.7" x2="397.3" y2="369.7"/>
<line class="err" x1="383.3" y1="418.6" x2="397.3" y2="418.6"/>
<text class="value" x="390.3" y="359.7" text-anchor="middle">37.46</text>
<rect x="401.7" y="372.3" width="15.1" height="77.1" fill="#f472b6" rx="8"/>
<line class="err" x1="409.2" y1="359.6" x2="409.2" y2="385.1"/>
<line class="err" x1="402.2" y1="359.6" x2="416.2" y2="359.6"/>
<line class="err" x1="402.2" y1="385.1" x2="416.2" y2="385.1"/>
<text class="value" x="409.2" y="349.6" text-anchor="middle">52.20</text>
<text class="label" x="401.7" y="478" text-anchor="middle">Adaptive B</text>
<rect x="439.4" y="413.4" width="15.1" height="36.0" fill="#a78bfa" rx="8"/>
<line class="err" x1="447.0" y1="382.6" x2="447.0" y2="444.3"/>
<line class="err" x1="440.0" y1="382.6" x2="454.0" y2="382.6"/>
<line class="err" x1="440.0" y1="444.3" x2="454.0" y2="444.3"/>
<text class="value" x="447.0" y="372.6" text-anchor="middle">24.38</text>
<rect x="458.3" y="339.1" width="15.1" height="110.4" fill="#f472b6" rx="8"/>
<line class="err" x1="465.9" y1="322.1" x2="465.9" y2="356.2"/>
<line class="err" x1="458.9" y1="322.1" x2="472.9" y2="322.1"/>
<line class="err" x1="458.9" y1="356.2" x2="472.9" y2="356.2"/>
<text class="value" x="465.9" y="312.1" text-anchor="middle">74.67</text>
<text class="label" x="458.3" y="478" text-anchor="middle">Adaptive OF</text>
<rect x="496.1" y="394.1" width="15.1" height="55.4" fill="#a78bfa" rx="8"/>
<line class="err" x1="503.7" y1="358.7" x2="503.7" y2="429.5"/>
<line class="err" x1="496.7" y1="358.7" x2="510.7" y2="358.7"/>
<line class="err" x1="496.7" y1="429.5" x2="510.7" y2="429.5"/>
<text class="value" x="503.7" y="348.7" text-anchor="middle">37.50</text>
<rect x="515.0" y="357.2" width="15.1" height="92.3" fill="#f472b6" rx="8"/>
<line class="err" x1="522.6" y1="348.9" x2="522.6" y2="365.6"/>
<line class="err" x1="515.6" y1="348.9" x2="529.6" y2="348.9"/>
<line class="err" x1="515.6" y1="365.6" x2="529.6" y2="365.6"/>
<text class="value" x="522.6" y="338.9" text-anchor="middle">62.42</text>
<text class="label" x="515.0" y="478" text-anchor="middle">Adaptive QL</text>
<rect x="552.8" y="404.4" width="15.1" height="45.1" fill="#a78bfa" rx="8"/>
<line class="err" x1="560.3" y1="372.8" x2="560.3" y2="436.1"/>
<line class="err" x1="553.3" y1="372.8" x2="567.3" y2="372.8"/>
<line class="err" x1="553.3" y1="436.1" x2="567.3" y2="436.1"/>
<text class="value" x="560.3" y="362.8" text-anchor="middle">30.49</text>
<rect x="571.7" y="357.7" width="15.1" height="91.8" fill="#f472b6" rx="8"/>
<line class="err" x1="579.2" y1="343.8" x2="579.2" y2="371.6"/>
<line class="err" x1="572.2" y1="343.8" x2="586.2" y2="343.8"/>
<line class="err" x1="572.2" y1="371.6" x2="586.2" y2="371.6"/>
<text class="value" x="579.2" y="333.8" text-anchor="middle">62.10</text>
<text class="label" x="571.7" y="478" text-anchor="middle">BurstAware</text>
<rect x="609.4" y="373.6" width="15.1" height="75.9" fill="#a78bfa" rx="8"/>
<line class="err" x1="617.0" y1="336.0" x2="617.0" y2="411.2"/>
<line class="err" x1="610.0" y1="336.0" x2="624.0" y2="336.0"/>
<line class="err" x1="610.0" y1="411.2" x2="624.0" y2="411.2"/>
<text class="value" x="617.0" y="326.0" text-anchor="middle">51.33</text>
<rect x="628.3" y="305.2" width="15.1" height="144.3" fill="#f472b6" rx="8"/>
<line class="err" x1="635.9" y1="295.0" x2="635.9" y2="315.3"/>
<line class="err" x1="628.9" y1="295.0" x2="642.9" y2="295.0"/>
<line class="err" x1="628.9" y1="315.3" x2="642.9" y2="315.3"/>
<text class="value" x="635.9" y="285.0" text-anchor="middle">97.66</text>
<text class="label" x="628.3" y="478" text-anchor="middle">LinUCB</text>
<rect x="666.1" y="399.8" width="15.1" height="49.7" fill="#a78bfa" rx="8"/>
<line class="err" x1="673.7" y1="361.9" x2="673.7" y2="437.7"/>
<line class="err" x1="666.7" y1="361.9" x2="680.7" y2="361.9"/>
<line class="err" x1="666.7" y1="437.7" x2="680.7" y2="437.7"/>
<text class="value" x="673.7" y="351.9" text-anchor="middle">33.65</text>
<rect x="685.0" y="323.0" width="15.1" height="126.5" fill="#f472b6" rx="8"/>
<line class="err" x1="692.6" y1="307.1" x2="692.6" y2="338.8"/>
<line class="err" x1="685.6" y1="307.1" x2="699.6" y2="307.1"/>
<line class="err" x1="685.6" y1="338.8" x2="699.6" y2="338.8"/>
<text class="value" x="692.6" y="297.1" text-anchor="middle">85.61</text>
<text class="label" x="685.0" y="478" text-anchor="middle">TinyMLP</text>
<rect x="722.8" y="406.0" width="15.1" height="43.5" fill="#a78bfa" rx="8"/>
<line class="err" x1="730.3" y1="382.9" x2="730.3" y2="429.0"/>
<line class="err" x1="723.3" y1="382.9" x2="737.3" y2="382.9"/>
<line class="err" x1="723.3" y1="429.0" x2="737.3" y2="429.0"/>
<text class="value" x="730.3" y="372.9" text-anchor="middle">29.44</text>
<rect x="741.7" y="335.5" width="15.1" height="114.0" fill="#f472b6" rx="8"/>
<line class="err" x1="749.2" y1="318.7" x2="749.2" y2="352.3"/>
<line class="err" x1="742.2" y1="318.7" x2="756.2" y2="318.7"/>
<line class="err" x1="742.2" y1="352.3" x2="756.2" y2="352.3"/>
<text class="value" x="749.2" y="308.7" text-anchor="middle">77.12</text>
<text class="label" x="741.7" y="478" text-anchor="middle">OfflineCtx</text>
<rect x="779.4" y="382.8" width="15.1" height="66.7" fill="#a78bfa" rx="8"/>
<line class="err" x1="787.0" y1="350.8" x2="787.0" y2="414.8"/>
<line class="err" x1="780.0" y1="350.8" x2="794.0" y2="350.8"/>
<line class="err" x1="780.0" y1="414.8" x2="794.0" y2="414.8"/>
<text class="value" x="787.0" y="340.8" text-anchor="middle">45.11</text>
<rect x="798.3" y="306.7" width="15.1" height="142.8" fill="#f472b6" rx="8"/>
<line class="err" x1="805.9" y1="296.7" x2="805.9" y2="316.6"/>
<line class="err" x1="798.9" y1="296.7" x2="812.9" y2="296.7"/>
<line class="err" x1="798.9" y1="316.6" x2="812.9" y2="316.6"/>
<text class="value" x="805.9" y="286.7" text-anchor="middle">96.64</text>
<text class="label" x="798.3" y="478" text-anchor="middle">FittedQ</text>
<rect x="836.1" y="385.7" width="15.1" height="63.8" fill="#a78bfa" rx="8"/>
<line class="err" x1="843.7" y1="353.3" x2="843.7" y2="418.1"/>
<line class="err" x1="836.7" y1="353.3" x2="850.7" y2="353.3"/>
<line class="err" x1="836.7" y1="418.1" x2="850.7" y2="418.1"/>
<text class="value" x="843.7" y="343.3" text-anchor="middle">43.14</text>
<rect x="855.0" y="307.1" width="15.1" height="142.4" fill="#f472b6" rx="8"/>
<line class="err" x1="862.6" y1="297.2" x2="862.6" y2="316.9"/>
<line class="err" x1="855.6" y1="297.2" x2="869.6" y2="297.2"/>
<line class="err" x1="855.6" y1="316.9" x2="869.6" y2="316.9"/>
<text class="value" x="862.6" y="287.2" text-anchor="middle">96.38</text>
<text class="label" x="855.0" y="478" text-anchor="middle">OnlineDQN</text>
<rect x="892.8" y="409.7" width="15.1" height="39.8" fill="#a78bfa" rx="8"/>
<line class="err" x1="900.3" y1="369.4" x2="900.3" y2="449.9"/>
<line class="err" x1="893.3" y1="369.4" x2="907.3" y2="369.4"/>
<line class="err" x1="893.3" y1="449.9" x2="907.3" y2="449.9"/>
<text class="value" x="900.3" y="359.4" text-anchor="middle">26.93</text>
<rect x="911.7" y="145.5" width="15.1" height="304.0" fill="#f472b6" rx="8"/>
<line class="err" x1="919.2" y1="110.7" x2="919.2" y2="180.3"/>
<line class="err" x1="912.2" y1="110.7" x2="926.2" y2="110.7"/>
<line class="err" x1="912.2" y1="180.3" x2="926.2" y2="180.3"/>
<text class="value" x="919.2" y="100.7" text-anchor="middle">205.70</text>
<text class="label" x="911.7" y="478" text-anchor="middle">Stress</text>
<rect x="730" y="22" width="14" height="14" fill="#a78bfa" rx="3"/>
<text class="legend" x="752" y="34">Queue Advantage x1000</text>
<rect x="730" y="44" width="14" height="14" fill="#f472b6" rx="3"/>
<text class="legend" x="752" y="56">Arb Profit / 10</text>
</svg>
