<svg xmlns="http://www.w3.org/2000/svg" width="980" height="540" viewBox="0 0 980 540" role="img">
<style>.title{font:700 20px Arial; fill:#f3f7ff;}.label{font:12px Arial; fill:#cbd8f0;}.value{font:11px Arial; fill:#eef5ff;}.axis{stroke:#4d6387; stroke-width:1;}.grid{stroke:#20324d; stroke-width:1; opacity:.8;}.legend{font:12px Arial; fill:#d7e7ff;}.bg{fill:#071423;}.err{stroke:#dbeafe; stroke-width:1.5;}</style>
<rect class="bg" x="0" y="0" width="980" height="540" rx="18"/>
<text class="title" x="90" y="38">Fairness Proxy Comparison (95% CI)</text>
<text class="label" x="90" y="520">Scaled proxy value</text>
<line class="grid" x1="90" y1="70.0" x2="940" y2="70.0"/>
<text class="label" x="12" y="74.0">257</text>
<line class="grid" x1="90" y1="146.0" x2="940" y2="146.0"/>
<text class="label" x="12" y="150.0">205</text>
<line class="grid" x1="90" y1="222.0" x2="940" y2="222.0"/>
<text class="label" x="12" y="226.0">154</text>
<line class="grid" x1="90" y1="298.0" x2="940" y2="298.0"/>
<text class="label" x="12" y="302.0">103</text>
<line class="grid" x1="90" y1="374.0" x2="940" y2="374.0"/>
<text class="label" x="12" y="378.0">51</text>
<line class="grid" x1="90" y1="450.0" x2="940" y2="450.0"/>
<text class="label" x="12" y="454.0">0</text>
<line class="axis" x1="90" y1="70" x2="90" y2="450"/>
<line class="axis" x1="90" y1="450" x2="940" y2="450"/>
<rect x="101.8" y="340.1" width="18.9" height="109.9" fill="#a78bfa" rx="8"/>
<line class="err" x1="111.2" y1="328.6" x2="111.2" y2="351.7"/>
<line class="err" x1="104.2" y1="328.6" x2="118.2" y2="328.6"/>
<line class="err" x1="104.2" y1="351.7" x2="118.2" y2="351.7"/>
<text class="value" x="111.2" y="318.6" text-anchor="middle">74.2</text>
<rect x="125.4" y="350.9" width="18.9" height="99.1" fill="#f472b6" rx="8"/>
<line class="err" x1="134.9" y1="345.8" x2="134.9" y2="356.0"/>
<line class="err" x1="127.9" y1="345.8" x2="141.9" y2="345.8"/>
<line class="err" x1="127.9" y1="356.0" x2="141.9" y2="356.0"/>
<text class="value" x="134.9" y="335.8" text-anchor="middle">67.0</text>
<text class="label" x="125.4" y="478" text-anchor="middle">Immediate</text>
<rect x="172.6" y="340.1" width="18.9" height="109.9" fill="#a78bfa" rx="8"/>
<line class="err" x1="182.1" y1="328.6" x2="182.1" y2="351.7"/>
<line class="err" x1="175.1" y1="328.6" x2="189.1" y2="328.6"/>
<line class="err" x1="175.1" y1="351.7" x2="189.1" y2="351.7"/>
<text class="value" x="182.1" y="318.6" text-anchor="middle">74.2</text>
<rect x="196.2" y="250.8" width="18.9" height="199.2" fill="#f472b6" rx="8"/>
<line class="err" x1="205.7" y1="242.0" x2="205.7" y2="259.5"/>
<line class="err" x1="198.7" y1="242.0" x2="212.7" y2="242.0"/>
<line class="err" x1="198.7" y1="259.5" x2="212.7" y2="259.5"/>
<text class="value" x="205.7" y="232.0" text-anchor="middle">134.6</text>
<text class="label" x="196.2" y="478" text-anchor="middle">SpeedBump 50ms</text>
<rect x="243.5" y="365.4" width="18.9" height="84.6" fill="#a78bfa" rx="8"/>
<line class="err" x1="252.9" y1="333.0" x2="252.9" y2="397.9"/>
<line class="err" x1="245.9" y1="333.0" x2="259.9" y2="333.0"/>
<line class="err" x1="245.9" y1="397.9" x2="259.9" y2="397.9"/>
<text class="value" x="252.9" y="323.0" text-anchor="middle">57.1</text>
<rect x="267.1" y="299.7" width="18.9" height="150.3" fill="#f472b6" rx="8"/>
<line class="err" x1="276.5" y1="293.2" x2="276.5" y2="306.2"/>
<line class="err" x1="269.5" y1="293.2" x2="283.5" y2="293.2"/>
<line class="err" x1="269.5" y1="306.2" x2="283.5" y2="306.2"/>
<text class="value" x="276.5" y="283.2" text-anchor="middle">101.6</text>
<text class="label" x="267.1" y="478" text-anchor="middle">100ms</text>
<rect x="314.3" y="409.6" width="18.9" height="40.4" fill="#a78bfa" rx="8"/>
<line class="err" x1="323.8" y1="382.7" x2="323.8" y2="436.6"/>
<line class="err" x1="316.8" y1="382.7" x2="330.8" y2="382.7"/>
<line class="err" x1="316.8" y1="436.6" x2="330.8" y2="436.6"/>
<text class="value" x="323.8" y="372.7" text-anchor="middle">27.3</text>
<rect x="337.9" y="357.2" width="18.9" height="92.8" fill="#f472b6" rx="8"/>
<line class="err" x1="347.4" y1="341.2" x2="347.4" y2="373.1"/>
<line class="err" x1="340.4" y1="341.2" x2="354.4" y2="341.2"/>
<line class="err" x1="340.4" y1="373.1" x2="354.4" y2="373.1"/>
<text class="value" x="347.4" y="331.2" text-anchor="middle">62.7</text>
<text class="label" x="337.9" y="478" text-anchor="middle">250ms</text>
<rect x="385.1" y="399.6" width="18.9" height="50.4" fill="#a78bfa" rx="8"/>
<line class="err" x1="394.6" y1="371.3" x2="394.6" y2="427.9"/>
<line class="err" x1="387.6" y1="371.3" x2="401.6" y2="371.3"/>
<line class="err" x1="387.6" y1="427.9" x2="401.6" y2="427.9"/>
<text class="value" x="394.6" y="361.3" text-anchor="middle">34.1</text>
<rect x="408.8" y="327.5" width="18.9" height="122.5" fill="#f472b6" rx="8"/>
<line class="err" x1="418.2" y1="284.0" x2="418.2" y2="371.1"/>
<line class="err" x1="411.2" y1="284.0" x2="425.2" y2="284.0"/>
<line class="err" x1="411.2" y1="371.1" x2="425.2" y2="371.1"/>
<text class="value" x="418.2" y="274.0" text-anchor="middle">82.8</text>
<text class="label" x="408.8" y="478" text-anchor="middle">500ms</text>
<rect x="456.0" y="394.6" width="18.9" height="55.4" fill="#a78bfa" rx="8"/>
<line class="err" x1="465.4" y1="370.1" x2="465.4" y2="419.0"/>
<line class="err" x1="458.4" y1="370.1" x2="472.4" y2="370.1"/>
<line class="err" x1="458.4" y1="419.0" x2="472.4" y2="419.0"/>
<text class="value" x="465.4" y="360.1" text-anchor="middle">37.5</text>
<rect x="479.6" y="372.7" width="18.9" height="77.3" fill="#f472b6" rx="8"/>
<line class="err" x1="489.0" y1="360.0" x2="489.0" y2="385.5"/>
<line class="err" x1="482.0" y1="360.0" x2="496.0" y2="360.0"/>
<line class="err" x1="482.0" y1="385.5" x2="496.0" y2="385.5"/>
<text class="value" x="489.0" y="350.0" text-anchor="middle">52.2</text>
<text class="label" x="479.6" y="478" text-anchor="middle">Adaptive 100-250ms</text>
<rect x="526.8" y="413.9" width="18.9" height="36.1" fill="#a78bfa" rx="8"/>
<line class="err" x1="536.2" y1="383.0" x2="536.2" y2="444.8"/>
<line class="err" x1="529.2" y1="383.0" x2="543.2" y2="383.0"/>
<line class="err" x1="529.2" y1="444.8" x2="543.2" y2="444.8"/>
<text class="value" x="536.2" y="373.0" text-anchor="middle">24.4</text>
<rect x="550.4" y="339.5" width="18.9" height="110.5" fill="#f472b6" rx="8"/>
<line class="err" x1="559.9" y1="322.4" x2="559.9" y2="356.5"/>
<line class="err" x1="552.9" y1="322.4" x2="566.9" y2="322.4"/>
<line class="err" x1="552.9" y1="356.5" x2="566.9" y2="356.5"/>
<text class="value" x="559.9" y="312.4" text-anchor="middle">74.7</text>
<text class="label" x="550.4" y="478" text-anchor="middle">Adaptive OrderFlow-100-250ms</text>
<rect x="597.6" y="394.5" width="18.9" height="55.5" fill="#a78bfa" rx="8"/>
<line class="err" x1="607.1" y1="359.1" x2="607.1" y2="429.9"/>
<line class="err" x1="600.1" y1="359.1" x2="614.1" y2="359.1"/>
<line class="err" x1="600.1" y1="429.9" x2="614.1" y2="429.9"/>
<text class="value" x="607.1" y="349.1" text-anchor="middle">37.5</text>
<rect x="621.2" y="357.6" width="18.9" height="92.4" fill="#f472b6" rx="8"/>
<line class="err" x1="630.7" y1="349.3" x2="630.7" y2="366.0"/>
<line class="err" x1="623.7" y1="349.3" x2="637.7" y2="349.3"/>
<line class="err" x1="623.7" y1="366.0" x2="637.7" y2="366.0"/>
<text class="value" x="630.7" y="339.3" text-anchor="middle">62.4</text>
<text class="label" x="621.2" y="478" text-anchor="middle">Adaptive QueueLoad-100-250ms</text>
<rect x="668.5" y="404.9" width="18.9" height="45.1" fill="#a78bfa" rx="8"/>
<line class="err" x1="677.9" y1="373.2" x2="677.9" y2="436.5"/>
<line class="err" x1="670.9" y1="373.2" x2="684.9" y2="373.2"/>
<line class="err" x1="670.9" y1="436.5" x2="684.9" y2="436.5"/>
<text class="value" x="677.9" y="363.2" text-anchor="middle">30.5</text>
<rect x="692.1" y="358.1" width="18.9" height="91.9" fill="#f472b6" rx="8"/>
<line class="err" x1="701.5" y1="344.2" x2="701.5" y2="372.0"/>
<line class="err" x1="694.5" y1="344.2" x2="708.5" y2="344.2"/>
<line class="err" x1="694.5" y1="372.0" x2="708.5" y2="372.0"/>
<text class="value" x="701.5" y="334.2" text-anchor="middle">62.1</text>
<text class="label" x="692.1" y="478" text-anchor="middle">Policy-BurstAware-100-250ms</text>
<rect x="739.3" y="383.9" width="18.9" height="66.1" fill="#a78bfa" rx="8"/>
<line class="err" x1="748.8" y1="350.8" x2="748.8" y2="416.9"/>
<line class="err" x1="741.8" y1="350.8" x2="755.8" y2="350.8"/>
<line class="err" x1="741.8" y1="416.9" x2="755.8" y2="416.9"/>
<text class="value" x="748.8" y="340.8" text-anchor="middle">44.7</text>
<rect x="762.9" y="308.0" width="18.9" height="142.0" fill="#f472b6" rx="8"/>
<line class="err" x1="772.4" y1="298.6" x2="772.4" y2="317.4"/>
<line class="err" x1="765.4" y1="298.6" x2="779.4" y2="298.6"/>
<line class="err" x1="765.4" y1="317.4" x2="779.4" y2="317.4"/>
<text class="value" x="772.4" y="288.6" text-anchor="middle">96.0</text>
<text class="label" x="762.9" y="478" text-anchor="middle">Policy-LearnedLinUCB-100-250ms</text>
<rect x="810.1" y="408.9" width="18.9" height="41.1" fill="#a78bfa" rx="8"/>
<line class="err" x1="819.6" y1="377.2" x2="819.6" y2="440.6"/>
<line class="err" x1="812.6" y1="377.2" x2="826.6" y2="377.2"/>
<line class="err" x1="812.6" y1="440.6" x2="826.6" y2="440.6"/>
<text class="value" x="819.6" y="367.2" text-anchor="middle">27.8</text>
<rect x="833.7" y="268.1" width="18.9" height="181.9" fill="#f472b6" rx="8"/>
<line class="err" x1="843.2" y1="252.0" x2="843.2" y2="284.2"/>
<line class="err" x1="836.2" y1="252.0" x2="850.2" y2="252.0"/>
<line class="err" x1="836.2" y1="284.2" x2="850.2" y2="284.2"/>
<text class="value" x="843.2" y="242.0" text-anchor="middle">122.9</text>
<text class="label" x="833.7" y="478" text-anchor="middle">Policy-LearnedTinyMLP-100-250ms</text>
<rect x="881.0" y="410.1" width="18.9" height="39.9" fill="#a78bfa" rx="8"/>
<line class="err" x1="890.4" y1="369.8" x2="890.4" y2="450.0"/>
<line class="err" x1="883.4" y1="369.8" x2="897.4" y2="369.8"/>
<line class="err" x1="883.4" y1="450.0" x2="897.4" y2="450.0"/>
<text class="value" x="890.4" y="359.8" text-anchor="middle">26.9</text>
<rect x="904.6" y="145.6" width="18.9" height="304.4" fill="#f472b6" rx="8"/>
<line class="err" x1="914.0" y1="110.7" x2="914.0" y2="180.5"/>
<line class="err" x1="907.0" y1="110.7" x2="921.0" y2="110.7"/>
<line class="err" x1="907.0" y1="180.5" x2="921.0" y2="180.5"/>
<text class="value" x="914.0" y="100.7" text-anchor="middle">205.7</text>
<text class="label" x="904.6" y="478" text-anchor="middle">250ms Stress</text>
<rect x="730" y="22" width="14" height="14" fill="#a78bfa" rx="3"/>
<text class="legend" x="752" y="34">Queue Advantage x1000</text>
<rect x="730" y="44" width="14" height="14" fill="#f472b6" rx="3"/>
<text class="legend" x="752" y="56">Arb Profit / 10</text>
</svg>
