<svg xmlns="http://www.w3.org/2000/svg" width="980" height="540" viewBox="0 0 980 540" role="img">
<style>.title{font:700 20px Arial; fill:#f3f7ff;}.label{font:12px Arial; fill:#cbd8f0;}.value{font:11px Arial; fill:#eef5ff;}.axis{stroke:#4d6387; stroke-width:1;}.grid{stroke:#20324d; stroke-width:1; opacity:.8;}.legend{font:12px Arial; fill:#d7e7ff;}.bg{fill:#071423;}.err{stroke:#dbeafe; stroke-width:1.5;}</style>
<rect class="bg" x="0" y="0" width="980" height="540" rx="18"/>
<text class="title" x="90" y="38">Fairness Proxy Comparison (95% CI)</text>
<text class="label" x="90" y="520">Scaled proxy value</text>
<line class="grid" x1="90" y1="70.0" x2="940" y2="70.0"/>
<text class="label" x="12" y="74.0">256.8</text>
<line class="grid" x1="90" y1="146.0" x2="940" y2="146.0"/>
<text class="label" x="12" y="150.0">205.4</text>
<line class="grid" x1="90" y1="222.0" x2="940" y2="222.0"/>
<text class="label" x="12" y="226.0">153.9</text>
<line class="grid" x1="90" y1="298.0" x2="940" y2="298.0"/>
<text class="label" x="12" y="302.0">102.5</text>
<line class="grid" x1="90" y1="374.0" x2="940" y2="374.0"/>
<text class="label" x="12" y="378.0">51.1</text>
<line class="grid" x1="90" y1="450.0" x2="940" y2="450.0"/>
<text class="label" x="12" y="454.0">-0.3</text>
<line class="axis" x1="90" y1="70" x2="90" y2="450"/>
<line class="axis" x1="90" y1="449.5" x2="940" y2="449.5"/>
<rect x="100.1" y="339.8" width="16.2" height="109.7" fill="#a78bfa" rx="8"/>
<line class="err" x1="108.2" y1="328.3" x2="108.2" y2="351.3"/>
<line class="err" x1="101.2" y1="328.3" x2="115.2" y2="328.3"/>
<line class="err" x1="101.2" y1="351.3" x2="115.2" y2="351.3"/>
<text class="value" x="108.2" y="318.3" text-anchor="middle">74.23</text>
<rect x="120.4" y="350.5" width="16.2" height="99.0" fill="#f472b6" rx="8"/>
<line class="err" x1="128.5" y1="345.5" x2="128.5" y2="355.6"/>
<line class="err" x1="121.5" y1="345.5" x2="135.5" y2="345.5"/>
<line class="err" x1="121.5" y1="355.6" x2="135.5" y2="355.6"/>
<text class="value" x="128.5" y="335.5" text-anchor="middle">66.96</text>
<text class="label" x="120.4" y="478" text-anchor="middle">Immediate</text>
<rect x="160.8" y="339.8" width="16.2" height="109.7" fill="#a78bfa" rx="8"/>
<line class="err" x1="168.9" y1="328.3" x2="168.9" y2="351.3"/>
<line class="err" x1="161.9" y1="328.3" x2="175.9" y2="328.3"/>
<line class="err" x1="161.9" y1="351.3" x2="175.9" y2="351.3"/>
<text class="value" x="168.9" y="318.3" text-anchor="middle">74.23</text>
<rect x="181.1" y="250.5" width="16.2" height="199.0" fill="#f472b6" rx="8"/>
<line class="err" x1="189.2" y1="241.8" x2="189.2" y2="259.3"/>
<line class="err" x1="182.2" y1="241.8" x2="196.2" y2="241.8"/>
<line class="err" x1="182.2" y1="259.3" x2="196.2" y2="259.3"/>
<text class="value" x="189.2" y="231.8" text-anchor="middle">134.62</text>
<text class="label" x="181.1" y="478" text-anchor="middle">SpeedBump 50</text>
<rect x="221.5" y="365.0" width="16.2" height="84.4" fill="#a78bfa" rx="8"/>
<line class="err" x1="229.6" y1="332.7" x2="229.6" y2="397.4"/>
<line class="err" x1="222.6" y1="332.7" x2="236.6" y2="332.7"/>
<line class="err" x1="222.6" y1="397.4" x2="236.6" y2="397.4"/>
<text class="value" x="229.6" y="322.7" text-anchor="middle">57.14</text>
<rect x="241.8" y="299.4" width="16.2" height="150.1" fill="#f472b6" rx="8"/>
<line class="err" x1="249.9" y1="292.9" x2="249.9" y2="305.9"/>
<line class="err" x1="242.9" y1="292.9" x2="256.9" y2="292.9"/>
<line class="err" x1="242.9" y1="305.9" x2="256.9" y2="305.9"/>
<text class="value" x="249.9" y="282.9" text-anchor="middle">101.58</text>
<text class="label" x="241.8" y="478" text-anchor="middle">FBA-100</text>
<rect x="282.3" y="409.1" width="16.2" height="40.3" fill="#a78bfa" rx="8"/>
<line class="err" x1="290.4" y1="382.2" x2="290.4" y2="436.1"/>
<line class="err" x1="283.4" y1="382.2" x2="297.4" y2="382.2"/>
<line class="err" x1="283.4" y1="436.1" x2="297.4" y2="436.1"/>
<text class="value" x="290.4" y="372.2" text-anchor="middle">27.30</text>
<rect x="302.5" y="356.8" width="16.2" height="92.7" fill="#f472b6" rx="8"/>
<line class="err" x1="310.6" y1="340.9" x2="310.6" y2="372.7"/>
<line class="err" x1="303.6" y1="340.9" x2="317.6" y2="340.9"/>
<line class="err" x1="303.6" y1="372.7" x2="317.6" y2="372.7"/>
<text class="value" x="310.6" y="330.9" text-anchor="middle">62.73</text>
<text class="label" x="302.5" y="478" text-anchor="middle">FBA-250</text>
<rect x="343.0" y="399.2" width="16.2" height="50.3" fill="#a78bfa" rx="8"/>
<line class="err" x1="351.1" y1="370.9" x2="351.1" y2="427.4"/>
<line class="err" x1="344.1" y1="370.9" x2="358.1" y2="370.9"/>
<line class="err" x1="344.1" y1="427.4" x2="358.1" y2="427.4"/>
<text class="value" x="351.1" y="360.9" text-anchor="middle">34.06</text>
<rect x="363.2" y="327.2" width="16.2" height="122.3" fill="#f472b6" rx="8"/>
<line class="err" x1="371.3" y1="283.7" x2="371.3" y2="370.7"/>
<line class="err" x1="364.3" y1="283.7" x2="378.3" y2="283.7"/>
<line class="err" x1="364.3" y1="370.7" x2="378.3" y2="370.7"/>
<text class="value" x="371.3" y="273.7" text-anchor="middle">82.76</text>
<text class="label" x="363.2" y="478" text-anchor="middle">FBA-500</text>
<rect x="403.7" y="394.1" width="16.2" height="55.4" fill="#a78bfa" rx="8"/>
<line class="err" x1="411.8" y1="369.7" x2="411.8" y2="418.6"/>
<line class="err" x1="404.8" y1="369.7" x2="418.8" y2="369.7"/>
<line class="err" x1="404.8" y1="418.6" x2="418.8" y2="418.6"/>
<text class="value" x="411.8" y="359.7" text-anchor="middle">37.46</text>
<rect x="423.9" y="372.3" width="16.2" height="77.1" fill="#f472b6" rx="8"/>
<line class="err" x1="432.0" y1="359.6" x2="432.0" y2="385.1"/>
<line class="err" x1="425.0" y1="359.6" x2="439.0" y2="359.6"/>
<line class="err" x1="425.0" y1="385.1" x2="439.0" y2="385.1"/>
<text class="value" x="432.0" y="349.6" text-anchor="middle">52.20</text>
<text class="label" x="423.9" y="478" text-anchor="middle">Adaptive B</text>
<rect x="464.4" y="413.4" width="16.2" height="36.0" fill="#a78bfa" rx="8"/>
<line class="err" x1="472.5" y1="382.6" x2="472.5" y2="444.3"/>
<line class="err" x1="465.5" y1="382.6" x2="479.5" y2="382.6"/>
<line class="err" x1="465.5" y1="444.3" x2="479.5" y2="444.3"/>
<text class="value" x="472.5" y="372.6" text-anchor="middle">24.38</text>
<rect x="484.6" y="339.1" width="16.2" height="110.4" fill="#f472b6" rx="8"/>
<line class="err" x1="492.7" y1="322.1" x2="492.7" y2="356.2"/>
<line class="err" x1="485.7" y1="322.1" x2="499.7" y2="322.1"/>
<line class="err" x1="485.7" y1="356.2" x2="499.7" y2="356.2"/>
<text class="value" x="492.7" y="312.1" text-anchor="middle">74.67</text>
<text class="label" x="484.6" y="478" text-anchor="middle">Adaptive OF</text>
<rect x="525.1" y="394.1" width="16.2" height="55.4" fill="#a78bfa" rx="8"/>
<line class="err" x1="533.2" y1="358.7" x2="533.2" y2="429.5"/>
<line class="err" x1="526.2" y1="358.7" x2="540.2" y2="358.7"/>
<line class="err" x1="526.2" y1="429.5" x2="540.2" y2="429.5"/>
<text class="value" x="533.2" y="348.7" text-anchor="middle">37.50</text>
<rect x="545.4" y="357.2" width="16.2" height="92.3" fill="#f472b6" rx="8"/>
<line class="err" x1="553.5" y1="348.9" x2="553.5" y2="365.6"/>
<line class="err" x1="546.5" y1="348.9" x2="560.5" y2="348.9"/>
<line class="err" x1="546.5" y1="365.6" x2="560.5" y2="365.6"/>
<text class="value" x="553.5" y="338.9" text-anchor="middle">62.42</text>
<text class="label" x="545.4" y="478" text-anchor="middle">Adaptive QL</text>
<rect x="585.8" y="404.4" width="16.2" height="45.1" fill="#a78bfa" rx="8"/>
<line class="err" x1="593.9" y1="372.8" x2="593.9" y2="436.1"/>
<line class="err" x1="586.9" y1="372.8" x2="600.9" y2="372.8"/>
<line class="err" x1="586.9" y1="436.1" x2="600.9" y2="436.1"/>
<text class="value" x="593.9" y="362.8" text-anchor="middle">30.49</text>
<rect x="606.1" y="357.7" width="16.2" height="91.8" fill="#f472b6" rx="8"/>
<line class="err" x1="614.2" y1="343.8" x2="614.2" y2="371.6"/>
<line class="err" x1="607.2" y1="343.8" x2="621.2" y2="343.8"/>
<line class="err" x1="607.2" y1="371.6" x2="621.2" y2="371.6"/>
<text class="value" x="614.2" y="333.8" text-anchor="middle">62.10</text>
<text class="label" x="606.1" y="478" text-anchor="middle">BurstAware</text>
<rect x="646.5" y="373.6" width="16.2" height="75.9" fill="#a78bfa" rx="8"/>
<line class="err" x1="654.6" y1="336.0" x2="654.6" y2="411.2"/>
<line class="err" x1="647.6" y1="336.0" x2="661.6" y2="336.0"/>
<line class="err" x1="647.6" y1="411.2" x2="661.6" y2="411.2"/>
<text class="value" x="654.6" y="326.0" text-anchor="middle">51.33</text>
<rect x="666.8" y="305.2" width="16.2" height="144.3" fill="#f472b6" rx="8"/>
<line class="err" x1="674.9" y1="295.0" x2="674.9" y2="315.3"/>
<line class="err" x1="667.9" y1="295.0" x2="681.9" y2="295.0"/>
<line class="err" x1="667.9" y1="315.3" x2="681.9" y2="315.3"/>
<text class="value" x="674.9" y="285.0" text-anchor="middle">97.66</text>
<text class="label" x="666.8" y="478" text-anchor="middle">LinUCB</text>
<rect x="707.3" y="399.8" width="16.2" height="49.7" fill="#a78bfa" rx="8"/>
<line class="err" x1="715.4" y1="361.9" x2="715.4" y2="437.7"/>
<line class="err" x1="708.4" y1="361.9" x2="722.4" y2="361.9"/>
<line class="err" x1="708.4" y1="437.7" x2="722.4" y2="437.7"/>
<text class="value" x="715.4" y="351.9" text-anchor="middle">33.65</text>
<rect x="727.5" y="323.0" width="16.2" height="126.5" fill="#f472b6" rx="8"/>
<line class="err" x1="735.6" y1="307.1" x2="735.6" y2="338.8"/>
<line class="err" x1="728.6" y1="307.1" x2="742.6" y2="307.1"/>
<line class="err" x1="728.6" y1="338.8" x2="742.6" y2="338.8"/>
<text class="value" x="735.6" y="297.1" text-anchor="middle">85.61</text>
<text class="label" x="727.5" y="478" text-anchor="middle">TinyMLP</text>
<rect x="768.0" y="406.0" width="16.2" height="43.5" fill="#a78bfa" rx="8"/>
<line class="err" x1="776.1" y1="382.9" x2="776.1" y2="429.0"/>
<line class="err" x1="769.1" y1="382.9" x2="783.1" y2="382.9"/>
<line class="err" x1="769.1" y1="429.0" x2="783.1" y2="429.0"/>
<text class="value" x="776.1" y="372.9" text-anchor="middle">29.44</text>
<rect x="788.2" y="335.5" width="16.2" height="114.0" fill="#f472b6" rx="8"/>
<line class="err" x1="796.3" y1="318.7" x2="796.3" y2="352.3"/>
<line class="err" x1="789.3" y1="318.7" x2="803.3" y2="318.7"/>
<line class="err" x1="789.3" y1="352.3" x2="803.3" y2="352.3"/>
<text class="value" x="796.3" y="308.7" text-anchor="middle">77.12</text>
<text class="label" x="788.2" y="478" text-anchor="middle">OfflineCtx</text>
<rect x="828.7" y="382.8" width="16.2" height="66.7" fill="#a78bfa" rx="8"/>
<line class="err" x1="836.8" y1="350.8" x2="836.8" y2="414.8"/>
<line class="err" x1="829.8" y1="350.8" x2="843.8" y2="350.8"/>
<line class="err" x1="829.8" y1="414.8" x2="843.8" y2="414.8"/>
<text class="value" x="836.8" y="340.8" text-anchor="middle">45.11</text>
<rect x="848.9" y="306.7" width="16.2" height="142.8" fill="#f472b6" rx="8"/>
<line class="err" x1="857.0" y1="296.7" x2="857.0" y2="316.6"/>
<line class="err" x1="850.0" y1="296.7" x2="864.0" y2="296.7"/>
<line class="err" x1="850.0" y1="316.6" x2="864.0" y2="316.6"/>
<text class="value" x="857.0" y="286.7" text-anchor="middle">96.64</text>
<text class="label" x="848.9" y="478" text-anchor="middle">FittedQ</text>
<rect x="889.4" y="409.7" width="16.2" height="39.8" fill="#a78bfa" rx="8"/>
<line class="err" x1="897.5" y1="369.4" x2="897.5" y2="449.9"/>
<line class="err" x1="890.5" y1="369.4" x2="904.5" y2="369.4"/>
<line class="err" x1="890.5" y1="449.9" x2="904.5" y2="449.9"/>
<text class="value" x="897.5" y="359.4" text-anchor="middle">26.93</text>
<rect x="909.6" y="145.5" width="16.2" height="304.0" fill="#f472b6" rx="8"/>
<line class="err" x1="917.7" y1="110.7" x2="917.7" y2="180.3"/>
<line class="err" x1="910.7" y1="110.7" x2="924.7" y2="110.7"/>
<line class="err" x1="910.7" y1="180.3" x2="924.7" y2="180.3"/>
<text class="value" x="917.7" y="100.7" text-anchor="middle">205.70</text>
<text class="label" x="909.6" y="478" text-anchor="middle">Stress</text>
<rect x="730" y="22" width="14" height="14" fill="#a78bfa" rx="3"/>
<text class="legend" x="752" y="34">Queue Advantage x1000</text>
<rect x="730" y="44" width="14" height="14" fill="#f472b6" rx="3"/>
<text class="legend" x="752" y="56">Arb Profit / 10</text>
</svg>
