<svg xmlns="http://www.w3.org/2000/svg" width="980" height="540" viewBox="0 0 980 540" role="img">
<style>.title{font:700 20px Arial; fill:#f3f7ff;}.label{font:12px Arial; fill:#cbd8f0;}.value{font:11px Arial; fill:#eef5ff;}.axis{stroke:#4d6387; stroke-width:1;}.grid{stroke:#20324d; stroke-width:1; opacity:.8;}.legend{font:12px Arial; fill:#d7e7ff;}.bg{fill:#071423;}.err{stroke:#dbeafe; stroke-width:1.5;}</style>
<rect class="bg" x="0" y="0" width="980" height="540" rx="18"/>
<text class="title" x="90" y="38">Fairness Proxy Comparison (95% CI)</text>
<text class="label" x="90" y="520">Scaled proxy value</text>
<line class="grid" x1="90" y1="70.0" x2="940" y2="70.0"/>
<text class="label" x="12" y="74.0">257</text>
<line class="grid" x1="90" y1="146.0" x2="940" y2="146.0"/>
<text class="label" x="12" y="150.0">205</text>
<line class="grid" x1="90" y1="222.0" x2="940" y2="222.0"/>
<text class="label" x="12" y="226.0">154</text>
<line class="grid" x1="90" y1="298.0" x2="940" y2="298.0"/>
<text class="label" x="12" y="302.0">103</text>
<line class="grid" x1="90" y1="374.0" x2="940" y2="374.0"/>
<text class="label" x="12" y="378.0">51</text>
<line class="grid" x1="90" y1="450.0" x2="940" y2="450.0"/>
<text class="label" x="12" y="454.0">0</text>
<line class="axis" x1="90" y1="70" x2="90" y2="450"/>
<line class="axis" x1="90" y1="450" x2="940" y2="450"/>
<rect x="102.9" y="340.1" width="20.6" height="109.9" fill="#a78bfa" rx="8"/>
<line class="err" x1="113.2" y1="328.6" x2="113.2" y2="351.7"/>
<line class="err" x1="106.2" y1="328.6" x2="120.2" y2="328.6"/>
<line class="err" x1="106.2" y1="351.7" x2="120.2" y2="351.7"/>
<text class="value" x="113.2" y="318.6" text-anchor="middle">74.2</text>
<rect x="128.6" y="350.9" width="20.6" height="99.1" fill="#f472b6" rx="8"/>
<line class="err" x1="138.9" y1="345.8" x2="138.9" y2="356.0"/>
<line class="err" x1="131.9" y1="345.8" x2="145.9" y2="345.8"/>
<line class="err" x1="131.9" y1="356.0" x2="145.9" y2="356.0"/>
<text class="value" x="138.9" y="335.8" text-anchor="middle">67.0</text>
<text class="label" x="128.6" y="478" text-anchor="middle">Immediate</text>
<rect x="180.2" y="340.1" width="20.6" height="109.9" fill="#a78bfa" rx="8"/>
<line class="err" x1="190.5" y1="328.6" x2="190.5" y2="351.7"/>
<line class="err" x1="183.5" y1="328.6" x2="197.5" y2="328.6"/>
<line class="err" x1="183.5" y1="351.7" x2="197.5" y2="351.7"/>
<text class="value" x="190.5" y="318.6" text-anchor="middle">74.2</text>
<rect x="205.9" y="250.8" width="20.6" height="199.2" fill="#f472b6" rx="8"/>
<line class="err" x1="216.2" y1="242.0" x2="216.2" y2="259.5"/>
<line class="err" x1="209.2" y1="242.0" x2="223.2" y2="242.0"/>
<line class="err" x1="209.2" y1="259.5" x2="223.2" y2="259.5"/>
<text class="value" x="216.2" y="232.0" text-anchor="middle">134.6</text>
<text class="label" x="205.9" y="478" text-anchor="middle">SpeedBump 50ms</text>
<rect x="257.4" y="365.4" width="20.6" height="84.6" fill="#a78bfa" rx="8"/>
<line class="err" x1="267.7" y1="333.0" x2="267.7" y2="397.9"/>
<line class="err" x1="260.7" y1="333.0" x2="274.7" y2="333.0"/>
<line class="err" x1="260.7" y1="397.9" x2="274.7" y2="397.9"/>
<text class="value" x="267.7" y="323.0" text-anchor="middle">57.1</text>
<rect x="283.2" y="299.7" width="20.6" height="150.3" fill="#f472b6" rx="8"/>
<line class="err" x1="293.5" y1="293.2" x2="293.5" y2="306.2"/>
<line class="err" x1="286.5" y1="293.2" x2="300.5" y2="293.2"/>
<line class="err" x1="286.5" y1="306.2" x2="300.5" y2="306.2"/>
<text class="value" x="293.5" y="283.2" text-anchor="middle">101.6</text>
<text class="label" x="283.2" y="478" text-anchor="middle">100ms</text>
<rect x="334.7" y="409.6" width="20.6" height="40.4" fill="#a78bfa" rx="8"/>
<line class="err" x1="345.0" y1="382.7" x2="345.0" y2="436.6"/>
<line class="err" x1="338.0" y1="382.7" x2="352.0" y2="382.7"/>
<line class="err" x1="338.0" y1="436.6" x2="352.0" y2="436.6"/>
<text class="value" x="345.0" y="372.7" text-anchor="middle">27.3</text>
<rect x="360.5" y="357.2" width="20.6" height="92.8" fill="#f472b6" rx="8"/>
<line class="err" x1="370.8" y1="341.2" x2="370.8" y2="373.1"/>
<line class="err" x1="363.8" y1="341.2" x2="377.8" y2="341.2"/>
<line class="err" x1="363.8" y1="373.1" x2="377.8" y2="373.1"/>
<text class="value" x="370.8" y="331.2" text-anchor="middle">62.7</text>
<text class="label" x="360.5" y="478" text-anchor="middle">250ms</text>
<rect x="412.0" y="399.6" width="20.6" height="50.4" fill="#a78bfa" rx="8"/>
<line class="err" x1="422.3" y1="371.3" x2="422.3" y2="427.9"/>
<line class="err" x1="415.3" y1="371.3" x2="429.3" y2="371.3"/>
<line class="err" x1="415.3" y1="427.9" x2="429.3" y2="427.9"/>
<text class="value" x="422.3" y="361.3" text-anchor="middle">34.1</text>
<rect x="437.7" y="327.5" width="20.6" height="122.5" fill="#f472b6" rx="8"/>
<line class="err" x1="448.0" y1="284.0" x2="448.0" y2="371.1"/>
<line class="err" x1="441.0" y1="284.0" x2="455.0" y2="284.0"/>
<line class="err" x1="441.0" y1="371.1" x2="455.0" y2="371.1"/>
<text class="value" x="448.0" y="274.0" text-anchor="middle">82.8</text>
<text class="label" x="437.7" y="478" text-anchor="middle">500ms</text>
<rect x="489.2" y="394.6" width="20.6" height="55.4" fill="#a78bfa" rx="8"/>
<line class="err" x1="499.5" y1="370.1" x2="499.5" y2="419.0"/>
<line class="err" x1="492.5" y1="370.1" x2="506.5" y2="370.1"/>
<line class="err" x1="492.5" y1="419.0" x2="506.5" y2="419.0"/>
<text class="value" x="499.5" y="360.1" text-anchor="middle">37.5</text>
<rect x="515.0" y="372.7" width="20.6" height="77.3" fill="#f472b6" rx="8"/>
<line class="err" x1="525.3" y1="360.0" x2="525.3" y2="385.5"/>
<line class="err" x1="518.3" y1="360.0" x2="532.3" y2="360.0"/>
<line class="err" x1="518.3" y1="385.5" x2="532.3" y2="385.5"/>
<text class="value" x="525.3" y="350.0" text-anchor="middle">52.2</text>
<text class="label" x="515.0" y="478" text-anchor="middle">Adaptive 100-250ms</text>
<rect x="566.5" y="413.9" width="20.6" height="36.1" fill="#a78bfa" rx="8"/>
<line class="err" x1="576.8" y1="383.0" x2="576.8" y2="444.8"/>
<line class="err" x1="569.8" y1="383.0" x2="583.8" y2="383.0"/>
<line class="err" x1="569.8" y1="444.8" x2="583.8" y2="444.8"/>
<text class="value" x="576.8" y="373.0" text-anchor="middle">24.4</text>
<rect x="592.3" y="339.5" width="20.6" height="110.5" fill="#f472b6" rx="8"/>
<line class="err" x1="602.6" y1="322.4" x2="602.6" y2="356.5"/>
<line class="err" x1="595.6" y1="322.4" x2="609.6" y2="322.4"/>
<line class="err" x1="595.6" y1="356.5" x2="609.6" y2="356.5"/>
<text class="value" x="602.6" y="312.4" text-anchor="middle">74.7</text>
<text class="label" x="592.3" y="478" text-anchor="middle">Adaptive OrderFlow-100-250ms</text>
<rect x="643.8" y="394.5" width="20.6" height="55.5" fill="#a78bfa" rx="8"/>
<line class="err" x1="654.1" y1="359.1" x2="654.1" y2="429.9"/>
<line class="err" x1="647.1" y1="359.1" x2="661.1" y2="359.1"/>
<line class="err" x1="647.1" y1="429.9" x2="661.1" y2="429.9"/>
<text class="value" x="654.1" y="349.1" text-anchor="middle">37.5</text>
<rect x="669.5" y="357.6" width="20.6" height="92.4" fill="#f472b6" rx="8"/>
<line class="err" x1="679.8" y1="349.3" x2="679.8" y2="366.0"/>
<line class="err" x1="672.8" y1="349.3" x2="686.8" y2="349.3"/>
<line class="err" x1="672.8" y1="366.0" x2="686.8" y2="366.0"/>
<text class="value" x="679.8" y="339.3" text-anchor="middle">62.4</text>
<text class="label" x="669.5" y="478" text-anchor="middle">Adaptive QueueLoad-100-250ms</text>
<rect x="721.1" y="397.5" width="20.6" height="52.5" fill="#a78bfa" rx="8"/>
<line class="err" x1="731.4" y1="369.9" x2="731.4" y2="425.0"/>
<line class="err" x1="724.4" y1="369.9" x2="738.4" y2="369.9"/>
<line class="err" x1="724.4" y1="425.0" x2="738.4" y2="425.0"/>
<text class="value" x="731.4" y="359.9" text-anchor="middle">35.5</text>
<rect x="746.8" y="355.6" width="20.6" height="94.4" fill="#f472b6" rx="8"/>
<line class="err" x1="757.1" y1="341.0" x2="757.1" y2="370.3"/>
<line class="err" x1="750.1" y1="341.0" x2="764.1" y2="341.0"/>
<line class="err" x1="750.1" y1="370.3" x2="764.1" y2="370.3"/>
<text class="value" x="757.1" y="331.0" text-anchor="middle">63.8</text>
<text class="label" x="746.8" y="478" text-anchor="middle">Policy-BurstAware-100-250ms</text>
<rect x="798.3" y="380.5" width="20.6" height="69.5" fill="#a78bfa" rx="8"/>
<line class="err" x1="808.6" y1="349.9" x2="808.6" y2="411.0"/>
<line class="err" x1="801.6" y1="349.9" x2="815.6" y2="349.9"/>
<line class="err" x1="801.6" y1="411.0" x2="815.6" y2="411.0"/>
<text class="value" x="808.6" y="339.9" text-anchor="middle">47.0</text>
<rect x="824.1" y="350.5" width="20.6" height="99.5" fill="#f472b6" rx="8"/>
<line class="err" x1="834.4" y1="339.3" x2="834.4" y2="361.6"/>
<line class="err" x1="827.4" y1="339.3" x2="841.4" y2="339.3"/>
<line class="err" x1="827.4" y1="361.6" x2="841.4" y2="361.6"/>
<text class="value" x="834.4" y="329.3" text-anchor="middle">67.3</text>
<text class="label" x="824.1" y="478" text-anchor="middle">Policy-LearnedLinear-100-250ms</text>
<rect x="875.6" y="410.1" width="20.6" height="39.9" fill="#a78bfa" rx="8"/>
<line class="err" x1="885.9" y1="369.8" x2="885.9" y2="450.0"/>
<line class="err" x1="878.9" y1="369.8" x2="892.9" y2="369.8"/>
<line class="err" x1="878.9" y1="450.0" x2="892.9" y2="450.0"/>
<text class="value" x="885.9" y="359.8" text-anchor="middle">26.9</text>
<rect x="901.4" y="145.6" width="20.6" height="304.4" fill="#f472b6" rx="8"/>
<line class="err" x1="911.7" y1="110.7" x2="911.7" y2="180.5"/>
<line class="err" x1="904.7" y1="110.7" x2="918.7" y2="110.7"/>
<line class="err" x1="904.7" y1="180.5" x2="918.7" y2="180.5"/>
<text class="value" x="911.7" y="100.7" text-anchor="middle">205.7</text>
<text class="label" x="901.4" y="478" text-anchor="middle">250ms Stress</text>
<rect x="730" y="22" width="14" height="14" fill="#a78bfa" rx="3"/>
<text class="legend" x="752" y="34">Queue Advantage x1000</text>
<rect x="730" y="44" width="14" height="14" fill="#f472b6" rx="3"/>
<text class="legend" x="752" y="56">Arb Profit / 10</text>
</svg>
