<svg xmlns="http://www.w3.org/2000/svg" width="980" height="540" viewBox="0 0 980 540" role="img">
<style>.title{font:700 20px Arial; fill:#f3f7ff;}.label{font:12px Arial; fill:#cbd8f0;}.value{font:11px Arial; fill:#eef5ff;}.axis{stroke:#4d6387; stroke-width:1;}.grid{stroke:#20324d; stroke-width:1; opacity:.8;}.legend{font:12px Arial; fill:#d7e7ff;}.bg{fill:#071423;}.err{stroke:#dbeafe; stroke-width:1.5;}</style>
<rect class="bg" x="0" y="0" width="980" height="540" rx="18"/>
<text class="title" x="90" y="38">Fairness Proxy Comparison (95% CI)</text>
<text class="label" x="90" y="520">Scaled proxy value</text>
<line class="grid" x1="90" y1="70.0" x2="940" y2="70.0"/>
<text class="label" x="12" y="74.0">257</text>
<line class="grid" x1="90" y1="146.0" x2="940" y2="146.0"/>
<text class="label" x="12" y="150.0">205</text>
<line class="grid" x1="90" y1="222.0" x2="940" y2="222.0"/>
<text class="label" x="12" y="226.0">154</text>
<line class="grid" x1="90" y1="298.0" x2="940" y2="298.0"/>
<text class="label" x="12" y="302.0">103</text>
<line class="grid" x1="90" y1="374.0" x2="940" y2="374.0"/>
<text class="label" x="12" y="378.0">51</text>
<line class="grid" x1="90" y1="450.0" x2="940" y2="450.0"/>
<text class="label" x="12" y="454.0">0</text>
<line class="axis" x1="90" y1="70" x2="90" y2="450"/>
<line class="axis" x1="90" y1="450" x2="940" y2="450"/>
<rect x="110.2" y="340.1" width="32.4" height="109.9" fill="#a78bfa" rx="8"/>
<line class="err" x1="126.4" y1="328.6" x2="126.4" y2="351.7"/>
<line class="err" x1="119.4" y1="328.6" x2="133.4" y2="328.6"/>
<line class="err" x1="119.4" y1="351.7" x2="133.4" y2="351.7"/>
<text class="value" x="126.4" y="318.6" text-anchor="middle">74.2</text>
<rect x="150.7" y="350.9" width="32.4" height="99.1" fill="#f472b6" rx="8"/>
<line class="err" x1="166.9" y1="345.8" x2="166.9" y2="356.0"/>
<line class="err" x1="159.9" y1="345.8" x2="173.9" y2="345.8"/>
<line class="err" x1="159.9" y1="356.0" x2="173.9" y2="356.0"/>
<text class="value" x="166.9" y="335.8" text-anchor="middle">67.0</text>
<text class="label" x="150.7" y="478" text-anchor="middle">Immediate</text>
<rect x="231.7" y="340.1" width="32.4" height="109.9" fill="#a78bfa" rx="8"/>
<line class="err" x1="247.9" y1="328.6" x2="247.9" y2="351.7"/>
<line class="err" x1="240.9" y1="328.6" x2="254.9" y2="328.6"/>
<line class="err" x1="240.9" y1="351.7" x2="254.9" y2="351.7"/>
<text class="value" x="247.9" y="318.6" text-anchor="middle">74.2</text>
<rect x="272.1" y="250.8" width="32.4" height="199.2" fill="#f472b6" rx="8"/>
<line class="err" x1="288.3" y1="242.0" x2="288.3" y2="259.5"/>
<line class="err" x1="281.3" y1="242.0" x2="295.3" y2="242.0"/>
<line class="err" x1="281.3" y1="259.5" x2="295.3" y2="259.5"/>
<text class="value" x="288.3" y="232.0" text-anchor="middle">134.6</text>
<text class="label" x="272.1" y="478" text-anchor="middle">SpeedBump 50ms</text>
<rect x="353.1" y="365.4" width="32.4" height="84.6" fill="#a78bfa" rx="8"/>
<line class="err" x1="369.3" y1="333.0" x2="369.3" y2="397.9"/>
<line class="err" x1="362.3" y1="333.0" x2="376.3" y2="333.0"/>
<line class="err" x1="362.3" y1="397.9" x2="376.3" y2="397.9"/>
<text class="value" x="369.3" y="323.0" text-anchor="middle">57.1</text>
<rect x="393.6" y="299.7" width="32.4" height="150.3" fill="#f472b6" rx="8"/>
<line class="err" x1="409.8" y1="293.2" x2="409.8" y2="306.2"/>
<line class="err" x1="402.8" y1="293.2" x2="416.8" y2="293.2"/>
<line class="err" x1="402.8" y1="306.2" x2="416.8" y2="306.2"/>
<text class="value" x="409.8" y="283.2" text-anchor="middle">101.6</text>
<text class="label" x="393.6" y="478" text-anchor="middle">100ms</text>
<rect x="474.5" y="409.6" width="32.4" height="40.4" fill="#a78bfa" rx="8"/>
<line class="err" x1="490.7" y1="382.7" x2="490.7" y2="436.6"/>
<line class="err" x1="483.7" y1="382.7" x2="497.7" y2="382.7"/>
<line class="err" x1="483.7" y1="436.6" x2="497.7" y2="436.6"/>
<text class="value" x="490.7" y="372.7" text-anchor="middle">27.3</text>
<rect x="515.0" y="357.2" width="32.4" height="92.8" fill="#f472b6" rx="8"/>
<line class="err" x1="531.2" y1="341.2" x2="531.2" y2="373.1"/>
<line class="err" x1="524.2" y1="341.2" x2="538.2" y2="341.2"/>
<line class="err" x1="524.2" y1="373.1" x2="538.2" y2="373.1"/>
<text class="value" x="531.2" y="331.2" text-anchor="middle">62.7</text>
<text class="label" x="515.0" y="478" text-anchor="middle">250ms</text>
<rect x="596.0" y="399.6" width="32.4" height="50.4" fill="#a78bfa" rx="8"/>
<line class="err" x1="612.1" y1="371.3" x2="612.1" y2="427.9"/>
<line class="err" x1="605.1" y1="371.3" x2="619.1" y2="371.3"/>
<line class="err" x1="605.1" y1="427.9" x2="619.1" y2="427.9"/>
<text class="value" x="612.1" y="361.3" text-anchor="middle">34.1</text>
<rect x="636.4" y="327.5" width="32.4" height="122.5" fill="#f472b6" rx="8"/>
<line class="err" x1="652.6" y1="284.0" x2="652.6" y2="371.1"/>
<line class="err" x1="645.6" y1="284.0" x2="659.6" y2="284.0"/>
<line class="err" x1="645.6" y1="371.1" x2="659.6" y2="371.1"/>
<text class="value" x="652.6" y="274.0" text-anchor="middle">82.8</text>
<text class="label" x="636.4" y="478" text-anchor="middle">500ms</text>
<rect x="717.4" y="394.6" width="32.4" height="55.4" fill="#a78bfa" rx="8"/>
<line class="err" x1="733.6" y1="370.1" x2="733.6" y2="419.0"/>
<line class="err" x1="726.6" y1="370.1" x2="740.6" y2="370.1"/>
<line class="err" x1="726.6" y1="419.0" x2="740.6" y2="419.0"/>
<text class="value" x="733.6" y="360.1" text-anchor="middle">37.5</text>
<rect x="757.9" y="372.7" width="32.4" height="77.3" fill="#f472b6" rx="8"/>
<line class="err" x1="774.0" y1="360.0" x2="774.0" y2="385.5"/>
<line class="err" x1="767.0" y1="360.0" x2="781.0" y2="360.0"/>
<line class="err" x1="767.0" y1="385.5" x2="781.0" y2="385.5"/>
<text class="value" x="774.0" y="350.0" text-anchor="middle">52.2</text>
<text class="label" x="757.9" y="478" text-anchor="middle">Adaptive 100-250ms</text>
<rect x="838.8" y="410.1" width="32.4" height="39.9" fill="#a78bfa" rx="8"/>
<line class="err" x1="855.0" y1="369.8" x2="855.0" y2="450.0"/>
<line class="err" x1="848.0" y1="369.8" x2="862.0" y2="369.8"/>
<line class="err" x1="848.0" y1="450.0" x2="862.0" y2="450.0"/>
<text class="value" x="855.0" y="359.8" text-anchor="middle">26.9</text>
<rect x="879.3" y="145.6" width="32.4" height="304.4" fill="#f472b6" rx="8"/>
<line class="err" x1="895.5" y1="110.7" x2="895.5" y2="180.5"/>
<line class="err" x1="888.5" y1="110.7" x2="902.5" y2="110.7"/>
<line class="err" x1="888.5" y1="180.5" x2="902.5" y2="180.5"/>
<text class="value" x="895.5" y="100.7" text-anchor="middle">205.7</text>
<text class="label" x="879.3" y="478" text-anchor="middle">250ms Stress</text>
<rect x="730" y="22" width="14" height="14" fill="#a78bfa" rx="3"/>
<text class="legend" x="752" y="34">Queue Advantage x1000</text>
<rect x="730" y="44" width="14" height="14" fill="#f472b6" rx="3"/>
<text class="legend" x="752" y="56">Arb Profit / 10</text>
</svg>
