<svg xmlns="http://www.w3.org/2000/svg" width="980" height="540" viewBox="0 0 980 540" role="img">
<style>.title{font:700 20px Arial; fill:#f3f7ff;}.label{font:12px Arial; fill:#cbd8f0;}.value{font:11px Arial; fill:#eef5ff;}.axis{stroke:#4d6387; stroke-width:1;}.grid{stroke:#20324d; stroke-width:1; opacity:.8;}.legend{font:12px Arial; fill:#d7e7ff;}.bg{fill:#071423;}.err{stroke:#dbeafe; stroke-width:1.5;}</style>
<rect class="bg" x="0" y="0" width="980" height="540" rx="18"/>
<text class="title" x="90" y="38">Fairness Proxy Comparison (95% CI)</text>
<text class="label" x="90" y="520">Scaled proxy value</text>
<line class="grid" x1="90" y1="70.0" x2="940" y2="70.0"/>
<text class="label" x="12" y="74.0">257</text>
<line class="grid" x1="90" y1="146.0" x2="940" y2="146.0"/>
<text class="label" x="12" y="150.0">205</text>
<line class="grid" x1="90" y1="222.0" x2="940" y2="222.0"/>
<text class="label" x="12" y="226.0">154</text>
<line class="grid" x1="90" y1="298.0" x2="940" y2="298.0"/>
<text class="label" x="12" y="302.0">103</text>
<line class="grid" x1="90" y1="374.0" x2="940" y2="374.0"/>
<text class="label" x="12" y="378.0">51</text>
<line class="grid" x1="90" y1="450.0" x2="940" y2="450.0"/>
<text class="label" x="12" y="454.0">0</text>
<line class="axis" x1="90" y1="70" x2="90" y2="450"/>
<line class="axis" x1="90" y1="450" x2="940" y2="450"/>
<rect x="105.7" y="340.1" width="25.2" height="109.9" fill="#a78bfa" rx="8"/>
<line class="err" x1="118.3" y1="328.6" x2="118.3" y2="351.7"/>
<line class="err" x1="111.3" y1="328.6" x2="125.3" y2="328.6"/>
<line class="err" x1="111.3" y1="351.7" x2="125.3" y2="351.7"/>
<text class="value" x="118.3" y="318.6" text-anchor="middle">74.2</text>
<rect x="137.2" y="350.9" width="25.2" height="99.1" fill="#f472b6" rx="8"/>
<line class="err" x1="149.8" y1="345.8" x2="149.8" y2="356.0"/>
<line class="err" x1="142.8" y1="345.8" x2="156.8" y2="345.8"/>
<line class="err" x1="142.8" y1="356.0" x2="156.8" y2="356.0"/>
<text class="value" x="149.8" y="335.8" text-anchor="middle">67.0</text>
<text class="label" x="137.2" y="478" text-anchor="middle">Immediate</text>
<rect x="200.2" y="340.1" width="25.2" height="109.9" fill="#a78bfa" rx="8"/>
<line class="err" x1="212.8" y1="328.6" x2="212.8" y2="351.7"/>
<line class="err" x1="205.8" y1="328.6" x2="219.8" y2="328.6"/>
<line class="err" x1="205.8" y1="351.7" x2="219.8" y2="351.7"/>
<text class="value" x="212.8" y="318.6" text-anchor="middle">74.2</text>
<rect x="231.7" y="250.8" width="25.2" height="199.2" fill="#f472b6" rx="8"/>
<line class="err" x1="244.3" y1="242.0" x2="244.3" y2="259.5"/>
<line class="err" x1="237.3" y1="242.0" x2="251.3" y2="242.0"/>
<line class="err" x1="237.3" y1="259.5" x2="251.3" y2="259.5"/>
<text class="value" x="244.3" y="232.0" text-anchor="middle">134.6</text>
<text class="label" x="231.7" y="478" text-anchor="middle">SpeedBump 50ms</text>
<rect x="294.6" y="365.4" width="25.2" height="84.6" fill="#a78bfa" rx="8"/>
<line class="err" x1="307.2" y1="333.0" x2="307.2" y2="397.9"/>
<line class="err" x1="300.2" y1="333.0" x2="314.2" y2="333.0"/>
<line class="err" x1="300.2" y1="397.9" x2="314.2" y2="397.9"/>
<text class="value" x="307.2" y="323.0" text-anchor="middle">57.1</text>
<rect x="326.1" y="299.7" width="25.2" height="150.3" fill="#f472b6" rx="8"/>
<line class="err" x1="338.7" y1="293.2" x2="338.7" y2="306.2"/>
<line class="err" x1="331.7" y1="293.2" x2="345.7" y2="293.2"/>
<line class="err" x1="331.7" y1="306.2" x2="345.7" y2="306.2"/>
<text class="value" x="338.7" y="283.2" text-anchor="middle">101.6</text>
<text class="label" x="326.1" y="478" text-anchor="middle">100ms</text>
<rect x="389.1" y="409.6" width="25.2" height="40.4" fill="#a78bfa" rx="8"/>
<line class="err" x1="401.7" y1="382.7" x2="401.7" y2="436.6"/>
<line class="err" x1="394.7" y1="382.7" x2="408.7" y2="382.7"/>
<line class="err" x1="394.7" y1="436.6" x2="408.7" y2="436.6"/>
<text class="value" x="401.7" y="372.7" text-anchor="middle">27.3</text>
<rect x="420.6" y="357.2" width="25.2" height="92.8" fill="#f472b6" rx="8"/>
<line class="err" x1="433.1" y1="341.2" x2="433.1" y2="373.1"/>
<line class="err" x1="426.1" y1="341.2" x2="440.1" y2="341.2"/>
<line class="err" x1="426.1" y1="373.1" x2="440.1" y2="373.1"/>
<text class="value" x="433.1" y="331.2" text-anchor="middle">62.7</text>
<text class="label" x="420.6" y="478" text-anchor="middle">250ms</text>
<rect x="483.5" y="399.6" width="25.2" height="50.4" fill="#a78bfa" rx="8"/>
<line class="err" x1="496.1" y1="371.3" x2="496.1" y2="427.9"/>
<line class="err" x1="489.1" y1="371.3" x2="503.1" y2="371.3"/>
<line class="err" x1="489.1" y1="427.9" x2="503.1" y2="427.9"/>
<text class="value" x="496.1" y="361.3" text-anchor="middle">34.1</text>
<rect x="515.0" y="327.5" width="25.2" height="122.5" fill="#f472b6" rx="8"/>
<line class="err" x1="527.6" y1="284.0" x2="527.6" y2="371.1"/>
<line class="err" x1="520.6" y1="284.0" x2="534.6" y2="284.0"/>
<line class="err" x1="520.6" y1="371.1" x2="534.6" y2="371.1"/>
<text class="value" x="527.6" y="274.0" text-anchor="middle">82.8</text>
<text class="label" x="515.0" y="478" text-anchor="middle">500ms</text>
<rect x="578.0" y="394.6" width="25.2" height="55.4" fill="#a78bfa" rx="8"/>
<line class="err" x1="590.6" y1="370.1" x2="590.6" y2="419.0"/>
<line class="err" x1="583.6" y1="370.1" x2="597.6" y2="370.1"/>
<line class="err" x1="583.6" y1="419.0" x2="597.6" y2="419.0"/>
<text class="value" x="590.6" y="360.1" text-anchor="middle">37.5</text>
<rect x="609.4" y="372.7" width="25.2" height="77.3" fill="#f472b6" rx="8"/>
<line class="err" x1="622.0" y1="360.0" x2="622.0" y2="385.5"/>
<line class="err" x1="615.0" y1="360.0" x2="629.0" y2="360.0"/>
<line class="err" x1="615.0" y1="385.5" x2="629.0" y2="385.5"/>
<text class="value" x="622.0" y="350.0" text-anchor="middle">52.2</text>
<text class="label" x="609.4" y="478" text-anchor="middle">Adaptive 100-250ms</text>
<rect x="672.4" y="413.9" width="25.2" height="36.1" fill="#a78bfa" rx="8"/>
<line class="err" x1="685.0" y1="383.0" x2="685.0" y2="444.8"/>
<line class="err" x1="678.0" y1="383.0" x2="692.0" y2="383.0"/>
<line class="err" x1="678.0" y1="444.8" x2="692.0" y2="444.8"/>
<text class="value" x="685.0" y="373.0" text-anchor="middle">24.4</text>
<rect x="703.9" y="339.5" width="25.2" height="110.5" fill="#f472b6" rx="8"/>
<line class="err" x1="716.5" y1="322.4" x2="716.5" y2="356.5"/>
<line class="err" x1="709.5" y1="322.4" x2="723.5" y2="322.4"/>
<line class="err" x1="709.5" y1="356.5" x2="723.5" y2="356.5"/>
<text class="value" x="716.5" y="312.4" text-anchor="middle">74.7</text>
<text class="label" x="703.9" y="478" text-anchor="middle">Adaptive OrderFlow-100-250ms</text>
<rect x="766.9" y="394.5" width="25.2" height="55.5" fill="#a78bfa" rx="8"/>
<line class="err" x1="779.4" y1="359.1" x2="779.4" y2="429.9"/>
<line class="err" x1="772.4" y1="359.1" x2="786.4" y2="359.1"/>
<line class="err" x1="772.4" y1="429.9" x2="786.4" y2="429.9"/>
<text class="value" x="779.4" y="349.1" text-anchor="middle">37.5</text>
<rect x="798.3" y="357.6" width="25.2" height="92.4" fill="#f472b6" rx="8"/>
<line class="err" x1="810.9" y1="349.3" x2="810.9" y2="366.0"/>
<line class="err" x1="803.9" y1="349.3" x2="817.9" y2="349.3"/>
<line class="err" x1="803.9" y1="366.0" x2="817.9" y2="366.0"/>
<text class="value" x="810.9" y="339.3" text-anchor="middle">62.4</text>
<text class="label" x="798.3" y="478" text-anchor="middle">Adaptive QueueLoad-100-250ms</text>
<rect x="861.3" y="410.1" width="25.2" height="39.9" fill="#a78bfa" rx="8"/>
<line class="err" x1="873.9" y1="369.8" x2="873.9" y2="450.0"/>
<line class="err" x1="866.9" y1="369.8" x2="880.9" y2="369.8"/>
<line class="err" x1="866.9" y1="450.0" x2="880.9" y2="450.0"/>
<text class="value" x="873.9" y="359.8" text-anchor="middle">26.9</text>
<rect x="892.8" y="145.6" width="25.2" height="304.4" fill="#f472b6" rx="8"/>
<line class="err" x1="905.4" y1="110.7" x2="905.4" y2="180.5"/>
<line class="err" x1="898.4" y1="110.7" x2="912.4" y2="110.7"/>
<line class="err" x1="898.4" y1="180.5" x2="912.4" y2="180.5"/>
<text class="value" x="905.4" y="100.7" text-anchor="middle">205.7</text>
<text class="label" x="892.8" y="478" text-anchor="middle">250ms Stress</text>
<rect x="730" y="22" width="14" height="14" fill="#a78bfa" rx="3"/>
<text class="legend" x="752" y="34">Queue Advantage x1000</text>
<rect x="730" y="44" width="14" height="14" fill="#f472b6" rx="3"/>
<text class="legend" x="752" y="56">Arb Profit / 10</text>
</svg>
