<svg xmlns="http://www.w3.org/2000/svg" width="880" height="540" viewBox="0 0 880 540" role="img">
<style>.title{font:700 20px Arial; fill:#f3f7ff;}.label{font:12px Arial; fill:#cbd8f0;}.value{font:11px Arial; fill:#eef5ff;}.axis{stroke:#4d6387; stroke-width:1;}.grid{stroke:#20324d; stroke-width:1; opacity:.8;}.legend{font:12px Arial; fill:#d7e7ff;}.bg{fill:#071423;}.err{stroke:#dbeafe; stroke-width:1.5;}</style>
<rect class="bg" x="0" y="0" width="880" height="540" rx="18"/>
<text class="title" x="150" y="38">Parameter Grid: p99 Latency Heatmap</text>
<text class="label" x="150" y="520">Rows: arbitrageur intensity, columns: maker quote width</text>
<text class="legend" x="225.0" y="72" text-anchor="middle">Maker x1</text>
<text class="legend" x="375.0" y="72" text-anchor="middle">Maker x2</text>
<text class="legend" x="525.0" y="72" text-anchor="middle">Maker x3</text>
<text class="legend" x="130" y="139.0" text-anchor="end">Arb x0</text>
<rect x="150" y="90" width="142" height="82" fill="#6a8da9" rx="12" opacity="0.88"/>
<text class="value" x="221.0" y="125.0" text-anchor="middle">390.0</text>
<text class="label" x="221.0" y="148.0" text-anchor="middle">+/- 88.7</text>
<rect x="300" y="90" width="142" height="82" fill="#da5580" rx="12" opacity="0.88"/>
<text class="value" x="371.0" y="125.0" text-anchor="middle">450.0</text>
<text class="label" x="371.0" y="148.0" text-anchor="middle">+/- 21.9</text>
<rect x="450" y="90" width="142" height="82" fill="#6a8da9" rx="12" opacity="0.88"/>
<text class="value" x="521.0" y="125.0" text-anchor="middle">390.0</text>
<text class="label" x="521.0" y="148.0" text-anchor="middle">+/- 101.1</text>
<text class="legend" x="130" y="229.0" text-anchor="end">Arb x1</text>
<rect x="150" y="180" width="142" height="82" fill="#16b8c8" rx="12" opacity="0.88"/>
<text class="value" x="221.0" y="215.0" text-anchor="middle">345.0</text>
<text class="label" x="221.0" y="238.0" text-anchor="middle">+/- 103.1</text>
<rect x="300" y="180" width="142" height="82" fill="#28aec1" rx="12" opacity="0.88"/>
<text class="value" x="371.0" y="215.0" text-anchor="middle">355.0</text>
<text class="label" x="371.0" y="238.0" text-anchor="middle">+/- 85.6</text>
<rect x="450" y="180" width="142" height="82" fill="#16b8c8" rx="12" opacity="0.88"/>
<text class="value" x="521.0" y="215.0" text-anchor="middle">345.0</text>
<text class="label" x="521.0" y="238.0" text-anchor="middle">+/- 161.3</text>
<text class="legend" x="130" y="319.0" text-anchor="end">Arb x2</text>
<rect x="150" y="270" width="142" height="82" fill="#6a8da9" rx="12" opacity="0.88"/>
<text class="value" x="221.0" y="305.0" text-anchor="middle">390.0</text>
<text class="label" x="221.0" y="328.0" text-anchor="middle">+/- 63.1</text>
<rect x="300" y="270" width="142" height="82" fill="#8182a0" rx="12" opacity="0.88"/>
<text class="value" x="371.0" y="305.0" text-anchor="middle">402.5</text>
<text class="label" x="371.0" y="328.0" text-anchor="middle">+/- 97.1</text>
<rect x="450" y="270" width="142" height="82" fill="#f24a78" rx="12" opacity="0.88"/>
<text class="value" x="521.0" y="305.0" text-anchor="middle">462.5</text>
<text class="label" x="521.0" y="328.0" text-anchor="middle">+/- 122.1</text>
<text class="legend" x="130" y="409.0" text-anchor="end">Arb x3</text>
<rect x="150" y="360" width="142" height="82" fill="#e3517d" rx="12" opacity="0.88"/>
<text class="value" x="221.0" y="395.0" text-anchor="middle">455.0</text>
<text class="label" x="221.0" y="418.0" text-anchor="middle">+/- 26.4</text>
<rect x="300" y="360" width="142" height="82" fill="#a27194" rx="12" opacity="0.88"/>
<text class="value" x="371.0" y="395.0" text-anchor="middle">420.0</text>
<text class="label" x="371.0" y="418.0" text-anchor="middle">+/- 69.6</text>
<rect x="450" y="360" width="142" height="82" fill="#f24a78" rx="12" opacity="0.88"/>
<text class="value" x="521.0" y="395.0" text-anchor="middle">462.5</text>
<text class="label" x="521.0" y="418.0" text-anchor="middle">+/- 36.9</text>
</svg>
