<svg xmlns="http://www.w3.org/2000/svg" width="980" height="540" viewBox="0 0 980 540" role="img">
<style>.title{font:700 20px Arial; fill:#f3f7ff;}.label{font:12px Arial; fill:#cbd8f0;}.value{font:11px Arial; fill:#eef5ff;}.axis{stroke:#4d6387; stroke-width:1;}.grid{stroke:#20324d; stroke-width:1; opacity:.8;}.legend{font:12px Arial; fill:#d7e7ff;}.bg{fill:#071423;}.err{stroke:#dbeafe; stroke-width:1.5;}</style>
<rect class="bg" x="0" y="0" width="980" height="540" rx="18"/>
<text class="title" x="90" y="38">Latency Profile (95% CI)</text>
<text class="label" x="90" y="520">Latency (ms)</text>
<line class="grid" x1="90" y1="70.0" x2="940" y2="70.0"/>
<text class="label" x="12" y="74.0">942</text>
<line class="grid" x1="90" y1="146.0" x2="940" y2="146.0"/>
<text class="label" x="12" y="150.0">754</text>
<line class="grid" x1="90" y1="222.0" x2="940" y2="222.0"/>
<text class="label" x="12" y="226.0">565</text>
<line class="grid" x1="90" y1="298.0" x2="940" y2="298.0"/>
<text class="label" x="12" y="302.0">377</text>
<line class="grid" x1="90" y1="374.0" x2="940" y2="374.0"/>
<text class="label" x="12" y="378.0">188</text>
<line class="grid" x1="90" y1="450.0" x2="940" y2="450.0"/>
<text class="label" x="12" y="454.0">0</text>
<line class="axis" x1="90" y1="70" x2="90" y2="450"/>
<line class="axis" x1="90" y1="450" x2="940" y2="450"/>
<text class="label" x="90.0" y="478" text-anchor="middle">Immediate</text>
<text class="label" x="150.7" y="478" text-anchor="middle">SpeedBump 50</text>
<text class="label" x="211.4" y="478" text-anchor="middle">FBA-100</text>
<text class="label" x="272.1" y="478" text-anchor="middle">FBA-250</text>
<text class="label" x="332.9" y="478" text-anchor="middle">FBA-500</text>
<text class="label" x="393.6" y="478" text-anchor="middle">Adaptive B</text>
<text class="label" x="454.3" y="478" text-anchor="middle">Adaptive OF</text>
<text class="label" x="515.0" y="478" text-anchor="middle">Adaptive QL</text>
<text class="label" x="575.7" y="478" text-anchor="middle">BurstAware</text>
<text class="label" x="636.4" y="478" text-anchor="middle">LinUCB</text>
<text class="label" x="697.1" y="478" text-anchor="middle">TinyMLP</text>
<text class="label" x="757.9" y="478" text-anchor="middle">OfflineCtx</text>
<text class="label" x="818.6" y="478" text-anchor="middle">FittedQ</text>
<text class="label" x="879.3" y="478" text-anchor="middle">OnlineDQN</text>
<text class="label" x="940.0" y="478" text-anchor="middle">Stress</text>
<polyline fill="none" stroke="#34d399" stroke-width="4" points="90.0,446.0 150.7,425.8 211.4,432.3 272.1,411.7 332.9,362.3 393.6,416.7 454.3,412.2 515.0,413.7 575.7,410.7 636.4,431.3 697.1,426.3 757.9,423.8 818.6,430.8 879.3,431.8 940.0,410.2"/>
<line class="err" x1="90.0" y1="446.0" x2="90.0" y2="446.0"/>
<line class="err" x1="83.0" y1="446.0" x2="97.0" y2="446.0"/>
<line class="err" x1="83.0" y1="446.0" x2="97.0" y2="446.0"/>
<circle cx="90.0" cy="446.0" r="5" fill="#34d399"/>
<text class="value" x="90.0" y="436.0" text-anchor="middle">10.0</text>
<line class="err" x1="150.7" y1="425.8" x2="150.7" y2="425.8"/>
<line class="err" x1="143.7" y1="425.8" x2="157.7" y2="425.8"/>
<line class="err" x1="143.7" y1="425.8" x2="157.7" y2="425.8"/>
<circle cx="150.7" cy="425.8" r="5" fill="#34d399"/>
<text class="value" x="150.7" y="415.8" text-anchor="middle">60.0</text>
<line class="err" x1="211.4" y1="431.0" x2="211.4" y2="433.7"/>
<line class="err" x1="204.4" y1="431.0" x2="218.4" y2="431.0"/>
<line class="err" x1="204.4" y1="433.7" x2="218.4" y2="433.7"/>
<circle cx="211.4" cy="432.3" r="5" fill="#34d399"/>
<text class="value" x="211.4" y="421.0" text-anchor="middle">43.8</text>
<line class="err" x1="272.1" y1="409.3" x2="272.1" y2="414.1"/>
<line class="err" x1="265.1" y1="409.3" x2="279.1" y2="409.3"/>
<line class="err" x1="265.1" y1="414.1" x2="279.1" y2="414.1"/>
<circle cx="272.1" cy="411.7" r="5" fill="#34d399"/>
<text class="value" x="272.1" y="399.3" text-anchor="middle">95.0</text>
<line class="err" x1="332.9" y1="349.1" x2="332.9" y2="375.4"/>
<line class="err" x1="325.9" y1="349.1" x2="339.9" y2="349.1"/>
<line class="err" x1="325.9" y1="375.4" x2="339.9" y2="375.4"/>
<circle cx="332.9" cy="362.3" r="5" fill="#34d399"/>
<text class="value" x="332.9" y="339.1" text-anchor="middle">217.5</text>
<line class="err" x1="393.6" y1="414.9" x2="393.6" y2="418.6"/>
<line class="err" x1="386.6" y1="414.9" x2="400.6" y2="414.9"/>
<line class="err" x1="386.6" y1="418.6" x2="400.6" y2="418.6"/>
<circle cx="393.6" cy="416.7" r="5" fill="#34d399"/>
<text class="value" x="393.6" y="404.9" text-anchor="middle">82.5</text>
<line class="err" x1="454.3" y1="409.1" x2="454.3" y2="415.3"/>
<line class="err" x1="447.3" y1="409.1" x2="461.3" y2="409.1"/>
<line class="err" x1="447.3" y1="415.3" x2="461.3" y2="415.3"/>
<circle cx="454.3" cy="412.2" r="5" fill="#34d399"/>
<text class="value" x="454.3" y="399.1" text-anchor="middle">93.8</text>
<line class="err" x1="515.0" y1="410.6" x2="515.0" y2="416.8"/>
<line class="err" x1="508.0" y1="410.6" x2="522.0" y2="410.6"/>
<line class="err" x1="508.0" y1="416.8" x2="522.0" y2="416.8"/>
<circle cx="515.0" cy="413.7" r="5" fill="#34d399"/>
<text class="value" x="515.0" y="400.6" text-anchor="middle">90.0</text>
<line class="err" x1="575.7" y1="408.8" x2="575.7" y2="412.5"/>
<line class="err" x1="568.7" y1="408.8" x2="582.7" y2="408.8"/>
<line class="err" x1="568.7" y1="412.5" x2="582.7" y2="412.5"/>
<circle cx="575.7" cy="410.7" r="5" fill="#34d399"/>
<text class="value" x="575.7" y="398.8" text-anchor="middle">97.5</text>
<line class="err" x1="636.4" y1="430.0" x2="636.4" y2="432.7"/>
<line class="err" x1="629.4" y1="430.0" x2="643.4" y2="430.0"/>
<line class="err" x1="629.4" y1="432.7" x2="643.4" y2="432.7"/>
<circle cx="636.4" cy="431.3" r="5" fill="#34d399"/>
<text class="value" x="636.4" y="420.0" text-anchor="middle">46.2</text>
<line class="err" x1="697.1" y1="424.6" x2="697.1" y2="428.0"/>
<line class="err" x1="690.1" y1="424.6" x2="704.1" y2="424.6"/>
<line class="err" x1="690.1" y1="428.0" x2="704.1" y2="428.0"/>
<circle cx="697.1" cy="426.3" r="5" fill="#34d399"/>
<text class="value" x="697.1" y="414.6" text-anchor="middle">58.8</text>
<line class="err" x1="757.9" y1="421.8" x2="757.9" y2="425.8"/>
<line class="err" x1="750.9" y1="421.8" x2="764.9" y2="421.8"/>
<line class="err" x1="750.9" y1="425.8" x2="764.9" y2="425.8"/>
<circle cx="757.9" cy="423.8" r="5" fill="#34d399"/>
<text class="value" x="757.9" y="411.8" text-anchor="middle">65.0</text>
<line class="err" x1="818.6" y1="429.0" x2="818.6" y2="432.7"/>
<line class="err" x1="811.6" y1="429.0" x2="825.6" y2="429.0"/>
<line class="err" x1="811.6" y1="432.7" x2="825.6" y2="432.7"/>
<circle cx="818.6" cy="430.8" r="5" fill="#34d399"/>
<text class="value" x="818.6" y="419.0" text-anchor="middle">47.5</text>
<line class="err" x1="879.3" y1="430.4" x2="879.3" y2="433.2"/>
<line class="err" x1="872.3" y1="430.4" x2="886.3" y2="430.4"/>
<line class="err" x1="872.3" y1="433.2" x2="886.3" y2="433.2"/>
<circle cx="879.3" cy="431.8" r="5" fill="#34d399"/>
<text class="value" x="879.3" y="420.4" text-anchor="middle">45.0</text>
<line class="err" x1="940.0" y1="407.6" x2="940.0" y2="412.8"/>
<line class="err" x1="933.0" y1="407.6" x2="947.0" y2="407.6"/>
<line class="err" x1="933.0" y1="412.8" x2="947.0" y2="412.8"/>
<circle cx="940.0" cy="410.2" r="5" fill="#34d399"/>
<text class="value" x="940.0" y="397.6" text-anchor="middle">98.8</text>
<line x1="730" y1="28" x2="746" y2="28" stroke="#34d399" stroke-width="4"/>
<text class="legend" x="754" y="34">p50</text>
<polyline fill="none" stroke="#f59e0b" stroke-width="4" points="90.0,446.0 150.7,425.8 211.4,409.7 272.1,332.5 332.9,245.8 393.6,353.7 454.3,343.1 515.0,343.1 575.7,347.1 636.4,409.2 697.1,356.7 757.9,383.4 818.6,406.6 879.3,408.1 940.0,343.6"/>
<line class="err" x1="90.0" y1="446.0" x2="90.0" y2="446.0"/>
<line class="err" x1="83.0" y1="446.0" x2="97.0" y2="446.0"/>
<line class="err" x1="83.0" y1="446.0" x2="97.0" y2="446.0"/>
<circle cx="90.0" cy="446.0" r="5" fill="#f59e0b"/>
<text class="value" x="90.0" y="436.0" text-anchor="middle">10.0</text>
<line class="err" x1="150.7" y1="425.8" x2="150.7" y2="425.8"/>
<line class="err" x1="143.7" y1="425.8" x2="157.7" y2="425.8"/>
<line class="err" x1="143.7" y1="425.8" x2="157.7" y2="425.8"/>
<circle cx="150.7" cy="425.8" r="5" fill="#f59e0b"/>
<text class="value" x="150.7" y="415.8" text-anchor="middle">60.0</text>
<line class="err" x1="211.4" y1="409.7" x2="211.4" y2="409.7"/>
<line class="err" x1="204.4" y1="409.7" x2="218.4" y2="409.7"/>
<line class="err" x1="204.4" y1="409.7" x2="218.4" y2="409.7"/>
<circle cx="211.4" cy="409.7" r="5" fill="#f59e0b"/>
<text class="value" x="211.4" y="399.7" text-anchor="middle">100.0</text>
<line class="err" x1="272.1" y1="309.1" x2="272.1" y2="355.9"/>
<line class="err" x1="265.1" y1="309.1" x2="279.1" y2="309.1"/>
<line class="err" x1="265.1" y1="355.9" x2="279.1" y2="355.9"/>
<circle cx="272.1" cy="332.5" r="5" fill="#f59e0b"/>
<text class="value" x="272.1" y="299.1" text-anchor="middle">291.2</text>
<line class="err" x1="332.9" y1="212.6" x2="332.9" y2="279.0"/>
<line class="err" x1="325.9" y1="212.6" x2="339.9" y2="212.6"/>
<line class="err" x1="325.9" y1="279.0" x2="339.9" y2="279.0"/>
<circle cx="332.9" cy="245.8" r="5" fill="#f59e0b"/>
<text class="value" x="332.9" y="202.6" text-anchor="middle">506.2</text>
<line class="err" x1="393.6" y1="349.6" x2="393.6" y2="357.7"/>
<line class="err" x1="386.6" y1="349.6" x2="400.6" y2="349.6"/>
<line class="err" x1="386.6" y1="357.7" x2="400.6" y2="357.7"/>
<circle cx="393.6" cy="353.7" r="5" fill="#f59e0b"/>
<text class="value" x="393.6" y="339.6" text-anchor="middle">238.8</text>
<line class="err" x1="454.3" y1="327.5" x2="454.3" y2="358.7"/>
<line class="err" x1="447.3" y1="327.5" x2="461.3" y2="327.5"/>
<line class="err" x1="447.3" y1="358.7" x2="461.3" y2="358.7"/>
<circle cx="454.3" cy="343.1" r="5" fill="#f59e0b"/>
<text class="value" x="454.3" y="317.5" text-anchor="middle">265.0</text>
<line class="err" x1="515.0" y1="325.5" x2="515.0" y2="360.7"/>
<line class="err" x1="508.0" y1="325.5" x2="522.0" y2="325.5"/>
<line class="err" x1="508.0" y1="360.7" x2="522.0" y2="360.7"/>
<circle cx="515.0" cy="343.1" r="5" fill="#f59e0b"/>
<text class="value" x="515.0" y="315.5" text-anchor="middle">265.0</text>
<line class="err" x1="575.7" y1="338.4" x2="575.7" y2="355.9"/>
<line class="err" x1="568.7" y1="338.4" x2="582.7" y2="338.4"/>
<line class="err" x1="568.7" y1="355.9" x2="582.7" y2="355.9"/>
<circle cx="575.7" cy="347.1" r="5" fill="#f59e0b"/>
<text class="value" x="575.7" y="328.4" text-anchor="middle">255.0</text>
<line class="err" x1="636.4" y1="408.2" x2="636.4" y2="410.1"/>
<line class="err" x1="629.4" y1="408.2" x2="643.4" y2="408.2"/>
<line class="err" x1="629.4" y1="410.1" x2="643.4" y2="410.1"/>
<circle cx="636.4" cy="409.2" r="5" fill="#f59e0b"/>
<text class="value" x="636.4" y="398.2" text-anchor="middle">101.2</text>
<line class="err" x1="697.1" y1="340.2" x2="697.1" y2="373.2"/>
<line class="err" x1="690.1" y1="340.2" x2="704.1" y2="340.2"/>
<line class="err" x1="690.1" y1="373.2" x2="704.1" y2="373.2"/>
<circle cx="697.1" cy="356.7" r="5" fill="#f59e0b"/>
<text class="value" x="697.1" y="330.2" text-anchor="middle">231.2</text>
<line class="err" x1="757.9" y1="380.0" x2="757.9" y2="386.9"/>
<line class="err" x1="750.9" y1="380.0" x2="764.9" y2="380.0"/>
<line class="err" x1="750.9" y1="386.9" x2="764.9" y2="386.9"/>
<circle cx="757.9" cy="383.4" r="5" fill="#f59e0b"/>
<text class="value" x="757.9" y="370.0" text-anchor="middle">165.0</text>
<line class="err" x1="818.6" y1="401.1" x2="818.6" y2="412.2"/>
<line class="err" x1="811.6" y1="401.1" x2="825.6" y2="401.1"/>
<line class="err" x1="811.6" y1="412.2" x2="825.6" y2="412.2"/>
<circle cx="818.6" cy="406.6" r="5" fill="#f59e0b"/>
<text class="value" x="818.6" y="391.1" text-anchor="middle">107.5</text>
<line class="err" x1="879.3" y1="405.4" x2="879.3" y2="410.9"/>
<line class="err" x1="872.3" y1="405.4" x2="886.3" y2="405.4"/>
<line class="err" x1="872.3" y1="410.9" x2="886.3" y2="410.9"/>
<circle cx="879.3" cy="408.1" r="5" fill="#f59e0b"/>
<text class="value" x="879.3" y="395.4" text-anchor="middle">103.8</text>
<line class="err" x1="940.0" y1="325.6" x2="940.0" y2="361.6"/>
<line class="err" x1="933.0" y1="325.6" x2="947.0" y2="325.6"/>
<line class="err" x1="933.0" y1="361.6" x2="947.0" y2="361.6"/>
<circle cx="940.0" cy="343.6" r="5" fill="#f59e0b"/>
<text class="value" x="940.0" y="315.6" text-anchor="middle">263.8</text>
<line x1="730" y1="50" x2="746" y2="50" stroke="#f59e0b" stroke-width="4"/>
<text class="legend" x="754" y="56">p95</text>
<polyline fill="none" stroke="#fb7185" stroke-width="4" points="90.0,446.0 150.7,425.8 211.4,395.0 272.1,289.6 332.9,168.1 393.6,276.5 454.3,283.1 515.0,308.3 575.7,291.7 636.4,393.0 697.1,324.4 757.9,335.5 818.6,387.0 879.3,393.0 940.0,300.7"/>
<line class="err" x1="90.0" y1="446.0" x2="90.0" y2="446.0"/>
<line class="err" x1="83.0" y1="446.0" x2="97.0" y2="446.0"/>
<line class="err" x1="83.0" y1="446.0" x2="97.0" y2="446.0"/>
<circle cx="90.0" cy="446.0" r="5" fill="#fb7185"/>
<text class="value" x="90.0" y="436.0" text-anchor="middle">10.0</text>
<line class="err" x1="150.7" y1="425.8" x2="150.7" y2="425.8"/>
<line class="err" x1="143.7" y1="425.8" x2="157.7" y2="425.8"/>
<line class="err" x1="143.7" y1="425.8" x2="157.7" y2="425.8"/>
<circle cx="150.7" cy="425.8" r="5" fill="#fb7185"/>
<text class="value" x="150.7" y="415.8" text-anchor="middle">60.0</text>
<line class="err" x1="211.4" y1="386.7" x2="211.4" y2="403.4"/>
<line class="err" x1="204.4" y1="386.7" x2="218.4" y2="386.7"/>
<line class="err" x1="204.4" y1="403.4" x2="218.4" y2="403.4"/>
<circle cx="211.4" cy="395.0" r="5" fill="#fb7185"/>
<text class="value" x="211.4" y="376.7" text-anchor="middle">136.2</text>
<line class="err" x1="272.1" y1="263.5" x2="272.1" y2="315.8"/>
<line class="err" x1="265.1" y1="263.5" x2="279.1" y2="263.5"/>
<line class="err" x1="265.1" y1="315.8" x2="279.1" y2="315.8"/>
<circle cx="272.1" cy="289.6" r="5" fill="#fb7185"/>
<text class="value" x="272.1" y="253.5" text-anchor="middle">397.5</text>
<line class="err" x1="332.9" y1="110.7" x2="332.9" y2="225.5"/>
<line class="err" x1="325.9" y1="110.7" x2="339.9" y2="110.7"/>
<line class="err" x1="325.9" y1="225.5" x2="339.9" y2="225.5"/>
<circle cx="332.9" cy="168.1" r="5" fill="#fb7185"/>
<text class="value" x="332.9" y="100.7" text-anchor="middle">698.8</text>
<line class="err" x1="393.6" y1="256.2" x2="393.6" y2="296.8"/>
<line class="err" x1="386.6" y1="256.2" x2="400.6" y2="256.2"/>
<line class="err" x1="386.6" y1="296.8" x2="400.6" y2="296.8"/>
<circle cx="393.6" cy="276.5" r="5" fill="#fb7185"/>
<text class="value" x="393.6" y="246.2" text-anchor="middle">430.0</text>
<line class="err" x1="454.3" y1="265.1" x2="454.3" y2="301.0"/>
<line class="err" x1="447.3" y1="265.1" x2="461.3" y2="265.1"/>
<line class="err" x1="447.3" y1="301.0" x2="461.3" y2="301.0"/>
<circle cx="454.3" cy="283.1" r="5" fill="#fb7185"/>
<text class="value" x="454.3" y="255.1" text-anchor="middle">413.8</text>
<line class="err" x1="515.0" y1="282.1" x2="515.0" y2="334.5"/>
<line class="err" x1="508.0" y1="282.1" x2="522.0" y2="282.1"/>
<line class="err" x1="508.0" y1="334.5" x2="522.0" y2="334.5"/>
<circle cx="515.0" cy="308.3" r="5" fill="#fb7185"/>
<text class="value" x="515.0" y="272.1" text-anchor="middle">351.2</text>
<line class="err" x1="575.7" y1="266.5" x2="575.7" y2="316.8"/>
<line class="err" x1="568.7" y1="266.5" x2="582.7" y2="266.5"/>
<line class="err" x1="568.7" y1="316.8" x2="582.7" y2="316.8"/>
<circle cx="575.7" cy="291.7" r="5" fill="#fb7185"/>
<text class="value" x="575.7" y="256.5" text-anchor="middle">392.5</text>
<line class="err" x1="636.4" y1="385.2" x2="636.4" y2="400.9"/>
<line class="err" x1="629.4" y1="385.2" x2="643.4" y2="385.2"/>
<line class="err" x1="629.4" y1="400.9" x2="643.4" y2="400.9"/>
<circle cx="636.4" cy="393.0" r="5" fill="#fb7185"/>
<text class="value" x="636.4" y="375.2" text-anchor="middle">141.2</text>
<line class="err" x1="697.1" y1="300.2" x2="697.1" y2="348.7"/>
<line class="err" x1="690.1" y1="300.2" x2="704.1" y2="300.2"/>
<line class="err" x1="690.1" y1="348.7" x2="704.1" y2="348.7"/>
<circle cx="697.1" cy="324.4" r="5" fill="#fb7185"/>
<text class="value" x="697.1" y="290.2" text-anchor="middle">311.2</text>
<line class="err" x1="757.9" y1="312.4" x2="757.9" y2="358.6"/>
<line class="err" x1="750.9" y1="312.4" x2="764.9" y2="312.4"/>
<line class="err" x1="750.9" y1="358.6" x2="764.9" y2="358.6"/>
<circle cx="757.9" cy="335.5" r="5" fill="#fb7185"/>
<text class="value" x="757.9" y="302.4" text-anchor="middle">283.8</text>
<line class="err" x1="818.6" y1="373.4" x2="818.6" y2="400.5"/>
<line class="err" x1="811.6" y1="373.4" x2="825.6" y2="373.4"/>
<line class="err" x1="811.6" y1="400.5" x2="825.6" y2="400.5"/>
<circle cx="818.6" cy="387.0" r="5" fill="#fb7185"/>
<text class="value" x="818.6" y="363.4" text-anchor="middle">156.2</text>
<line class="err" x1="879.3" y1="383.8" x2="879.3" y2="402.2"/>
<line class="err" x1="872.3" y1="383.8" x2="886.3" y2="383.8"/>
<line class="err" x1="872.3" y1="402.2" x2="886.3" y2="402.2"/>
<circle cx="879.3" cy="393.0" r="5" fill="#fb7185"/>
<text class="value" x="879.3" y="373.8" text-anchor="middle">141.2</text>
<line class="err" x1="940.0" y1="274.2" x2="940.0" y2="327.2"/>
<line class="err" x1="933.0" y1="274.2" x2="947.0" y2="274.2"/>
<line class="err" x1="933.0" y1="327.2" x2="947.0" y2="327.2"/>
<circle cx="940.0" cy="300.7" r="5" fill="#fb7185"/>
<text class="value" x="940.0" y="264.2" text-anchor="middle">370.0</text>
<line x1="730" y1="72" x2="746" y2="72" stroke="#fb7185" stroke-width="4"/>
<text class="legend" x="754" y="78">p99</text>
</svg>
