<svg xmlns="http://www.w3.org/2000/svg" width="980" height="540" viewBox="0 0 980 540" role="img">
<style>.title{font:700 20px Arial; fill:#f3f7ff;}.label{font:12px Arial; fill:#cbd8f0;}.value{font:11px Arial; fill:#eef5ff;}.axis{stroke:#4d6387; stroke-width:1;}.grid{stroke:#20324d; stroke-width:1; opacity:.8;}.legend{font:12px Arial; fill:#d7e7ff;}.bg{fill:#071423;}.err{stroke:#dbeafe; stroke-width:1.5;}</style>
<rect class="bg" x="0" y="0" width="980" height="540" rx="18"/>
<text class="title" x="90" y="38">Latency Profile (95% CI)</text>
<text class="label" x="90" y="520">Latency (ms)</text>
<line class="grid" x1="90" y1="70.0" x2="940" y2="70.0"/>
<text class="label" x="12" y="74.0">1030</text>
<line class="grid" x1="90" y1="146.0" x2="940" y2="146.0"/>
<text class="label" x="12" y="150.0">824</text>
<line class="grid" x1="90" y1="222.0" x2="940" y2="222.0"/>
<text class="label" x="12" y="226.0">618</text>
<line class="grid" x1="90" y1="298.0" x2="940" y2="298.0"/>
<text class="label" x="12" y="302.0">412</text>
<line class="grid" x1="90" y1="374.0" x2="940" y2="374.0"/>
<text class="label" x="12" y="378.0">206</text>
<line class="grid" x1="90" y1="450.0" x2="940" y2="450.0"/>
<text class="label" x="12" y="454.0">0</text>
<line class="axis" x1="90" y1="70" x2="90" y2="450"/>
<line class="axis" x1="90" y1="450" x2="940" y2="450"/>
<text class="label" x="90.0" y="478" text-anchor="middle">Immediate</text>
<text class="label" x="175.0" y="478" text-anchor="middle">SpeedBump 50ms</text>
<text class="label" x="260.0" y="478" text-anchor="middle">100ms</text>
<text class="label" x="345.0" y="478" text-anchor="middle">250ms</text>
<text class="label" x="430.0" y="478" text-anchor="middle">500ms</text>
<text class="label" x="515.0" y="478" text-anchor="middle">Adaptive 100-250ms</text>
<text class="label" x="600.0" y="478" text-anchor="middle">Adaptive OrderFlow-100-250ms</text>
<text class="label" x="685.0" y="478" text-anchor="middle">Adaptive QueueLoad-100-250ms</text>
<text class="label" x="770.0" y="478" text-anchor="middle">Policy-BurstAware-100-250ms</text>
<text class="label" x="855.0" y="478" text-anchor="middle">Policy-LearnedLinear-100-250ms</text>
<text class="label" x="940.0" y="478" text-anchor="middle">250ms Stress</text>
<polyline fill="none" stroke="#34d399" stroke-width="4" points="90.0,446.3 175.0,427.9 260.0,432.9 345.0,414.0 430.0,371.1 515.0,420.0 600.0,416.8 685.0,416.8 770.0,413.6 855.0,415.9 940.0,414.0"/>
<line class="err" x1="90.0" y1="446.3" x2="90.0" y2="446.3"/>
<line class="err" x1="83.0" y1="446.3" x2="97.0" y2="446.3"/>
<line class="err" x1="83.0" y1="446.3" x2="97.0" y2="446.3"/>
<circle cx="90.0" cy="446.3" r="5" fill="#34d399"/>
<text class="value" x="90.0" y="436.3" text-anchor="middle">10.0</text>
<line class="err" x1="175.0" y1="427.9" x2="175.0" y2="427.9"/>
<line class="err" x1="168.0" y1="427.9" x2="182.0" y2="427.9"/>
<line class="err" x1="168.0" y1="427.9" x2="182.0" y2="427.9"/>
<circle cx="175.0" cy="427.9" r="5" fill="#34d399"/>
<text class="value" x="175.0" y="417.9" text-anchor="middle">60.0</text>
<line class="err" x1="260.0" y1="431.7" x2="260.0" y2="434.2"/>
<line class="err" x1="253.0" y1="431.7" x2="267.0" y2="431.7"/>
<line class="err" x1="253.0" y1="434.2" x2="267.0" y2="434.2"/>
<circle cx="260.0" cy="432.9" r="5" fill="#34d399"/>
<text class="value" x="260.0" y="421.7" text-anchor="middle">46.2</text>
<line class="err" x1="345.0" y1="412.3" x2="345.0" y2="415.7"/>
<line class="err" x1="338.0" y1="412.3" x2="352.0" y2="412.3"/>
<line class="err" x1="338.0" y1="415.7" x2="352.0" y2="415.7"/>
<circle cx="345.0" cy="414.0" r="5" fill="#34d399"/>
<text class="value" x="345.0" y="402.3" text-anchor="middle">97.5</text>
<line class="err" x1="430.0" y1="362.1" x2="430.0" y2="380.2"/>
<line class="err" x1="423.0" y1="362.1" x2="437.0" y2="362.1"/>
<line class="err" x1="423.0" y1="380.2" x2="437.0" y2="380.2"/>
<circle cx="430.0" cy="371.1" r="5" fill="#34d399"/>
<text class="value" x="430.0" y="352.1" text-anchor="middle">213.8</text>
<line class="err" x1="515.0" y1="417.6" x2="515.0" y2="422.4"/>
<line class="err" x1="508.0" y1="417.6" x2="522.0" y2="417.6"/>
<line class="err" x1="508.0" y1="422.4" x2="522.0" y2="422.4"/>
<circle cx="515.0" cy="420.0" r="5" fill="#34d399"/>
<text class="value" x="515.0" y="407.6" text-anchor="middle">81.2</text>
<line class="err" x1="600.0" y1="415.0" x2="600.0" y2="418.6"/>
<line class="err" x1="593.0" y1="415.0" x2="607.0" y2="415.0"/>
<line class="err" x1="593.0" y1="418.6" x2="607.0" y2="418.6"/>
<circle cx="600.0" cy="416.8" r="5" fill="#34d399"/>
<text class="value" x="600.0" y="405.0" text-anchor="middle">90.0</text>
<line class="err" x1="685.0" y1="413.9" x2="685.0" y2="419.6"/>
<line class="err" x1="678.0" y1="413.9" x2="692.0" y2="413.9"/>
<line class="err" x1="678.0" y1="419.6" x2="692.0" y2="419.6"/>
<circle cx="685.0" cy="416.8" r="5" fill="#34d399"/>
<text class="value" x="685.0" y="403.9" text-anchor="middle">90.0</text>
<line class="err" x1="770.0" y1="412.0" x2="770.0" y2="415.1"/>
<line class="err" x1="763.0" y1="412.0" x2="777.0" y2="412.0"/>
<line class="err" x1="763.0" y1="415.1" x2="777.0" y2="415.1"/>
<circle cx="770.0" cy="413.6" r="5" fill="#34d399"/>
<text class="value" x="770.0" y="402.0" text-anchor="middle">98.8</text>
<line class="err" x1="855.0" y1="413.1" x2="855.0" y2="418.7"/>
<line class="err" x1="848.0" y1="413.1" x2="862.0" y2="413.1"/>
<line class="err" x1="848.0" y1="418.7" x2="862.0" y2="418.7"/>
<circle cx="855.0" cy="415.9" r="5" fill="#34d399"/>
<text class="value" x="855.0" y="403.1" text-anchor="middle">92.5</text>
<line class="err" x1="940.0" y1="411.9" x2="940.0" y2="416.1"/>
<line class="err" x1="933.0" y1="411.9" x2="947.0" y2="411.9"/>
<line class="err" x1="933.0" y1="416.1" x2="947.0" y2="416.1"/>
<circle cx="940.0" cy="414.0" r="5" fill="#34d399"/>
<text class="value" x="940.0" y="401.9" text-anchor="middle">97.5</text>
<line x1="730" y1="28" x2="746" y2="28" stroke="#34d399" stroke-width="4"/>
<text class="legend" x="754" y="34">p50</text>
<polyline fill="none" stroke="#f59e0b" stroke-width="4" points="90.0,446.3 175.0,427.9 260.0,413.1 345.0,339.3 430.0,263.6 515.0,362.8 600.0,358.7 685.0,353.6 770.0,351.7 855.0,362.8 940.0,358.2"/>
<line class="err" x1="90.0" y1="446.3" x2="90.0" y2="446.3"/>
<line class="err" x1="83.0" y1="446.3" x2="97.0" y2="446.3"/>
<line class="err" x1="83.0" y1="446.3" x2="97.0" y2="446.3"/>
<circle cx="90.0" cy="446.3" r="5" fill="#f59e0b"/>
<text class="value" x="90.0" y="436.3" text-anchor="middle">10.0</text>
<line class="err" x1="175.0" y1="427.9" x2="175.0" y2="427.9"/>
<line class="err" x1="168.0" y1="427.9" x2="182.0" y2="427.9"/>
<line class="err" x1="168.0" y1="427.9" x2="182.0" y2="427.9"/>
<circle cx="175.0" cy="427.9" r="5" fill="#f59e0b"/>
<text class="value" x="175.0" y="417.9" text-anchor="middle">60.0</text>
<line class="err" x1="260.0" y1="413.1" x2="260.0" y2="413.1"/>
<line class="err" x1="253.0" y1="413.1" x2="267.0" y2="413.1"/>
<line class="err" x1="253.0" y1="413.1" x2="267.0" y2="413.1"/>
<circle cx="260.0" cy="413.1" r="5" fill="#f59e0b"/>
<text class="value" x="260.0" y="403.1" text-anchor="middle">100.0</text>
<line class="err" x1="345.0" y1="318.6" x2="345.0" y2="360.0"/>
<line class="err" x1="338.0" y1="318.6" x2="352.0" y2="318.6"/>
<line class="err" x1="338.0" y1="360.0" x2="352.0" y2="360.0"/>
<circle cx="345.0" cy="339.3" r="5" fill="#f59e0b"/>
<text class="value" x="345.0" y="308.6" text-anchor="middle">300.0</text>
<line class="err" x1="430.0" y1="252.4" x2="430.0" y2="274.9"/>
<line class="err" x1="423.0" y1="252.4" x2="437.0" y2="252.4"/>
<line class="err" x1="423.0" y1="274.9" x2="437.0" y2="274.9"/>
<circle cx="430.0" cy="263.6" r="5" fill="#f59e0b"/>
<text class="value" x="430.0" y="242.4" text-anchor="middle">505.0</text>
<line class="err" x1="515.0" y1="358.8" x2="515.0" y2="366.8"/>
<line class="err" x1="508.0" y1="358.8" x2="522.0" y2="358.8"/>
<line class="err" x1="508.0" y1="366.8" x2="522.0" y2="366.8"/>
<circle cx="515.0" cy="362.8" r="5" fill="#f59e0b"/>
<text class="value" x="515.0" y="348.8" text-anchor="middle">236.2</text>
<line class="err" x1="600.0" y1="356.2" x2="600.0" y2="361.1"/>
<line class="err" x1="593.0" y1="356.2" x2="607.0" y2="356.2"/>
<line class="err" x1="593.0" y1="361.1" x2="607.0" y2="361.1"/>
<circle cx="600.0" cy="358.7" r="5" fill="#f59e0b"/>
<text class="value" x="600.0" y="346.2" text-anchor="middle">247.5</text>
<line class="err" x1="685.0" y1="337.0" x2="685.0" y2="370.1"/>
<line class="err" x1="678.0" y1="337.0" x2="692.0" y2="337.0"/>
<line class="err" x1="678.0" y1="370.1" x2="692.0" y2="370.1"/>
<circle cx="685.0" cy="353.6" r="5" fill="#f59e0b"/>
<text class="value" x="685.0" y="327.0" text-anchor="middle">261.2</text>
<line class="err" x1="770.0" y1="334.6" x2="770.0" y2="368.9"/>
<line class="err" x1="763.0" y1="334.6" x2="777.0" y2="334.6"/>
<line class="err" x1="763.0" y1="368.9" x2="777.0" y2="368.9"/>
<circle cx="770.0" cy="351.7" r="5" fill="#f59e0b"/>
<text class="value" x="770.0" y="324.6" text-anchor="middle">266.2</text>
<line class="err" x1="855.0" y1="358.4" x2="855.0" y2="367.2"/>
<line class="err" x1="848.0" y1="358.4" x2="862.0" y2="358.4"/>
<line class="err" x1="848.0" y1="367.2" x2="862.0" y2="367.2"/>
<circle cx="855.0" cy="362.8" r="5" fill="#f59e0b"/>
<text class="value" x="855.0" y="348.4" text-anchor="middle">236.2</text>
<line class="err" x1="940.0" y1="350.2" x2="940.0" y2="366.2"/>
<line class="err" x1="933.0" y1="350.2" x2="947.0" y2="350.2"/>
<line class="err" x1="933.0" y1="366.2" x2="947.0" y2="366.2"/>
<circle cx="940.0" cy="358.2" r="5" fill="#f59e0b"/>
<text class="value" x="940.0" y="340.2" text-anchor="middle">248.8</text>
<line x1="730" y1="50" x2="746" y2="50" stroke="#f59e0b" stroke-width="4"/>
<text class="legend" x="754" y="56">p95</text>
<polyline fill="none" stroke="#fb7185" stroke-width="4" points="90.0,446.3 175.0,427.9 260.0,396.0 345.0,283.0 430.0,141.9 515.0,317.1 600.0,300.1 685.0,307.5 770.0,300.1 855.0,326.8 940.0,312.1"/>
<line class="err" x1="90.0" y1="446.3" x2="90.0" y2="446.3"/>
<line class="err" x1="83.0" y1="446.3" x2="97.0" y2="446.3"/>
<line class="err" x1="83.0" y1="446.3" x2="97.0" y2="446.3"/>
<circle cx="90.0" cy="446.3" r="5" fill="#fb7185"/>
<text class="value" x="90.0" y="436.3" text-anchor="middle">10.0</text>
<line class="err" x1="175.0" y1="427.9" x2="175.0" y2="427.9"/>
<line class="err" x1="168.0" y1="427.9" x2="182.0" y2="427.9"/>
<line class="err" x1="168.0" y1="427.9" x2="182.0" y2="427.9"/>
<circle cx="175.0" cy="427.9" r="5" fill="#fb7185"/>
<text class="value" x="175.0" y="417.9" text-anchor="middle">60.0</text>
<line class="err" x1="260.0" y1="382.8" x2="260.0" y2="409.3"/>
<line class="err" x1="253.0" y1="382.8" x2="267.0" y2="382.8"/>
<line class="err" x1="253.0" y1="409.3" x2="267.0" y2="409.3"/>
<circle cx="260.0" cy="396.0" r="5" fill="#fb7185"/>
<text class="value" x="260.0" y="372.8" text-anchor="middle">146.2</text>
<line class="err" x1="345.0" y1="277.0" x2="345.0" y2="289.0"/>
<line class="err" x1="338.0" y1="277.0" x2="352.0" y2="277.0"/>
<line class="err" x1="338.0" y1="289.0" x2="352.0" y2="289.0"/>
<circle cx="345.0" cy="283.0" r="5" fill="#fb7185"/>
<text class="value" x="345.0" y="267.0" text-anchor="middle">452.5</text>
<line class="err" x1="430.0" y1="110.7" x2="430.0" y2="173.0"/>
<line class="err" x1="423.0" y1="110.7" x2="437.0" y2="110.7"/>
<line class="err" x1="423.0" y1="173.0" x2="437.0" y2="173.0"/>
<circle cx="430.0" cy="141.9" r="5" fill="#fb7185"/>
<text class="value" x="430.0" y="100.7" text-anchor="middle">835.0</text>
<line class="err" x1="515.0" y1="291.5" x2="515.0" y2="342.8"/>
<line class="err" x1="508.0" y1="291.5" x2="522.0" y2="291.5"/>
<line class="err" x1="508.0" y1="342.8" x2="522.0" y2="342.8"/>
<circle cx="515.0" cy="317.1" r="5" fill="#fb7185"/>
<text class="value" x="515.0" y="281.5" text-anchor="middle">360.0</text>
<line class="err" x1="600.0" y1="283.0" x2="600.0" y2="317.1"/>
<line class="err" x1="593.0" y1="283.0" x2="607.0" y2="283.0"/>
<line class="err" x1="593.0" y1="317.1" x2="607.0" y2="317.1"/>
<circle cx="600.0" cy="300.1" r="5" fill="#fb7185"/>
<text class="value" x="600.0" y="273.0" text-anchor="middle">406.2</text>
<line class="err" x1="685.0" y1="283.4" x2="685.0" y2="331.5"/>
<line class="err" x1="678.0" y1="283.4" x2="692.0" y2="283.4"/>
<line class="err" x1="678.0" y1="331.5" x2="692.0" y2="331.5"/>
<circle cx="685.0" cy="307.5" r="5" fill="#fb7185"/>
<text class="value" x="685.0" y="273.4" text-anchor="middle">386.2</text>
<line class="err" x1="770.0" y1="279.0" x2="770.0" y2="321.1"/>
<line class="err" x1="763.0" y1="279.0" x2="777.0" y2="279.0"/>
<line class="err" x1="763.0" y1="321.1" x2="777.0" y2="321.1"/>
<circle cx="770.0" cy="300.1" r="5" fill="#fb7185"/>
<text class="value" x="770.0" y="269.0" text-anchor="middle">406.2</text>
<line class="err" x1="855.0" y1="307.1" x2="855.0" y2="346.6"/>
<line class="err" x1="848.0" y1="307.1" x2="862.0" y2="307.1"/>
<line class="err" x1="848.0" y1="346.6" x2="862.0" y2="346.6"/>
<circle cx="855.0" cy="326.8" r="5" fill="#fb7185"/>
<text class="value" x="855.0" y="297.1" text-anchor="middle">333.8</text>
<line class="err" x1="940.0" y1="286.2" x2="940.0" y2="338.0"/>
<line class="err" x1="933.0" y1="286.2" x2="947.0" y2="286.2"/>
<line class="err" x1="933.0" y1="338.0" x2="947.0" y2="338.0"/>
<circle cx="940.0" cy="312.1" r="5" fill="#fb7185"/>
<text class="value" x="940.0" y="276.2" text-anchor="middle">373.8</text>
<line x1="730" y1="72" x2="746" y2="72" stroke="#fb7185" stroke-width="4"/>
<text class="legend" x="754" y="78">p99</text>
</svg>
