<svg xmlns="http://www.w3.org/2000/svg" width="980" height="540" viewBox="0 0 980 540" role="img">
<style>.title{font:700 20px Arial; fill:#f3f7ff;}.label{font:12px Arial; fill:#cbd8f0;}.value{font:11px Arial; fill:#eef5ff;}.axis{stroke:#4d6387; stroke-width:1;}.grid{stroke:#20324d; stroke-width:1; opacity:.8;}.legend{font:12px Arial; fill:#d7e7ff;}.bg{fill:#071423;}.err{stroke:#dbeafe; stroke-width:1.5;}</style>
<rect class="bg" x="0" y="0" width="980" height="540" rx="18"/>
<text class="title" x="90" y="38">Latency Profile (95% CI)</text>
<text class="label" x="90" y="520">Latency (ms)</text>
<line class="grid" x1="90" y1="70.0" x2="940" y2="70.0"/>
<text class="label" x="12" y="74.0">1030</text>
<line class="grid" x1="90" y1="146.0" x2="940" y2="146.0"/>
<text class="label" x="12" y="150.0">824</text>
<line class="grid" x1="90" y1="222.0" x2="940" y2="222.0"/>
<text class="label" x="12" y="226.0">618</text>
<line class="grid" x1="90" y1="298.0" x2="940" y2="298.0"/>
<text class="label" x="12" y="302.0">412</text>
<line class="grid" x1="90" y1="374.0" x2="940" y2="374.0"/>
<text class="label" x="12" y="378.0">206</text>
<line class="grid" x1="90" y1="450.0" x2="940" y2="450.0"/>
<text class="label" x="12" y="454.0">0</text>
<line class="axis" x1="90" y1="70" x2="90" y2="450"/>
<line class="axis" x1="90" y1="450" x2="940" y2="450"/>
<text class="label" x="90.0" y="478" text-anchor="middle">Immediate</text>
<text class="label" x="184.4" y="478" text-anchor="middle">SpeedBump 50ms</text>
<text class="label" x="278.9" y="478" text-anchor="middle">100ms</text>
<text class="label" x="373.3" y="478" text-anchor="middle">250ms</text>
<text class="label" x="467.8" y="478" text-anchor="middle">500ms</text>
<text class="label" x="562.2" y="478" text-anchor="middle">Adaptive 100-250ms</text>
<text class="label" x="656.7" y="478" text-anchor="middle">Adaptive OrderFlow-100-250ms</text>
<text class="label" x="751.1" y="478" text-anchor="middle">Adaptive QueueLoad-100-250ms</text>
<text class="label" x="845.6" y="478" text-anchor="middle">Policy-BurstAware-100-250ms</text>
<text class="label" x="940.0" y="478" text-anchor="middle">250ms Stress</text>
<polyline fill="none" stroke="#34d399" stroke-width="4" points="90.0,446.3 184.4,427.9 278.9,432.9 373.3,414.0 467.8,371.1 562.2,420.0 656.7,416.8 751.1,416.8 845.6,413.6 940.0,414.0"/>
<line class="err" x1="90.0" y1="446.3" x2="90.0" y2="446.3"/>
<line class="err" x1="83.0" y1="446.3" x2="97.0" y2="446.3"/>
<line class="err" x1="83.0" y1="446.3" x2="97.0" y2="446.3"/>
<circle cx="90.0" cy="446.3" r="5" fill="#34d399"/>
<text class="value" x="90.0" y="436.3" text-anchor="middle">10.0</text>
<line class="err" x1="184.4" y1="427.9" x2="184.4" y2="427.9"/>
<line class="err" x1="177.4" y1="427.9" x2="191.4" y2="427.9"/>
<line class="err" x1="177.4" y1="427.9" x2="191.4" y2="427.9"/>
<circle cx="184.4" cy="427.9" r="5" fill="#34d399"/>
<text class="value" x="184.4" y="417.9" text-anchor="middle">60.0</text>
<line class="err" x1="278.9" y1="431.7" x2="278.9" y2="434.2"/>
<line class="err" x1="271.9" y1="431.7" x2="285.9" y2="431.7"/>
<line class="err" x1="271.9" y1="434.2" x2="285.9" y2="434.2"/>
<circle cx="278.9" cy="432.9" r="5" fill="#34d399"/>
<text class="value" x="278.9" y="421.7" text-anchor="middle">46.2</text>
<line class="err" x1="373.3" y1="412.3" x2="373.3" y2="415.7"/>
<line class="err" x1="366.3" y1="412.3" x2="380.3" y2="412.3"/>
<line class="err" x1="366.3" y1="415.7" x2="380.3" y2="415.7"/>
<circle cx="373.3" cy="414.0" r="5" fill="#34d399"/>
<text class="value" x="373.3" y="402.3" text-anchor="middle">97.5</text>
<line class="err" x1="467.8" y1="362.1" x2="467.8" y2="380.2"/>
<line class="err" x1="460.8" y1="362.1" x2="474.8" y2="362.1"/>
<line class="err" x1="460.8" y1="380.2" x2="474.8" y2="380.2"/>
<circle cx="467.8" cy="371.1" r="5" fill="#34d399"/>
<text class="value" x="467.8" y="352.1" text-anchor="middle">213.8</text>
<line class="err" x1="562.2" y1="417.6" x2="562.2" y2="422.4"/>
<line class="err" x1="555.2" y1="417.6" x2="569.2" y2="417.6"/>
<line class="err" x1="555.2" y1="422.4" x2="569.2" y2="422.4"/>
<circle cx="562.2" cy="420.0" r="5" fill="#34d399"/>
<text class="value" x="562.2" y="407.6" text-anchor="middle">81.2</text>
<line class="err" x1="656.7" y1="415.0" x2="656.7" y2="418.6"/>
<line class="err" x1="649.7" y1="415.0" x2="663.7" y2="415.0"/>
<line class="err" x1="649.7" y1="418.6" x2="663.7" y2="418.6"/>
<circle cx="656.7" cy="416.8" r="5" fill="#34d399"/>
<text class="value" x="656.7" y="405.0" text-anchor="middle">90.0</text>
<line class="err" x1="751.1" y1="413.9" x2="751.1" y2="419.6"/>
<line class="err" x1="744.1" y1="413.9" x2="758.1" y2="413.9"/>
<line class="err" x1="744.1" y1="419.6" x2="758.1" y2="419.6"/>
<circle cx="751.1" cy="416.8" r="5" fill="#34d399"/>
<text class="value" x="751.1" y="403.9" text-anchor="middle">90.0</text>
<line class="err" x1="845.6" y1="412.0" x2="845.6" y2="415.1"/>
<line class="err" x1="838.6" y1="412.0" x2="852.6" y2="412.0"/>
<line class="err" x1="838.6" y1="415.1" x2="852.6" y2="415.1"/>
<circle cx="845.6" cy="413.6" r="5" fill="#34d399"/>
<text class="value" x="845.6" y="402.0" text-anchor="middle">98.8</text>
<line class="err" x1="940.0" y1="411.9" x2="940.0" y2="416.1"/>
<line class="err" x1="933.0" y1="411.9" x2="947.0" y2="411.9"/>
<line class="err" x1="933.0" y1="416.1" x2="947.0" y2="416.1"/>
<circle cx="940.0" cy="414.0" r="5" fill="#34d399"/>
<text class="value" x="940.0" y="401.9" text-anchor="middle">97.5</text>
<line x1="730" y1="28" x2="746" y2="28" stroke="#34d399" stroke-width="4"/>
<text class="legend" x="754" y="34">p50</text>
<polyline fill="none" stroke="#f59e0b" stroke-width="4" points="90.0,446.3 184.4,427.9 278.9,413.1 373.3,339.3 467.8,263.6 562.2,362.8 656.7,358.7 751.1,353.6 845.6,351.7 940.0,358.2"/>
<line class="err" x1="90.0" y1="446.3" x2="90.0" y2="446.3"/>
<line class="err" x1="83.0" y1="446.3" x2="97.0" y2="446.3"/>
<line class="err" x1="83.0" y1="446.3" x2="97.0" y2="446.3"/>
<circle cx="90.0" cy="446.3" r="5" fill="#f59e0b"/>
<text class="value" x="90.0" y="436.3" text-anchor="middle">10.0</text>
<line class="err" x1="184.4" y1="427.9" x2="184.4" y2="427.9"/>
<line class="err" x1="177.4" y1="427.9" x2="191.4" y2="427.9"/>
<line class="err" x1="177.4" y1="427.9" x2="191.4" y2="427.9"/>
<circle cx="184.4" cy="427.9" r="5" fill="#f59e0b"/>
<text class="value" x="184.4" y="417.9" text-anchor="middle">60.0</text>
<line class="err" x1="278.9" y1="413.1" x2="278.9" y2="413.1"/>
<line class="err" x1="271.9" y1="413.1" x2="285.9" y2="413.1"/>
<line class="err" x1="271.9" y1="413.1" x2="285.9" y2="413.1"/>
<circle cx="278.9" cy="413.1" r="5" fill="#f59e0b"/>
<text class="value" x="278.9" y="403.1" text-anchor="middle">100.0</text>
<line class="err" x1="373.3" y1="318.6" x2="373.3" y2="360.0"/>
<line class="err" x1="366.3" y1="318.6" x2="380.3" y2="318.6"/>
<line class="err" x1="366.3" y1="360.0" x2="380.3" y2="360.0"/>
<circle cx="373.3" cy="339.3" r="5" fill="#f59e0b"/>
<text class="value" x="373.3" y="308.6" text-anchor="middle">300.0</text>
<line class="err" x1="467.8" y1="252.4" x2="467.8" y2="274.9"/>
<line class="err" x1="460.8" y1="252.4" x2="474.8" y2="252.4"/>
<line class="err" x1="460.8" y1="274.9" x2="474.8" y2="274.9"/>
<circle cx="467.8" cy="263.6" r="5" fill="#f59e0b"/>
<text class="value" x="467.8" y="242.4" text-anchor="middle">505.0</text>
<line class="err" x1="562.2" y1="358.8" x2="562.2" y2="366.8"/>
<line class="err" x1="555.2" y1="358.8" x2="569.2" y2="358.8"/>
<line class="err" x1="555.2" y1="366.8" x2="569.2" y2="366.8"/>
<circle cx="562.2" cy="362.8" r="5" fill="#f59e0b"/>
<text class="value" x="562.2" y="348.8" text-anchor="middle">236.2</text>
<line class="err" x1="656.7" y1="356.2" x2="656.7" y2="361.1"/>
<line class="err" x1="649.7" y1="356.2" x2="663.7" y2="356.2"/>
<line class="err" x1="649.7" y1="361.1" x2="663.7" y2="361.1"/>
<circle cx="656.7" cy="358.7" r="5" fill="#f59e0b"/>
<text class="value" x="656.7" y="346.2" text-anchor="middle">247.5</text>
<line class="err" x1="751.1" y1="337.0" x2="751.1" y2="370.1"/>
<line class="err" x1="744.1" y1="337.0" x2="758.1" y2="337.0"/>
<line class="err" x1="744.1" y1="370.1" x2="758.1" y2="370.1"/>
<circle cx="751.1" cy="353.6" r="5" fill="#f59e0b"/>
<text class="value" x="751.1" y="327.0" text-anchor="middle">261.2</text>
<line class="err" x1="845.6" y1="334.6" x2="845.6" y2="368.9"/>
<line class="err" x1="838.6" y1="334.6" x2="852.6" y2="334.6"/>
<line class="err" x1="838.6" y1="368.9" x2="852.6" y2="368.9"/>
<circle cx="845.6" cy="351.7" r="5" fill="#f59e0b"/>
<text class="value" x="845.6" y="324.6" text-anchor="middle">266.2</text>
<line class="err" x1="940.0" y1="350.2" x2="940.0" y2="366.2"/>
<line class="err" x1="933.0" y1="350.2" x2="947.0" y2="350.2"/>
<line class="err" x1="933.0" y1="366.2" x2="947.0" y2="366.2"/>
<circle cx="940.0" cy="358.2" r="5" fill="#f59e0b"/>
<text class="value" x="940.0" y="340.2" text-anchor="middle">248.8</text>
<line x1="730" y1="50" x2="746" y2="50" stroke="#f59e0b" stroke-width="4"/>
<text class="legend" x="754" y="56">p95</text>
<polyline fill="none" stroke="#fb7185" stroke-width="4" points="90.0,446.3 184.4,427.9 278.9,396.0 373.3,283.0 467.8,141.9 562.2,317.1 656.7,300.1 751.1,307.5 845.6,300.1 940.0,312.1"/>
<line class="err" x1="90.0" y1="446.3" x2="90.0" y2="446.3"/>
<line class="err" x1="83.0" y1="446.3" x2="97.0" y2="446.3"/>
<line class="err" x1="83.0" y1="446.3" x2="97.0" y2="446.3"/>
<circle cx="90.0" cy="446.3" r="5" fill="#fb7185"/>
<text class="value" x="90.0" y="436.3" text-anchor="middle">10.0</text>
<line class="err" x1="184.4" y1="427.9" x2="184.4" y2="427.9"/>
<line class="err" x1="177.4" y1="427.9" x2="191.4" y2="427.9"/>
<line class="err" x1="177.4" y1="427.9" x2="191.4" y2="427.9"/>
<circle cx="184.4" cy="427.9" r="5" fill="#fb7185"/>
<text class="value" x="184.4" y="417.9" text-anchor="middle">60.0</text>
<line class="err" x1="278.9" y1="382.8" x2="278.9" y2="409.3"/>
<line class="err" x1="271.9" y1="382.8" x2="285.9" y2="382.8"/>
<line class="err" x1="271.9" y1="409.3" x2="285.9" y2="409.3"/>
<circle cx="278.9" cy="396.0" r="5" fill="#fb7185"/>
<text class="value" x="278.9" y="372.8" text-anchor="middle">146.2</text>
<line class="err" x1="373.3" y1="277.0" x2="373.3" y2="289.0"/>
<line class="err" x1="366.3" y1="277.0" x2="380.3" y2="277.0"/>
<line class="err" x1="366.3" y1="289.0" x2="380.3" y2="289.0"/>
<circle cx="373.3" cy="283.0" r="5" fill="#fb7185"/>
<text class="value" x="373.3" y="267.0" text-anchor="middle">452.5</text>
<line class="err" x1="467.8" y1="110.7" x2="467.8" y2="173.0"/>
<line class="err" x1="460.8" y1="110.7" x2="474.8" y2="110.7"/>
<line class="err" x1="460.8" y1="173.0" x2="474.8" y2="173.0"/>
<circle cx="467.8" cy="141.9" r="5" fill="#fb7185"/>
<text class="value" x="467.8" y="100.7" text-anchor="middle">835.0</text>
<line class="err" x1="562.2" y1="291.5" x2="562.2" y2="342.8"/>
<line class="err" x1="555.2" y1="291.5" x2="569.2" y2="291.5"/>
<line class="err" x1="555.2" y1="342.8" x2="569.2" y2="342.8"/>
<circle cx="562.2" cy="317.1" r="5" fill="#fb7185"/>
<text class="value" x="562.2" y="281.5" text-anchor="middle">360.0</text>
<line class="err" x1="656.7" y1="283.0" x2="656.7" y2="317.1"/>
<line class="err" x1="649.7" y1="283.0" x2="663.7" y2="283.0"/>
<line class="err" x1="649.7" y1="317.1" x2="663.7" y2="317.1"/>
<circle cx="656.7" cy="300.1" r="5" fill="#fb7185"/>
<text class="value" x="656.7" y="273.0" text-anchor="middle">406.2</text>
<line class="err" x1="751.1" y1="283.4" x2="751.1" y2="331.5"/>
<line class="err" x1="744.1" y1="283.4" x2="758.1" y2="283.4"/>
<line class="err" x1="744.1" y1="331.5" x2="758.1" y2="331.5"/>
<circle cx="751.1" cy="307.5" r="5" fill="#fb7185"/>
<text class="value" x="751.1" y="273.4" text-anchor="middle">386.2</text>
<line class="err" x1="845.6" y1="279.0" x2="845.6" y2="321.1"/>
<line class="err" x1="838.6" y1="279.0" x2="852.6" y2="279.0"/>
<line class="err" x1="838.6" y1="321.1" x2="852.6" y2="321.1"/>
<circle cx="845.6" cy="300.1" r="5" fill="#fb7185"/>
<text class="value" x="845.6" y="269.0" text-anchor="middle">406.2</text>
<line class="err" x1="940.0" y1="286.2" x2="940.0" y2="338.0"/>
<line class="err" x1="933.0" y1="286.2" x2="947.0" y2="286.2"/>
<line class="err" x1="933.0" y1="338.0" x2="947.0" y2="338.0"/>
<circle cx="940.0" cy="312.1" r="5" fill="#fb7185"/>
<text class="value" x="940.0" y="276.2" text-anchor="middle">373.8</text>
<line x1="730" y1="72" x2="746" y2="72" stroke="#fb7185" stroke-width="4"/>
<text class="legend" x="754" y="78">p99</text>
</svg>
