<svg xmlns="http://www.w3.org/2000/svg" width="980" height="540" viewBox="0 0 980 540" role="img">
<style>.title{font:700 20px Arial; fill:#f3f7ff;}.label{font:12px Arial; fill:#cbd8f0;}.value{font:11px Arial; fill:#eef5ff;}.axis{stroke:#4d6387; stroke-width:1;}.grid{stroke:#20324d; stroke-width:1; opacity:.8;}.legend{font:12px Arial; fill:#d7e7ff;}.bg{fill:#071423;}.err{stroke:#dbeafe; stroke-width:1.5;}</style>
<rect class="bg" x="0" y="0" width="980" height="540" rx="18"/>
<text class="title" x="90" y="38">Latency Profile (95% CI)</text>
<text class="label" x="90" y="520">Latency (ms)</text>
<line class="grid" x1="90" y1="70.0" x2="940" y2="70.0"/>
<text class="label" x="12" y="74.0">1030</text>
<line class="grid" x1="90" y1="146.0" x2="940" y2="146.0"/>
<text class="label" x="12" y="150.0">824</text>
<line class="grid" x1="90" y1="222.0" x2="940" y2="222.0"/>
<text class="label" x="12" y="226.0">618</text>
<line class="grid" x1="90" y1="298.0" x2="940" y2="298.0"/>
<text class="label" x="12" y="302.0">412</text>
<line class="grid" x1="90" y1="374.0" x2="940" y2="374.0"/>
<text class="label" x="12" y="378.0">206</text>
<line class="grid" x1="90" y1="450.0" x2="940" y2="450.0"/>
<text class="label" x="12" y="454.0">0</text>
<line class="axis" x1="90" y1="70" x2="90" y2="450"/>
<line class="axis" x1="90" y1="450" x2="940" y2="450"/>
<text class="label" x="90.0" y="478" text-anchor="middle">Immediate</text>
<text class="label" x="150.7" y="478" text-anchor="middle">SpeedBump 50</text>
<text class="label" x="211.4" y="478" text-anchor="middle">FBA-100</text>
<text class="label" x="272.1" y="478" text-anchor="middle">FBA-250</text>
<text class="label" x="332.9" y="478" text-anchor="middle">FBA-500</text>
<text class="label" x="393.6" y="478" text-anchor="middle">Adaptive B</text>
<text class="label" x="454.3" y="478" text-anchor="middle">Adaptive OF</text>
<text class="label" x="515.0" y="478" text-anchor="middle">Adaptive QL</text>
<text class="label" x="575.7" y="478" text-anchor="middle">BurstAware</text>
<text class="label" x="636.4" y="478" text-anchor="middle">LinUCB</text>
<text class="label" x="697.1" y="478" text-anchor="middle">TinyMLP</text>
<text class="label" x="757.9" y="478" text-anchor="middle">OfflineCtx</text>
<text class="label" x="818.6" y="478" text-anchor="middle">FittedQ</text>
<text class="label" x="879.3" y="478" text-anchor="middle">OnlineDQN</text>
<text class="label" x="940.0" y="478" text-anchor="middle">Stress</text>
<polyline fill="none" stroke="#34d399" stroke-width="4" points="90.0,446.3 150.7,427.9 211.4,432.9 272.1,414.0 332.9,371.1 393.6,420.0 454.3,416.8 515.0,416.8 575.7,413.6 636.4,432.0 697.1,426.9 757.9,426.0 818.6,432.9 879.3,432.9 940.0,414.0"/>
<line class="err" x1="90.0" y1="446.3" x2="90.0" y2="446.3"/>
<line class="err" x1="83.0" y1="446.3" x2="97.0" y2="446.3"/>
<line class="err" x1="83.0" y1="446.3" x2="97.0" y2="446.3"/>
<circle cx="90.0" cy="446.3" r="5" fill="#34d399"/>
<text class="value" x="90.0" y="436.3" text-anchor="middle">10.0</text>
<line class="err" x1="150.7" y1="427.9" x2="150.7" y2="427.9"/>
<line class="err" x1="143.7" y1="427.9" x2="157.7" y2="427.9"/>
<line class="err" x1="143.7" y1="427.9" x2="157.7" y2="427.9"/>
<circle cx="150.7" cy="427.9" r="5" fill="#34d399"/>
<text class="value" x="150.7" y="417.9" text-anchor="middle">60.0</text>
<line class="err" x1="211.4" y1="431.7" x2="211.4" y2="434.2"/>
<line class="err" x1="204.4" y1="431.7" x2="218.4" y2="431.7"/>
<line class="err" x1="204.4" y1="434.2" x2="218.4" y2="434.2"/>
<circle cx="211.4" cy="432.9" r="5" fill="#34d399"/>
<text class="value" x="211.4" y="421.7" text-anchor="middle">46.2</text>
<line class="err" x1="272.1" y1="412.3" x2="272.1" y2="415.7"/>
<line class="err" x1="265.1" y1="412.3" x2="279.1" y2="412.3"/>
<line class="err" x1="265.1" y1="415.7" x2="279.1" y2="415.7"/>
<circle cx="272.1" cy="414.0" r="5" fill="#34d399"/>
<text class="value" x="272.1" y="402.3" text-anchor="middle">97.5</text>
<line class="err" x1="332.9" y1="362.1" x2="332.9" y2="380.2"/>
<line class="err" x1="325.9" y1="362.1" x2="339.9" y2="362.1"/>
<line class="err" x1="325.9" y1="380.2" x2="339.9" y2="380.2"/>
<circle cx="332.9" cy="371.1" r="5" fill="#34d399"/>
<text class="value" x="332.9" y="352.1" text-anchor="middle">213.8</text>
<line class="err" x1="393.6" y1="417.6" x2="393.6" y2="422.4"/>
<line class="err" x1="386.6" y1="417.6" x2="400.6" y2="417.6"/>
<line class="err" x1="386.6" y1="422.4" x2="400.6" y2="422.4"/>
<circle cx="393.6" cy="420.0" r="5" fill="#34d399"/>
<text class="value" x="393.6" y="407.6" text-anchor="middle">81.2</text>
<line class="err" x1="454.3" y1="415.0" x2="454.3" y2="418.6"/>
<line class="err" x1="447.3" y1="415.0" x2="461.3" y2="415.0"/>
<line class="err" x1="447.3" y1="418.6" x2="461.3" y2="418.6"/>
<circle cx="454.3" cy="416.8" r="5" fill="#34d399"/>
<text class="value" x="454.3" y="405.0" text-anchor="middle">90.0</text>
<line class="err" x1="515.0" y1="413.9" x2="515.0" y2="419.6"/>
<line class="err" x1="508.0" y1="413.9" x2="522.0" y2="413.9"/>
<line class="err" x1="508.0" y1="419.6" x2="522.0" y2="419.6"/>
<circle cx="515.0" cy="416.8" r="5" fill="#34d399"/>
<text class="value" x="515.0" y="403.9" text-anchor="middle">90.0</text>
<line class="err" x1="575.7" y1="412.0" x2="575.7" y2="415.1"/>
<line class="err" x1="568.7" y1="412.0" x2="582.7" y2="412.0"/>
<line class="err" x1="568.7" y1="415.1" x2="582.7" y2="415.1"/>
<circle cx="575.7" cy="413.6" r="5" fill="#34d399"/>
<text class="value" x="575.7" y="402.0" text-anchor="middle">98.8</text>
<line class="err" x1="636.4" y1="431.2" x2="636.4" y2="432.9"/>
<line class="err" x1="629.4" y1="431.2" x2="643.4" y2="431.2"/>
<line class="err" x1="629.4" y1="432.9" x2="643.4" y2="432.9"/>
<circle cx="636.4" cy="432.0" r="5" fill="#34d399"/>
<text class="value" x="636.4" y="421.2" text-anchor="middle">48.8</text>
<line class="err" x1="697.1" y1="425.8" x2="697.1" y2="428.0"/>
<line class="err" x1="690.1" y1="425.8" x2="704.1" y2="425.8"/>
<line class="err" x1="690.1" y1="428.0" x2="704.1" y2="428.0"/>
<circle cx="697.1" cy="426.9" r="5" fill="#34d399"/>
<text class="value" x="697.1" y="415.8" text-anchor="middle">62.5</text>
<line class="err" x1="757.9" y1="423.8" x2="757.9" y2="428.2"/>
<line class="err" x1="750.9" y1="423.8" x2="764.9" y2="423.8"/>
<line class="err" x1="750.9" y1="428.2" x2="764.9" y2="428.2"/>
<circle cx="757.9" cy="426.0" r="5" fill="#34d399"/>
<text class="value" x="757.9" y="413.8" text-anchor="middle">65.0</text>
<line class="err" x1="818.6" y1="431.7" x2="818.6" y2="434.2"/>
<line class="err" x1="811.6" y1="431.7" x2="825.6" y2="431.7"/>
<line class="err" x1="811.6" y1="434.2" x2="825.6" y2="434.2"/>
<circle cx="818.6" cy="432.9" r="5" fill="#34d399"/>
<text class="value" x="818.6" y="421.7" text-anchor="middle">46.2</text>
<line class="err" x1="879.3" y1="431.7" x2="879.3" y2="434.2"/>
<line class="err" x1="872.3" y1="431.7" x2="886.3" y2="431.7"/>
<line class="err" x1="872.3" y1="434.2" x2="886.3" y2="434.2"/>
<circle cx="879.3" cy="432.9" r="5" fill="#34d399"/>
<text class="value" x="879.3" y="421.7" text-anchor="middle">46.2</text>
<line class="err" x1="940.0" y1="411.9" x2="940.0" y2="416.1"/>
<line class="err" x1="933.0" y1="411.9" x2="947.0" y2="411.9"/>
<line class="err" x1="933.0" y1="416.1" x2="947.0" y2="416.1"/>
<circle cx="940.0" cy="414.0" r="5" fill="#34d399"/>
<text class="value" x="940.0" y="401.9" text-anchor="middle">97.5</text>
<line x1="730" y1="28" x2="746" y2="28" stroke="#34d399" stroke-width="4"/>
<text class="legend" x="754" y="34">p50</text>
<polyline fill="none" stroke="#f59e0b" stroke-width="4" points="90.0,446.3 150.7,427.9 211.4,413.1 272.1,339.3 332.9,263.6 393.6,362.8 454.3,358.7 515.0,353.6 575.7,352.7 636.4,411.7 697.1,395.6 757.9,395.6 818.6,412.6 879.3,412.6 940.0,358.2"/>
<line class="err" x1="90.0" y1="446.3" x2="90.0" y2="446.3"/>
<line class="err" x1="83.0" y1="446.3" x2="97.0" y2="446.3"/>
<line class="err" x1="83.0" y1="446.3" x2="97.0" y2="446.3"/>
<circle cx="90.0" cy="446.3" r="5" fill="#f59e0b"/>
<text class="value" x="90.0" y="436.3" text-anchor="middle">10.0</text>
<line class="err" x1="150.7" y1="427.9" x2="150.7" y2="427.9"/>
<line class="err" x1="143.7" y1="427.9" x2="157.7" y2="427.9"/>
<line class="err" x1="143.7" y1="427.9" x2="157.7" y2="427.9"/>
<circle cx="150.7" cy="427.9" r="5" fill="#f59e0b"/>
<text class="value" x="150.7" y="417.9" text-anchor="middle">60.0</text>
<line class="err" x1="211.4" y1="413.1" x2="211.4" y2="413.1"/>
<line class="err" x1="204.4" y1="413.1" x2="218.4" y2="413.1"/>
<line class="err" x1="204.4" y1="413.1" x2="218.4" y2="413.1"/>
<circle cx="211.4" cy="413.1" r="5" fill="#f59e0b"/>
<text class="value" x="211.4" y="403.1" text-anchor="middle">100.0</text>
<line class="err" x1="272.1" y1="318.6" x2="272.1" y2="360.0"/>
<line class="err" x1="265.1" y1="318.6" x2="279.1" y2="318.6"/>
<line class="err" x1="265.1" y1="360.0" x2="279.1" y2="360.0"/>
<circle cx="272.1" cy="339.3" r="5" fill="#f59e0b"/>
<text class="value" x="272.1" y="308.6" text-anchor="middle">300.0</text>
<line class="err" x1="332.9" y1="252.4" x2="332.9" y2="274.9"/>
<line class="err" x1="325.9" y1="252.4" x2="339.9" y2="252.4"/>
<line class="err" x1="325.9" y1="274.9" x2="339.9" y2="274.9"/>
<circle cx="332.9" cy="263.6" r="5" fill="#f59e0b"/>
<text class="value" x="332.9" y="242.4" text-anchor="middle">505.0</text>
<line class="err" x1="393.6" y1="358.8" x2="393.6" y2="366.8"/>
<line class="err" x1="386.6" y1="358.8" x2="400.6" y2="358.8"/>
<line class="err" x1="386.6" y1="366.8" x2="400.6" y2="366.8"/>
<circle cx="393.6" cy="362.8" r="5" fill="#f59e0b"/>
<text class="value" x="393.6" y="348.8" text-anchor="middle">236.2</text>
<line class="err" x1="454.3" y1="356.2" x2="454.3" y2="361.1"/>
<line class="err" x1="447.3" y1="356.2" x2="461.3" y2="356.2"/>
<line class="err" x1="447.3" y1="361.1" x2="461.3" y2="361.1"/>
<circle cx="454.3" cy="358.7" r="5" fill="#f59e0b"/>
<text class="value" x="454.3" y="346.2" text-anchor="middle">247.5</text>
<line class="err" x1="515.0" y1="337.0" x2="515.0" y2="370.1"/>
<line class="err" x1="508.0" y1="337.0" x2="522.0" y2="337.0"/>
<line class="err" x1="508.0" y1="370.1" x2="522.0" y2="370.1"/>
<circle cx="515.0" cy="353.6" r="5" fill="#f59e0b"/>
<text class="value" x="515.0" y="327.0" text-anchor="middle">261.2</text>
<line class="err" x1="575.7" y1="335.1" x2="575.7" y2="370.2"/>
<line class="err" x1="568.7" y1="335.1" x2="582.7" y2="335.1"/>
<line class="err" x1="568.7" y1="370.2" x2="582.7" y2="370.2"/>
<circle cx="575.7" cy="352.7" r="5" fill="#f59e0b"/>
<text class="value" x="575.7" y="325.1" text-anchor="middle">263.8</text>
<line class="err" x1="636.4" y1="409.9" x2="636.4" y2="413.5"/>
<line class="err" x1="629.4" y1="409.9" x2="643.4" y2="409.9"/>
<line class="err" x1="629.4" y1="413.5" x2="643.4" y2="413.5"/>
<circle cx="636.4" cy="411.7" r="5" fill="#f59e0b"/>
<text class="value" x="636.4" y="399.9" text-anchor="middle">103.8</text>
<line class="err" x1="697.1" y1="394.5" x2="697.1" y2="396.7"/>
<line class="err" x1="690.1" y1="394.5" x2="704.1" y2="394.5"/>
<line class="err" x1="690.1" y1="396.7" x2="704.1" y2="396.7"/>
<circle cx="697.1" cy="395.6" r="5" fill="#f59e0b"/>
<text class="value" x="697.1" y="384.5" text-anchor="middle">147.5</text>
<line class="err" x1="757.9" y1="392.0" x2="757.9" y2="399.1"/>
<line class="err" x1="750.9" y1="392.0" x2="764.9" y2="392.0"/>
<line class="err" x1="750.9" y1="399.1" x2="764.9" y2="399.1"/>
<circle cx="757.9" cy="395.6" r="5" fill="#f59e0b"/>
<text class="value" x="757.9" y="382.0" text-anchor="middle">147.5</text>
<line class="err" x1="818.6" y1="411.8" x2="818.6" y2="413.5"/>
<line class="err" x1="811.6" y1="411.8" x2="825.6" y2="411.8"/>
<line class="err" x1="811.6" y1="413.5" x2="825.6" y2="413.5"/>
<circle cx="818.6" cy="412.6" r="5" fill="#f59e0b"/>
<text class="value" x="818.6" y="401.8" text-anchor="middle">101.2</text>
<line class="err" x1="879.3" y1="411.8" x2="879.3" y2="413.5"/>
<line class="err" x1="872.3" y1="411.8" x2="886.3" y2="411.8"/>
<line class="err" x1="872.3" y1="413.5" x2="886.3" y2="413.5"/>
<circle cx="879.3" cy="412.6" r="5" fill="#f59e0b"/>
<text class="value" x="879.3" y="401.8" text-anchor="middle">101.2</text>
<line class="err" x1="940.0" y1="350.2" x2="940.0" y2="366.2"/>
<line class="err" x1="933.0" y1="350.2" x2="947.0" y2="350.2"/>
<line class="err" x1="933.0" y1="366.2" x2="947.0" y2="366.2"/>
<circle cx="940.0" cy="358.2" r="5" fill="#f59e0b"/>
<text class="value" x="940.0" y="340.2" text-anchor="middle">248.8</text>
<line x1="730" y1="50" x2="746" y2="50" stroke="#f59e0b" stroke-width="4"/>
<text class="legend" x="754" y="56">p95</text>
<polyline fill="none" stroke="#fb7185" stroke-width="4" points="90.0,446.3 150.7,427.9 211.4,396.0 272.1,283.0 332.9,141.9 393.6,317.1 454.3,300.1 515.0,307.5 575.7,302.4 636.4,392.8 697.1,368.3 757.9,370.7 818.6,396.5 879.3,396.5 940.0,312.1"/>
<line class="err" x1="90.0" y1="446.3" x2="90.0" y2="446.3"/>
<line class="err" x1="83.0" y1="446.3" x2="97.0" y2="446.3"/>
<line class="err" x1="83.0" y1="446.3" x2="97.0" y2="446.3"/>
<circle cx="90.0" cy="446.3" r="5" fill="#fb7185"/>
<text class="value" x="90.0" y="436.3" text-anchor="middle">10.0</text>
<line class="err" x1="150.7" y1="427.9" x2="150.7" y2="427.9"/>
<line class="err" x1="143.7" y1="427.9" x2="157.7" y2="427.9"/>
<line class="err" x1="143.7" y1="427.9" x2="157.7" y2="427.9"/>
<circle cx="150.7" cy="427.9" r="5" fill="#fb7185"/>
<text class="value" x="150.7" y="417.9" text-anchor="middle">60.0</text>
<line class="err" x1="211.4" y1="382.8" x2="211.4" y2="409.3"/>
<line class="err" x1="204.4" y1="382.8" x2="218.4" y2="382.8"/>
<line class="err" x1="204.4" y1="409.3" x2="218.4" y2="409.3"/>
<circle cx="211.4" cy="396.0" r="5" fill="#fb7185"/>
<text class="value" x="211.4" y="372.8" text-anchor="middle">146.2</text>
<line class="err" x1="272.1" y1="277.0" x2="272.1" y2="289.0"/>
<line class="err" x1="265.1" y1="277.0" x2="279.1" y2="277.0"/>
<line class="err" x1="265.1" y1="289.0" x2="279.1" y2="289.0"/>
<circle cx="272.1" cy="283.0" r="5" fill="#fb7185"/>
<text class="value" x="272.1" y="267.0" text-anchor="middle">452.5</text>
<line class="err" x1="332.9" y1="110.7" x2="332.9" y2="173.0"/>
<line class="err" x1="325.9" y1="110.7" x2="339.9" y2="110.7"/>
<line class="err" x1="325.9" y1="173.0" x2="339.9" y2="173.0"/>
<circle cx="332.9" cy="141.9" r="5" fill="#fb7185"/>
<text class="value" x="332.9" y="100.7" text-anchor="middle">835.0</text>
<line class="err" x1="393.6" y1="291.5" x2="393.6" y2="342.8"/>
<line class="err" x1="386.6" y1="291.5" x2="400.6" y2="291.5"/>
<line class="err" x1="386.6" y1="342.8" x2="400.6" y2="342.8"/>
<circle cx="393.6" cy="317.1" r="5" fill="#fb7185"/>
<text class="value" x="393.6" y="281.5" text-anchor="middle">360.0</text>
<line class="err" x1="454.3" y1="283.0" x2="454.3" y2="317.1"/>
<line class="err" x1="447.3" y1="283.0" x2="461.3" y2="283.0"/>
<line class="err" x1="447.3" y1="317.1" x2="461.3" y2="317.1"/>
<circle cx="454.3" cy="300.1" r="5" fill="#fb7185"/>
<text class="value" x="454.3" y="273.0" text-anchor="middle">406.2</text>
<line class="err" x1="515.0" y1="283.4" x2="515.0" y2="331.5"/>
<line class="err" x1="508.0" y1="283.4" x2="522.0" y2="283.4"/>
<line class="err" x1="508.0" y1="331.5" x2="522.0" y2="331.5"/>
<circle cx="515.0" cy="307.5" r="5" fill="#fb7185"/>
<text class="value" x="515.0" y="273.4" text-anchor="middle">386.2</text>
<line class="err" x1="575.7" y1="281.3" x2="575.7" y2="323.5"/>
<line class="err" x1="568.7" y1="281.3" x2="582.7" y2="281.3"/>
<line class="err" x1="568.7" y1="323.5" x2="582.7" y2="323.5"/>
<circle cx="575.7" cy="302.4" r="5" fill="#fb7185"/>
<text class="value" x="575.7" y="271.3" text-anchor="middle">400.0</text>
<line class="err" x1="636.4" y1="386.4" x2="636.4" y2="399.2"/>
<line class="err" x1="629.4" y1="386.4" x2="643.4" y2="386.4"/>
<line class="err" x1="629.4" y1="399.2" x2="643.4" y2="399.2"/>
<circle cx="636.4" cy="392.8" r="5" fill="#fb7185"/>
<text class="value" x="636.4" y="376.4" text-anchor="middle">155.0</text>
<line class="err" x1="697.1" y1="347.2" x2="697.1" y2="389.5"/>
<line class="err" x1="690.1" y1="347.2" x2="704.1" y2="347.2"/>
<line class="err" x1="690.1" y1="389.5" x2="704.1" y2="389.5"/>
<circle cx="697.1" cy="368.3" r="5" fill="#fb7185"/>
<text class="value" x="697.1" y="337.2" text-anchor="middle">221.2</text>
<line class="err" x1="757.9" y1="353.2" x2="757.9" y2="388.1"/>
<line class="err" x1="750.9" y1="353.2" x2="764.9" y2="353.2"/>
<line class="err" x1="750.9" y1="388.1" x2="764.9" y2="388.1"/>
<circle cx="757.9" cy="370.7" r="5" fill="#fb7185"/>
<text class="value" x="757.9" y="343.2" text-anchor="middle">215.0</text>
<line class="err" x1="818.6" y1="388.6" x2="818.6" y2="404.4"/>
<line class="err" x1="811.6" y1="388.6" x2="825.6" y2="388.6"/>
<line class="err" x1="811.6" y1="404.4" x2="825.6" y2="404.4"/>
<circle cx="818.6" cy="396.5" r="5" fill="#fb7185"/>
<text class="value" x="818.6" y="378.6" text-anchor="middle">145.0</text>
<line class="err" x1="879.3" y1="388.6" x2="879.3" y2="404.4"/>
<line class="err" x1="872.3" y1="388.6" x2="886.3" y2="388.6"/>
<line class="err" x1="872.3" y1="404.4" x2="886.3" y2="404.4"/>
<circle cx="879.3" cy="396.5" r="5" fill="#fb7185"/>
<text class="value" x="879.3" y="378.6" text-anchor="middle">145.0</text>
<line class="err" x1="940.0" y1="286.2" x2="940.0" y2="338.0"/>
<line class="err" x1="933.0" y1="286.2" x2="947.0" y2="286.2"/>
<line class="err" x1="933.0" y1="338.0" x2="947.0" y2="338.0"/>
<circle cx="940.0" cy="312.1" r="5" fill="#fb7185"/>
<text class="value" x="940.0" y="276.2" text-anchor="middle">373.8</text>
<line x1="730" y1="72" x2="746" y2="72" stroke="#fb7185" stroke-width="4"/>
<text class="legend" x="754" y="78">p99</text>
</svg>
