<svg xmlns="http://www.w3.org/2000/svg" width="980" height="540" viewBox="0 0 980 540" role="img">
<style>.title{font:700 20px Arial; fill:#f3f7ff;}.label{font:12px Arial; fill:#cbd8f0;}.value{font:11px Arial; fill:#eef5ff;}.axis{stroke:#4d6387; stroke-width:1;}.grid{stroke:#20324d; stroke-width:1; opacity:.8;}.legend{font:12px Arial; fill:#d7e7ff;}.bg{fill:#071423;}.err{stroke:#dbeafe; stroke-width:1.5;}</style>
<rect class="bg" x="0" y="0" width="980" height="540" rx="18"/>
<text class="title" x="90" y="38">Latency Profile (95% CI)</text>
<text class="label" x="90" y="520">Latency (ms)</text>
<line class="grid" x1="90" y1="70.0" x2="940" y2="70.0"/>
<text class="label" x="12" y="74.0">1030</text>
<line class="grid" x1="90" y1="146.0" x2="940" y2="146.0"/>
<text class="label" x="12" y="150.0">824</text>
<line class="grid" x1="90" y1="222.0" x2="940" y2="222.0"/>
<text class="label" x="12" y="226.0">618</text>
<line class="grid" x1="90" y1="298.0" x2="940" y2="298.0"/>
<text class="label" x="12" y="302.0">412</text>
<line class="grid" x1="90" y1="374.0" x2="940" y2="374.0"/>
<text class="label" x="12" y="378.0">206</text>
<line class="grid" x1="90" y1="450.0" x2="940" y2="450.0"/>
<text class="label" x="12" y="454.0">0</text>
<line class="axis" x1="90" y1="70" x2="90" y2="450"/>
<line class="axis" x1="90" y1="450" x2="940" y2="450"/>
<text class="label" x="90.0" y="478" text-anchor="middle">Immediate</text>
<text class="label" x="167.3" y="478" text-anchor="middle">SpeedBump 50ms</text>
<text class="label" x="244.5" y="478" text-anchor="middle">100ms</text>
<text class="label" x="321.8" y="478" text-anchor="middle">250ms</text>
<text class="label" x="399.1" y="478" text-anchor="middle">500ms</text>
<text class="label" x="476.4" y="478" text-anchor="middle">Adaptive 100-250ms</text>
<text class="label" x="553.6" y="478" text-anchor="middle">Adaptive OrderFlow-100-250ms</text>
<text class="label" x="630.9" y="478" text-anchor="middle">Adaptive QueueLoad-100-250ms</text>
<text class="label" x="708.2" y="478" text-anchor="middle">Policy-BurstAware-100-250ms</text>
<text class="label" x="785.5" y="478" text-anchor="middle">Policy-LearnedLinUCB-100-250ms</text>
<text class="label" x="862.7" y="478" text-anchor="middle">Policy-LearnedTinyMLP-100-250ms</text>
<text class="label" x="940.0" y="478" text-anchor="middle">250ms Stress</text>
<polyline fill="none" stroke="#34d399" stroke-width="4" points="90.0,446.3 167.3,427.9 244.5,432.9 321.8,414.0 399.1,371.1 476.4,420.0 553.6,416.8 630.9,416.8 708.2,413.6 785.5,432.5 862.7,428.3 940.0,414.0"/>
<line class="err" x1="90.0" y1="446.3" x2="90.0" y2="446.3"/>
<line class="err" x1="83.0" y1="446.3" x2="97.0" y2="446.3"/>
<line class="err" x1="83.0" y1="446.3" x2="97.0" y2="446.3"/>
<circle cx="90.0" cy="446.3" r="5" fill="#34d399"/>
<text class="value" x="90.0" y="436.3" text-anchor="middle">10.0</text>
<line class="err" x1="167.3" y1="427.9" x2="167.3" y2="427.9"/>
<line class="err" x1="160.3" y1="427.9" x2="174.3" y2="427.9"/>
<line class="err" x1="160.3" y1="427.9" x2="174.3" y2="427.9"/>
<circle cx="167.3" cy="427.9" r="5" fill="#34d399"/>
<text class="value" x="167.3" y="417.9" text-anchor="middle">60.0</text>
<line class="err" x1="244.5" y1="431.7" x2="244.5" y2="434.2"/>
<line class="err" x1="237.5" y1="431.7" x2="251.5" y2="431.7"/>
<line class="err" x1="237.5" y1="434.2" x2="251.5" y2="434.2"/>
<circle cx="244.5" cy="432.9" r="5" fill="#34d399"/>
<text class="value" x="244.5" y="421.7" text-anchor="middle">46.2</text>
<line class="err" x1="321.8" y1="412.3" x2="321.8" y2="415.7"/>
<line class="err" x1="314.8" y1="412.3" x2="328.8" y2="412.3"/>
<line class="err" x1="314.8" y1="415.7" x2="328.8" y2="415.7"/>
<circle cx="321.8" cy="414.0" r="5" fill="#34d399"/>
<text class="value" x="321.8" y="402.3" text-anchor="middle">97.5</text>
<line class="err" x1="399.1" y1="362.1" x2="399.1" y2="380.2"/>
<line class="err" x1="392.1" y1="362.1" x2="406.1" y2="362.1"/>
<line class="err" x1="392.1" y1="380.2" x2="406.1" y2="380.2"/>
<circle cx="399.1" cy="371.1" r="5" fill="#34d399"/>
<text class="value" x="399.1" y="352.1" text-anchor="middle">213.8</text>
<line class="err" x1="476.4" y1="417.6" x2="476.4" y2="422.4"/>
<line class="err" x1="469.4" y1="417.6" x2="483.4" y2="417.6"/>
<line class="err" x1="469.4" y1="422.4" x2="483.4" y2="422.4"/>
<circle cx="476.4" cy="420.0" r="5" fill="#34d399"/>
<text class="value" x="476.4" y="407.6" text-anchor="middle">81.2</text>
<line class="err" x1="553.6" y1="415.0" x2="553.6" y2="418.6"/>
<line class="err" x1="546.6" y1="415.0" x2="560.6" y2="415.0"/>
<line class="err" x1="546.6" y1="418.6" x2="560.6" y2="418.6"/>
<circle cx="553.6" cy="416.8" r="5" fill="#34d399"/>
<text class="value" x="553.6" y="405.0" text-anchor="middle">90.0</text>
<line class="err" x1="630.9" y1="413.9" x2="630.9" y2="419.6"/>
<line class="err" x1="623.9" y1="413.9" x2="637.9" y2="413.9"/>
<line class="err" x1="623.9" y1="419.6" x2="637.9" y2="419.6"/>
<circle cx="630.9" cy="416.8" r="5" fill="#34d399"/>
<text class="value" x="630.9" y="403.9" text-anchor="middle">90.0</text>
<line class="err" x1="708.2" y1="412.0" x2="708.2" y2="415.1"/>
<line class="err" x1="701.2" y1="412.0" x2="715.2" y2="412.0"/>
<line class="err" x1="701.2" y1="415.1" x2="715.2" y2="415.1"/>
<circle cx="708.2" cy="413.6" r="5" fill="#34d399"/>
<text class="value" x="708.2" y="402.0" text-anchor="middle">98.8</text>
<line class="err" x1="785.5" y1="431.4" x2="785.5" y2="433.6"/>
<line class="err" x1="778.5" y1="431.4" x2="792.5" y2="431.4"/>
<line class="err" x1="778.5" y1="433.6" x2="792.5" y2="433.6"/>
<circle cx="785.5" cy="432.5" r="5" fill="#34d399"/>
<text class="value" x="785.5" y="421.4" text-anchor="middle">47.5</text>
<line class="err" x1="862.7" y1="427.5" x2="862.7" y2="429.2"/>
<line class="err" x1="855.7" y1="427.5" x2="869.7" y2="427.5"/>
<line class="err" x1="855.7" y1="429.2" x2="869.7" y2="429.2"/>
<circle cx="862.7" cy="428.3" r="5" fill="#34d399"/>
<text class="value" x="862.7" y="417.5" text-anchor="middle">58.8</text>
<line class="err" x1="940.0" y1="411.9" x2="940.0" y2="416.1"/>
<line class="err" x1="933.0" y1="411.9" x2="947.0" y2="411.9"/>
<line class="err" x1="933.0" y1="416.1" x2="947.0" y2="416.1"/>
<circle cx="940.0" cy="414.0" r="5" fill="#34d399"/>
<text class="value" x="940.0" y="401.9" text-anchor="middle">97.5</text>
<line x1="730" y1="28" x2="746" y2="28" stroke="#34d399" stroke-width="4"/>
<text class="legend" x="754" y="34">p50</text>
<polyline fill="none" stroke="#f59e0b" stroke-width="4" points="90.0,446.3 167.3,427.9 244.5,413.1 321.8,339.3 399.1,263.6 476.4,362.8 553.6,358.7 630.9,353.6 708.2,352.7 785.5,412.6 862.7,368.8 940.0,358.2"/>
<line class="err" x1="90.0" y1="446.3" x2="90.0" y2="446.3"/>
<line class="err" x1="83.0" y1="446.3" x2="97.0" y2="446.3"/>
<line class="err" x1="83.0" y1="446.3" x2="97.0" y2="446.3"/>
<circle cx="90.0" cy="446.3" r="5" fill="#f59e0b"/>
<text class="value" x="90.0" y="436.3" text-anchor="middle">10.0</text>
<line class="err" x1="167.3" y1="427.9" x2="167.3" y2="427.9"/>
<line class="err" x1="160.3" y1="427.9" x2="174.3" y2="427.9"/>
<line class="err" x1="160.3" y1="427.9" x2="174.3" y2="427.9"/>
<circle cx="167.3" cy="427.9" r="5" fill="#f59e0b"/>
<text class="value" x="167.3" y="417.9" text-anchor="middle">60.0</text>
<line class="err" x1="244.5" y1="413.1" x2="244.5" y2="413.1"/>
<line class="err" x1="237.5" y1="413.1" x2="251.5" y2="413.1"/>
<line class="err" x1="237.5" y1="413.1" x2="251.5" y2="413.1"/>
<circle cx="244.5" cy="413.1" r="5" fill="#f59e0b"/>
<text class="value" x="244.5" y="403.1" text-anchor="middle">100.0</text>
<line class="err" x1="321.8" y1="318.6" x2="321.8" y2="360.0"/>
<line class="err" x1="314.8" y1="318.6" x2="328.8" y2="318.6"/>
<line class="err" x1="314.8" y1="360.0" x2="328.8" y2="360.0"/>
<circle cx="321.8" cy="339.3" r="5" fill="#f59e0b"/>
<text class="value" x="321.8" y="308.6" text-anchor="middle">300.0</text>
<line class="err" x1="399.1" y1="252.4" x2="399.1" y2="274.9"/>
<line class="err" x1="392.1" y1="252.4" x2="406.1" y2="252.4"/>
<line class="err" x1="392.1" y1="274.9" x2="406.1" y2="274.9"/>
<circle cx="399.1" cy="263.6" r="5" fill="#f59e0b"/>
<text class="value" x="399.1" y="242.4" text-anchor="middle">505.0</text>
<line class="err" x1="476.4" y1="358.8" x2="476.4" y2="366.8"/>
<line class="err" x1="469.4" y1="358.8" x2="483.4" y2="358.8"/>
<line class="err" x1="469.4" y1="366.8" x2="483.4" y2="366.8"/>
<circle cx="476.4" cy="362.8" r="5" fill="#f59e0b"/>
<text class="value" x="476.4" y="348.8" text-anchor="middle">236.2</text>
<line class="err" x1="553.6" y1="356.2" x2="553.6" y2="361.1"/>
<line class="err" x1="546.6" y1="356.2" x2="560.6" y2="356.2"/>
<line class="err" x1="546.6" y1="361.1" x2="560.6" y2="361.1"/>
<circle cx="553.6" cy="358.7" r="5" fill="#f59e0b"/>
<text class="value" x="553.6" y="346.2" text-anchor="middle">247.5</text>
<line class="err" x1="630.9" y1="337.0" x2="630.9" y2="370.1"/>
<line class="err" x1="623.9" y1="337.0" x2="637.9" y2="337.0"/>
<line class="err" x1="623.9" y1="370.1" x2="637.9" y2="370.1"/>
<circle cx="630.9" cy="353.6" r="5" fill="#f59e0b"/>
<text class="value" x="630.9" y="327.0" text-anchor="middle">261.2</text>
<line class="err" x1="708.2" y1="335.1" x2="708.2" y2="370.2"/>
<line class="err" x1="701.2" y1="335.1" x2="715.2" y2="335.1"/>
<line class="err" x1="701.2" y1="370.2" x2="715.2" y2="370.2"/>
<circle cx="708.2" cy="352.7" r="5" fill="#f59e0b"/>
<text class="value" x="708.2" y="325.1" text-anchor="middle">263.8</text>
<line class="err" x1="785.5" y1="411.8" x2="785.5" y2="413.5"/>
<line class="err" x1="778.5" y1="411.8" x2="792.5" y2="411.8"/>
<line class="err" x1="778.5" y1="413.5" x2="792.5" y2="413.5"/>
<circle cx="785.5" cy="412.6" r="5" fill="#f59e0b"/>
<text class="value" x="785.5" y="401.8" text-anchor="middle">101.2</text>
<line class="err" x1="862.7" y1="355.0" x2="862.7" y2="382.6"/>
<line class="err" x1="855.7" y1="355.0" x2="869.7" y2="355.0"/>
<line class="err" x1="855.7" y1="382.6" x2="869.7" y2="382.6"/>
<circle cx="862.7" cy="368.8" r="5" fill="#f59e0b"/>
<text class="value" x="862.7" y="345.0" text-anchor="middle">220.0</text>
<line class="err" x1="940.0" y1="350.2" x2="940.0" y2="366.2"/>
<line class="err" x1="933.0" y1="350.2" x2="947.0" y2="350.2"/>
<line class="err" x1="933.0" y1="366.2" x2="947.0" y2="366.2"/>
<circle cx="940.0" cy="358.2" r="5" fill="#f59e0b"/>
<text class="value" x="940.0" y="340.2" text-anchor="middle">248.8</text>
<line x1="730" y1="50" x2="746" y2="50" stroke="#f59e0b" stroke-width="4"/>
<text class="legend" x="754" y="56">p95</text>
<polyline fill="none" stroke="#fb7185" stroke-width="4" points="90.0,446.3 167.3,427.9 244.5,396.0 321.8,283.0 399.1,141.9 476.4,317.1 553.6,300.1 630.9,307.5 708.2,302.4 785.5,391.4 862.7,337.4 940.0,312.1"/>
<line class="err" x1="90.0" y1="446.3" x2="90.0" y2="446.3"/>
<line class="err" x1="83.0" y1="446.3" x2="97.0" y2="446.3"/>
<line class="err" x1="83.0" y1="446.3" x2="97.0" y2="446.3"/>
<circle cx="90.0" cy="446.3" r="5" fill="#fb7185"/>
<text class="value" x="90.0" y="436.3" text-anchor="middle">10.0</text>
<line class="err" x1="167.3" y1="427.9" x2="167.3" y2="427.9"/>
<line class="err" x1="160.3" y1="427.9" x2="174.3" y2="427.9"/>
<line class="err" x1="160.3" y1="427.9" x2="174.3" y2="427.9"/>
<circle cx="167.3" cy="427.9" r="5" fill="#fb7185"/>
<text class="value" x="167.3" y="417.9" text-anchor="middle">60.0</text>
<line class="err" x1="244.5" y1="382.8" x2="244.5" y2="409.3"/>
<line class="err" x1="237.5" y1="382.8" x2="251.5" y2="382.8"/>
<line class="err" x1="237.5" y1="409.3" x2="251.5" y2="409.3"/>
<circle cx="244.5" cy="396.0" r="5" fill="#fb7185"/>
<text class="value" x="244.5" y="372.8" text-anchor="middle">146.2</text>
<line class="err" x1="321.8" y1="277.0" x2="321.8" y2="289.0"/>
<line class="err" x1="314.8" y1="277.0" x2="328.8" y2="277.0"/>
<line class="err" x1="314.8" y1="289.0" x2="328.8" y2="289.0"/>
<circle cx="321.8" cy="283.0" r="5" fill="#fb7185"/>
<text class="value" x="321.8" y="267.0" text-anchor="middle">452.5</text>
<line class="err" x1="399.1" y1="110.7" x2="399.1" y2="173.0"/>
<line class="err" x1="392.1" y1="110.7" x2="406.1" y2="110.7"/>
<line class="err" x1="392.1" y1="173.0" x2="406.1" y2="173.0"/>
<circle cx="399.1" cy="141.9" r="5" fill="#fb7185"/>
<text class="value" x="399.1" y="100.7" text-anchor="middle">835.0</text>
<line class="err" x1="476.4" y1="291.5" x2="476.4" y2="342.8"/>
<line class="err" x1="469.4" y1="291.5" x2="483.4" y2="291.5"/>
<line class="err" x1="469.4" y1="342.8" x2="483.4" y2="342.8"/>
<circle cx="476.4" cy="317.1" r="5" fill="#fb7185"/>
<text class="value" x="476.4" y="281.5" text-anchor="middle">360.0</text>
<line class="err" x1="553.6" y1="283.0" x2="553.6" y2="317.1"/>
<line class="err" x1="546.6" y1="283.0" x2="560.6" y2="283.0"/>
<line class="err" x1="546.6" y1="317.1" x2="560.6" y2="317.1"/>
<circle cx="553.6" cy="300.1" r="5" fill="#fb7185"/>
<text class="value" x="553.6" y="273.0" text-anchor="middle">406.2</text>
<line class="err" x1="630.9" y1="283.4" x2="630.9" y2="331.5"/>
<line class="err" x1="623.9" y1="283.4" x2="637.9" y2="283.4"/>
<line class="err" x1="623.9" y1="331.5" x2="637.9" y2="331.5"/>
<circle cx="630.9" cy="307.5" r="5" fill="#fb7185"/>
<text class="value" x="630.9" y="273.4" text-anchor="middle">386.2</text>
<line class="err" x1="708.2" y1="281.3" x2="708.2" y2="323.5"/>
<line class="err" x1="701.2" y1="281.3" x2="715.2" y2="281.3"/>
<line class="err" x1="701.2" y1="323.5" x2="715.2" y2="323.5"/>
<circle cx="708.2" cy="302.4" r="5" fill="#fb7185"/>
<text class="value" x="708.2" y="271.3" text-anchor="middle">400.0</text>
<line class="err" x1="785.5" y1="385.6" x2="785.5" y2="397.2"/>
<line class="err" x1="778.5" y1="385.6" x2="792.5" y2="385.6"/>
<line class="err" x1="778.5" y1="397.2" x2="792.5" y2="397.2"/>
<circle cx="785.5" cy="391.4" r="5" fill="#fb7185"/>
<text class="value" x="785.5" y="375.6" text-anchor="middle">158.8</text>
<line class="err" x1="862.7" y1="319.4" x2="862.7" y2="355.5"/>
<line class="err" x1="855.7" y1="319.4" x2="869.7" y2="319.4"/>
<line class="err" x1="855.7" y1="355.5" x2="869.7" y2="355.5"/>
<circle cx="862.7" cy="337.4" r="5" fill="#fb7185"/>
<text class="value" x="862.7" y="309.4" text-anchor="middle">305.0</text>
<line class="err" x1="940.0" y1="286.2" x2="940.0" y2="338.0"/>
<line class="err" x1="933.0" y1="286.2" x2="947.0" y2="286.2"/>
<line class="err" x1="933.0" y1="338.0" x2="947.0" y2="338.0"/>
<circle cx="940.0" cy="312.1" r="5" fill="#fb7185"/>
<text class="value" x="940.0" y="276.2" text-anchor="middle">373.8</text>
<line x1="730" y1="72" x2="746" y2="72" stroke="#fb7185" stroke-width="4"/>
<text class="legend" x="754" y="78">p99</text>
</svg>
