<svg xmlns="http://www.w3.org/2000/svg" width="980" height="540" viewBox="0 0 980 540" role="img">
<style>.title{font:700 20px Arial; fill:#f3f7ff;}.label{font:12px Arial; fill:#cbd8f0;}.value{font:11px Arial; fill:#eef5ff;}.axis{stroke:#4d6387; stroke-width:1;}.grid{stroke:#20324d; stroke-width:1; opacity:.8;}.legend{font:12px Arial; fill:#d7e7ff;}.bg{fill:#071423;}.err{stroke:#dbeafe; stroke-width:1.5;}</style>
<rect class="bg" x="0" y="0" width="980" height="540" rx="18"/>
<text class="title" x="90" y="38">Online DQN Held-Out Learning Curve</text>
<text class="label" x="90" y="520">Held-out welfare gap / scaled p99</text>
<line class="grid" x1="90" y1="70.0" x2="940" y2="70.0"/>
<text class="label" x="12" y="74.0">3</text>
<line class="grid" x1="90" y1="146.0" x2="940" y2="146.0"/>
<text class="label" x="12" y="150.0">3</text>
<line class="grid" x1="90" y1="222.0" x2="940" y2="222.0"/>
<text class="label" x="12" y="226.0">2</text>
<line class="grid" x1="90" y1="298.0" x2="940" y2="298.0"/>
<text class="label" x="12" y="302.0">1</text>
<line class="grid" x1="90" y1="374.0" x2="940" y2="374.0"/>
<text class="label" x="12" y="378.0">1</text>
<line class="grid" x1="90" y1="450.0" x2="940" y2="450.0"/>
<text class="label" x="12" y="454.0">0</text>
<line class="axis" x1="90" y1="70" x2="90" y2="450"/>
<line class="axis" x1="90" y1="450" x2="940" y2="450"/>
<text class="label" x="90.0" y="478" text-anchor="middle">Ep 0</text>
<text class="label" x="196.2" y="478" text-anchor="middle">Ep 20</text>
<text class="label" x="302.5" y="478" text-anchor="middle">Ep 40</text>
<text class="label" x="408.8" y="478" text-anchor="middle">Ep 60</text>
<text class="label" x="515.0" y="478" text-anchor="middle">Ep 80</text>
<text class="label" x="621.2" y="478" text-anchor="middle">Ep 100</text>
<text class="label" x="727.5" y="478" text-anchor="middle">Ep 120</text>
<text class="label" x="833.8" y="478" text-anchor="middle">Ep 140</text>
<text class="label" x="940.0" y="478" text-anchor="middle">Ep 160</text>
<polyline fill="none" stroke="#38bdf8" stroke-width="4" points="90.0,267.9 196.2,172.6 302.5,172.6 408.8,172.6 515.0,172.6 621.2,172.6 727.5,172.6 833.8,172.6 940.0,172.6"/>
<line class="err" x1="90.0" y1="223.6" x2="90.0" y2="312.2"/>
<line class="err" x1="83.0" y1="223.6" x2="97.0" y2="223.6"/>
<line class="err" x1="83.0" y1="312.2" x2="97.0" y2="312.2"/>
<circle cx="90.0" cy="267.9" r="5" fill="#38bdf8"/>
<text class="value" x="90.0" y="213.6" text-anchor="middle">1.6</text>
<line class="err" x1="196.2" y1="110.7" x2="196.2" y2="234.4"/>
<line class="err" x1="189.2" y1="110.7" x2="203.2" y2="110.7"/>
<line class="err" x1="189.2" y1="234.4" x2="203.2" y2="234.4"/>
<circle cx="196.2" cy="172.6" r="5" fill="#38bdf8"/>
<text class="value" x="196.2" y="100.7" text-anchor="middle">2.4</text>
<line class="err" x1="302.5" y1="110.7" x2="302.5" y2="234.4"/>
<line class="err" x1="295.5" y1="110.7" x2="309.5" y2="110.7"/>
<line class="err" x1="295.5" y1="234.4" x2="309.5" y2="234.4"/>
<circle cx="302.5" cy="172.6" r="5" fill="#38bdf8"/>
<text class="value" x="302.5" y="100.7" text-anchor="middle">2.4</text>
<line class="err" x1="408.8" y1="110.7" x2="408.8" y2="234.4"/>
<line class="err" x1="401.8" y1="110.7" x2="415.8" y2="110.7"/>
<line class="err" x1="401.8" y1="234.4" x2="415.8" y2="234.4"/>
<circle cx="408.8" cy="172.6" r="5" fill="#38bdf8"/>
<text class="value" x="408.8" y="100.7" text-anchor="middle">2.4</text>
<line class="err" x1="515.0" y1="110.7" x2="515.0" y2="234.4"/>
<line class="err" x1="508.0" y1="110.7" x2="522.0" y2="110.7"/>
<line class="err" x1="508.0" y1="234.4" x2="522.0" y2="234.4"/>
<circle cx="515.0" cy="172.6" r="5" fill="#38bdf8"/>
<text class="value" x="515.0" y="100.7" text-anchor="middle">2.4</text>
<line class="err" x1="621.2" y1="110.7" x2="621.2" y2="234.4"/>
<line class="err" x1="614.2" y1="110.7" x2="628.2" y2="110.7"/>
<line class="err" x1="614.2" y1="234.4" x2="628.2" y2="234.4"/>
<circle cx="621.2" cy="172.6" r="5" fill="#38bdf8"/>
<text class="value" x="621.2" y="100.7" text-anchor="middle">2.4</text>
<line class="err" x1="727.5" y1="110.7" x2="727.5" y2="234.4"/>
<line class="err" x1="720.5" y1="110.7" x2="734.5" y2="110.7"/>
<line class="err" x1="720.5" y1="234.4" x2="734.5" y2="234.4"/>
<circle cx="727.5" cy="172.6" r="5" fill="#38bdf8"/>
<text class="value" x="727.5" y="100.7" text-anchor="middle">2.4</text>
<line class="err" x1="833.8" y1="110.7" x2="833.8" y2="234.4"/>
<line class="err" x1="826.8" y1="110.7" x2="840.8" y2="110.7"/>
<line class="err" x1="826.8" y1="234.4" x2="840.8" y2="234.4"/>
<circle cx="833.8" cy="172.6" r="5" fill="#38bdf8"/>
<text class="value" x="833.8" y="100.7" text-anchor="middle">2.4</text>
<line class="err" x1="940.0" y1="110.7" x2="940.0" y2="234.4"/>
<line class="err" x1="933.0" y1="110.7" x2="947.0" y2="110.7"/>
<line class="err" x1="933.0" y1="234.4" x2="947.0" y2="234.4"/>
<circle cx="940.0" cy="172.6" r="5" fill="#38bdf8"/>
<text class="value" x="940.0" y="100.7" text-anchor="middle">2.4</text>
<line x1="730" y1="28" x2="746" y2="28" stroke="#38bdf8" stroke-width="4"/>
<text class="legend" x="754" y="34">Held-out Welfare Gap</text>
<polyline fill="none" stroke="#f59e0b" stroke-width="4" points="90.0,221.0 196.2,271.8 302.5,271.8 408.8,271.8 515.0,271.8 621.2,271.8 727.5,271.8 833.8,271.8 940.0,271.8"/>
<line class="err" x1="90.0" y1="191.8" x2="90.0" y2="250.1"/>
<line class="err" x1="83.0" y1="191.8" x2="97.0" y2="191.8"/>
<line class="err" x1="83.0" y1="250.1" x2="97.0" y2="250.1"/>
<circle cx="90.0" cy="221.0" r="5" fill="#f59e0b"/>
<text class="value" x="90.0" y="181.8" text-anchor="middle">2.0</text>
<line class="err" x1="196.2" y1="257.1" x2="196.2" y2="286.5"/>
<line class="err" x1="189.2" y1="257.1" x2="203.2" y2="257.1"/>
<line class="err" x1="189.2" y1="286.5" x2="203.2" y2="286.5"/>
<circle cx="196.2" cy="271.8" r="5" fill="#f59e0b"/>
<text class="value" x="196.2" y="247.1" text-anchor="middle">1.6</text>
<line class="err" x1="302.5" y1="257.1" x2="302.5" y2="286.5"/>
<line class="err" x1="295.5" y1="257.1" x2="309.5" y2="257.1"/>
<line class="err" x1="295.5" y1="286.5" x2="309.5" y2="286.5"/>
<circle cx="302.5" cy="271.8" r="5" fill="#f59e0b"/>
<text class="value" x="302.5" y="247.1" text-anchor="middle">1.6</text>
<line class="err" x1="408.8" y1="257.1" x2="408.8" y2="286.5"/>
<line class="err" x1="401.8" y1="257.1" x2="415.8" y2="257.1"/>
<line class="err" x1="401.8" y1="286.5" x2="415.8" y2="286.5"/>
<circle cx="408.8" cy="271.8" r="5" fill="#f59e0b"/>
<text class="value" x="408.8" y="247.1" text-anchor="middle">1.6</text>
<line class="err" x1="515.0" y1="257.1" x2="515.0" y2="286.5"/>
<line class="err" x1="508.0" y1="257.1" x2="522.0" y2="257.1"/>
<line class="err" x1="508.0" y1="286.5" x2="522.0" y2="286.5"/>
<circle cx="515.0" cy="271.8" r="5" fill="#f59e0b"/>
<text class="value" x="515.0" y="247.1" text-anchor="middle">1.6</text>
<line class="err" x1="621.2" y1="257.1" x2="621.2" y2="286.5"/>
<line class="err" x1="614.2" y1="257.1" x2="628.2" y2="257.1"/>
<line class="err" x1="614.2" y1="286.5" x2="628.2" y2="286.5"/>
<circle cx="621.2" cy="271.8" r="5" fill="#f59e0b"/>
<text class="value" x="621.2" y="247.1" text-anchor="middle">1.6</text>
<line class="err" x1="727.5" y1="257.1" x2="727.5" y2="286.5"/>
<line class="err" x1="720.5" y1="257.1" x2="734.5" y2="257.1"/>
<line class="err" x1="720.5" y1="286.5" x2="734.5" y2="286.5"/>
<circle cx="727.5" cy="271.8" r="5" fill="#f59e0b"/>
<text class="value" x="727.5" y="247.1" text-anchor="middle">1.6</text>
<line class="err" x1="833.8" y1="257.1" x2="833.8" y2="286.5"/>
<line class="err" x1="826.8" y1="257.1" x2="840.8" y2="257.1"/>
<line class="err" x1="826.8" y1="286.5" x2="840.8" y2="286.5"/>
<circle cx="833.8" cy="271.8" r="5" fill="#f59e0b"/>
<text class="value" x="833.8" y="247.1" text-anchor="middle">1.6</text>
<line class="err" x1="940.0" y1="257.1" x2="940.0" y2="286.5"/>
<line class="err" x1="933.0" y1="257.1" x2="947.0" y2="257.1"/>
<line class="err" x1="933.0" y1="286.5" x2="947.0" y2="286.5"/>
<circle cx="940.0" cy="271.8" r="5" fill="#f59e0b"/>
<text class="value" x="940.0" y="247.1" text-anchor="middle">1.6</text>
<line x1="730" y1="50" x2="746" y2="50" stroke="#f59e0b" stroke-width="4"/>
<text class="legend" x="754" y="56">Held-out p99 / 100</text>
</svg>
