<svg xmlns="http://www.w3.org/2000/svg" width="980" height="540" viewBox="0 0 980 540" role="img">
<style>.title{font:700 20px Arial; fill:#f3f7ff;}.label{font:12px Arial; fill:#cbd8f0;}.value{font:11px Arial; fill:#eef5ff;}.axis{stroke:#4d6387; stroke-width:1;}.grid{stroke:#20324d; stroke-width:1; opacity:.8;}.legend{font:12px Arial; fill:#d7e7ff;}.bg{fill:#071423;}.err{stroke:#dbeafe; stroke-width:1.5;}</style>
<rect class="bg" x="0" y="0" width="980" height="540" rx="18"/>
<text class="title" x="90" y="38">Response Surface: Welfare-Gap Partial R^2</text>
<text class="label" x="90" y="520">Explained variance contribution</text>
<line class="grid" x1="90" y1="70.0" x2="940" y2="70.0"/>
<text class="label" x="12" y="74.0">1.0</text>
<line class="grid" x1="90" y1="146.0" x2="940" y2="146.0"/>
<text class="label" x="12" y="150.0">0.8</text>
<line class="grid" x1="90" y1="222.0" x2="940" y2="222.0"/>
<text class="label" x="12" y="226.0">0.6</text>
<line class="grid" x1="90" y1="298.0" x2="940" y2="298.0"/>
<text class="label" x="12" y="302.0">0.4</text>
<line class="grid" x1="90" y1="374.0" x2="940" y2="374.0"/>
<text class="label" x="12" y="378.0">0.2</text>
<line class="grid" x1="90" y1="450.0" x2="940" y2="450.0"/>
<text class="label" x="12" y="454.0">0.0</text>
<line class="axis" x1="90" y1="70" x2="90" y2="450"/>
<line class="axis" x1="90" y1="450.0" x2="940" y2="450.0"/>
<rect x="125.4" y="313.1" width="56.7" height="136.9" fill="#a78bfa" rx="8"/>
<line class="err" x1="153.8" y1="313.1" x2="153.8" y2="313.1"/>
<line class="err" x1="146.8" y1="313.1" x2="160.8" y2="313.1"/>
<line class="err" x1="146.8" y1="313.1" x2="160.8" y2="313.1"/>
<text class="value" x="153.8" y="303.1" text-anchor="middle">0.36</text>
<text class="label" x="160.8" y="478" text-anchor="middle">arbitrageur_intensity</text>
<rect x="267.1" y="440.4" width="56.7" height="9.6" fill="#a78bfa" rx="8"/>
<line class="err" x1="295.4" y1="440.4" x2="295.4" y2="440.4"/>
<line class="err" x1="288.4" y1="440.4" x2="302.4" y2="440.4"/>
<line class="err" x1="288.4" y1="440.4" x2="302.4" y2="440.4"/>
<text class="value" x="295.4" y="430.4" text-anchor="middle">0.03</text>
<text class="label" x="302.5" y="478" text-anchor="middle">retail_intensity</text>
<rect x="408.8" y="440.9" width="56.7" height="9.1" fill="#a78bfa" rx="8"/>
<line class="err" x1="437.1" y1="440.9" x2="437.1" y2="440.9"/>
<line class="err" x1="430.1" y1="440.9" x2="444.1" y2="440.9"/>
<line class="err" x1="430.1" y1="440.9" x2="444.1" y2="440.9"/>
<text class="value" x="437.1" y="430.9" text-anchor="middle">0.02</text>
<text class="label" x="444.2" y="478" text-anchor="middle">maker_quote_width</text>
<rect x="550.4" y="445.6" width="56.7" height="4.4" fill="#a78bfa" rx="8"/>
<line class="err" x1="578.8" y1="445.6" x2="578.8" y2="445.6"/>
<line class="err" x1="571.8" y1="445.6" x2="585.8" y2="445.6"/>
<line class="err" x1="571.8" y1="445.6" x2="585.8" y2="445.6"/>
<text class="value" x="578.8" y="435.6" text-anchor="middle">0.01</text>
<text class="label" x="585.8" y="478" text-anchor="middle">informed_intensity</text>
<rect x="692.1" y="447.1" width="56.7" height="2.9" fill="#a78bfa" rx="8"/>
<line class="err" x1="720.4" y1="447.1" x2="720.4" y2="447.1"/>
<line class="err" x1="713.4" y1="447.1" x2="727.4" y2="447.1"/>
<line class="err" x1="713.4" y1="447.1" x2="727.4" y2="447.1"/>
<text class="value" x="720.4" y="437.1" text-anchor="middle">0.01</text>
<text class="label" x="727.5" y="478" text-anchor="middle">arb_x_informed</text>
<rect x="833.7" y="447.5" width="56.7" height="2.5" fill="#a78bfa" rx="8"/>
<line class="err" x1="862.1" y1="447.5" x2="862.1" y2="447.5"/>
<line class="err" x1="855.1" y1="447.5" x2="869.1" y2="447.5"/>
<line class="err" x1="855.1" y1="447.5" x2="869.1" y2="447.5"/>
<text class="value" x="862.1" y="437.5" text-anchor="middle">0.01</text>
<text class="label" x="869.2" y="478" text-anchor="middle">arb_x_retail</text>
<rect x="730" y="22" width="14" height="14" fill="#a78bfa" rx="3"/>
<text class="legend" x="752" y="34">Partial R^2</text>
</svg>
