<svg xmlns="http://www.w3.org/2000/svg" width="980" height="540" viewBox="0 0 980 540" role="img">
<style>.title{font:700 20px Arial; fill:#f3f7ff;}.label{font:12px Arial; fill:#cbd8f0;}.value{font:11px Arial; fill:#eef5ff;}.axis{stroke:#4d6387; stroke-width:1;}.grid{stroke:#20324d; stroke-width:1; opacity:.8;}.legend{font:12px Arial; fill:#d7e7ff;}.bg{fill:#071423;}.err{stroke:#dbeafe; stroke-width:1.5;}</style>
<rect class="bg" x="0" y="0" width="980" height="540" rx="18"/>
<text class="title" x="90" y="38">Online DQN Reward Sensitivity</text>
<text class="label" x="90" y="520">Scaled p99 / welfare gap</text>
<line class="grid" x1="90" y1="70.0" x2="940" y2="70.0"/>
<text class="label" x="12" y="74.0">3.3</text>
<line class="grid" x1="90" y1="146.0" x2="940" y2="146.0"/>
<text class="label" x="12" y="150.0">2.7</text>
<line class="grid" x1="90" y1="222.0" x2="940" y2="222.0"/>
<text class="label" x="12" y="226.0">2.0</text>
<line class="grid" x1="90" y1="298.0" x2="940" y2="298.0"/>
<text class="label" x="12" y="302.0">1.3</text>
<line class="grid" x1="90" y1="374.0" x2="940" y2="374.0"/>
<text class="label" x="12" y="378.0">0.7</text>
<line class="grid" x1="90" y1="450.0" x2="940" y2="450.0"/>
<text class="label" x="12" y="454.0">0.0</text>
<line class="axis" x1="90" y1="70" x2="90" y2="450"/>
<line class="axis" x1="90" y1="450.0" x2="940" y2="450.0"/>
<rect x="137.2" y="271.8" width="75.6" height="178.2" fill="#38bdf8" rx="8"/>
<line class="err" x1="175.0" y1="257.1" x2="175.0" y2="286.5"/>
<line class="err" x1="168.0" y1="257.1" x2="182.0" y2="257.1"/>
<line class="err" x1="168.0" y1="286.5" x2="182.0" y2="286.5"/>
<text class="value" x="175.0" y="247.1" text-anchor="middle">1.56</text>
<rect x="231.7" y="172.6" width="75.6" height="277.4" fill="#f472b6" rx="8"/>
<line class="err" x1="269.4" y1="110.7" x2="269.4" y2="234.4"/>
<line class="err" x1="262.4" y1="110.7" x2="276.4" y2="110.7"/>
<line class="err" x1="262.4" y1="234.4" x2="276.4" y2="234.4"/>
<text class="value" x="269.4" y="100.7" text-anchor="middle">2.42</text>
<text class="label" x="231.7" y="478" text-anchor="middle">default</text>
<rect x="420.6" y="271.8" width="75.6" height="178.2" fill="#38bdf8" rx="8"/>
<line class="err" x1="458.3" y1="257.1" x2="458.3" y2="286.5"/>
<line class="err" x1="451.3" y1="257.1" x2="465.3" y2="257.1"/>
<line class="err" x1="451.3" y1="286.5" x2="465.3" y2="286.5"/>
<text class="value" x="458.3" y="247.1" text-anchor="middle">1.56</text>
<rect x="515.0" y="172.6" width="75.6" height="277.4" fill="#f472b6" rx="8"/>
<line class="err" x1="552.8" y1="110.7" x2="552.8" y2="234.4"/>
<line class="err" x1="545.8" y1="110.7" x2="559.8" y2="110.7"/>
<line class="err" x1="545.8" y1="234.4" x2="559.8" y2="234.4"/>
<text class="value" x="552.8" y="100.7" text-anchor="middle">2.42</text>
<text class="label" x="515.0" y="478" text-anchor="middle">latency_heavy</text>
<rect x="703.9" y="271.8" width="75.6" height="178.2" fill="#38bdf8" rx="8"/>
<line class="err" x1="741.7" y1="257.1" x2="741.7" y2="286.5"/>
<line class="err" x1="734.7" y1="257.1" x2="748.7" y2="257.1"/>
<line class="err" x1="734.7" y1="286.5" x2="748.7" y2="286.5"/>
<text class="value" x="741.7" y="247.1" text-anchor="middle">1.56</text>
<rect x="798.3" y="172.6" width="75.6" height="277.4" fill="#f472b6" rx="8"/>
<line class="err" x1="836.1" y1="110.7" x2="836.1" y2="234.4"/>
<line class="err" x1="829.1" y1="110.7" x2="843.1" y2="110.7"/>
<line class="err" x1="829.1" y1="234.4" x2="843.1" y2="234.4"/>
<text class="value" x="836.1" y="100.7" text-anchor="middle">2.42</text>
<text class="label" x="798.3" y="478" text-anchor="middle">welfare_heavy</text>
<rect x="730" y="22" width="14" height="14" fill="#38bdf8" rx="3"/>
<text class="legend" x="752" y="34">Held-out p99 / 100</text>
<rect x="730" y="44" width="14" height="14" fill="#f472b6" rx="3"/>
<text class="legend" x="752" y="56">Held-out Welfare Gap</text>
</svg>
