<svg xmlns="http://www.w3.org/2000/svg" width="980" height="540" viewBox="0 0 980 540" role="img">
<style>.title{font:700 20px Arial; fill:#f3f7ff;}.label{font:12px Arial; fill:#cbd8f0;}.value{font:11px Arial; fill:#eef5ff;}.axis{stroke:#4d6387; stroke-width:1;}.grid{stroke:#20324d; stroke-width:1; opacity:.8;}.legend{font:12px Arial; fill:#d7e7ff;}.bg{fill:#071423;}.err{stroke:#dbeafe; stroke-width:1.5;}</style>
<rect class="bg" x="0" y="0" width="980" height="540" rx="18"/>
<text class="title" x="90" y="38">Throughput Comparison (95% CI)</text>
<text class="label" x="90" y="520">Mean throughput</text>
<line class="grid" x1="90" y1="70.0" x2="940" y2="70.0"/>
<text class="label" x="12" y="74.0">1988</text>
<line class="grid" x1="90" y1="146.0" x2="940" y2="146.0"/>
<text class="label" x="12" y="150.0">1591</text>
<line class="grid" x1="90" y1="222.0" x2="940" y2="222.0"/>
<text class="label" x="12" y="226.0">1193</text>
<line class="grid" x1="90" y1="298.0" x2="940" y2="298.0"/>
<text class="label" x="12" y="302.0">795</text>
<line class="grid" x1="90" y1="374.0" x2="940" y2="374.0"/>
<text class="label" x="12" y="378.0">398</text>
<line class="grid" x1="90" y1="450.0" x2="940" y2="450.0"/>
<text class="label" x="12" y="454.0">0</text>
<line class="axis" x1="90" y1="70" x2="90" y2="450"/>
<line class="axis" x1="90" y1="450" x2="940" y2="450"/>
<rect x="102.9" y="192.3" width="20.6" height="257.7" fill="#2dd4bf" rx="8"/>
<line class="err" x1="113.2" y1="191.6" x2="113.2" y2="193.1"/>
<line class="err" x1="106.2" y1="191.6" x2="120.2" y2="191.6"/>
<line class="err" x1="106.2" y1="193.1" x2="120.2" y2="193.1"/>
<text class="value" x="113.2" y="181.6" text-anchor="middle">1348.2</text>
<rect x="128.6" y="294.6" width="20.6" height="155.4" fill="#38bdf8" rx="8"/>
<line class="err" x1="138.9" y1="291.1" x2="138.9" y2="298.1"/>
<line class="err" x1="131.9" y1="291.1" x2="145.9" y2="291.1"/>
<line class="err" x1="131.9" y1="298.1" x2="145.9" y2="298.1"/>
<text class="value" x="138.9" y="281.1" text-anchor="middle">813.1</text>
<text class="label" x="128.6" y="478" text-anchor="middle">Immediate</text>
<rect x="180.2" y="202.6" width="20.6" height="247.4" fill="#2dd4bf" rx="8"/>
<line class="err" x1="190.5" y1="201.9" x2="190.5" y2="203.4"/>
<line class="err" x1="183.5" y1="201.9" x2="197.5" y2="201.9"/>
<line class="err" x1="183.5" y1="203.4" x2="197.5" y2="203.4"/>
<text class="value" x="190.5" y="191.9" text-anchor="middle">1294.3</text>
<rect x="205.9" y="300.8" width="20.6" height="149.2" fill="#38bdf8" rx="8"/>
<line class="err" x1="216.2" y1="297.4" x2="216.2" y2="304.2"/>
<line class="err" x1="209.2" y1="297.4" x2="223.2" y2="297.4"/>
<line class="err" x1="209.2" y1="304.2" x2="223.2" y2="304.2"/>
<text class="value" x="216.2" y="287.4" text-anchor="middle">780.6</text>
<text class="label" x="205.9" y="478" text-anchor="middle">SpeedBump 50ms</text>
<rect x="257.4" y="194.5" width="20.6" height="255.5" fill="#2dd4bf" rx="8"/>
<line class="err" x1="267.7" y1="193.7" x2="267.7" y2="195.2"/>
<line class="err" x1="260.7" y1="193.7" x2="274.7" y2="193.7"/>
<line class="err" x1="260.7" y1="195.2" x2="274.7" y2="195.2"/>
<text class="value" x="267.7" y="183.7" text-anchor="middle">1337.1</text>
<rect x="283.2" y="297.4" width="20.6" height="152.6" fill="#38bdf8" rx="8"/>
<line class="err" x1="293.5" y1="293.2" x2="293.5" y2="301.5"/>
<line class="err" x1="286.5" y1="293.2" x2="300.5" y2="293.2"/>
<line class="err" x1="286.5" y1="301.5" x2="300.5" y2="301.5"/>
<text class="value" x="293.5" y="283.2" text-anchor="middle">798.7</text>
<text class="label" x="283.2" y="478" text-anchor="middle">100ms</text>
<rect x="334.7" y="194.4" width="20.6" height="255.6" fill="#2dd4bf" rx="8"/>
<line class="err" x1="345.0" y1="193.6" x2="345.0" y2="195.1"/>
<line class="err" x1="338.0" y1="193.6" x2="352.0" y2="193.6"/>
<line class="err" x1="338.0" y1="195.1" x2="352.0" y2="195.1"/>
<text class="value" x="345.0" y="183.6" text-anchor="middle">1337.6</text>
<rect x="360.5" y="318.8" width="20.6" height="131.2" fill="#38bdf8" rx="8"/>
<line class="err" x1="370.8" y1="315.4" x2="370.8" y2="322.2"/>
<line class="err" x1="363.8" y1="315.4" x2="377.8" y2="315.4"/>
<line class="err" x1="363.8" y1="322.2" x2="377.8" y2="322.2"/>
<text class="value" x="370.8" y="305.4" text-anchor="middle">686.4</text>
<text class="label" x="360.5" y="478" text-anchor="middle">250ms</text>
<rect x="412.0" y="194.1" width="20.6" height="255.9" fill="#2dd4bf" rx="8"/>
<line class="err" x1="422.3" y1="193.5" x2="422.3" y2="194.7"/>
<line class="err" x1="415.3" y1="193.5" x2="429.3" y2="193.5"/>
<line class="err" x1="415.3" y1="194.7" x2="429.3" y2="194.7"/>
<text class="value" x="422.3" y="183.5" text-anchor="middle">1338.8</text>
<rect x="437.7" y="330.2" width="20.6" height="119.8" fill="#38bdf8" rx="8"/>
<line class="err" x1="448.0" y1="326.4" x2="448.0" y2="334.0"/>
<line class="err" x1="441.0" y1="326.4" x2="455.0" y2="326.4"/>
<line class="err" x1="441.0" y1="334.0" x2="455.0" y2="334.0"/>
<text class="value" x="448.0" y="316.4" text-anchor="middle">626.9</text>
<text class="label" x="437.7" y="478" text-anchor="middle">500ms</text>
<rect x="489.2" y="194.4" width="20.6" height="255.6" fill="#2dd4bf" rx="8"/>
<line class="err" x1="499.5" y1="193.6" x2="499.5" y2="195.1"/>
<line class="err" x1="492.5" y1="193.6" x2="506.5" y2="193.6"/>
<line class="err" x1="492.5" y1="195.1" x2="506.5" y2="195.1"/>
<text class="value" x="499.5" y="183.6" text-anchor="middle">1337.6</text>
<rect x="515.0" y="313.5" width="20.6" height="136.5" fill="#38bdf8" rx="8"/>
<line class="err" x1="525.3" y1="309.2" x2="525.3" y2="317.7"/>
<line class="err" x1="518.3" y1="309.2" x2="532.3" y2="309.2"/>
<line class="err" x1="518.3" y1="317.7" x2="532.3" y2="317.7"/>
<text class="value" x="525.3" y="299.2" text-anchor="middle">714.3</text>
<text class="label" x="515.0" y="478" text-anchor="middle">Adaptive 100-250ms</text>
<rect x="566.5" y="194.4" width="20.6" height="255.6" fill="#2dd4bf" rx="8"/>
<line class="err" x1="576.8" y1="193.6" x2="576.8" y2="195.1"/>
<line class="err" x1="569.8" y1="193.6" x2="583.8" y2="193.6"/>
<line class="err" x1="569.8" y1="195.1" x2="583.8" y2="195.1"/>
<text class="value" x="576.8" y="183.6" text-anchor="middle">1337.6</text>
<rect x="592.3" y="321.7" width="20.6" height="128.3" fill="#38bdf8" rx="8"/>
<line class="err" x1="602.6" y1="318.7" x2="602.6" y2="324.7"/>
<line class="err" x1="595.6" y1="318.7" x2="609.6" y2="318.7"/>
<line class="err" x1="595.6" y1="324.7" x2="609.6" y2="324.7"/>
<text class="value" x="602.6" y="308.7" text-anchor="middle">671.4</text>
<text class="label" x="592.3" y="478" text-anchor="middle">Adaptive OrderFlow-100-250ms</text>
<rect x="643.8" y="194.4" width="20.6" height="255.6" fill="#2dd4bf" rx="8"/>
<line class="err" x1="654.1" y1="193.6" x2="654.1" y2="195.1"/>
<line class="err" x1="647.1" y1="193.6" x2="661.1" y2="193.6"/>
<line class="err" x1="647.1" y1="195.1" x2="661.1" y2="195.1"/>
<text class="value" x="654.1" y="183.6" text-anchor="middle">1337.6</text>
<rect x="669.5" y="317.8" width="20.6" height="132.2" fill="#38bdf8" rx="8"/>
<line class="err" x1="679.8" y1="312.7" x2="679.8" y2="323.0"/>
<line class="err" x1="672.8" y1="312.7" x2="686.8" y2="312.7"/>
<line class="err" x1="672.8" y1="323.0" x2="686.8" y2="323.0"/>
<text class="value" x="679.8" y="302.7" text-anchor="middle">691.6</text>
<text class="label" x="669.5" y="478" text-anchor="middle">Adaptive QueueLoad-100-250ms</text>
<rect x="721.1" y="194.1" width="20.6" height="255.9" fill="#2dd4bf" rx="8"/>
<line class="err" x1="731.4" y1="193.5" x2="731.4" y2="194.7"/>
<line class="err" x1="724.4" y1="193.5" x2="738.4" y2="193.5"/>
<line class="err" x1="724.4" y1="194.7" x2="738.4" y2="194.7"/>
<text class="value" x="731.4" y="183.5" text-anchor="middle">1338.9</text>
<rect x="746.8" y="321.8" width="20.6" height="128.2" fill="#38bdf8" rx="8"/>
<line class="err" x1="757.1" y1="316.3" x2="757.1" y2="327.2"/>
<line class="err" x1="750.1" y1="316.3" x2="764.1" y2="316.3"/>
<line class="err" x1="750.1" y1="327.2" x2="764.1" y2="327.2"/>
<text class="value" x="757.1" y="306.3" text-anchor="middle">670.8</text>
<text class="label" x="746.8" y="478" text-anchor="middle">Policy-BurstAware-100-250ms</text>
<rect x="798.3" y="194.4" width="20.6" height="255.6" fill="#2dd4bf" rx="8"/>
<line class="err" x1="808.6" y1="193.6" x2="808.6" y2="195.1"/>
<line class="err" x1="801.6" y1="193.6" x2="815.6" y2="193.6"/>
<line class="err" x1="801.6" y1="195.1" x2="815.6" y2="195.1"/>
<text class="value" x="808.6" y="183.6" text-anchor="middle">1337.6</text>
<rect x="824.1" y="308.0" width="20.6" height="142.0" fill="#38bdf8" rx="8"/>
<line class="err" x1="834.4" y1="303.3" x2="834.4" y2="312.7"/>
<line class="err" x1="827.4" y1="303.3" x2="841.4" y2="303.3"/>
<line class="err" x1="827.4" y1="312.7" x2="841.4" y2="312.7"/>
<text class="value" x="834.4" y="293.3" text-anchor="middle">743.1</text>
<text class="label" x="824.1" y="478" text-anchor="middle">Policy-LearnedBandit-100-250ms</text>
<rect x="875.6" y="111.9" width="20.6" height="338.1" fill="#2dd4bf" rx="8"/>
<line class="err" x1="885.9" y1="110.7" x2="885.9" y2="113.0"/>
<line class="err" x1="878.9" y1="110.7" x2="892.9" y2="110.7"/>
<line class="err" x1="878.9" y1="113.0" x2="892.9" y2="113.0"/>
<text class="value" x="885.9" y="100.7" text-anchor="middle">1769.2</text>
<rect x="901.4" y="277.9" width="20.6" height="172.1" fill="#38bdf8" rx="8"/>
<line class="err" x1="911.7" y1="273.4" x2="911.7" y2="282.4"/>
<line class="err" x1="904.7" y1="273.4" x2="918.7" y2="273.4"/>
<line class="err" x1="904.7" y1="282.4" x2="918.7" y2="282.4"/>
<text class="value" x="911.7" y="263.4" text-anchor="middle">900.5</text>
<text class="label" x="901.4" y="478" text-anchor="middle">250ms Stress</text>
<rect x="730" y="22" width="14" height="14" fill="#2dd4bf" rx="3"/>
<text class="legend" x="752" y="34">Orders/s</text>
<rect x="730" y="44" width="14" height="14" fill="#38bdf8" rx="3"/>
<text class="legend" x="752" y="56">Fills/s</text>
</svg>
