<svg xmlns="http://www.w3.org/2000/svg" width="980" height="540" viewBox="0 0 980 540" role="img">
<style>.title{font:700 20px Arial; fill:#f3f7ff;}.label{font:12px Arial; fill:#cbd8f0;}.value{font:11px Arial; fill:#eef5ff;}.axis{stroke:#4d6387; stroke-width:1;}.grid{stroke:#20324d; stroke-width:1; opacity:.8;}.legend{font:12px Arial; fill:#d7e7ff;}.bg{fill:#071423;}.err{stroke:#dbeafe; stroke-width:1.5;}</style>
<rect class="bg" x="0" y="0" width="980" height="540" rx="18"/>
<text class="title" x="90" y="38">Throughput Comparison (95% CI)</text>
<text class="label" x="90" y="520">Mean throughput</text>
<line class="grid" x1="90" y1="70.0" x2="940" y2="70.0"/>
<text class="label" x="12" y="74.0">1988</text>
<line class="grid" x1="90" y1="146.0" x2="940" y2="146.0"/>
<text class="label" x="12" y="150.0">1591</text>
<line class="grid" x1="90" y1="222.0" x2="940" y2="222.0"/>
<text class="label" x="12" y="226.0">1193</text>
<line class="grid" x1="90" y1="298.0" x2="940" y2="298.0"/>
<text class="label" x="12" y="302.0">795</text>
<line class="grid" x1="90" y1="374.0" x2="940" y2="374.0"/>
<text class="label" x="12" y="378.0">398</text>
<line class="grid" x1="90" y1="450.0" x2="940" y2="450.0"/>
<text class="label" x="12" y="454.0">0</text>
<line class="axis" x1="90" y1="70" x2="90" y2="450"/>
<line class="axis" x1="90" y1="450" x2="940" y2="450"/>
<rect x="110.2" y="192.3" width="32.4" height="257.7" fill="#2dd4bf" rx="8"/>
<line class="err" x1="126.4" y1="191.6" x2="126.4" y2="193.1"/>
<line class="err" x1="119.4" y1="191.6" x2="133.4" y2="191.6"/>
<line class="err" x1="119.4" y1="193.1" x2="133.4" y2="193.1"/>
<text class="value" x="126.4" y="181.6" text-anchor="middle">1348.2</text>
<rect x="150.7" y="294.6" width="32.4" height="155.4" fill="#38bdf8" rx="8"/>
<line class="err" x1="166.9" y1="291.1" x2="166.9" y2="298.1"/>
<line class="err" x1="159.9" y1="291.1" x2="173.9" y2="291.1"/>
<line class="err" x1="159.9" y1="298.1" x2="173.9" y2="298.1"/>
<text class="value" x="166.9" y="281.1" text-anchor="middle">813.1</text>
<text class="label" x="150.7" y="478" text-anchor="middle">Immediate</text>
<rect x="231.7" y="202.6" width="32.4" height="247.4" fill="#2dd4bf" rx="8"/>
<line class="err" x1="247.9" y1="201.9" x2="247.9" y2="203.4"/>
<line class="err" x1="240.9" y1="201.9" x2="254.9" y2="201.9"/>
<line class="err" x1="240.9" y1="203.4" x2="254.9" y2="203.4"/>
<text class="value" x="247.9" y="191.9" text-anchor="middle">1294.3</text>
<rect x="272.1" y="300.8" width="32.4" height="149.2" fill="#38bdf8" rx="8"/>
<line class="err" x1="288.3" y1="297.4" x2="288.3" y2="304.2"/>
<line class="err" x1="281.3" y1="297.4" x2="295.3" y2="297.4"/>
<line class="err" x1="281.3" y1="304.2" x2="295.3" y2="304.2"/>
<text class="value" x="288.3" y="287.4" text-anchor="middle">780.6</text>
<text class="label" x="272.1" y="478" text-anchor="middle">SpeedBump 50ms</text>
<rect x="353.1" y="194.5" width="32.4" height="255.5" fill="#2dd4bf" rx="8"/>
<line class="err" x1="369.3" y1="193.7" x2="369.3" y2="195.2"/>
<line class="err" x1="362.3" y1="193.7" x2="376.3" y2="193.7"/>
<line class="err" x1="362.3" y1="195.2" x2="376.3" y2="195.2"/>
<text class="value" x="369.3" y="183.7" text-anchor="middle">1337.1</text>
<rect x="393.6" y="297.4" width="32.4" height="152.6" fill="#38bdf8" rx="8"/>
<line class="err" x1="409.8" y1="293.2" x2="409.8" y2="301.5"/>
<line class="err" x1="402.8" y1="293.2" x2="416.8" y2="293.2"/>
<line class="err" x1="402.8" y1="301.5" x2="416.8" y2="301.5"/>
<text class="value" x="409.8" y="283.2" text-anchor="middle">798.7</text>
<text class="label" x="393.6" y="478" text-anchor="middle">100ms</text>
<rect x="474.5" y="194.4" width="32.4" height="255.6" fill="#2dd4bf" rx="8"/>
<line class="err" x1="490.7" y1="193.6" x2="490.7" y2="195.1"/>
<line class="err" x1="483.7" y1="193.6" x2="497.7" y2="193.6"/>
<line class="err" x1="483.7" y1="195.1" x2="497.7" y2="195.1"/>
<text class="value" x="490.7" y="183.6" text-anchor="middle">1337.6</text>
<rect x="515.0" y="318.8" width="32.4" height="131.2" fill="#38bdf8" rx="8"/>
<line class="err" x1="531.2" y1="315.4" x2="531.2" y2="322.2"/>
<line class="err" x1="524.2" y1="315.4" x2="538.2" y2="315.4"/>
<line class="err" x1="524.2" y1="322.2" x2="538.2" y2="322.2"/>
<text class="value" x="531.2" y="305.4" text-anchor="middle">686.4</text>
<text class="label" x="515.0" y="478" text-anchor="middle">250ms</text>
<rect x="596.0" y="194.1" width="32.4" height="255.9" fill="#2dd4bf" rx="8"/>
<line class="err" x1="612.1" y1="193.5" x2="612.1" y2="194.7"/>
<line class="err" x1="605.1" y1="193.5" x2="619.1" y2="193.5"/>
<line class="err" x1="605.1" y1="194.7" x2="619.1" y2="194.7"/>
<text class="value" x="612.1" y="183.5" text-anchor="middle">1338.8</text>
<rect x="636.4" y="330.2" width="32.4" height="119.8" fill="#38bdf8" rx="8"/>
<line class="err" x1="652.6" y1="326.4" x2="652.6" y2="334.0"/>
<line class="err" x1="645.6" y1="326.4" x2="659.6" y2="326.4"/>
<line class="err" x1="645.6" y1="334.0" x2="659.6" y2="334.0"/>
<text class="value" x="652.6" y="316.4" text-anchor="middle">626.9</text>
<text class="label" x="636.4" y="478" text-anchor="middle">500ms</text>
<rect x="717.4" y="194.4" width="32.4" height="255.6" fill="#2dd4bf" rx="8"/>
<line class="err" x1="733.6" y1="193.6" x2="733.6" y2="195.1"/>
<line class="err" x1="726.6" y1="193.6" x2="740.6" y2="193.6"/>
<line class="err" x1="726.6" y1="195.1" x2="740.6" y2="195.1"/>
<text class="value" x="733.6" y="183.6" text-anchor="middle">1337.6</text>
<rect x="757.9" y="313.5" width="32.4" height="136.5" fill="#38bdf8" rx="8"/>
<line class="err" x1="774.0" y1="309.2" x2="774.0" y2="317.7"/>
<line class="err" x1="767.0" y1="309.2" x2="781.0" y2="309.2"/>
<line class="err" x1="767.0" y1="317.7" x2="781.0" y2="317.7"/>
<text class="value" x="774.0" y="299.2" text-anchor="middle">714.3</text>
<text class="label" x="757.9" y="478" text-anchor="middle">Adaptive 100-250ms</text>
<rect x="838.8" y="111.9" width="32.4" height="338.1" fill="#2dd4bf" rx="8"/>
<line class="err" x1="855.0" y1="110.7" x2="855.0" y2="113.0"/>
<line class="err" x1="848.0" y1="110.7" x2="862.0" y2="110.7"/>
<line class="err" x1="848.0" y1="113.0" x2="862.0" y2="113.0"/>
<text class="value" x="855.0" y="100.7" text-anchor="middle">1769.2</text>
<rect x="879.3" y="277.9" width="32.4" height="172.1" fill="#38bdf8" rx="8"/>
<line class="err" x1="895.5" y1="273.4" x2="895.5" y2="282.4"/>
<line class="err" x1="888.5" y1="273.4" x2="902.5" y2="273.4"/>
<line class="err" x1="888.5" y1="282.4" x2="902.5" y2="282.4"/>
<text class="value" x="895.5" y="263.4" text-anchor="middle">900.5</text>
<text class="label" x="879.3" y="478" text-anchor="middle">250ms Stress</text>
<rect x="730" y="22" width="14" height="14" fill="#2dd4bf" rx="3"/>
<text class="legend" x="752" y="34">Orders/s</text>
<rect x="730" y="44" width="14" height="14" fill="#38bdf8" rx="3"/>
<text class="legend" x="752" y="56">Fills/s</text>
</svg>
