<svg xmlns="http://www.w3.org/2000/svg" width="980" height="540" viewBox="0 0 980 540" role="img">
<style>.title{font:700 20px Arial; fill:#f3f7ff;}.label{font:12px Arial; fill:#cbd8f0;}.value{font:11px Arial; fill:#eef5ff;}.axis{stroke:#4d6387; stroke-width:1;}.grid{stroke:#20324d; stroke-width:1; opacity:.8;}.legend{font:12px Arial; fill:#d7e7ff;}.bg{fill:#071423;}.err{stroke:#dbeafe; stroke-width:1.5;}</style>
<rect class="bg" x="0" y="0" width="980" height="540" rx="18"/>
<text class="title" x="90" y="38">Throughput Comparison (95% CI)</text>
<text class="label" x="90" y="520">Mean throughput</text>
<line class="grid" x1="90" y1="70.0" x2="940" y2="70.0"/>
<text class="label" x="12" y="74.0">1988.3</text>
<line class="grid" x1="90" y1="146.0" x2="940" y2="146.0"/>
<text class="label" x="12" y="150.0">1590.7</text>
<line class="grid" x1="90" y1="222.0" x2="940" y2="222.0"/>
<text class="label" x="12" y="226.0">1193.0</text>
<line class="grid" x1="90" y1="298.0" x2="940" y2="298.0"/>
<text class="label" x="12" y="302.0">795.3</text>
<line class="grid" x1="90" y1="374.0" x2="940" y2="374.0"/>
<text class="label" x="12" y="378.0">397.7</text>
<line class="grid" x1="90" y1="450.0" x2="940" y2="450.0"/>
<text class="label" x="12" y="454.0">0.0</text>
<line class="axis" x1="90" y1="70" x2="90" y2="450"/>
<line class="axis" x1="90" y1="450.0" x2="940" y2="450.0"/>
<rect x="100.9" y="192.3" width="17.4" height="257.7" fill="#2dd4bf" rx="8"/>
<line class="err" x1="109.6" y1="191.6" x2="109.6" y2="193.1"/>
<line class="err" x1="102.6" y1="191.6" x2="116.6" y2="191.6"/>
<line class="err" x1="102.6" y1="193.1" x2="116.6" y2="193.1"/>
<text class="value" x="109.6" y="181.6" text-anchor="middle">1348.23</text>
<rect x="122.7" y="294.6" width="17.4" height="155.4" fill="#38bdf8" rx="8"/>
<line class="err" x1="131.4" y1="291.1" x2="131.4" y2="298.1"/>
<line class="err" x1="124.4" y1="291.1" x2="138.4" y2="291.1"/>
<line class="err" x1="124.4" y1="298.1" x2="138.4" y2="298.1"/>
<text class="value" x="131.4" y="281.1" text-anchor="middle">813.12</text>
<text class="label" x="122.7" y="478" text-anchor="middle">Immediate</text>
<rect x="166.3" y="202.6" width="17.4" height="247.4" fill="#2dd4bf" rx="8"/>
<line class="err" x1="175.0" y1="201.9" x2="175.0" y2="203.4"/>
<line class="err" x1="168.0" y1="201.9" x2="182.0" y2="201.9"/>
<line class="err" x1="168.0" y1="203.4" x2="182.0" y2="203.4"/>
<text class="value" x="175.0" y="191.9" text-anchor="middle">1294.30</text>
<rect x="188.1" y="300.8" width="17.4" height="149.2" fill="#38bdf8" rx="8"/>
<line class="err" x1="196.8" y1="297.4" x2="196.8" y2="304.2"/>
<line class="err" x1="189.8" y1="297.4" x2="203.8" y2="297.4"/>
<line class="err" x1="189.8" y1="304.2" x2="203.8" y2="304.2"/>
<text class="value" x="196.8" y="287.4" text-anchor="middle">780.60</text>
<text class="label" x="188.1" y="478" text-anchor="middle">SpeedBump 50ms</text>
<rect x="231.7" y="194.5" width="17.4" height="255.5" fill="#2dd4bf" rx="8"/>
<line class="err" x1="240.4" y1="193.7" x2="240.4" y2="195.2"/>
<line class="err" x1="233.4" y1="193.7" x2="247.4" y2="193.7"/>
<line class="err" x1="233.4" y1="195.2" x2="247.4" y2="195.2"/>
<text class="value" x="240.4" y="183.7" text-anchor="middle">1337.09</text>
<rect x="253.5" y="297.4" width="17.4" height="152.6" fill="#38bdf8" rx="8"/>
<line class="err" x1="262.2" y1="293.2" x2="262.2" y2="301.5"/>
<line class="err" x1="255.2" y1="293.2" x2="269.2" y2="293.2"/>
<line class="err" x1="255.2" y1="301.5" x2="269.2" y2="301.5"/>
<text class="value" x="262.2" y="283.2" text-anchor="middle">798.66</text>
<text class="label" x="253.5" y="478" text-anchor="middle">100ms</text>
<rect x="297.1" y="194.4" width="17.4" height="255.6" fill="#2dd4bf" rx="8"/>
<line class="err" x1="305.8" y1="193.6" x2="305.8" y2="195.1"/>
<line class="err" x1="298.8" y1="193.6" x2="312.8" y2="193.6"/>
<line class="err" x1="298.8" y1="195.1" x2="312.8" y2="195.1"/>
<text class="value" x="305.8" y="183.6" text-anchor="middle">1337.60</text>
<rect x="318.8" y="318.8" width="17.4" height="131.2" fill="#38bdf8" rx="8"/>
<line class="err" x1="327.6" y1="315.4" x2="327.6" y2="322.2"/>
<line class="err" x1="320.6" y1="315.4" x2="334.6" y2="315.4"/>
<line class="err" x1="320.6" y1="322.2" x2="334.6" y2="322.2"/>
<text class="value" x="327.6" y="305.4" text-anchor="middle">686.41</text>
<text class="label" x="318.8" y="478" text-anchor="middle">250ms</text>
<rect x="362.4" y="194.1" width="17.4" height="255.9" fill="#2dd4bf" rx="8"/>
<line class="err" x1="371.2" y1="193.5" x2="371.2" y2="194.7"/>
<line class="err" x1="364.2" y1="193.5" x2="378.2" y2="193.5"/>
<line class="err" x1="364.2" y1="194.7" x2="378.2" y2="194.7"/>
<text class="value" x="371.2" y="183.5" text-anchor="middle">1338.82</text>
<rect x="384.2" y="330.2" width="17.4" height="119.8" fill="#38bdf8" rx="8"/>
<line class="err" x1="392.9" y1="326.4" x2="392.9" y2="334.0"/>
<line class="err" x1="385.9" y1="326.4" x2="399.9" y2="326.4"/>
<line class="err" x1="385.9" y1="334.0" x2="399.9" y2="334.0"/>
<text class="value" x="392.9" y="316.4" text-anchor="middle">626.90</text>
<text class="label" x="384.2" y="478" text-anchor="middle">500ms</text>
<rect x="427.8" y="194.4" width="17.4" height="255.6" fill="#2dd4bf" rx="8"/>
<line class="err" x1="436.5" y1="193.6" x2="436.5" y2="195.1"/>
<line class="err" x1="429.5" y1="193.6" x2="443.5" y2="193.6"/>
<line class="err" x1="429.5" y1="195.1" x2="443.5" y2="195.1"/>
<text class="value" x="436.5" y="183.6" text-anchor="middle">1337.60</text>
<rect x="449.6" y="313.5" width="17.4" height="136.5" fill="#38bdf8" rx="8"/>
<line class="err" x1="458.3" y1="309.2" x2="458.3" y2="317.7"/>
<line class="err" x1="451.3" y1="309.2" x2="465.3" y2="309.2"/>
<line class="err" x1="451.3" y1="317.7" x2="465.3" y2="317.7"/>
<text class="value" x="458.3" y="299.2" text-anchor="middle">714.29</text>
<text class="label" x="449.6" y="478" text-anchor="middle">Adaptive 100-250ms</text>
<rect x="493.2" y="194.4" width="17.4" height="255.6" fill="#2dd4bf" rx="8"/>
<line class="err" x1="501.9" y1="193.6" x2="501.9" y2="195.1"/>
<line class="err" x1="494.9" y1="193.6" x2="508.9" y2="193.6"/>
<line class="err" x1="494.9" y1="195.1" x2="508.9" y2="195.1"/>
<text class="value" x="501.9" y="183.6" text-anchor="middle">1337.60</text>
<rect x="515.0" y="321.7" width="17.4" height="128.3" fill="#38bdf8" rx="8"/>
<line class="err" x1="523.7" y1="318.7" x2="523.7" y2="324.7"/>
<line class="err" x1="516.7" y1="318.7" x2="530.7" y2="318.7"/>
<line class="err" x1="516.7" y1="324.7" x2="530.7" y2="324.7"/>
<text class="value" x="523.7" y="308.7" text-anchor="middle">671.43</text>
<text class="label" x="515.0" y="478" text-anchor="middle">Adaptive OrderFlow-100-250ms</text>
<rect x="558.6" y="194.4" width="17.4" height="255.6" fill="#2dd4bf" rx="8"/>
<line class="err" x1="567.3" y1="193.6" x2="567.3" y2="195.1"/>
<line class="err" x1="560.3" y1="193.6" x2="574.3" y2="193.6"/>
<line class="err" x1="560.3" y1="195.1" x2="574.3" y2="195.1"/>
<text class="value" x="567.3" y="183.6" text-anchor="middle">1337.60</text>
<rect x="580.4" y="317.8" width="17.4" height="132.2" fill="#38bdf8" rx="8"/>
<line class="err" x1="589.1" y1="312.7" x2="589.1" y2="323.0"/>
<line class="err" x1="582.1" y1="312.7" x2="596.1" y2="312.7"/>
<line class="err" x1="582.1" y1="323.0" x2="596.1" y2="323.0"/>
<text class="value" x="589.1" y="302.7" text-anchor="middle">691.57</text>
<text class="label" x="580.4" y="478" text-anchor="middle">Adaptive QueueLoad-100-250ms</text>
<rect x="624.0" y="194.1" width="17.4" height="255.9" fill="#2dd4bf" rx="8"/>
<line class="err" x1="632.7" y1="193.5" x2="632.7" y2="194.7"/>
<line class="err" x1="625.7" y1="193.5" x2="639.7" y2="193.5"/>
<line class="err" x1="625.7" y1="194.7" x2="639.7" y2="194.7"/>
<text class="value" x="632.7" y="183.5" text-anchor="middle">1338.89</text>
<rect x="645.8" y="321.8" width="17.4" height="128.2" fill="#38bdf8" rx="8"/>
<line class="err" x1="654.5" y1="316.3" x2="654.5" y2="327.2"/>
<line class="err" x1="647.5" y1="316.3" x2="661.5" y2="316.3"/>
<line class="err" x1="647.5" y1="327.2" x2="661.5" y2="327.2"/>
<text class="value" x="654.5" y="306.3" text-anchor="middle">670.83</text>
<text class="label" x="645.8" y="478" text-anchor="middle">Policy-BurstAware-100-250ms</text>
<rect x="689.4" y="194.4" width="17.4" height="255.6" fill="#2dd4bf" rx="8"/>
<line class="err" x1="698.1" y1="193.6" x2="698.1" y2="195.1"/>
<line class="err" x1="691.1" y1="193.6" x2="705.1" y2="193.6"/>
<line class="err" x1="691.1" y1="195.1" x2="705.1" y2="195.1"/>
<text class="value" x="698.1" y="183.6" text-anchor="middle">1337.60</text>
<rect x="711.2" y="305.6" width="17.4" height="144.4" fill="#38bdf8" rx="8"/>
<line class="err" x1="719.9" y1="300.3" x2="719.9" y2="310.8"/>
<line class="err" x1="712.9" y1="300.3" x2="726.9" y2="300.3"/>
<line class="err" x1="712.9" y1="310.8" x2="726.9" y2="310.8"/>
<text class="value" x="719.9" y="290.3" text-anchor="middle">755.65</text>
<text class="label" x="711.2" y="478" text-anchor="middle">Policy-LearnedLinUCB-100-250ms</text>
<rect x="754.7" y="194.4" width="17.4" height="255.6" fill="#2dd4bf" rx="8"/>
<line class="err" x1="763.5" y1="193.6" x2="763.5" y2="195.1"/>
<line class="err" x1="756.5" y1="193.6" x2="770.5" y2="193.6"/>
<line class="err" x1="756.5" y1="195.1" x2="770.5" y2="195.1"/>
<text class="value" x="763.5" y="183.6" text-anchor="middle">1337.60</text>
<rect x="776.5" y="303.0" width="17.4" height="147.0" fill="#38bdf8" rx="8"/>
<line class="err" x1="785.3" y1="299.0" x2="785.3" y2="307.0"/>
<line class="err" x1="778.3" y1="299.0" x2="792.3" y2="299.0"/>
<line class="err" x1="778.3" y1="307.0" x2="792.3" y2="307.0"/>
<text class="value" x="785.3" y="289.0" text-anchor="middle">769.35</text>
<text class="label" x="776.5" y="478" text-anchor="middle">Policy-LearnedTinyMLP-100-250ms</text>
<rect x="820.1" y="194.4" width="17.4" height="255.6" fill="#2dd4bf" rx="8"/>
<line class="err" x1="828.8" y1="193.7" x2="828.8" y2="195.1"/>
<line class="err" x1="821.8" y1="193.7" x2="835.8" y2="193.7"/>
<line class="err" x1="821.8" y1="195.1" x2="835.8" y2="195.1"/>
<text class="value" x="828.8" y="183.7" text-anchor="middle">1337.40</text>
<rect x="841.9" y="304.2" width="17.4" height="145.8" fill="#38bdf8" rx="8"/>
<line class="err" x1="850.6" y1="297.3" x2="850.6" y2="311.1"/>
<line class="err" x1="843.6" y1="297.3" x2="857.6" y2="297.3"/>
<line class="err" x1="843.6" y1="311.1" x2="857.6" y2="311.1"/>
<text class="value" x="850.6" y="287.3" text-anchor="middle">762.80</text>
<text class="label" x="841.9" y="478" text-anchor="middle">Policy-LearnedOfflineContextual-100-250ms</text>
<rect x="885.5" y="111.9" width="17.4" height="338.1" fill="#2dd4bf" rx="8"/>
<line class="err" x1="894.2" y1="110.7" x2="894.2" y2="113.0"/>
<line class="err" x1="887.2" y1="110.7" x2="901.2" y2="110.7"/>
<line class="err" x1="887.2" y1="113.0" x2="901.2" y2="113.0"/>
<text class="value" x="894.2" y="100.7" text-anchor="middle">1769.25</text>
<rect x="907.3" y="277.9" width="17.4" height="172.1" fill="#38bdf8" rx="8"/>
<line class="err" x1="916.0" y1="273.4" x2="916.0" y2="282.4"/>
<line class="err" x1="909.0" y1="273.4" x2="923.0" y2="273.4"/>
<line class="err" x1="909.0" y1="282.4" x2="923.0" y2="282.4"/>
<text class="value" x="916.0" y="263.4" text-anchor="middle">900.50</text>
<text class="label" x="907.3" y="478" text-anchor="middle">250ms Stress</text>
<rect x="730" y="22" width="14" height="14" fill="#2dd4bf" rx="3"/>
<text class="legend" x="752" y="34">Orders/s</text>
<rect x="730" y="44" width="14" height="14" fill="#38bdf8" rx="3"/>
<text class="legend" x="752" y="56">Fills/s</text>
</svg>
