<svg xmlns="http://www.w3.org/2000/svg" width="980" height="540" viewBox="0 0 980 540" role="img">
<style>.title{font:700 20px Arial; fill:#f3f7ff;}.label{font:12px Arial; fill:#cbd8f0;}.value{font:11px Arial; fill:#eef5ff;}.axis{stroke:#4d6387; stroke-width:1;}.grid{stroke:#20324d; stroke-width:1; opacity:.8;}.legend{font:12px Arial; fill:#d7e7ff;}.bg{fill:#071423;}.err{stroke:#dbeafe; stroke-width:1.5;}</style>
<rect class="bg" x="0" y="0" width="980" height="540" rx="18"/>
<text class="title" x="90" y="38">Throughput Comparison (95% CI)</text>
<text class="label" x="90" y="520">Mean throughput</text>
<line class="grid" x1="90" y1="70.0" x2="940" y2="70.0"/>
<text class="label" x="12" y="74.0">1988</text>
<line class="grid" x1="90" y1="146.0" x2="940" y2="146.0"/>
<text class="label" x="12" y="150.0">1591</text>
<line class="grid" x1="90" y1="222.0" x2="940" y2="222.0"/>
<text class="label" x="12" y="226.0">1193</text>
<line class="grid" x1="90" y1="298.0" x2="940" y2="298.0"/>
<text class="label" x="12" y="302.0">795</text>
<line class="grid" x1="90" y1="374.0" x2="940" y2="374.0"/>
<text class="label" x="12" y="378.0">398</text>
<line class="grid" x1="90" y1="450.0" x2="940" y2="450.0"/>
<text class="label" x="12" y="454.0">0</text>
<line class="axis" x1="90" y1="70" x2="90" y2="450"/>
<line class="axis" x1="90" y1="450" x2="940" y2="450"/>
<rect x="101.8" y="192.3" width="18.9" height="257.7" fill="#2dd4bf" rx="8"/>
<line class="err" x1="111.2" y1="191.6" x2="111.2" y2="193.1"/>
<line class="err" x1="104.2" y1="191.6" x2="118.2" y2="191.6"/>
<line class="err" x1="104.2" y1="193.1" x2="118.2" y2="193.1"/>
<text class="value" x="111.2" y="181.6" text-anchor="middle">1348.2</text>
<rect x="125.4" y="294.6" width="18.9" height="155.4" fill="#38bdf8" rx="8"/>
<line class="err" x1="134.9" y1="291.1" x2="134.9" y2="298.1"/>
<line class="err" x1="127.9" y1="291.1" x2="141.9" y2="291.1"/>
<line class="err" x1="127.9" y1="298.1" x2="141.9" y2="298.1"/>
<text class="value" x="134.9" y="281.1" text-anchor="middle">813.1</text>
<text class="label" x="125.4" y="478" text-anchor="middle">Immediate</text>
<rect x="172.6" y="202.6" width="18.9" height="247.4" fill="#2dd4bf" rx="8"/>
<line class="err" x1="182.1" y1="201.9" x2="182.1" y2="203.4"/>
<line class="err" x1="175.1" y1="201.9" x2="189.1" y2="201.9"/>
<line class="err" x1="175.1" y1="203.4" x2="189.1" y2="203.4"/>
<text class="value" x="182.1" y="191.9" text-anchor="middle">1294.3</text>
<rect x="196.2" y="300.8" width="18.9" height="149.2" fill="#38bdf8" rx="8"/>
<line class="err" x1="205.7" y1="297.4" x2="205.7" y2="304.2"/>
<line class="err" x1="198.7" y1="297.4" x2="212.7" y2="297.4"/>
<line class="err" x1="198.7" y1="304.2" x2="212.7" y2="304.2"/>
<text class="value" x="205.7" y="287.4" text-anchor="middle">780.6</text>
<text class="label" x="196.2" y="478" text-anchor="middle">SpeedBump 50ms</text>
<rect x="243.5" y="194.5" width="18.9" height="255.5" fill="#2dd4bf" rx="8"/>
<line class="err" x1="252.9" y1="193.7" x2="252.9" y2="195.2"/>
<line class="err" x1="245.9" y1="193.7" x2="259.9" y2="193.7"/>
<line class="err" x1="245.9" y1="195.2" x2="259.9" y2="195.2"/>
<text class="value" x="252.9" y="183.7" text-anchor="middle">1337.1</text>
<rect x="267.1" y="297.4" width="18.9" height="152.6" fill="#38bdf8" rx="8"/>
<line class="err" x1="276.5" y1="293.2" x2="276.5" y2="301.5"/>
<line class="err" x1="269.5" y1="293.2" x2="283.5" y2="293.2"/>
<line class="err" x1="269.5" y1="301.5" x2="283.5" y2="301.5"/>
<text class="value" x="276.5" y="283.2" text-anchor="middle">798.7</text>
<text class="label" x="267.1" y="478" text-anchor="middle">100ms</text>
<rect x="314.3" y="194.4" width="18.9" height="255.6" fill="#2dd4bf" rx="8"/>
<line class="err" x1="323.8" y1="193.6" x2="323.8" y2="195.1"/>
<line class="err" x1="316.8" y1="193.6" x2="330.8" y2="193.6"/>
<line class="err" x1="316.8" y1="195.1" x2="330.8" y2="195.1"/>
<text class="value" x="323.8" y="183.6" text-anchor="middle">1337.6</text>
<rect x="337.9" y="318.8" width="18.9" height="131.2" fill="#38bdf8" rx="8"/>
<line class="err" x1="347.4" y1="315.4" x2="347.4" y2="322.2"/>
<line class="err" x1="340.4" y1="315.4" x2="354.4" y2="315.4"/>
<line class="err" x1="340.4" y1="322.2" x2="354.4" y2="322.2"/>
<text class="value" x="347.4" y="305.4" text-anchor="middle">686.4</text>
<text class="label" x="337.9" y="478" text-anchor="middle">250ms</text>
<rect x="385.1" y="194.1" width="18.9" height="255.9" fill="#2dd4bf" rx="8"/>
<line class="err" x1="394.6" y1="193.5" x2="394.6" y2="194.7"/>
<line class="err" x1="387.6" y1="193.5" x2="401.6" y2="193.5"/>
<line class="err" x1="387.6" y1="194.7" x2="401.6" y2="194.7"/>
<text class="value" x="394.6" y="183.5" text-anchor="middle">1338.8</text>
<rect x="408.8" y="330.2" width="18.9" height="119.8" fill="#38bdf8" rx="8"/>
<line class="err" x1="418.2" y1="326.4" x2="418.2" y2="334.0"/>
<line class="err" x1="411.2" y1="326.4" x2="425.2" y2="326.4"/>
<line class="err" x1="411.2" y1="334.0" x2="425.2" y2="334.0"/>
<text class="value" x="418.2" y="316.4" text-anchor="middle">626.9</text>
<text class="label" x="408.8" y="478" text-anchor="middle">500ms</text>
<rect x="456.0" y="194.4" width="18.9" height="255.6" fill="#2dd4bf" rx="8"/>
<line class="err" x1="465.4" y1="193.6" x2="465.4" y2="195.1"/>
<line class="err" x1="458.4" y1="193.6" x2="472.4" y2="193.6"/>
<line class="err" x1="458.4" y1="195.1" x2="472.4" y2="195.1"/>
<text class="value" x="465.4" y="183.6" text-anchor="middle">1337.6</text>
<rect x="479.6" y="313.5" width="18.9" height="136.5" fill="#38bdf8" rx="8"/>
<line class="err" x1="489.0" y1="309.2" x2="489.0" y2="317.7"/>
<line class="err" x1="482.0" y1="309.2" x2="496.0" y2="309.2"/>
<line class="err" x1="482.0" y1="317.7" x2="496.0" y2="317.7"/>
<text class="value" x="489.0" y="299.2" text-anchor="middle">714.3</text>
<text class="label" x="479.6" y="478" text-anchor="middle">Adaptive 100-250ms</text>
<rect x="526.8" y="194.4" width="18.9" height="255.6" fill="#2dd4bf" rx="8"/>
<line class="err" x1="536.2" y1="193.6" x2="536.2" y2="195.1"/>
<line class="err" x1="529.2" y1="193.6" x2="543.2" y2="193.6"/>
<line class="err" x1="529.2" y1="195.1" x2="543.2" y2="195.1"/>
<text class="value" x="536.2" y="183.6" text-anchor="middle">1337.6</text>
<rect x="550.4" y="321.7" width="18.9" height="128.3" fill="#38bdf8" rx="8"/>
<line class="err" x1="559.9" y1="318.7" x2="559.9" y2="324.7"/>
<line class="err" x1="552.9" y1="318.7" x2="566.9" y2="318.7"/>
<line class="err" x1="552.9" y1="324.7" x2="566.9" y2="324.7"/>
<text class="value" x="559.9" y="308.7" text-anchor="middle">671.4</text>
<text class="label" x="550.4" y="478" text-anchor="middle">Adaptive OrderFlow-100-250ms</text>
<rect x="597.6" y="194.4" width="18.9" height="255.6" fill="#2dd4bf" rx="8"/>
<line class="err" x1="607.1" y1="193.6" x2="607.1" y2="195.1"/>
<line class="err" x1="600.1" y1="193.6" x2="614.1" y2="193.6"/>
<line class="err" x1="600.1" y1="195.1" x2="614.1" y2="195.1"/>
<text class="value" x="607.1" y="183.6" text-anchor="middle">1337.6</text>
<rect x="621.2" y="317.8" width="18.9" height="132.2" fill="#38bdf8" rx="8"/>
<line class="err" x1="630.7" y1="312.7" x2="630.7" y2="323.0"/>
<line class="err" x1="623.7" y1="312.7" x2="637.7" y2="312.7"/>
<line class="err" x1="623.7" y1="323.0" x2="637.7" y2="323.0"/>
<text class="value" x="630.7" y="302.7" text-anchor="middle">691.6</text>
<text class="label" x="621.2" y="478" text-anchor="middle">Adaptive QueueLoad-100-250ms</text>
<rect x="668.5" y="194.1" width="18.9" height="255.9" fill="#2dd4bf" rx="8"/>
<line class="err" x1="677.9" y1="193.5" x2="677.9" y2="194.7"/>
<line class="err" x1="670.9" y1="193.5" x2="684.9" y2="193.5"/>
<line class="err" x1="670.9" y1="194.7" x2="684.9" y2="194.7"/>
<text class="value" x="677.9" y="183.5" text-anchor="middle">1338.9</text>
<rect x="692.1" y="321.8" width="18.9" height="128.2" fill="#38bdf8" rx="8"/>
<line class="err" x1="701.5" y1="316.3" x2="701.5" y2="327.2"/>
<line class="err" x1="694.5" y1="316.3" x2="708.5" y2="316.3"/>
<line class="err" x1="694.5" y1="327.2" x2="708.5" y2="327.2"/>
<text class="value" x="701.5" y="306.3" text-anchor="middle">670.8</text>
<text class="label" x="692.1" y="478" text-anchor="middle">Policy-BurstAware-100-250ms</text>
<rect x="739.3" y="194.4" width="18.9" height="255.6" fill="#2dd4bf" rx="8"/>
<line class="err" x1="748.8" y1="193.6" x2="748.8" y2="195.1"/>
<line class="err" x1="741.8" y1="193.6" x2="755.8" y2="193.6"/>
<line class="err" x1="741.8" y1="195.1" x2="755.8" y2="195.1"/>
<text class="value" x="748.8" y="183.6" text-anchor="middle">1337.6</text>
<rect x="762.9" y="307.6" width="18.9" height="142.4" fill="#38bdf8" rx="8"/>
<line class="err" x1="772.4" y1="301.0" x2="772.4" y2="314.1"/>
<line class="err" x1="765.4" y1="301.0" x2="779.4" y2="301.0"/>
<line class="err" x1="765.4" y1="314.1" x2="779.4" y2="314.1"/>
<text class="value" x="772.4" y="291.0" text-anchor="middle">745.2</text>
<text class="label" x="762.9" y="478" text-anchor="middle">Policy-LearnedLinUCB-100-250ms</text>
<rect x="810.1" y="194.2" width="18.9" height="255.8" fill="#2dd4bf" rx="8"/>
<line class="err" x1="819.6" y1="193.7" x2="819.6" y2="194.7"/>
<line class="err" x1="812.6" y1="193.7" x2="826.6" y2="193.7"/>
<line class="err" x1="812.6" y1="194.7" x2="826.6" y2="194.7"/>
<text class="value" x="819.6" y="183.7" text-anchor="middle">1338.4</text>
<rect x="833.7" y="318.2" width="18.9" height="131.8" fill="#38bdf8" rx="8"/>
<line class="err" x1="843.2" y1="312.7" x2="843.2" y2="323.6"/>
<line class="err" x1="836.2" y1="312.7" x2="850.2" y2="312.7"/>
<line class="err" x1="836.2" y1="323.6" x2="850.2" y2="323.6"/>
<text class="value" x="843.2" y="302.7" text-anchor="middle">689.8</text>
<text class="label" x="833.7" y="478" text-anchor="middle">Policy-LearnedTinyMLP-100-250ms</text>
<rect x="881.0" y="111.9" width="18.9" height="338.1" fill="#2dd4bf" rx="8"/>
<line class="err" x1="890.4" y1="110.7" x2="890.4" y2="113.0"/>
<line class="err" x1="883.4" y1="110.7" x2="897.4" y2="110.7"/>
<line class="err" x1="883.4" y1="113.0" x2="897.4" y2="113.0"/>
<text class="value" x="890.4" y="100.7" text-anchor="middle">1769.2</text>
<rect x="904.6" y="277.9" width="18.9" height="172.1" fill="#38bdf8" rx="8"/>
<line class="err" x1="914.0" y1="273.4" x2="914.0" y2="282.4"/>
<line class="err" x1="907.0" y1="273.4" x2="921.0" y2="273.4"/>
<line class="err" x1="907.0" y1="282.4" x2="921.0" y2="282.4"/>
<text class="value" x="914.0" y="263.4" text-anchor="middle">900.5</text>
<text class="label" x="904.6" y="478" text-anchor="middle">250ms Stress</text>
<rect x="730" y="22" width="14" height="14" fill="#2dd4bf" rx="3"/>
<text class="legend" x="752" y="34">Orders/s</text>
<rect x="730" y="44" width="14" height="14" fill="#38bdf8" rx="3"/>
<text class="legend" x="752" y="56">Fills/s</text>
</svg>
