<svg xmlns="http://www.w3.org/2000/svg" width="980" height="540" viewBox="0 0 980 540" role="img">
<style>.title{font:700 20px Arial; fill:#f3f7ff;}.label{font:12px Arial; fill:#cbd8f0;}.value{font:11px Arial; fill:#eef5ff;}.axis{stroke:#4d6387; stroke-width:1;}.grid{stroke:#20324d; stroke-width:1; opacity:.8;}.legend{font:12px Arial; fill:#d7e7ff;}.bg{fill:#071423;}.err{stroke:#dbeafe; stroke-width:1.5;}</style>
<rect class="bg" x="0" y="0" width="980" height="540" rx="18"/>
<text class="title" x="90" y="38">Throughput Comparison (95% CI)</text>
<text class="label" x="90" y="520">Mean throughput</text>
<line class="grid" x1="90" y1="70.0" x2="940" y2="70.0"/>
<text class="label" x="12" y="74.0">1988</text>
<line class="grid" x1="90" y1="146.0" x2="940" y2="146.0"/>
<text class="label" x="12" y="150.0">1591</text>
<line class="grid" x1="90" y1="222.0" x2="940" y2="222.0"/>
<text class="label" x="12" y="226.0">1193</text>
<line class="grid" x1="90" y1="298.0" x2="940" y2="298.0"/>
<text class="label" x="12" y="302.0">795</text>
<line class="grid" x1="90" y1="374.0" x2="940" y2="374.0"/>
<text class="label" x="12" y="378.0">398</text>
<line class="grid" x1="90" y1="450.0" x2="940" y2="450.0"/>
<text class="label" x="12" y="454.0">0</text>
<line class="axis" x1="90" y1="70" x2="90" y2="450"/>
<line class="axis" x1="90" y1="450" x2="940" y2="450"/>
<rect x="104.2" y="192.3" width="22.7" height="257.7" fill="#2dd4bf" rx="8"/>
<line class="err" x1="115.5" y1="191.6" x2="115.5" y2="193.1"/>
<line class="err" x1="108.5" y1="191.6" x2="122.5" y2="191.6"/>
<line class="err" x1="108.5" y1="193.1" x2="122.5" y2="193.1"/>
<text class="value" x="115.5" y="181.6" text-anchor="middle">1348.2</text>
<rect x="132.5" y="294.6" width="22.7" height="155.4" fill="#38bdf8" rx="8"/>
<line class="err" x1="143.8" y1="291.1" x2="143.8" y2="298.1"/>
<line class="err" x1="136.8" y1="291.1" x2="150.8" y2="291.1"/>
<line class="err" x1="136.8" y1="298.1" x2="150.8" y2="298.1"/>
<text class="value" x="143.8" y="281.1" text-anchor="middle">813.1</text>
<text class="label" x="132.5" y="478" text-anchor="middle">Immediate</text>
<rect x="189.2" y="202.6" width="22.7" height="247.4" fill="#2dd4bf" rx="8"/>
<line class="err" x1="200.5" y1="201.9" x2="200.5" y2="203.4"/>
<line class="err" x1="193.5" y1="201.9" x2="207.5" y2="201.9"/>
<line class="err" x1="193.5" y1="203.4" x2="207.5" y2="203.4"/>
<text class="value" x="200.5" y="191.9" text-anchor="middle">1294.3</text>
<rect x="217.5" y="300.8" width="22.7" height="149.2" fill="#38bdf8" rx="8"/>
<line class="err" x1="228.8" y1="297.4" x2="228.8" y2="304.2"/>
<line class="err" x1="221.8" y1="297.4" x2="235.8" y2="297.4"/>
<line class="err" x1="221.8" y1="304.2" x2="235.8" y2="304.2"/>
<text class="value" x="228.8" y="287.4" text-anchor="middle">780.6</text>
<text class="label" x="217.5" y="478" text-anchor="middle">SpeedBump 50ms</text>
<rect x="274.2" y="194.5" width="22.7" height="255.5" fill="#2dd4bf" rx="8"/>
<line class="err" x1="285.5" y1="193.7" x2="285.5" y2="195.2"/>
<line class="err" x1="278.5" y1="193.7" x2="292.5" y2="193.7"/>
<line class="err" x1="278.5" y1="195.2" x2="292.5" y2="195.2"/>
<text class="value" x="285.5" y="183.7" text-anchor="middle">1337.1</text>
<rect x="302.5" y="297.4" width="22.7" height="152.6" fill="#38bdf8" rx="8"/>
<line class="err" x1="313.8" y1="293.2" x2="313.8" y2="301.5"/>
<line class="err" x1="306.8" y1="293.2" x2="320.8" y2="293.2"/>
<line class="err" x1="306.8" y1="301.5" x2="320.8" y2="301.5"/>
<text class="value" x="313.8" y="283.2" text-anchor="middle">798.7</text>
<text class="label" x="302.5" y="478" text-anchor="middle">100ms</text>
<rect x="359.2" y="194.4" width="22.7" height="255.6" fill="#2dd4bf" rx="8"/>
<line class="err" x1="370.5" y1="193.6" x2="370.5" y2="195.1"/>
<line class="err" x1="363.5" y1="193.6" x2="377.5" y2="193.6"/>
<line class="err" x1="363.5" y1="195.1" x2="377.5" y2="195.1"/>
<text class="value" x="370.5" y="183.6" text-anchor="middle">1337.6</text>
<rect x="387.5" y="318.8" width="22.7" height="131.2" fill="#38bdf8" rx="8"/>
<line class="err" x1="398.8" y1="315.4" x2="398.8" y2="322.2"/>
<line class="err" x1="391.8" y1="315.4" x2="405.8" y2="315.4"/>
<line class="err" x1="391.8" y1="322.2" x2="405.8" y2="322.2"/>
<text class="value" x="398.8" y="305.4" text-anchor="middle">686.4</text>
<text class="label" x="387.5" y="478" text-anchor="middle">250ms</text>
<rect x="444.2" y="194.1" width="22.7" height="255.9" fill="#2dd4bf" rx="8"/>
<line class="err" x1="455.5" y1="193.5" x2="455.5" y2="194.7"/>
<line class="err" x1="448.5" y1="193.5" x2="462.5" y2="193.5"/>
<line class="err" x1="448.5" y1="194.7" x2="462.5" y2="194.7"/>
<text class="value" x="455.5" y="183.5" text-anchor="middle">1338.8</text>
<rect x="472.5" y="330.2" width="22.7" height="119.8" fill="#38bdf8" rx="8"/>
<line class="err" x1="483.8" y1="326.4" x2="483.8" y2="334.0"/>
<line class="err" x1="476.8" y1="326.4" x2="490.8" y2="326.4"/>
<line class="err" x1="476.8" y1="334.0" x2="490.8" y2="334.0"/>
<text class="value" x="483.8" y="316.4" text-anchor="middle">626.9</text>
<text class="label" x="472.5" y="478" text-anchor="middle">500ms</text>
<rect x="529.2" y="194.4" width="22.7" height="255.6" fill="#2dd4bf" rx="8"/>
<line class="err" x1="540.5" y1="193.6" x2="540.5" y2="195.1"/>
<line class="err" x1="533.5" y1="193.6" x2="547.5" y2="193.6"/>
<line class="err" x1="533.5" y1="195.1" x2="547.5" y2="195.1"/>
<text class="value" x="540.5" y="183.6" text-anchor="middle">1337.6</text>
<rect x="557.5" y="313.5" width="22.7" height="136.5" fill="#38bdf8" rx="8"/>
<line class="err" x1="568.8" y1="309.2" x2="568.8" y2="317.7"/>
<line class="err" x1="561.8" y1="309.2" x2="575.8" y2="309.2"/>
<line class="err" x1="561.8" y1="317.7" x2="575.8" y2="317.7"/>
<text class="value" x="568.8" y="299.2" text-anchor="middle">714.3</text>
<text class="label" x="557.5" y="478" text-anchor="middle">Adaptive 100-250ms</text>
<rect x="614.2" y="194.4" width="22.7" height="255.6" fill="#2dd4bf" rx="8"/>
<line class="err" x1="625.5" y1="193.6" x2="625.5" y2="195.1"/>
<line class="err" x1="618.5" y1="193.6" x2="632.5" y2="193.6"/>
<line class="err" x1="618.5" y1="195.1" x2="632.5" y2="195.1"/>
<text class="value" x="625.5" y="183.6" text-anchor="middle">1337.6</text>
<rect x="642.5" y="321.7" width="22.7" height="128.3" fill="#38bdf8" rx="8"/>
<line class="err" x1="653.8" y1="318.7" x2="653.8" y2="324.7"/>
<line class="err" x1="646.8" y1="318.7" x2="660.8" y2="318.7"/>
<line class="err" x1="646.8" y1="324.7" x2="660.8" y2="324.7"/>
<text class="value" x="653.8" y="308.7" text-anchor="middle">671.4</text>
<text class="label" x="642.5" y="478" text-anchor="middle">Adaptive OrderFlow-100-250ms</text>
<rect x="699.2" y="194.4" width="22.7" height="255.6" fill="#2dd4bf" rx="8"/>
<line class="err" x1="710.5" y1="193.6" x2="710.5" y2="195.1"/>
<line class="err" x1="703.5" y1="193.6" x2="717.5" y2="193.6"/>
<line class="err" x1="703.5" y1="195.1" x2="717.5" y2="195.1"/>
<text class="value" x="710.5" y="183.6" text-anchor="middle">1337.6</text>
<rect x="727.5" y="317.8" width="22.7" height="132.2" fill="#38bdf8" rx="8"/>
<line class="err" x1="738.8" y1="312.7" x2="738.8" y2="323.0"/>
<line class="err" x1="731.8" y1="312.7" x2="745.8" y2="312.7"/>
<line class="err" x1="731.8" y1="323.0" x2="745.8" y2="323.0"/>
<text class="value" x="738.8" y="302.7" text-anchor="middle">691.6</text>
<text class="label" x="727.5" y="478" text-anchor="middle">Adaptive QueueLoad-100-250ms</text>
<rect x="784.2" y="194.3" width="22.7" height="255.7" fill="#2dd4bf" rx="8"/>
<line class="err" x1="795.5" y1="193.8" x2="795.5" y2="194.9"/>
<line class="err" x1="788.5" y1="193.8" x2="802.5" y2="193.8"/>
<line class="err" x1="788.5" y1="194.9" x2="802.5" y2="194.9"/>
<text class="value" x="795.5" y="183.8" text-anchor="middle">1337.7</text>
<rect x="812.5" y="317.7" width="22.7" height="132.3" fill="#38bdf8" rx="8"/>
<line class="err" x1="823.8" y1="311.6" x2="823.8" y2="323.8"/>
<line class="err" x1="816.8" y1="311.6" x2="830.8" y2="311.6"/>
<line class="err" x1="816.8" y1="323.8" x2="830.8" y2="323.8"/>
<text class="value" x="823.8" y="301.6" text-anchor="middle">692.3</text>
<text class="label" x="812.5" y="478" text-anchor="middle">Policy-BurstAware-100-250ms</text>
<rect x="869.2" y="111.9" width="22.7" height="338.1" fill="#2dd4bf" rx="8"/>
<line class="err" x1="880.5" y1="110.7" x2="880.5" y2="113.0"/>
<line class="err" x1="873.5" y1="110.7" x2="887.5" y2="110.7"/>
<line class="err" x1="873.5" y1="113.0" x2="887.5" y2="113.0"/>
<text class="value" x="880.5" y="100.7" text-anchor="middle">1769.2</text>
<rect x="897.5" y="277.9" width="22.7" height="172.1" fill="#38bdf8" rx="8"/>
<line class="err" x1="908.8" y1="273.4" x2="908.8" y2="282.4"/>
<line class="err" x1="901.8" y1="273.4" x2="915.8" y2="273.4"/>
<line class="err" x1="901.8" y1="282.4" x2="915.8" y2="282.4"/>
<text class="value" x="908.8" y="263.4" text-anchor="middle">900.5</text>
<text class="label" x="897.5" y="478" text-anchor="middle">250ms Stress</text>
<rect x="730" y="22" width="14" height="14" fill="#2dd4bf" rx="3"/>
<text class="legend" x="752" y="34">Orders/s</text>
<rect x="730" y="44" width="14" height="14" fill="#38bdf8" rx="3"/>
<text class="legend" x="752" y="56">Fills/s</text>
</svg>
