<svg xmlns="http://www.w3.org/2000/svg" width="980" height="540" viewBox="0 0 980 540" role="img">
<style>.title{font:700 20px Arial; fill:#f3f7ff;}.label{font:12px Arial; fill:#cbd8f0;}.value{font:11px Arial; fill:#eef5ff;}.axis{stroke:#4d6387; stroke-width:1;}.grid{stroke:#20324d; stroke-width:1; opacity:.8;}.legend{font:12px Arial; fill:#d7e7ff;}.bg{fill:#071423;}.err{stroke:#dbeafe; stroke-width:1.5;}</style>
<rect class="bg" x="0" y="0" width="980" height="540" rx="18"/>
<text class="title" x="90" y="38">Throughput Comparison (95% CI)</text>
<text class="label" x="90" y="520">Mean throughput</text>
<line class="grid" x1="90" y1="70.0" x2="940" y2="70.0"/>
<text class="label" x="12" y="74.0">1988</text>
<line class="grid" x1="90" y1="146.0" x2="940" y2="146.0"/>
<text class="label" x="12" y="150.0">1591</text>
<line class="grid" x1="90" y1="222.0" x2="940" y2="222.0"/>
<text class="label" x="12" y="226.0">1193</text>
<line class="grid" x1="90" y1="298.0" x2="940" y2="298.0"/>
<text class="label" x="12" y="302.0">795</text>
<line class="grid" x1="90" y1="374.0" x2="940" y2="374.0"/>
<text class="label" x="12" y="378.0">398</text>
<line class="grid" x1="90" y1="450.0" x2="940" y2="450.0"/>
<text class="label" x="12" y="454.0">0</text>
<line class="axis" x1="90" y1="70" x2="90" y2="450"/>
<line class="axis" x1="90" y1="450" x2="940" y2="450"/>
<rect x="113.6" y="192.3" width="37.8" height="257.7" fill="#2dd4bf" rx="8"/>
<line class="err" x1="132.5" y1="191.6" x2="132.5" y2="193.1"/>
<line class="err" x1="125.5" y1="191.6" x2="139.5" y2="191.6"/>
<line class="err" x1="125.5" y1="193.1" x2="139.5" y2="193.1"/>
<text class="value" x="132.5" y="181.6" text-anchor="middle">1348.2</text>
<rect x="160.8" y="294.6" width="37.8" height="155.4" fill="#38bdf8" rx="8"/>
<line class="err" x1="179.7" y1="291.1" x2="179.7" y2="298.1"/>
<line class="err" x1="172.7" y1="291.1" x2="186.7" y2="291.1"/>
<line class="err" x1="172.7" y1="298.1" x2="186.7" y2="298.1"/>
<text class="value" x="179.7" y="281.1" text-anchor="middle">813.1</text>
<text class="label" x="160.8" y="478" text-anchor="middle">Immediate</text>
<rect x="255.3" y="202.6" width="37.8" height="247.4" fill="#2dd4bf" rx="8"/>
<line class="err" x1="274.2" y1="201.9" x2="274.2" y2="203.4"/>
<line class="err" x1="267.2" y1="201.9" x2="281.2" y2="201.9"/>
<line class="err" x1="267.2" y1="203.4" x2="281.2" y2="203.4"/>
<text class="value" x="274.2" y="191.9" text-anchor="middle">1294.3</text>
<rect x="302.5" y="300.8" width="37.8" height="149.2" fill="#38bdf8" rx="8"/>
<line class="err" x1="321.4" y1="297.4" x2="321.4" y2="304.2"/>
<line class="err" x1="314.4" y1="297.4" x2="328.4" y2="297.4"/>
<line class="err" x1="314.4" y1="304.2" x2="328.4" y2="304.2"/>
<text class="value" x="321.4" y="287.4" text-anchor="middle">780.6</text>
<text class="label" x="302.5" y="478" text-anchor="middle">SpeedBump 50ms</text>
<rect x="396.9" y="194.5" width="37.8" height="255.5" fill="#2dd4bf" rx="8"/>
<line class="err" x1="415.8" y1="193.7" x2="415.8" y2="195.2"/>
<line class="err" x1="408.8" y1="193.7" x2="422.8" y2="193.7"/>
<line class="err" x1="408.8" y1="195.2" x2="422.8" y2="195.2"/>
<text class="value" x="415.8" y="183.7" text-anchor="middle">1337.1</text>
<rect x="444.2" y="297.4" width="37.8" height="152.6" fill="#38bdf8" rx="8"/>
<line class="err" x1="463.1" y1="293.2" x2="463.1" y2="301.5"/>
<line class="err" x1="456.1" y1="293.2" x2="470.1" y2="293.2"/>
<line class="err" x1="456.1" y1="301.5" x2="470.1" y2="301.5"/>
<text class="value" x="463.1" y="283.2" text-anchor="middle">798.7</text>
<text class="label" x="444.2" y="478" text-anchor="middle">100ms</text>
<rect x="538.6" y="194.4" width="37.8" height="255.6" fill="#2dd4bf" rx="8"/>
<line class="err" x1="557.5" y1="193.6" x2="557.5" y2="195.1"/>
<line class="err" x1="550.5" y1="193.6" x2="564.5" y2="193.6"/>
<line class="err" x1="550.5" y1="195.1" x2="564.5" y2="195.1"/>
<text class="value" x="557.5" y="183.6" text-anchor="middle">1337.6</text>
<rect x="585.8" y="318.8" width="37.8" height="131.2" fill="#38bdf8" rx="8"/>
<line class="err" x1="604.7" y1="315.4" x2="604.7" y2="322.2"/>
<line class="err" x1="597.7" y1="315.4" x2="611.7" y2="315.4"/>
<line class="err" x1="597.7" y1="322.2" x2="611.7" y2="322.2"/>
<text class="value" x="604.7" y="305.4" text-anchor="middle">686.4</text>
<text class="label" x="585.8" y="478" text-anchor="middle">250ms</text>
<rect x="680.3" y="194.1" width="37.8" height="255.9" fill="#2dd4bf" rx="8"/>
<line class="err" x1="699.2" y1="193.5" x2="699.2" y2="194.7"/>
<line class="err" x1="692.2" y1="193.5" x2="706.2" y2="193.5"/>
<line class="err" x1="692.2" y1="194.7" x2="706.2" y2="194.7"/>
<text class="value" x="699.2" y="183.5" text-anchor="middle">1338.8</text>
<rect x="727.5" y="330.2" width="37.8" height="119.8" fill="#38bdf8" rx="8"/>
<line class="err" x1="746.4" y1="326.4" x2="746.4" y2="334.0"/>
<line class="err" x1="739.4" y1="326.4" x2="753.4" y2="326.4"/>
<line class="err" x1="739.4" y1="334.0" x2="753.4" y2="334.0"/>
<text class="value" x="746.4" y="316.4" text-anchor="middle">626.9</text>
<text class="label" x="727.5" y="478" text-anchor="middle">500ms</text>
<rect x="821.9" y="111.9" width="37.8" height="338.1" fill="#2dd4bf" rx="8"/>
<line class="err" x1="840.8" y1="110.7" x2="840.8" y2="113.0"/>
<line class="err" x1="833.8" y1="110.7" x2="847.8" y2="110.7"/>
<line class="err" x1="833.8" y1="113.0" x2="847.8" y2="113.0"/>
<text class="value" x="840.8" y="100.7" text-anchor="middle">1769.2</text>
<rect x="869.2" y="277.9" width="37.8" height="172.1" fill="#38bdf8" rx="8"/>
<line class="err" x1="888.1" y1="273.4" x2="888.1" y2="282.4"/>
<line class="err" x1="881.1" y1="273.4" x2="895.1" y2="273.4"/>
<line class="err" x1="881.1" y1="282.4" x2="895.1" y2="282.4"/>
<text class="value" x="888.1" y="263.4" text-anchor="middle">900.5</text>
<text class="label" x="869.2" y="478" text-anchor="middle">250ms Stress</text>
<rect x="730" y="22" width="14" height="14" fill="#2dd4bf" rx="3"/>
<text class="legend" x="752" y="34">Orders/s</text>
<rect x="730" y="44" width="14" height="14" fill="#38bdf8" rx="3"/>
<text class="legend" x="752" y="56">Fills/s</text>
</svg>
