<svg xmlns="http://www.w3.org/2000/svg" width="980" height="540" viewBox="0 0 980 540" role="img">
<style>.title{font:700 20px Arial; fill:#f3f7ff;}.label{font:12px Arial; fill:#cbd8f0;}.value{font:11px Arial; fill:#eef5ff;}.axis{stroke:#4d6387; stroke-width:1;}.grid{stroke:#20324d; stroke-width:1; opacity:.8;}.legend{font:12px Arial; fill:#d7e7ff;}.bg{fill:#071423;}.err{stroke:#dbeafe; stroke-width:1.5;}</style>
<rect class="bg" x="0" y="0" width="980" height="540" rx="18"/>
<text class="title" x="90" y="38">Throughput Comparison (95% CI)</text>
<text class="label" x="90" y="520">Mean throughput</text>
<line class="grid" x1="90" y1="70.0" x2="940" y2="70.0"/>
<text class="label" x="12" y="74.0">1988</text>
<line class="grid" x1="90" y1="146.0" x2="940" y2="146.0"/>
<text class="label" x="12" y="150.0">1591</text>
<line class="grid" x1="90" y1="222.0" x2="940" y2="222.0"/>
<text class="label" x="12" y="226.0">1193</text>
<line class="grid" x1="90" y1="298.0" x2="940" y2="298.0"/>
<text class="label" x="12" y="302.0">795</text>
<line class="grid" x1="90" y1="374.0" x2="940" y2="374.0"/>
<text class="label" x="12" y="378.0">398</text>
<line class="grid" x1="90" y1="450.0" x2="940" y2="450.0"/>
<text class="label" x="12" y="454.0">0</text>
<line class="axis" x1="90" y1="70" x2="90" y2="450"/>
<line class="axis" x1="90" y1="450" x2="940" y2="450"/>
<rect x="105.7" y="192.3" width="25.2" height="257.7" fill="#2dd4bf" rx="8"/>
<line class="err" x1="118.3" y1="191.6" x2="118.3" y2="193.1"/>
<line class="err" x1="111.3" y1="191.6" x2="125.3" y2="191.6"/>
<line class="err" x1="111.3" y1="193.1" x2="125.3" y2="193.1"/>
<text class="value" x="118.3" y="181.6" text-anchor="middle">1348.2</text>
<rect x="137.2" y="294.6" width="25.2" height="155.4" fill="#38bdf8" rx="8"/>
<line class="err" x1="149.8" y1="291.1" x2="149.8" y2="298.1"/>
<line class="err" x1="142.8" y1="291.1" x2="156.8" y2="291.1"/>
<line class="err" x1="142.8" y1="298.1" x2="156.8" y2="298.1"/>
<text class="value" x="149.8" y="281.1" text-anchor="middle">813.1</text>
<text class="label" x="137.2" y="478" text-anchor="middle">Immediate</text>
<rect x="200.2" y="202.6" width="25.2" height="247.4" fill="#2dd4bf" rx="8"/>
<line class="err" x1="212.8" y1="201.9" x2="212.8" y2="203.4"/>
<line class="err" x1="205.8" y1="201.9" x2="219.8" y2="201.9"/>
<line class="err" x1="205.8" y1="203.4" x2="219.8" y2="203.4"/>
<text class="value" x="212.8" y="191.9" text-anchor="middle">1294.3</text>
<rect x="231.7" y="300.8" width="25.2" height="149.2" fill="#38bdf8" rx="8"/>
<line class="err" x1="244.3" y1="297.4" x2="244.3" y2="304.2"/>
<line class="err" x1="237.3" y1="297.4" x2="251.3" y2="297.4"/>
<line class="err" x1="237.3" y1="304.2" x2="251.3" y2="304.2"/>
<text class="value" x="244.3" y="287.4" text-anchor="middle">780.6</text>
<text class="label" x="231.7" y="478" text-anchor="middle">SpeedBump 50ms</text>
<rect x="294.6" y="194.5" width="25.2" height="255.5" fill="#2dd4bf" rx="8"/>
<line class="err" x1="307.2" y1="193.7" x2="307.2" y2="195.2"/>
<line class="err" x1="300.2" y1="193.7" x2="314.2" y2="193.7"/>
<line class="err" x1="300.2" y1="195.2" x2="314.2" y2="195.2"/>
<text class="value" x="307.2" y="183.7" text-anchor="middle">1337.1</text>
<rect x="326.1" y="297.4" width="25.2" height="152.6" fill="#38bdf8" rx="8"/>
<line class="err" x1="338.7" y1="293.2" x2="338.7" y2="301.5"/>
<line class="err" x1="331.7" y1="293.2" x2="345.7" y2="293.2"/>
<line class="err" x1="331.7" y1="301.5" x2="345.7" y2="301.5"/>
<text class="value" x="338.7" y="283.2" text-anchor="middle">798.7</text>
<text class="label" x="326.1" y="478" text-anchor="middle">100ms</text>
<rect x="389.1" y="194.4" width="25.2" height="255.6" fill="#2dd4bf" rx="8"/>
<line class="err" x1="401.7" y1="193.6" x2="401.7" y2="195.1"/>
<line class="err" x1="394.7" y1="193.6" x2="408.7" y2="193.6"/>
<line class="err" x1="394.7" y1="195.1" x2="408.7" y2="195.1"/>
<text class="value" x="401.7" y="183.6" text-anchor="middle">1337.6</text>
<rect x="420.6" y="318.8" width="25.2" height="131.2" fill="#38bdf8" rx="8"/>
<line class="err" x1="433.1" y1="315.4" x2="433.1" y2="322.2"/>
<line class="err" x1="426.1" y1="315.4" x2="440.1" y2="315.4"/>
<line class="err" x1="426.1" y1="322.2" x2="440.1" y2="322.2"/>
<text class="value" x="433.1" y="305.4" text-anchor="middle">686.4</text>
<text class="label" x="420.6" y="478" text-anchor="middle">250ms</text>
<rect x="483.5" y="194.1" width="25.2" height="255.9" fill="#2dd4bf" rx="8"/>
<line class="err" x1="496.1" y1="193.5" x2="496.1" y2="194.7"/>
<line class="err" x1="489.1" y1="193.5" x2="503.1" y2="193.5"/>
<line class="err" x1="489.1" y1="194.7" x2="503.1" y2="194.7"/>
<text class="value" x="496.1" y="183.5" text-anchor="middle">1338.8</text>
<rect x="515.0" y="330.2" width="25.2" height="119.8" fill="#38bdf8" rx="8"/>
<line class="err" x1="527.6" y1="326.4" x2="527.6" y2="334.0"/>
<line class="err" x1="520.6" y1="326.4" x2="534.6" y2="326.4"/>
<line class="err" x1="520.6" y1="334.0" x2="534.6" y2="334.0"/>
<text class="value" x="527.6" y="316.4" text-anchor="middle">626.9</text>
<text class="label" x="515.0" y="478" text-anchor="middle">500ms</text>
<rect x="578.0" y="194.4" width="25.2" height="255.6" fill="#2dd4bf" rx="8"/>
<line class="err" x1="590.6" y1="193.6" x2="590.6" y2="195.1"/>
<line class="err" x1="583.6" y1="193.6" x2="597.6" y2="193.6"/>
<line class="err" x1="583.6" y1="195.1" x2="597.6" y2="195.1"/>
<text class="value" x="590.6" y="183.6" text-anchor="middle">1337.6</text>
<rect x="609.4" y="313.5" width="25.2" height="136.5" fill="#38bdf8" rx="8"/>
<line class="err" x1="622.0" y1="309.2" x2="622.0" y2="317.7"/>
<line class="err" x1="615.0" y1="309.2" x2="629.0" y2="309.2"/>
<line class="err" x1="615.0" y1="317.7" x2="629.0" y2="317.7"/>
<text class="value" x="622.0" y="299.2" text-anchor="middle">714.3</text>
<text class="label" x="609.4" y="478" text-anchor="middle">Adaptive 100-250ms</text>
<rect x="672.4" y="194.4" width="25.2" height="255.6" fill="#2dd4bf" rx="8"/>
<line class="err" x1="685.0" y1="193.6" x2="685.0" y2="195.1"/>
<line class="err" x1="678.0" y1="193.6" x2="692.0" y2="193.6"/>
<line class="err" x1="678.0" y1="195.1" x2="692.0" y2="195.1"/>
<text class="value" x="685.0" y="183.6" text-anchor="middle">1337.6</text>
<rect x="703.9" y="321.7" width="25.2" height="128.3" fill="#38bdf8" rx="8"/>
<line class="err" x1="716.5" y1="318.7" x2="716.5" y2="324.7"/>
<line class="err" x1="709.5" y1="318.7" x2="723.5" y2="318.7"/>
<line class="err" x1="709.5" y1="324.7" x2="723.5" y2="324.7"/>
<text class="value" x="716.5" y="308.7" text-anchor="middle">671.4</text>
<text class="label" x="703.9" y="478" text-anchor="middle">Adaptive OrderFlow-100-250ms</text>
<rect x="766.9" y="194.4" width="25.2" height="255.6" fill="#2dd4bf" rx="8"/>
<line class="err" x1="779.4" y1="193.6" x2="779.4" y2="195.1"/>
<line class="err" x1="772.4" y1="193.6" x2="786.4" y2="193.6"/>
<line class="err" x1="772.4" y1="195.1" x2="786.4" y2="195.1"/>
<text class="value" x="779.4" y="183.6" text-anchor="middle">1337.6</text>
<rect x="798.3" y="317.8" width="25.2" height="132.2" fill="#38bdf8" rx="8"/>
<line class="err" x1="810.9" y1="312.7" x2="810.9" y2="323.0"/>
<line class="err" x1="803.9" y1="312.7" x2="817.9" y2="312.7"/>
<line class="err" x1="803.9" y1="323.0" x2="817.9" y2="323.0"/>
<text class="value" x="810.9" y="302.7" text-anchor="middle">691.6</text>
<text class="label" x="798.3" y="478" text-anchor="middle">Adaptive QueueLoad-100-250ms</text>
<rect x="861.3" y="111.9" width="25.2" height="338.1" fill="#2dd4bf" rx="8"/>
<line class="err" x1="873.9" y1="110.7" x2="873.9" y2="113.0"/>
<line class="err" x1="866.9" y1="110.7" x2="880.9" y2="110.7"/>
<line class="err" x1="866.9" y1="113.0" x2="880.9" y2="113.0"/>
<text class="value" x="873.9" y="100.7" text-anchor="middle">1769.2</text>
<rect x="892.8" y="277.9" width="25.2" height="172.1" fill="#38bdf8" rx="8"/>
<line class="err" x1="905.4" y1="273.4" x2="905.4" y2="282.4"/>
<line class="err" x1="898.4" y1="273.4" x2="912.4" y2="273.4"/>
<line class="err" x1="898.4" y1="282.4" x2="912.4" y2="282.4"/>
<text class="value" x="905.4" y="263.4" text-anchor="middle">900.5</text>
<text class="label" x="892.8" y="478" text-anchor="middle">250ms Stress</text>
<rect x="730" y="22" width="14" height="14" fill="#2dd4bf" rx="3"/>
<text class="legend" x="752" y="34">Orders/s</text>
<rect x="730" y="44" width="14" height="14" fill="#38bdf8" rx="3"/>
<text class="legend" x="752" y="56">Fills/s</text>
</svg>
