<svg xmlns="http://www.w3.org/2000/svg" width="980" height="540" viewBox="0 0 980 540" role="img">
<style>.title{font:700 20px Arial; fill:#f3f7ff;}.label{font:12px Arial; fill:#cbd8f0;}.value{font:11px Arial; fill:#eef5ff;}.axis{stroke:#4d6387; stroke-width:1;}.grid{stroke:#20324d; stroke-width:1; opacity:.8;}.legend{font:12px Arial; fill:#d7e7ff;}.bg{fill:#071423;}.err{stroke:#dbeafe; stroke-width:1.5;}</style>
<rect class="bg" x="0" y="0" width="980" height="540" rx="18"/>
<text class="title" x="90" y="38">Welfare and Behavior Metrics (95% CI)</text>
<text class="label" x="90" y="520">Per-unit welfare and adverse-selection rate</text>
<line class="grid" x1="90" y1="70.0" x2="940" y2="70.0"/>
<text class="label" x="12" y="74.0">1.0</text>
<line class="grid" x1="90" y1="146.0" x2="940" y2="146.0"/>
<text class="label" x="12" y="150.0">0.6</text>
<line class="grid" x1="90" y1="222.0" x2="940" y2="222.0"/>
<text class="label" x="12" y="226.0">0.2</text>
<line class="grid" x1="90" y1="298.0" x2="940" y2="298.0"/>
<text class="label" x="12" y="302.0">-0.2</text>
<line class="grid" x1="90" y1="374.0" x2="940" y2="374.0"/>
<text class="label" x="12" y="378.0">-0.6</text>
<line class="grid" x1="90" y1="450.0" x2="940" y2="450.0"/>
<text class="label" x="12" y="454.0">-1.0</text>
<line class="axis" x1="90" y1="70" x2="90" y2="450"/>
<line class="axis" x1="90" y1="261.8" x2="940" y2="261.8"/>
<rect x="100.9" y="261.8" width="17.4" height="71.2" fill="#34d399" rx="8"/>
<line class="err" x1="109.6" y1="308.8" x2="109.6" y2="357.3"/>
<line class="err" x1="102.6" y1="308.8" x2="116.6" y2="308.8"/>
<line class="err" x1="102.6" y1="357.3" x2="116.6" y2="357.3"/>
<text class="value" x="109.6" y="375.3" text-anchor="middle">-0.37</text>
<rect x="122.7" y="163.8" width="17.4" height="98.0" fill="#f59e0b" rx="8"/>
<line class="err" x1="131.4" y1="160.3" x2="131.4" y2="167.3"/>
<line class="err" x1="124.4" y1="160.3" x2="138.4" y2="160.3"/>
<line class="err" x1="124.4" y1="167.3" x2="138.4" y2="167.3"/>
<text class="value" x="131.4" y="150.3" text-anchor="middle">0.51</text>
<text class="label" x="122.7" y="478" text-anchor="middle">Immediate</text>
<rect x="166.3" y="261.8" width="17.4" height="132.4" fill="#34d399" rx="8"/>
<line class="err" x1="175.0" y1="358.7" x2="175.0" y2="429.8"/>
<line class="err" x1="168.0" y1="358.7" x2="182.0" y2="358.7"/>
<line class="err" x1="168.0" y1="429.8" x2="182.0" y2="429.8"/>
<text class="value" x="175.0" y="442.0" text-anchor="middle">-0.69</text>
<rect x="188.1" y="161.3" width="17.4" height="100.6" fill="#f59e0b" rx="8"/>
<line class="err" x1="196.8" y1="158.0" x2="196.8" y2="164.5"/>
<line class="err" x1="189.8" y1="158.0" x2="203.8" y2="158.0"/>
<line class="err" x1="189.8" y1="164.5" x2="203.8" y2="164.5"/>
<text class="value" x="196.8" y="148.0" text-anchor="middle">0.52</text>
<text class="label" x="188.1" y="478" text-anchor="middle">SpeedBump 50ms</text>
<rect x="231.7" y="261.8" width="17.4" height="21.2" fill="#34d399" rx="8"/>
<line class="err" x1="240.4" y1="251.2" x2="240.4" y2="315.0"/>
<line class="err" x1="233.4" y1="251.2" x2="247.4" y2="251.2"/>
<line class="err" x1="233.4" y1="315.0" x2="247.4" y2="315.0"/>
<text class="value" x="240.4" y="333.0" text-anchor="middle">-0.11</text>
<rect x="253.5" y="165.6" width="17.4" height="96.3" fill="#f59e0b" rx="8"/>
<line class="err" x1="262.2" y1="163.1" x2="262.2" y2="168.0"/>
<line class="err" x1="255.2" y1="163.1" x2="269.2" y2="163.1"/>
<line class="err" x1="255.2" y1="168.0" x2="269.2" y2="168.0"/>
<text class="value" x="262.2" y="153.1" text-anchor="middle">0.50</text>
<text class="label" x="253.5" y="478" text-anchor="middle">100ms</text>
<rect x="297.1" y="261.8" width="17.4" height="67.0" fill="#34d399" rx="8"/>
<line class="err" x1="305.8" y1="291.4" x2="305.8" y2="366.3"/>
<line class="err" x1="298.8" y1="291.4" x2="312.8" y2="291.4"/>
<line class="err" x1="298.8" y1="366.3" x2="312.8" y2="366.3"/>
<text class="value" x="305.8" y="384.3" text-anchor="middle">-0.35</text>
<rect x="318.8" y="163.9" width="17.4" height="97.9" fill="#f59e0b" rx="8"/>
<line class="err" x1="327.6" y1="158.8" x2="327.6" y2="169.1"/>
<line class="err" x1="320.6" y1="158.8" x2="334.6" y2="158.8"/>
<line class="err" x1="320.6" y1="169.1" x2="334.6" y2="169.1"/>
<text class="value" x="327.6" y="148.8" text-anchor="middle">0.51</text>
<text class="label" x="318.8" y="478" text-anchor="middle">250ms</text>
<rect x="362.4" y="261.8" width="17.4" height="43.0" fill="#34d399" rx="8"/>
<line class="err" x1="371.2" y1="265.5" x2="371.2" y2="344.1"/>
<line class="err" x1="364.2" y1="265.5" x2="378.2" y2="265.5"/>
<line class="err" x1="364.2" y1="344.1" x2="378.2" y2="344.1"/>
<text class="value" x="371.2" y="362.1" text-anchor="middle">-0.22</text>
<rect x="384.2" y="170.2" width="17.4" height="91.7" fill="#f59e0b" rx="8"/>
<line class="err" x1="392.9" y1="160.0" x2="392.9" y2="180.3"/>
<line class="err" x1="385.9" y1="160.0" x2="399.9" y2="160.0"/>
<line class="err" x1="385.9" y1="180.3" x2="399.9" y2="180.3"/>
<text class="value" x="392.9" y="150.0" text-anchor="middle">0.48</text>
<text class="label" x="384.2" y="478" text-anchor="middle">500ms</text>
<rect x="427.8" y="261.8" width="17.4" height="28.9" fill="#34d399" rx="8"/>
<line class="err" x1="436.5" y1="253.4" x2="436.5" y2="328.2"/>
<line class="err" x1="429.5" y1="253.4" x2="443.5" y2="253.4"/>
<line class="err" x1="429.5" y1="328.2" x2="443.5" y2="328.2"/>
<text class="value" x="436.5" y="346.2" text-anchor="middle">-0.15</text>
<rect x="449.6" y="174.3" width="17.4" height="87.5" fill="#f59e0b" rx="8"/>
<line class="err" x1="458.3" y1="161.2" x2="458.3" y2="187.4"/>
<line class="err" x1="451.3" y1="161.2" x2="465.3" y2="161.2"/>
<line class="err" x1="451.3" y1="187.4" x2="465.3" y2="187.4"/>
<text class="value" x="458.3" y="151.2" text-anchor="middle">0.46</text>
<text class="label" x="449.6" y="478" text-anchor="middle">Adaptive 100-250ms</text>
<rect x="493.2" y="261.8" width="17.4" height="60.2" fill="#34d399" rx="8"/>
<line class="err" x1="501.9" y1="290.3" x2="501.9" y2="353.8"/>
<line class="err" x1="494.9" y1="290.3" x2="508.9" y2="290.3"/>
<line class="err" x1="494.9" y1="353.8" x2="508.9" y2="353.8"/>
<text class="value" x="501.9" y="371.8" text-anchor="middle">-0.31</text>
<rect x="515.0" y="162.5" width="17.4" height="99.3" fill="#f59e0b" rx="8"/>
<line class="err" x1="523.7" y1="156.5" x2="523.7" y2="168.5"/>
<line class="err" x1="516.7" y1="156.5" x2="530.7" y2="156.5"/>
<line class="err" x1="516.7" y1="168.5" x2="530.7" y2="168.5"/>
<text class="value" x="523.7" y="146.5" text-anchor="middle">0.52</text>
<text class="label" x="515.0" y="478" text-anchor="middle">Adaptive OrderFlow-100-250ms</text>
<rect x="558.6" y="261.8" width="17.4" height="52.2" fill="#34d399" rx="8"/>
<line class="err" x1="567.3" y1="278.4" x2="567.3" y2="349.7"/>
<line class="err" x1="560.3" y1="278.4" x2="574.3" y2="278.4"/>
<line class="err" x1="560.3" y1="349.7" x2="574.3" y2="349.7"/>
<text class="value" x="567.3" y="367.7" text-anchor="middle">-0.27</text>
<rect x="580.4" y="167.2" width="17.4" height="94.7" fill="#f59e0b" rx="8"/>
<line class="err" x1="589.1" y1="160.1" x2="589.1" y2="174.3"/>
<line class="err" x1="582.1" y1="160.1" x2="596.1" y2="160.1"/>
<line class="err" x1="582.1" y1="174.3" x2="596.1" y2="174.3"/>
<text class="value" x="589.1" y="150.1" text-anchor="middle">0.49</text>
<text class="label" x="580.4" y="478" text-anchor="middle">Adaptive QueueLoad-100-250ms</text>
<rect x="624.0" y="261.8" width="17.4" height="43.3" fill="#34d399" rx="8"/>
<line class="err" x1="632.7" y1="262.7" x2="632.7" y2="347.6"/>
<line class="err" x1="625.7" y1="262.7" x2="639.7" y2="262.7"/>
<line class="err" x1="625.7" y1="347.6" x2="639.7" y2="347.6"/>
<text class="value" x="632.7" y="365.6" text-anchor="middle">-0.23</text>
<rect x="645.8" y="165.6" width="17.4" height="96.3" fill="#f59e0b" rx="8"/>
<line class="err" x1="654.5" y1="161.7" x2="654.5" y2="169.5"/>
<line class="err" x1="647.5" y1="161.7" x2="661.5" y2="161.7"/>
<line class="err" x1="647.5" y1="169.5" x2="661.5" y2="169.5"/>
<text class="value" x="654.5" y="151.7" text-anchor="middle">0.50</text>
<text class="label" x="645.8" y="478" text-anchor="middle">Policy-BurstAware-100-250ms</text>
<rect x="689.4" y="246.6" width="17.4" height="15.2" fill="#34d399" rx="8"/>
<line class="err" x1="698.1" y1="220.6" x2="698.1" y2="272.6"/>
<line class="err" x1="691.1" y1="220.6" x2="705.1" y2="220.6"/>
<line class="err" x1="691.1" y1="272.6" x2="705.1" y2="272.6"/>
<text class="value" x="698.1" y="210.6" text-anchor="middle">0.08</text>
<rect x="711.2" y="171.9" width="17.4" height="90.0" fill="#f59e0b" rx="8"/>
<line class="err" x1="719.9" y1="167.4" x2="719.9" y2="176.3"/>
<line class="err" x1="712.9" y1="167.4" x2="726.9" y2="167.4"/>
<line class="err" x1="712.9" y1="176.3" x2="726.9" y2="176.3"/>
<text class="value" x="719.9" y="157.4" text-anchor="middle">0.47</text>
<text class="label" x="711.2" y="478" text-anchor="middle">Policy-LearnedLinUCB-100-250ms</text>
<rect x="754.7" y="261.8" width="17.4" height="60.0" fill="#34d399" rx="8"/>
<line class="err" x1="763.5" y1="292.4" x2="763.5" y2="351.3"/>
<line class="err" x1="756.5" y1="292.4" x2="770.5" y2="292.4"/>
<line class="err" x1="756.5" y1="351.3" x2="770.5" y2="351.3"/>
<text class="value" x="763.5" y="369.3" text-anchor="middle">-0.31</text>
<rect x="776.5" y="167.4" width="17.4" height="94.5" fill="#f59e0b" rx="8"/>
<line class="err" x1="785.3" y1="162.8" x2="785.3" y2="172.0"/>
<line class="err" x1="778.3" y1="162.8" x2="792.3" y2="162.8"/>
<line class="err" x1="778.3" y1="172.0" x2="792.3" y2="172.0"/>
<text class="value" x="785.3" y="152.8" text-anchor="middle">0.49</text>
<text class="label" x="776.5" y="478" text-anchor="middle">Policy-LearnedTinyMLP-100-250ms</text>
<rect x="820.1" y="261.8" width="17.4" height="20.9" fill="#34d399" rx="8"/>
<line class="err" x1="828.8" y1="259.9" x2="828.8" y2="305.6"/>
<line class="err" x1="821.8" y1="259.9" x2="835.8" y2="259.9"/>
<line class="err" x1="821.8" y1="305.6" x2="835.8" y2="305.6"/>
<text class="value" x="828.8" y="323.6" text-anchor="middle">-0.11</text>
<rect x="841.9" y="166.3" width="17.4" height="95.5" fill="#f59e0b" rx="8"/>
<line class="err" x1="850.6" y1="161.8" x2="850.6" y2="170.9"/>
<line class="err" x1="843.6" y1="161.8" x2="857.6" y2="161.8"/>
<line class="err" x1="843.6" y1="170.9" x2="857.6" y2="170.9"/>
<text class="value" x="850.6" y="151.8" text-anchor="middle">0.50</text>
<text class="label" x="841.9" y="478" text-anchor="middle">Policy-LearnedOfflineContextual-100-250ms</text>
<rect x="885.5" y="261.8" width="17.4" height="28.7" fill="#34d399" rx="8"/>
<line class="err" x1="894.2" y1="254.0" x2="894.2" y2="327.1"/>
<line class="err" x1="887.2" y1="254.0" x2="901.2" y2="254.0"/>
<line class="err" x1="887.2" y1="327.1" x2="901.2" y2="327.1"/>
<text class="value" x="894.2" y="345.1" text-anchor="middle">-0.15</text>
<rect x="907.3" y="166.0" width="17.4" height="95.8" fill="#f59e0b" rx="8"/>
<line class="err" x1="916.0" y1="161.5" x2="916.0" y2="170.5"/>
<line class="err" x1="909.0" y1="161.5" x2="923.0" y2="161.5"/>
<line class="err" x1="909.0" y1="170.5" x2="923.0" y2="170.5"/>
<text class="value" x="916.0" y="151.5" text-anchor="middle">0.50</text>
<text class="label" x="907.3" y="478" text-anchor="middle">250ms Stress</text>
<rect x="730" y="22" width="14" height="14" fill="#34d399" rx="3"/>
<text class="legend" x="752" y="34">Retail Surplus / unit</text>
<rect x="730" y="44" width="14" height="14" fill="#f59e0b" rx="3"/>
<text class="legend" x="752" y="56">Retail Adverse Rate</text>
</svg>
