<svg xmlns="http://www.w3.org/2000/svg" width="980" height="540" viewBox="0 0 980 540" role="img">
<style>.title{font:700 20px Arial; fill:#f3f7ff;}.label{font:12px Arial; fill:#cbd8f0;}.value{font:11px Arial; fill:#eef5ff;}.axis{stroke:#4d6387; stroke-width:1;}.grid{stroke:#20324d; stroke-width:1; opacity:.8;}.legend{font:12px Arial; fill:#d7e7ff;}.bg{fill:#071423;}.err{stroke:#dbeafe; stroke-width:1.5;}</style>
<rect class="bg" x="0" y="0" width="980" height="540" rx="18"/>
<text class="title" x="90" y="38">Welfare and Behavior Metrics (95% CI)</text>
<text class="label" x="90" y="520">Per-unit welfare and adverse-selection rate</text>
<line class="grid" x1="90" y1="70.0" x2="940" y2="70.0"/>
<text class="label" x="12" y="74.0">1.0</text>
<line class="grid" x1="90" y1="146.0" x2="940" y2="146.0"/>
<text class="label" x="12" y="150.0">0.6</text>
<line class="grid" x1="90" y1="222.0" x2="940" y2="222.0"/>
<text class="label" x="12" y="226.0">0.2</text>
<line class="grid" x1="90" y1="298.0" x2="940" y2="298.0"/>
<text class="label" x="12" y="302.0">-0.2</text>
<line class="grid" x1="90" y1="374.0" x2="940" y2="374.0"/>
<text class="label" x="12" y="378.0">-0.6</text>
<line class="grid" x1="90" y1="450.0" x2="940" y2="450.0"/>
<text class="label" x="12" y="454.0">-1.0</text>
<line class="axis" x1="90" y1="70" x2="90" y2="450"/>
<line class="axis" x1="90" y1="261.8" x2="940" y2="261.8"/>
<rect x="100.1" y="261.8" width="16.2" height="71.2" fill="#34d399" rx="8"/>
<line class="err" x1="108.2" y1="308.8" x2="108.2" y2="357.3"/>
<line class="err" x1="101.2" y1="308.8" x2="115.2" y2="308.8"/>
<line class="err" x1="101.2" y1="357.3" x2="115.2" y2="357.3"/>
<text class="value" x="108.2" y="375.3" text-anchor="middle">-0.37</text>
<rect x="120.4" y="163.8" width="16.2" height="98.0" fill="#f59e0b" rx="8"/>
<line class="err" x1="128.5" y1="160.3" x2="128.5" y2="167.3"/>
<line class="err" x1="121.5" y1="160.3" x2="135.5" y2="160.3"/>
<line class="err" x1="121.5" y1="167.3" x2="135.5" y2="167.3"/>
<text class="value" x="128.5" y="150.3" text-anchor="middle">0.51</text>
<text class="label" x="120.4" y="478" text-anchor="middle">Immediate</text>
<rect x="160.8" y="261.8" width="16.2" height="132.4" fill="#34d399" rx="8"/>
<line class="err" x1="168.9" y1="358.7" x2="168.9" y2="429.8"/>
<line class="err" x1="161.9" y1="358.7" x2="175.9" y2="358.7"/>
<line class="err" x1="161.9" y1="429.8" x2="175.9" y2="429.8"/>
<text class="value" x="168.9" y="442.0" text-anchor="middle">-0.69</text>
<rect x="181.1" y="161.3" width="16.2" height="100.6" fill="#f59e0b" rx="8"/>
<line class="err" x1="189.2" y1="158.0" x2="189.2" y2="164.5"/>
<line class="err" x1="182.2" y1="158.0" x2="196.2" y2="158.0"/>
<line class="err" x1="182.2" y1="164.5" x2="196.2" y2="164.5"/>
<text class="value" x="189.2" y="148.0" text-anchor="middle">0.52</text>
<text class="label" x="181.1" y="478" text-anchor="middle">SpeedBump 50</text>
<rect x="221.5" y="261.8" width="16.2" height="21.2" fill="#34d399" rx="8"/>
<line class="err" x1="229.6" y1="251.2" x2="229.6" y2="315.0"/>
<line class="err" x1="222.6" y1="251.2" x2="236.6" y2="251.2"/>
<line class="err" x1="222.6" y1="315.0" x2="236.6" y2="315.0"/>
<text class="value" x="229.6" y="333.0" text-anchor="middle">-0.11</text>
<rect x="241.8" y="165.6" width="16.2" height="96.3" fill="#f59e0b" rx="8"/>
<line class="err" x1="249.9" y1="163.1" x2="249.9" y2="168.0"/>
<line class="err" x1="242.9" y1="163.1" x2="256.9" y2="163.1"/>
<line class="err" x1="242.9" y1="168.0" x2="256.9" y2="168.0"/>
<text class="value" x="249.9" y="153.1" text-anchor="middle">0.50</text>
<text class="label" x="241.8" y="478" text-anchor="middle">FBA-100</text>
<rect x="282.3" y="261.8" width="16.2" height="67.0" fill="#34d399" rx="8"/>
<line class="err" x1="290.4" y1="291.4" x2="290.4" y2="366.3"/>
<line class="err" x1="283.4" y1="291.4" x2="297.4" y2="291.4"/>
<line class="err" x1="283.4" y1="366.3" x2="297.4" y2="366.3"/>
<text class="value" x="290.4" y="384.3" text-anchor="middle">-0.35</text>
<rect x="302.5" y="163.9" width="16.2" height="97.9" fill="#f59e0b" rx="8"/>
<line class="err" x1="310.6" y1="158.8" x2="310.6" y2="169.1"/>
<line class="err" x1="303.6" y1="158.8" x2="317.6" y2="158.8"/>
<line class="err" x1="303.6" y1="169.1" x2="317.6" y2="169.1"/>
<text class="value" x="310.6" y="148.8" text-anchor="middle">0.51</text>
<text class="label" x="302.5" y="478" text-anchor="middle">FBA-250</text>
<rect x="343.0" y="261.8" width="16.2" height="43.0" fill="#34d399" rx="8"/>
<line class="err" x1="351.1" y1="265.5" x2="351.1" y2="344.1"/>
<line class="err" x1="344.1" y1="265.5" x2="358.1" y2="265.5"/>
<line class="err" x1="344.1" y1="344.1" x2="358.1" y2="344.1"/>
<text class="value" x="351.1" y="362.1" text-anchor="middle">-0.22</text>
<rect x="363.2" y="170.2" width="16.2" height="91.7" fill="#f59e0b" rx="8"/>
<line class="err" x1="371.3" y1="160.0" x2="371.3" y2="180.3"/>
<line class="err" x1="364.3" y1="160.0" x2="378.3" y2="160.0"/>
<line class="err" x1="364.3" y1="180.3" x2="378.3" y2="180.3"/>
<text class="value" x="371.3" y="150.0" text-anchor="middle">0.48</text>
<text class="label" x="363.2" y="478" text-anchor="middle">FBA-500</text>
<rect x="403.7" y="261.8" width="16.2" height="28.9" fill="#34d399" rx="8"/>
<line class="err" x1="411.8" y1="253.4" x2="411.8" y2="328.2"/>
<line class="err" x1="404.8" y1="253.4" x2="418.8" y2="253.4"/>
<line class="err" x1="404.8" y1="328.2" x2="418.8" y2="328.2"/>
<text class="value" x="411.8" y="346.2" text-anchor="middle">-0.15</text>
<rect x="423.9" y="174.3" width="16.2" height="87.5" fill="#f59e0b" rx="8"/>
<line class="err" x1="432.0" y1="161.2" x2="432.0" y2="187.4"/>
<line class="err" x1="425.0" y1="161.2" x2="439.0" y2="161.2"/>
<line class="err" x1="425.0" y1="187.4" x2="439.0" y2="187.4"/>
<text class="value" x="432.0" y="151.2" text-anchor="middle">0.46</text>
<text class="label" x="423.9" y="478" text-anchor="middle">Adaptive B</text>
<rect x="464.4" y="261.8" width="16.2" height="60.2" fill="#34d399" rx="8"/>
<line class="err" x1="472.5" y1="290.3" x2="472.5" y2="353.8"/>
<line class="err" x1="465.5" y1="290.3" x2="479.5" y2="290.3"/>
<line class="err" x1="465.5" y1="353.8" x2="479.5" y2="353.8"/>
<text class="value" x="472.5" y="371.8" text-anchor="middle">-0.31</text>
<rect x="484.6" y="162.5" width="16.2" height="99.3" fill="#f59e0b" rx="8"/>
<line class="err" x1="492.7" y1="156.5" x2="492.7" y2="168.5"/>
<line class="err" x1="485.7" y1="156.5" x2="499.7" y2="156.5"/>
<line class="err" x1="485.7" y1="168.5" x2="499.7" y2="168.5"/>
<text class="value" x="492.7" y="146.5" text-anchor="middle">0.52</text>
<text class="label" x="484.6" y="478" text-anchor="middle">Adaptive OF</text>
<rect x="525.1" y="261.8" width="16.2" height="52.2" fill="#34d399" rx="8"/>
<line class="err" x1="533.2" y1="278.4" x2="533.2" y2="349.7"/>
<line class="err" x1="526.2" y1="278.4" x2="540.2" y2="278.4"/>
<line class="err" x1="526.2" y1="349.7" x2="540.2" y2="349.7"/>
<text class="value" x="533.2" y="367.7" text-anchor="middle">-0.27</text>
<rect x="545.4" y="167.2" width="16.2" height="94.7" fill="#f59e0b" rx="8"/>
<line class="err" x1="553.5" y1="160.1" x2="553.5" y2="174.3"/>
<line class="err" x1="546.5" y1="160.1" x2="560.5" y2="160.1"/>
<line class="err" x1="546.5" y1="174.3" x2="560.5" y2="174.3"/>
<text class="value" x="553.5" y="150.1" text-anchor="middle">0.49</text>
<text class="label" x="545.4" y="478" text-anchor="middle">Adaptive QL</text>
<rect x="585.8" y="261.8" width="16.2" height="43.3" fill="#34d399" rx="8"/>
<line class="err" x1="593.9" y1="262.7" x2="593.9" y2="347.6"/>
<line class="err" x1="586.9" y1="262.7" x2="600.9" y2="262.7"/>
<line class="err" x1="586.9" y1="347.6" x2="600.9" y2="347.6"/>
<text class="value" x="593.9" y="365.6" text-anchor="middle">-0.23</text>
<rect x="606.1" y="165.6" width="16.2" height="96.3" fill="#f59e0b" rx="8"/>
<line class="err" x1="614.2" y1="161.7" x2="614.2" y2="169.5"/>
<line class="err" x1="607.2" y1="161.7" x2="621.2" y2="161.7"/>
<line class="err" x1="607.2" y1="169.5" x2="621.2" y2="169.5"/>
<text class="value" x="614.2" y="151.7" text-anchor="middle">0.50</text>
<text class="label" x="606.1" y="478" text-anchor="middle">BurstAware</text>
<rect x="646.5" y="246.6" width="16.2" height="15.2" fill="#34d399" rx="8"/>
<line class="err" x1="654.6" y1="220.6" x2="654.6" y2="272.6"/>
<line class="err" x1="647.6" y1="220.6" x2="661.6" y2="220.6"/>
<line class="err" x1="647.6" y1="272.6" x2="661.6" y2="272.6"/>
<text class="value" x="654.6" y="210.6" text-anchor="middle">0.08</text>
<rect x="666.8" y="171.9" width="16.2" height="90.0" fill="#f59e0b" rx="8"/>
<line class="err" x1="674.9" y1="167.4" x2="674.9" y2="176.3"/>
<line class="err" x1="667.9" y1="167.4" x2="681.9" y2="167.4"/>
<line class="err" x1="667.9" y1="176.3" x2="681.9" y2="176.3"/>
<text class="value" x="674.9" y="157.4" text-anchor="middle">0.47</text>
<text class="label" x="666.8" y="478" text-anchor="middle">LinUCB</text>
<rect x="707.3" y="261.8" width="16.2" height="60.0" fill="#34d399" rx="8"/>
<line class="err" x1="715.4" y1="292.4" x2="715.4" y2="351.3"/>
<line class="err" x1="708.4" y1="292.4" x2="722.4" y2="292.4"/>
<line class="err" x1="708.4" y1="351.3" x2="722.4" y2="351.3"/>
<text class="value" x="715.4" y="369.3" text-anchor="middle">-0.31</text>
<rect x="727.5" y="167.4" width="16.2" height="94.5" fill="#f59e0b" rx="8"/>
<line class="err" x1="735.6" y1="162.8" x2="735.6" y2="172.0"/>
<line class="err" x1="728.6" y1="162.8" x2="742.6" y2="162.8"/>
<line class="err" x1="728.6" y1="172.0" x2="742.6" y2="172.0"/>
<text class="value" x="735.6" y="152.8" text-anchor="middle">0.49</text>
<text class="label" x="727.5" y="478" text-anchor="middle">TinyMLP</text>
<rect x="768.0" y="261.8" width="16.2" height="20.9" fill="#34d399" rx="8"/>
<line class="err" x1="776.1" y1="259.9" x2="776.1" y2="305.6"/>
<line class="err" x1="769.1" y1="259.9" x2="783.1" y2="259.9"/>
<line class="err" x1="769.1" y1="305.6" x2="783.1" y2="305.6"/>
<text class="value" x="776.1" y="323.6" text-anchor="middle">-0.11</text>
<rect x="788.2" y="166.3" width="16.2" height="95.5" fill="#f59e0b" rx="8"/>
<line class="err" x1="796.3" y1="161.8" x2="796.3" y2="170.9"/>
<line class="err" x1="789.3" y1="161.8" x2="803.3" y2="161.8"/>
<line class="err" x1="789.3" y1="170.9" x2="803.3" y2="170.9"/>
<text class="value" x="796.3" y="151.8" text-anchor="middle">0.50</text>
<text class="label" x="788.2" y="478" text-anchor="middle">OfflineCtx</text>
<rect x="828.7" y="247.6" width="16.2" height="14.2" fill="#34d399" rx="8"/>
<line class="err" x1="836.8" y1="215.2" x2="836.8" y2="280.0"/>
<line class="err" x1="829.8" y1="215.2" x2="843.8" y2="215.2"/>
<line class="err" x1="829.8" y1="280.0" x2="843.8" y2="280.0"/>
<text class="value" x="836.8" y="205.2" text-anchor="middle">0.07</text>
<rect x="848.9" y="171.0" width="16.2" height="90.9" fill="#f59e0b" rx="8"/>
<line class="err" x1="857.0" y1="168.0" x2="857.0" y2="173.9"/>
<line class="err" x1="850.0" y1="168.0" x2="864.0" y2="168.0"/>
<line class="err" x1="850.0" y1="173.9" x2="864.0" y2="173.9"/>
<text class="value" x="857.0" y="158.0" text-anchor="middle">0.47</text>
<text class="label" x="848.9" y="478" text-anchor="middle">FittedQ</text>
<rect x="889.4" y="261.8" width="16.2" height="28.7" fill="#34d399" rx="8"/>
<line class="err" x1="897.5" y1="254.0" x2="897.5" y2="327.1"/>
<line class="err" x1="890.5" y1="254.0" x2="904.5" y2="254.0"/>
<line class="err" x1="890.5" y1="327.1" x2="904.5" y2="327.1"/>
<text class="value" x="897.5" y="345.1" text-anchor="middle">-0.15</text>
<rect x="909.6" y="166.0" width="16.2" height="95.8" fill="#f59e0b" rx="8"/>
<line class="err" x1="917.7" y1="161.5" x2="917.7" y2="170.5"/>
<line class="err" x1="910.7" y1="161.5" x2="924.7" y2="161.5"/>
<line class="err" x1="910.7" y1="170.5" x2="924.7" y2="170.5"/>
<text class="value" x="917.7" y="151.5" text-anchor="middle">0.50</text>
<text class="label" x="909.6" y="478" text-anchor="middle">Stress</text>
<rect x="730" y="22" width="14" height="14" fill="#34d399" rx="3"/>
<text class="legend" x="752" y="34">Retail Surplus / unit</text>
<rect x="730" y="44" width="14" height="14" fill="#f59e0b" rx="3"/>
<text class="legend" x="752" y="56">Retail Adverse Rate</text>
</svg>
