<svg xmlns="http://www.w3.org/2000/svg" width="980" height="540" viewBox="0 0 980 540" role="img">
<style>.title{font:700 20px Arial; fill:#f3f7ff;}.label{font:12px Arial; fill:#cbd8f0;}.value{font:11px Arial; fill:#eef5ff;}.axis{stroke:#4d6387; stroke-width:1;}.grid{stroke:#20324d; stroke-width:1; opacity:.8;}.legend{font:12px Arial; fill:#d7e7ff;}.bg{fill:#071423;}.err{stroke:#dbeafe; stroke-width:1.5;}</style>
<rect class="bg" x="0" y="0" width="980" height="540" rx="18"/>
<text class="title" x="90" y="38">Welfare and Behavior Metrics (95% CI)</text>
<text class="label" x="90" y="520">Per-unit welfare and adverse-selection rate</text>
<line class="grid" x1="90" y1="70.0" x2="940" y2="70.0"/>
<text class="label" x="12" y="74.0">1.0</text>
<line class="grid" x1="90" y1="146.0" x2="940" y2="146.0"/>
<text class="label" x="12" y="150.0">0.6</text>
<line class="grid" x1="90" y1="222.0" x2="940" y2="222.0"/>
<text class="label" x="12" y="226.0">0.2</text>
<line class="grid" x1="90" y1="298.0" x2="940" y2="298.0"/>
<text class="label" x="12" y="302.0">-0.2</text>
<line class="grid" x1="90" y1="374.0" x2="940" y2="374.0"/>
<text class="label" x="12" y="378.0">-0.6</text>
<line class="grid" x1="90" y1="450.0" x2="940" y2="450.0"/>
<text class="label" x="12" y="454.0">-1.0</text>
<line class="axis" x1="90" y1="70" x2="90" y2="450"/>
<line class="axis" x1="90" y1="261.8" x2="940" y2="261.8"/>
<rect x="99.4" y="261.8" width="15.1" height="71.2" fill="#34d399" rx="8"/>
<line class="err" x1="107.0" y1="308.8" x2="107.0" y2="357.3"/>
<line class="err" x1="100.0" y1="308.8" x2="114.0" y2="308.8"/>
<line class="err" x1="100.0" y1="357.3" x2="114.0" y2="357.3"/>
<text class="value" x="107.0" y="375.3" text-anchor="middle">-0.37</text>
<rect x="118.3" y="163.8" width="15.1" height="98.0" fill="#f59e0b" rx="8"/>
<line class="err" x1="125.9" y1="160.3" x2="125.9" y2="167.3"/>
<line class="err" x1="118.9" y1="160.3" x2="132.9" y2="160.3"/>
<line class="err" x1="118.9" y1="167.3" x2="132.9" y2="167.3"/>
<text class="value" x="125.9" y="150.3" text-anchor="middle">0.51</text>
<text class="label" x="118.3" y="478" text-anchor="middle">Immediate</text>
<rect x="156.1" y="261.8" width="15.1" height="132.4" fill="#34d399" rx="8"/>
<line class="err" x1="163.7" y1="358.7" x2="163.7" y2="429.8"/>
<line class="err" x1="156.7" y1="358.7" x2="170.7" y2="358.7"/>
<line class="err" x1="156.7" y1="429.8" x2="170.7" y2="429.8"/>
<text class="value" x="163.7" y="442.0" text-anchor="middle">-0.69</text>
<rect x="175.0" y="161.3" width="15.1" height="100.6" fill="#f59e0b" rx="8"/>
<line class="err" x1="182.6" y1="158.0" x2="182.6" y2="164.5"/>
<line class="err" x1="175.6" y1="158.0" x2="189.6" y2="158.0"/>
<line class="err" x1="175.6" y1="164.5" x2="189.6" y2="164.5"/>
<text class="value" x="182.6" y="148.0" text-anchor="middle">0.52</text>
<text class="label" x="175.0" y="478" text-anchor="middle">SpeedBump 50</text>
<rect x="212.8" y="261.8" width="15.1" height="21.2" fill="#34d399" rx="8"/>
<line class="err" x1="220.3" y1="251.2" x2="220.3" y2="315.0"/>
<line class="err" x1="213.3" y1="251.2" x2="227.3" y2="251.2"/>
<line class="err" x1="213.3" y1="315.0" x2="227.3" y2="315.0"/>
<text class="value" x="220.3" y="333.0" text-anchor="middle">-0.11</text>
<rect x="231.7" y="165.6" width="15.1" height="96.3" fill="#f59e0b" rx="8"/>
<line class="err" x1="239.2" y1="163.1" x2="239.2" y2="168.0"/>
<line class="err" x1="232.2" y1="163.1" x2="246.2" y2="163.1"/>
<line class="err" x1="232.2" y1="168.0" x2="246.2" y2="168.0"/>
<text class="value" x="239.2" y="153.1" text-anchor="middle">0.50</text>
<text class="label" x="231.7" y="478" text-anchor="middle">FBA-100</text>
<rect x="269.4" y="261.8" width="15.1" height="67.0" fill="#34d399" rx="8"/>
<line class="err" x1="277.0" y1="291.4" x2="277.0" y2="366.3"/>
<line class="err" x1="270.0" y1="291.4" x2="284.0" y2="291.4"/>
<line class="err" x1="270.0" y1="366.3" x2="284.0" y2="366.3"/>
<text class="value" x="277.0" y="384.3" text-anchor="middle">-0.35</text>
<rect x="288.3" y="163.9" width="15.1" height="97.9" fill="#f59e0b" rx="8"/>
<line class="err" x1="295.9" y1="158.8" x2="295.9" y2="169.1"/>
<line class="err" x1="288.9" y1="158.8" x2="302.9" y2="158.8"/>
<line class="err" x1="288.9" y1="169.1" x2="302.9" y2="169.1"/>
<text class="value" x="295.9" y="148.8" text-anchor="middle">0.51</text>
<text class="label" x="288.3" y="478" text-anchor="middle">FBA-250</text>
<rect x="326.1" y="261.8" width="15.1" height="43.0" fill="#34d399" rx="8"/>
<line class="err" x1="333.7" y1="265.5" x2="333.7" y2="344.1"/>
<line class="err" x1="326.7" y1="265.5" x2="340.7" y2="265.5"/>
<line class="err" x1="326.7" y1="344.1" x2="340.7" y2="344.1"/>
<text class="value" x="333.7" y="362.1" text-anchor="middle">-0.22</text>
<rect x="345.0" y="170.2" width="15.1" height="91.7" fill="#f59e0b" rx="8"/>
<line class="err" x1="352.6" y1="160.0" x2="352.6" y2="180.3"/>
<line class="err" x1="345.6" y1="160.0" x2="359.6" y2="160.0"/>
<line class="err" x1="345.6" y1="180.3" x2="359.6" y2="180.3"/>
<text class="value" x="352.6" y="150.0" text-anchor="middle">0.48</text>
<text class="label" x="345.0" y="478" text-anchor="middle">FBA-500</text>
<rect x="382.8" y="261.8" width="15.1" height="28.9" fill="#34d399" rx="8"/>
<line class="err" x1="390.3" y1="253.4" x2="390.3" y2="328.2"/>
<line class="err" x1="383.3" y1="253.4" x2="397.3" y2="253.4"/>
<line class="err" x1="383.3" y1="328.2" x2="397.3" y2="328.2"/>
<text class="value" x="390.3" y="346.2" text-anchor="middle">-0.15</text>
<rect x="401.7" y="174.3" width="15.1" height="87.5" fill="#f59e0b" rx="8"/>
<line class="err" x1="409.2" y1="161.2" x2="409.2" y2="187.4"/>
<line class="err" x1="402.2" y1="161.2" x2="416.2" y2="161.2"/>
<line class="err" x1="402.2" y1="187.4" x2="416.2" y2="187.4"/>
<text class="value" x="409.2" y="151.2" text-anchor="middle">0.46</text>
<text class="label" x="401.7" y="478" text-anchor="middle">Adaptive B</text>
<rect x="439.4" y="261.8" width="15.1" height="60.2" fill="#34d399" rx="8"/>
<line class="err" x1="447.0" y1="290.3" x2="447.0" y2="353.8"/>
<line class="err" x1="440.0" y1="290.3" x2="454.0" y2="290.3"/>
<line class="err" x1="440.0" y1="353.8" x2="454.0" y2="353.8"/>
<text class="value" x="447.0" y="371.8" text-anchor="middle">-0.31</text>
<rect x="458.3" y="162.5" width="15.1" height="99.3" fill="#f59e0b" rx="8"/>
<line class="err" x1="465.9" y1="156.5" x2="465.9" y2="168.5"/>
<line class="err" x1="458.9" y1="156.5" x2="472.9" y2="156.5"/>
<line class="err" x1="458.9" y1="168.5" x2="472.9" y2="168.5"/>
<text class="value" x="465.9" y="146.5" text-anchor="middle">0.52</text>
<text class="label" x="458.3" y="478" text-anchor="middle">Adaptive OF</text>
<rect x="496.1" y="261.8" width="15.1" height="52.2" fill="#34d399" rx="8"/>
<line class="err" x1="503.7" y1="278.4" x2="503.7" y2="349.7"/>
<line class="err" x1="496.7" y1="278.4" x2="510.7" y2="278.4"/>
<line class="err" x1="496.7" y1="349.7" x2="510.7" y2="349.7"/>
<text class="value" x="503.7" y="367.7" text-anchor="middle">-0.27</text>
<rect x="515.0" y="167.2" width="15.1" height="94.7" fill="#f59e0b" rx="8"/>
<line class="err" x1="522.6" y1="160.1" x2="522.6" y2="174.3"/>
<line class="err" x1="515.6" y1="160.1" x2="529.6" y2="160.1"/>
<line class="err" x1="515.6" y1="174.3" x2="529.6" y2="174.3"/>
<text class="value" x="522.6" y="150.1" text-anchor="middle">0.49</text>
<text class="label" x="515.0" y="478" text-anchor="middle">Adaptive QL</text>
<rect x="552.8" y="261.8" width="15.1" height="43.3" fill="#34d399" rx="8"/>
<line class="err" x1="560.3" y1="262.7" x2="560.3" y2="347.6"/>
<line class="err" x1="553.3" y1="262.7" x2="567.3" y2="262.7"/>
<line class="err" x1="553.3" y1="347.6" x2="567.3" y2="347.6"/>
<text class="value" x="560.3" y="365.6" text-anchor="middle">-0.23</text>
<rect x="571.7" y="165.6" width="15.1" height="96.3" fill="#f59e0b" rx="8"/>
<line class="err" x1="579.2" y1="161.7" x2="579.2" y2="169.5"/>
<line class="err" x1="572.2" y1="161.7" x2="586.2" y2="161.7"/>
<line class="err" x1="572.2" y1="169.5" x2="586.2" y2="169.5"/>
<text class="value" x="579.2" y="151.7" text-anchor="middle">0.50</text>
<text class="label" x="571.7" y="478" text-anchor="middle">BurstAware</text>
<rect x="609.4" y="246.6" width="15.1" height="15.2" fill="#34d399" rx="8"/>
<line class="err" x1="617.0" y1="220.6" x2="617.0" y2="272.6"/>
<line class="err" x1="610.0" y1="220.6" x2="624.0" y2="220.6"/>
<line class="err" x1="610.0" y1="272.6" x2="624.0" y2="272.6"/>
<text class="value" x="617.0" y="210.6" text-anchor="middle">0.08</text>
<rect x="628.3" y="171.9" width="15.1" height="90.0" fill="#f59e0b" rx="8"/>
<line class="err" x1="635.9" y1="167.4" x2="635.9" y2="176.3"/>
<line class="err" x1="628.9" y1="167.4" x2="642.9" y2="167.4"/>
<line class="err" x1="628.9" y1="176.3" x2="642.9" y2="176.3"/>
<text class="value" x="635.9" y="157.4" text-anchor="middle">0.47</text>
<text class="label" x="628.3" y="478" text-anchor="middle">LinUCB</text>
<rect x="666.1" y="261.8" width="15.1" height="60.0" fill="#34d399" rx="8"/>
<line class="err" x1="673.7" y1="292.4" x2="673.7" y2="351.3"/>
<line class="err" x1="666.7" y1="292.4" x2="680.7" y2="292.4"/>
<line class="err" x1="666.7" y1="351.3" x2="680.7" y2="351.3"/>
<text class="value" x="673.7" y="369.3" text-anchor="middle">-0.31</text>
<rect x="685.0" y="167.4" width="15.1" height="94.5" fill="#f59e0b" rx="8"/>
<line class="err" x1="692.6" y1="162.8" x2="692.6" y2="172.0"/>
<line class="err" x1="685.6" y1="162.8" x2="699.6" y2="162.8"/>
<line class="err" x1="685.6" y1="172.0" x2="699.6" y2="172.0"/>
<text class="value" x="692.6" y="152.8" text-anchor="middle">0.49</text>
<text class="label" x="685.0" y="478" text-anchor="middle">TinyMLP</text>
<rect x="722.8" y="261.8" width="15.1" height="20.9" fill="#34d399" rx="8"/>
<line class="err" x1="730.3" y1="259.9" x2="730.3" y2="305.6"/>
<line class="err" x1="723.3" y1="259.9" x2="737.3" y2="259.9"/>
<line class="err" x1="723.3" y1="305.6" x2="737.3" y2="305.6"/>
<text class="value" x="730.3" y="323.6" text-anchor="middle">-0.11</text>
<rect x="741.7" y="166.3" width="15.1" height="95.5" fill="#f59e0b" rx="8"/>
<line class="err" x1="749.2" y1="161.8" x2="749.2" y2="170.9"/>
<line class="err" x1="742.2" y1="161.8" x2="756.2" y2="161.8"/>
<line class="err" x1="742.2" y1="170.9" x2="756.2" y2="170.9"/>
<text class="value" x="749.2" y="151.8" text-anchor="middle">0.50</text>
<text class="label" x="741.7" y="478" text-anchor="middle">OfflineCtx</text>
<rect x="779.4" y="247.6" width="15.1" height="14.2" fill="#34d399" rx="8"/>
<line class="err" x1="787.0" y1="215.2" x2="787.0" y2="280.0"/>
<line class="err" x1="780.0" y1="215.2" x2="794.0" y2="215.2"/>
<line class="err" x1="780.0" y1="280.0" x2="794.0" y2="280.0"/>
<text class="value" x="787.0" y="205.2" text-anchor="middle">0.07</text>
<rect x="798.3" y="171.0" width="15.1" height="90.9" fill="#f59e0b" rx="8"/>
<line class="err" x1="805.9" y1="168.0" x2="805.9" y2="173.9"/>
<line class="err" x1="798.9" y1="168.0" x2="812.9" y2="168.0"/>
<line class="err" x1="798.9" y1="173.9" x2="812.9" y2="173.9"/>
<text class="value" x="805.9" y="158.0" text-anchor="middle">0.47</text>
<text class="label" x="798.3" y="478" text-anchor="middle">FittedQ</text>
<rect x="836.1" y="249.2" width="15.1" height="12.7" fill="#34d399" rx="8"/>
<line class="err" x1="843.7" y1="216.9" x2="843.7" y2="281.4"/>
<line class="err" x1="836.7" y1="216.9" x2="850.7" y2="216.9"/>
<line class="err" x1="836.7" y1="281.4" x2="850.7" y2="281.4"/>
<text class="value" x="843.7" y="206.9" text-anchor="middle">0.07</text>
<rect x="855.0" y="171.4" width="15.1" height="90.4" fill="#f59e0b" rx="8"/>
<line class="err" x1="862.6" y1="168.2" x2="862.6" y2="174.7"/>
<line class="err" x1="855.6" y1="168.2" x2="869.6" y2="168.2"/>
<line class="err" x1="855.6" y1="174.7" x2="869.6" y2="174.7"/>
<text class="value" x="862.6" y="158.2" text-anchor="middle">0.47</text>
<text class="label" x="855.0" y="478" text-anchor="middle">OnlineDQN</text>
<rect x="892.8" y="261.8" width="15.1" height="28.7" fill="#34d399" rx="8"/>
<line class="err" x1="900.3" y1="254.0" x2="900.3" y2="327.1"/>
<line class="err" x1="893.3" y1="254.0" x2="907.3" y2="254.0"/>
<line class="err" x1="893.3" y1="327.1" x2="907.3" y2="327.1"/>
<text class="value" x="900.3" y="345.1" text-anchor="middle">-0.15</text>
<rect x="911.7" y="166.0" width="15.1" height="95.8" fill="#f59e0b" rx="8"/>
<line class="err" x1="919.2" y1="161.5" x2="919.2" y2="170.5"/>
<line class="err" x1="912.2" y1="161.5" x2="926.2" y2="161.5"/>
<line class="err" x1="912.2" y1="170.5" x2="926.2" y2="170.5"/>
<text class="value" x="919.2" y="151.5" text-anchor="middle">0.50</text>
<text class="label" x="911.7" y="478" text-anchor="middle">Stress</text>
<rect x="730" y="22" width="14" height="14" fill="#34d399" rx="3"/>
<text class="legend" x="752" y="34">Retail Surplus / unit</text>
<rect x="730" y="44" width="14" height="14" fill="#f59e0b" rx="3"/>
<text class="legend" x="752" y="56">Retail Adverse Rate</text>
</svg>
