<svg xmlns="http://www.w3.org/2000/svg" width="980" height="540" viewBox="0 0 980 540" role="img">
<style>.title{font:700 20px Arial; fill:#f3f7ff;}.label{font:12px Arial; fill:#cbd8f0;}.value{font:11px Arial; fill:#eef5ff;}.axis{stroke:#4d6387; stroke-width:1;}.grid{stroke:#20324d; stroke-width:1; opacity:.8;}.legend{font:12px Arial; fill:#d7e7ff;}.bg{fill:#071423;}.err{stroke:#dbeafe; stroke-width:1.5;}</style>
<rect class="bg" x="0" y="0" width="980" height="540" rx="18"/>
<text class="title" x="90" y="38">Welfare and Behavior Metrics (95% CI)</text>
<text class="label" x="90" y="520">Per-unit welfare and adverse-selection rate</text>
<line class="grid" x1="90" y1="70.0" x2="940" y2="70.0"/>
<text class="label" x="12" y="74.0">1.0</text>
<line class="grid" x1="90" y1="146.0" x2="940" y2="146.0"/>
<text class="label" x="12" y="150.0">0.6</text>
<line class="grid" x1="90" y1="222.0" x2="940" y2="222.0"/>
<text class="label" x="12" y="226.0">0.2</text>
<line class="grid" x1="90" y1="298.0" x2="940" y2="298.0"/>
<text class="label" x="12" y="302.0">-0.2</text>
<line class="grid" x1="90" y1="374.0" x2="940" y2="374.0"/>
<text class="label" x="12" y="378.0">-0.6</text>
<line class="grid" x1="90" y1="450.0" x2="940" y2="450.0"/>
<text class="label" x="12" y="454.0">-1.0</text>
<line class="axis" x1="90" y1="70" x2="90" y2="450"/>
<line class="axis" x1="90" y1="264.5" x2="940" y2="264.5"/>
<rect x="99.4" y="264.5" width="15.1" height="71.4" fill="#34d399" rx="8"/>
<line class="err" x1="107.0" y1="313.0" x2="107.0" y2="358.8"/>
<line class="err" x1="100.0" y1="313.0" x2="114.0" y2="313.0"/>
<line class="err" x1="100.0" y1="358.8" x2="114.0" y2="358.8"/>
<text class="value" x="107.0" y="376.8" text-anchor="middle">-0.37</text>
<rect x="118.3" y="164.4" width="15.1" height="100.1" fill="#f59e0b" rx="8"/>
<line class="err" x1="125.9" y1="161.3" x2="125.9" y2="167.5"/>
<line class="err" x1="118.9" y1="161.3" x2="132.9" y2="161.3"/>
<line class="err" x1="118.9" y1="167.5" x2="132.9" y2="167.5"/>
<text class="value" x="125.9" y="151.3" text-anchor="middle">0.51</text>
<text class="label" x="118.3" y="478" text-anchor="middle">Immediate</text>
<rect x="156.1" y="264.5" width="15.1" height="125.2" fill="#34d399" rx="8"/>
<line class="err" x1="163.7" y1="349.3" x2="163.7" y2="430.1"/>
<line class="err" x1="156.7" y1="349.3" x2="170.7" y2="349.3"/>
<line class="err" x1="156.7" y1="430.1" x2="170.7" y2="430.1"/>
<text class="value" x="163.7" y="442.0" text-anchor="middle">-0.64</text>
<rect x="175.0" y="163.9" width="15.1" height="100.7" fill="#f59e0b" rx="8"/>
<line class="err" x1="182.6" y1="161.6" x2="182.6" y2="166.1"/>
<line class="err" x1="175.6" y1="161.6" x2="189.6" y2="161.6"/>
<line class="err" x1="175.6" y1="166.1" x2="189.6" y2="166.1"/>
<text class="value" x="182.6" y="151.6" text-anchor="middle">0.52</text>
<text class="label" x="175.0" y="478" text-anchor="middle">SpeedBump 50</text>
<rect x="212.8" y="264.2" width="15.1" height="0.3" fill="#34d399" rx="8"/>
<line class="err" x1="220.3" y1="224.3" x2="220.3" y2="304.0"/>
<line class="err" x1="213.3" y1="224.3" x2="227.3" y2="224.3"/>
<line class="err" x1="213.3" y1="304.0" x2="227.3" y2="304.0"/>
<text class="value" x="220.3" y="214.3" text-anchor="middle">0.00</text>
<rect x="231.7" y="167.4" width="15.1" height="97.1" fill="#f59e0b" rx="8"/>
<line class="err" x1="239.2" y1="163.6" x2="239.2" y2="171.2"/>
<line class="err" x1="232.2" y1="163.6" x2="246.2" y2="163.6"/>
<line class="err" x1="232.2" y1="171.2" x2="246.2" y2="171.2"/>
<text class="value" x="239.2" y="153.6" text-anchor="middle">0.50</text>
<text class="label" x="231.7" y="478" text-anchor="middle">FBA-100</text>
<rect x="269.4" y="264.5" width="15.1" height="57.3" fill="#34d399" rx="8"/>
<line class="err" x1="277.0" y1="290.8" x2="277.0" y2="352.9"/>
<line class="err" x1="270.0" y1="290.8" x2="284.0" y2="290.8"/>
<line class="err" x1="270.0" y1="352.9" x2="284.0" y2="352.9"/>
<text class="value" x="277.0" y="370.9" text-anchor="middle">-0.29</text>
<rect x="288.3" y="167.6" width="15.1" height="97.0" fill="#f59e0b" rx="8"/>
<line class="err" x1="295.9" y1="162.5" x2="295.9" y2="172.6"/>
<line class="err" x1="288.9" y1="162.5" x2="302.9" y2="162.5"/>
<line class="err" x1="288.9" y1="172.6" x2="302.9" y2="172.6"/>
<text class="value" x="295.9" y="152.5" text-anchor="middle">0.50</text>
<text class="label" x="288.3" y="478" text-anchor="middle">FBA-250</text>
<rect x="326.1" y="264.5" width="15.1" height="29.9" fill="#34d399" rx="8"/>
<line class="err" x1="333.7" y1="255.3" x2="333.7" y2="333.5"/>
<line class="err" x1="326.7" y1="255.3" x2="340.7" y2="255.3"/>
<line class="err" x1="326.7" y1="333.5" x2="340.7" y2="333.5"/>
<text class="value" x="333.7" y="351.5" text-anchor="middle">-0.15</text>
<rect x="345.0" y="171.8" width="15.1" height="92.7" fill="#f59e0b" rx="8"/>
<line class="err" x1="352.6" y1="163.0" x2="352.6" y2="180.6"/>
<line class="err" x1="345.6" y1="163.0" x2="359.6" y2="163.0"/>
<line class="err" x1="345.6" y1="180.6" x2="359.6" y2="180.6"/>
<text class="value" x="352.6" y="153.0" text-anchor="middle">0.48</text>
<text class="label" x="345.0" y="478" text-anchor="middle">FBA-500</text>
<rect x="382.8" y="264.5" width="15.1" height="13.4" fill="#34d399" rx="8"/>
<line class="err" x1="390.3" y1="239.4" x2="390.3" y2="316.5"/>
<line class="err" x1="383.3" y1="239.4" x2="397.3" y2="239.4"/>
<line class="err" x1="383.3" y1="316.5" x2="397.3" y2="316.5"/>
<text class="value" x="390.3" y="334.5" text-anchor="middle">-0.07</text>
<rect x="401.7" y="178.0" width="15.1" height="86.5" fill="#f59e0b" rx="8"/>
<line class="err" x1="409.2" y1="167.0" x2="409.2" y2="189.0"/>
<line class="err" x1="402.2" y1="167.0" x2="416.2" y2="167.0"/>
<line class="err" x1="402.2" y1="189.0" x2="416.2" y2="189.0"/>
<text class="value" x="409.2" y="157.0" text-anchor="middle">0.44</text>
<text class="label" x="401.7" y="478" text-anchor="middle">Adaptive B</text>
<rect x="439.4" y="264.5" width="15.1" height="66.1" fill="#34d399" rx="8"/>
<line class="err" x1="447.0" y1="300.3" x2="447.0" y2="361.0"/>
<line class="err" x1="440.0" y1="300.3" x2="454.0" y2="300.3"/>
<line class="err" x1="440.0" y1="361.0" x2="454.0" y2="361.0"/>
<text class="value" x="447.0" y="379.0" text-anchor="middle">-0.34</text>
<rect x="458.3" y="162.7" width="15.1" height="101.8" fill="#f59e0b" rx="8"/>
<line class="err" x1="465.9" y1="157.4" x2="465.9" y2="168.1"/>
<line class="err" x1="458.9" y1="157.4" x2="472.9" y2="157.4"/>
<line class="err" x1="458.9" y1="168.1" x2="472.9" y2="168.1"/>
<text class="value" x="465.9" y="147.4" text-anchor="middle">0.52</text>
<text class="label" x="458.3" y="478" text-anchor="middle">Adaptive OF</text>
<rect x="496.1" y="264.5" width="15.1" height="76.0" fill="#34d399" rx="8"/>
<line class="err" x1="503.7" y1="307.2" x2="503.7" y2="373.8"/>
<line class="err" x1="496.7" y1="307.2" x2="510.7" y2="307.2"/>
<line class="err" x1="496.7" y1="373.8" x2="510.7" y2="373.8"/>
<text class="value" x="503.7" y="391.8" text-anchor="middle">-0.39</text>
<rect x="515.0" y="170.8" width="15.1" height="93.7" fill="#f59e0b" rx="8"/>
<line class="err" x1="522.6" y1="162.3" x2="522.6" y2="179.3"/>
<line class="err" x1="515.6" y1="162.3" x2="529.6" y2="162.3"/>
<line class="err" x1="515.6" y1="179.3" x2="529.6" y2="179.3"/>
<text class="value" x="522.6" y="152.3" text-anchor="middle">0.48</text>
<text class="label" x="515.0" y="478" text-anchor="middle">Adaptive QL</text>
<rect x="552.8" y="264.5" width="15.1" height="27.3" fill="#34d399" rx="8"/>
<line class="err" x1="560.3" y1="262.7" x2="560.3" y2="320.8"/>
<line class="err" x1="553.3" y1="262.7" x2="567.3" y2="262.7"/>
<line class="err" x1="553.3" y1="320.8" x2="567.3" y2="320.8"/>
<text class="value" x="560.3" y="338.8" text-anchor="middle">-0.14</text>
<rect x="571.7" y="168.9" width="15.1" height="95.6" fill="#f59e0b" rx="8"/>
<line class="err" x1="579.2" y1="161.8" x2="579.2" y2="176.1"/>
<line class="err" x1="572.2" y1="161.8" x2="586.2" y2="161.8"/>
<line class="err" x1="572.2" y1="176.1" x2="586.2" y2="176.1"/>
<text class="value" x="579.2" y="151.8" text-anchor="middle">0.49</text>
<text class="label" x="571.7" y="478" text-anchor="middle">BurstAware</text>
<rect x="609.4" y="253.9" width="15.1" height="10.7" fill="#34d399" rx="8"/>
<line class="err" x1="617.0" y1="201.4" x2="617.0" y2="306.4"/>
<line class="err" x1="610.0" y1="201.4" x2="624.0" y2="201.4"/>
<line class="err" x1="610.0" y1="306.4" x2="624.0" y2="306.4"/>
<text class="value" x="617.0" y="191.4" text-anchor="middle">0.05</text>
<rect x="628.3" y="170.4" width="15.1" height="94.1" fill="#f59e0b" rx="8"/>
<line class="err" x1="635.9" y1="166.5" x2="635.9" y2="174.3"/>
<line class="err" x1="628.9" y1="166.5" x2="642.9" y2="166.5"/>
<line class="err" x1="628.9" y1="174.3" x2="642.9" y2="174.3"/>
<text class="value" x="635.9" y="156.5" text-anchor="middle">0.48</text>
<text class="label" x="628.3" y="478" text-anchor="middle">LinUCB</text>
<rect x="666.1" y="264.5" width="15.1" height="116.7" fill="#34d399" rx="8"/>
<line class="err" x1="673.7" y1="340.5" x2="673.7" y2="421.9"/>
<line class="err" x1="666.7" y1="340.5" x2="680.7" y2="340.5"/>
<line class="err" x1="666.7" y1="421.9" x2="680.7" y2="421.9"/>
<text class="value" x="673.7" y="439.9" text-anchor="middle">-0.60</text>
<rect x="685.0" y="160.8" width="15.1" height="103.7" fill="#f59e0b" rx="8"/>
<line class="err" x1="692.6" y1="159.0" x2="692.6" y2="162.7"/>
<line class="err" x1="685.6" y1="159.0" x2="699.6" y2="159.0"/>
<line class="err" x1="685.6" y1="162.7" x2="699.6" y2="162.7"/>
<text class="value" x="692.6" y="149.0" text-anchor="middle">0.53</text>
<text class="label" x="685.0" y="478" text-anchor="middle">TinyMLP</text>
<rect x="722.8" y="245.8" width="15.1" height="18.7" fill="#34d399" rx="8"/>
<line class="err" x1="730.3" y1="211.6" x2="730.3" y2="280.0"/>
<line class="err" x1="723.3" y1="211.6" x2="737.3" y2="211.6"/>
<line class="err" x1="723.3" y1="280.0" x2="737.3" y2="280.0"/>
<text class="value" x="730.3" y="201.6" text-anchor="middle">0.10</text>
<rect x="741.7" y="177.2" width="15.1" height="87.3" fill="#f59e0b" rx="8"/>
<line class="err" x1="749.2" y1="167.8" x2="749.2" y2="186.6"/>
<line class="err" x1="742.2" y1="167.8" x2="756.2" y2="167.8"/>
<line class="err" x1="742.2" y1="186.6" x2="756.2" y2="186.6"/>
<text class="value" x="749.2" y="157.8" text-anchor="middle">0.45</text>
<text class="label" x="741.7" y="478" text-anchor="middle">OfflineCtx</text>
<rect x="779.4" y="263.1" width="15.1" height="1.4" fill="#34d399" rx="8"/>
<line class="err" x1="787.0" y1="216.9" x2="787.0" y2="309.2"/>
<line class="err" x1="780.0" y1="216.9" x2="794.0" y2="216.9"/>
<line class="err" x1="780.0" y1="309.2" x2="794.0" y2="309.2"/>
<text class="value" x="787.0" y="206.9" text-anchor="middle">0.01</text>
<rect x="798.3" y="172.5" width="15.1" height="92.0" fill="#f59e0b" rx="8"/>
<line class="err" x1="805.9" y1="165.7" x2="805.9" y2="179.3"/>
<line class="err" x1="798.9" y1="165.7" x2="812.9" y2="165.7"/>
<line class="err" x1="798.9" y1="179.3" x2="812.9" y2="179.3"/>
<text class="value" x="805.9" y="155.7" text-anchor="middle">0.47</text>
<text class="label" x="798.3" y="478" text-anchor="middle">FittedQ</text>
<rect x="836.1" y="261.0" width="15.1" height="3.5" fill="#34d399" rx="8"/>
<line class="err" x1="843.7" y1="214.1" x2="843.7" y2="307.9"/>
<line class="err" x1="836.7" y1="214.1" x2="850.7" y2="214.1"/>
<line class="err" x1="836.7" y1="307.9" x2="850.7" y2="307.9"/>
<text class="value" x="843.7" y="204.1" text-anchor="middle">0.02</text>
<rect x="855.0" y="170.6" width="15.1" height="93.9" fill="#f59e0b" rx="8"/>
<line class="err" x1="862.6" y1="166.5" x2="862.6" y2="174.8"/>
<line class="err" x1="855.6" y1="166.5" x2="869.6" y2="166.5"/>
<line class="err" x1="855.6" y1="174.8" x2="869.6" y2="174.8"/>
<text class="value" x="862.6" y="156.5" text-anchor="middle">0.48</text>
<text class="label" x="855.0" y="478" text-anchor="middle">OnlineDQN</text>
<rect x="892.8" y="264.5" width="15.1" height="28.5" fill="#34d399" rx="8"/>
<line class="err" x1="900.3" y1="256.5" x2="900.3" y2="329.5"/>
<line class="err" x1="893.3" y1="256.5" x2="907.3" y2="256.5"/>
<line class="err" x1="893.3" y1="329.5" x2="907.3" y2="329.5"/>
<text class="value" x="900.3" y="347.5" text-anchor="middle">-0.15</text>
<rect x="911.7" y="167.9" width="15.1" height="96.7" fill="#f59e0b" rx="8"/>
<line class="err" x1="919.2" y1="162.7" x2="919.2" y2="173.0"/>
<line class="err" x1="912.2" y1="162.7" x2="926.2" y2="162.7"/>
<line class="err" x1="912.2" y1="173.0" x2="926.2" y2="173.0"/>
<text class="value" x="919.2" y="152.7" text-anchor="middle">0.50</text>
<text class="label" x="911.7" y="478" text-anchor="middle">Stress</text>
<rect x="730" y="22" width="14" height="14" fill="#34d399" rx="3"/>
<text class="legend" x="752" y="34">Retail Surplus / unit</text>
<rect x="730" y="44" width="14" height="14" fill="#f59e0b" rx="3"/>
<text class="legend" x="752" y="56">Retail Adverse Rate</text>
</svg>
