<svg xmlns="http://www.w3.org/2000/svg" width="980" height="540" viewBox="0 0 980 540" role="img">
<style>.title{font:700 20px Arial; fill:#f3f7ff;}.label{font:12px Arial; fill:#cbd8f0;}.value{font:11px Arial; fill:#eef5ff;}.axis{stroke:#4d6387; stroke-width:1;}.grid{stroke:#20324d; stroke-width:1; opacity:.8;}.legend{font:12px Arial; fill:#d7e7ff;}.bg{fill:#071423;}.err{stroke:#dbeafe; stroke-width:1.5;}</style>
<rect class="bg" x="0" y="0" width="980" height="540" rx="18"/>
<text class="title" x="90" y="38">Fitted-Q Held-Out Learning Curve</text>
<text class="label" x="90" y="520">Held-out welfare gap</text>
<line class="grid" x1="90" y1="70.0" x2="940" y2="70.0"/>
<text class="label" x="12" y="74.0">4</text>
<line class="grid" x1="90" y1="146.0" x2="940" y2="146.0"/>
<text class="label" x="12" y="150.0">3</text>
<line class="grid" x1="90" y1="222.0" x2="940" y2="222.0"/>
<text class="label" x="12" y="226.0">3</text>
<line class="grid" x1="90" y1="298.0" x2="940" y2="298.0"/>
<text class="label" x="12" y="302.0">2</text>
<line class="grid" x1="90" y1="374.0" x2="940" y2="374.0"/>
<text class="label" x="12" y="378.0">1</text>
<line class="grid" x1="90" y1="450.0" x2="940" y2="450.0"/>
<text class="label" x="12" y="454.0">0</text>
<line class="axis" x1="90" y1="70" x2="90" y2="450"/>
<line class="axis" x1="90" y1="450" x2="940" y2="450"/>
<text class="label" x="90.0" y="478" text-anchor="middle">Iter 0</text>
<text class="label" x="196.2" y="478" text-anchor="middle">Iter 1</text>
<text class="label" x="302.5" y="478" text-anchor="middle">Iter 2</text>
<text class="label" x="408.8" y="478" text-anchor="middle">Iter 3</text>
<text class="label" x="515.0" y="478" text-anchor="middle">Iter 4</text>
<text class="label" x="621.2" y="478" text-anchor="middle">Iter 5</text>
<text class="label" x="727.5" y="478" text-anchor="middle">Iter 6</text>
<text class="label" x="833.8" y="478" text-anchor="middle">Iter 7</text>
<text class="label" x="940.0" y="478" text-anchor="middle">Iter 8</text>
<polyline fill="none" stroke="#f472b6" stroke-width="4" points="90.0,166.4 196.2,224.0 302.5,225.7 408.8,225.0 515.0,225.0 621.2,224.4 727.5,223.9 833.8,224.0 940.0,226.5"/>
<line class="err" x1="90.0" y1="110.7" x2="90.0" y2="222.0"/>
<line class="err" x1="83.0" y1="110.7" x2="97.0" y2="110.7"/>
<line class="err" x1="83.0" y1="222.0" x2="97.0" y2="222.0"/>
<circle cx="90.0" cy="166.4" r="5" fill="#f472b6"/>
<text class="value" x="90.0" y="100.7" text-anchor="middle">3.3</text>
<line class="err" x1="196.2" y1="177.3" x2="196.2" y2="270.6"/>
<line class="err" x1="189.2" y1="177.3" x2="203.2" y2="177.3"/>
<line class="err" x1="189.2" y1="270.6" x2="203.2" y2="270.6"/>
<circle cx="196.2" cy="224.0" r="5" fill="#f472b6"/>
<text class="value" x="196.2" y="167.3" text-anchor="middle">2.6</text>
<line class="err" x1="302.5" y1="179.5" x2="302.5" y2="271.8"/>
<line class="err" x1="295.5" y1="179.5" x2="309.5" y2="179.5"/>
<line class="err" x1="295.5" y1="271.8" x2="309.5" y2="271.8"/>
<circle cx="302.5" cy="225.7" r="5" fill="#f472b6"/>
<text class="value" x="302.5" y="169.5" text-anchor="middle">2.6</text>
<line class="err" x1="408.8" y1="178.4" x2="408.8" y2="271.6"/>
<line class="err" x1="401.8" y1="178.4" x2="415.8" y2="178.4"/>
<line class="err" x1="401.8" y1="271.6" x2="415.8" y2="271.6"/>
<circle cx="408.8" cy="225.0" r="5" fill="#f472b6"/>
<text class="value" x="408.8" y="168.4" text-anchor="middle">2.6</text>
<line class="err" x1="515.0" y1="178.4" x2="515.0" y2="271.6"/>
<line class="err" x1="508.0" y1="178.4" x2="522.0" y2="178.4"/>
<line class="err" x1="508.0" y1="271.6" x2="522.0" y2="271.6"/>
<circle cx="515.0" cy="225.0" r="5" fill="#f472b6"/>
<text class="value" x="515.0" y="168.4" text-anchor="middle">2.6</text>
<line class="err" x1="621.2" y1="178.1" x2="621.2" y2="270.7"/>
<line class="err" x1="614.2" y1="178.1" x2="628.2" y2="178.1"/>
<line class="err" x1="614.2" y1="270.7" x2="628.2" y2="270.7"/>
<circle cx="621.2" cy="224.4" r="5" fill="#f472b6"/>
<text class="value" x="621.2" y="168.1" text-anchor="middle">2.6</text>
<line class="err" x1="727.5" y1="177.2" x2="727.5" y2="270.5"/>
<line class="err" x1="720.5" y1="177.2" x2="734.5" y2="177.2"/>
<line class="err" x1="720.5" y1="270.5" x2="734.5" y2="270.5"/>
<circle cx="727.5" cy="223.9" r="5" fill="#f472b6"/>
<text class="value" x="727.5" y="167.2" text-anchor="middle">2.6</text>
<line class="err" x1="833.8" y1="177.3" x2="833.8" y2="270.6"/>
<line class="err" x1="826.8" y1="177.3" x2="840.8" y2="177.3"/>
<line class="err" x1="826.8" y1="270.6" x2="840.8" y2="270.6"/>
<circle cx="833.8" cy="224.0" r="5" fill="#f472b6"/>
<text class="value" x="833.8" y="167.3" text-anchor="middle">2.6</text>
<line class="err" x1="940.0" y1="178.3" x2="940.0" y2="274.7"/>
<line class="err" x1="933.0" y1="178.3" x2="947.0" y2="178.3"/>
<line class="err" x1="933.0" y1="274.7" x2="947.0" y2="274.7"/>
<circle cx="940.0" cy="226.5" r="5" fill="#f472b6"/>
<text class="value" x="940.0" y="168.3" text-anchor="middle">2.6</text>
<line x1="730" y1="28" x2="746" y2="28" stroke="#f472b6" stroke-width="4"/>
<text class="legend" x="754" y="34">Held-out Welfare Gap</text>
</svg>
