<svg xmlns="http://www.w3.org/2000/svg" width="920" height="560" viewBox="0 0 920 560" role="img">
<style>.title{font:700 20px Arial; fill:#f3f7ff;}.label{font:12px Arial; fill:#cbd8f0;}.value{font:11px Arial; fill:#eef5ff;}.axis{stroke:#4d6387; stroke-width:1;}.grid{stroke:#20324d; stroke-width:1; opacity:.8;}.legend{font:12px Arial; fill:#d7e7ff;}.bg{fill:#071423;}.err{stroke:#dbeafe; stroke-width:1.5;}</style>
<rect class="bg" x="0" y="0" width="920" height="560" rx="18"/>
<text class="title" x="90" y="38">Controller Pareto Frontier</text>
<text class="label" x="90" y="540">p99 latency (ms)</text>
<text class="label" x="10" y="52">surplus transfer gap</text>
<line class="grid" x1="90.0" y1="70" x2="90.0" y2="470"/>
<line class="grid" x1="90" y1="70.0" x2="880" y2="70.0"/>
<text class="label" x="90.0" y="498" text-anchor="middle">10</text>
<text class="label" x="14" y="74.0">4.00</text>
<line class="grid" x1="248.0" y1="70" x2="248.0" y2="470"/>
<line class="grid" x1="90" y1="150.0" x2="880" y2="150.0"/>
<text class="label" x="248.0" y="498" text-anchor="middle">148</text>
<text class="label" x="14" y="154.0">3.20</text>
<line class="grid" x1="406.0" y1="70" x2="406.0" y2="470"/>
<line class="grid" x1="90" y1="230.0" x2="880" y2="230.0"/>
<text class="label" x="406.0" y="498" text-anchor="middle">286</text>
<text class="label" x="14" y="234.0">2.39</text>
<line class="grid" x1="564.0" y1="70" x2="564.0" y2="470"/>
<line class="grid" x1="90" y1="310.0" x2="880" y2="310.0"/>
<text class="label" x="564.0" y="498" text-anchor="middle">423</text>
<text class="label" x="14" y="314.0">1.58</text>
<line class="grid" x1="722.0" y1="70" x2="722.0" y2="470"/>
<line class="grid" x1="90" y1="390.0" x2="880" y2="390.0"/>
<text class="label" x="722.0" y="498" text-anchor="middle">561</text>
<text class="label" x="14" y="394.0">0.77</text>
<line class="grid" x1="880.0" y1="70" x2="880.0" y2="470"/>
<line class="grid" x1="90" y1="470.0" x2="880" y2="470.0"/>
<text class="label" x="880.0" y="498" text-anchor="middle">699</text>
<text class="label" x="14" y="474.0">-0.03</text>
<line class="axis" x1="90" y1="70" x2="90" y2="470"/>
<line class="axis" x1="90" y1="470" x2="880" y2="470"/>
<polyline fill="none" stroke="#fef08a" stroke-width="3" points="90.0,268.2 404.0,414.0 502.9,429.4 571.7,470.0"/>
<circle cx="90.0" cy="268.2" r="8" fill="#38bdf8" stroke="#e2e8f0" stroke-width="1.5"/>
<text class="value" x="100.0" y="260.2">Immediate</text>
<circle cx="147.4" cy="70.0" r="6" fill="#38bdf8" stroke="#e2e8f0" stroke-width="1.5"/>
<text class="value" x="157.4" y="62.0">SB 50ms</text>
<circle cx="234.8" cy="249.7" r="6" fill="#f59e0b" stroke="#e2e8f0" stroke-width="1.5"/>
<text class="value" x="244.8" y="241.7">FBA 100ms</text>
<circle cx="240.5" cy="239.5" r="6" fill="#f472b6" stroke="#e2e8f0" stroke-width="1.5"/>
<text class="value" x="250.5" y="231.5">LinUCB</text>
<circle cx="240.5" cy="239.1" r="6" fill="#f472b6" stroke="#e2e8f0" stroke-width="1.5"/>
<text class="value" x="250.5" y="231.1">OnlineDQN</text>
<circle cx="257.7" cy="249.6" r="6" fill="#f472b6" stroke="#e2e8f0" stroke-width="1.5"/>
<text class="value" x="267.7" y="241.6">FittedQ</text>
<circle cx="404.0" cy="414.0" r="8" fill="#f472b6" stroke="#e2e8f0" stroke-width="1.5"/>
<text class="value" x="414.0" y="406.0">OfflineContextual</text>
<circle cx="435.5" cy="166.9" r="6" fill="#f472b6" stroke="#e2e8f0" stroke-width="1.5"/>
<text class="value" x="445.5" y="158.9">TinyMLP</text>
<circle cx="481.4" cy="374.5" r="6" fill="#34d399" stroke="#e2e8f0" stroke-width="1.5"/>
<text class="value" x="491.4" y="366.5">Adaptive QueueLoad</text>
<circle cx="502.9" cy="429.4" r="8" fill="#f59e0b" stroke="#e2e8f0" stroke-width="1.5"/>
<text class="value" x="512.9" y="421.4">FBA 250ms-Stress</text>
<circle cx="528.7" cy="398.5" r="6" fill="#f472b6" stroke="#e2e8f0" stroke-width="1.5"/>
<text class="value" x="538.7" y="390.5">Policy-BurstAware</text>
<circle cx="534.5" cy="384.0" r="6" fill="#f59e0b" stroke="#e2e8f0" stroke-width="1.5"/>
<text class="value" x="544.5" y="376.0">FBA 250ms</text>
<circle cx="553.1" cy="397.0" r="6" fill="#34d399" stroke="#e2e8f0" stroke-width="1.5"/>
<text class="value" x="563.1" y="389.0">Adaptive OrderFlow</text>
<circle cx="571.7" cy="470.0" r="8" fill="#34d399" stroke="#e2e8f0" stroke-width="1.5"/>
<text class="value" x="581.7" y="462.0">Adaptive</text>
<circle cx="880.0" cy="299.5" r="6" fill="#f59e0b" stroke="#e2e8f0" stroke-width="1.5"/>
<text class="value" x="890.0" y="291.5">FBA 500ms</text>
<rect x="690" y="22" width="14" height="14" fill="#38bdf8" rx="3"/>
<text class="legend" x="712" y="34">mechanism</text>
<rect x="690" y="44" width="14" height="14" fill="#f59e0b" rx="3"/>
<text class="legend" x="712" y="56">batch</text>
<rect x="690" y="66" width="14" height="14" fill="#34d399" rx="3"/>
<text class="legend" x="712" y="78">adaptive</text>
<rect x="690" y="88" width="14" height="14" fill="#f472b6" rx="3"/>
<text class="legend" x="712" y="100">controller</text>
<rect x="690" y="110" width="14" height="14" fill="#a78bfa" rx="3"/>
<text class="legend" x="712" y="122">other</text>
<line x1="690" y1="144" x2="706" y2="144" stroke="#fef08a" stroke-width="3"/>
<text class="legend" x="712" y="150">frontier</text>
</svg>
